<?xml version="1.0" encoding="UTF-8" standalone="no"?>
<svg width="45px" height="39px" viewBox="0 0 45 39" version="1.1" xmlns="http://www.w3.org/2000/svg" xmlns:xlink="http://www.w3.org/1999/xlink">
    <!-- Generator: sketchtool 39.1 (31720) - http://www.bohemiancoding.com/sketch -->
    <title>31FD4F04-866D-46F5-819B-7EE8159DE3EB</title>
    <desc>Created with sketchtool.</desc>
    <defs></defs>
    <g id="Website" stroke="none" stroke-width="1" fill="none" fill-rule="evenodd">
        <g id="Medicrea-Case-Study" transform="translate(-676.000000, -6537.000000)" fill="#9D9D9C">
            <g id="Branding-Phase" transform="translate(198.000000, 5464.000000)">
                <g id="Group-4" transform="translate(0.000000, 315.000000)">
                    <g id="Iconography" transform="translate(478.000000, 723.000000)">
                        <g id="Icons" transform="translate(0.000000, 34.000000)">
                            <path d="M1,36 L43,36 L43,40 L1,40 L1,36 Z M44.8891194,14.7619433 C44.4231424,12.9481781 42.5814237,11.859919 40.8062732,12.3587045 L29.0237114,15.5781377 L13.713038,1 L9.43048728,2.1562753 L18.6168914,18.4121457 L7.58876858,21.4275304 L3.21746036,17.9360324 L0,18.8202429 L4.03846749,25.9846154 L5.74704989,29 L9.29735099,28.0251012 L21.0799127,24.805668 L30.7322938,22.1757085 L42.5148556,18.9562753 C44.3121955,18.4348178 45.3550965,16.5757085 44.8891194,14.7619433 L44.8891194,14.7619433 Z" id="Airplane"></path>
                        </g>
                    </g>
                </g>
            </g>
        </g>
    </g>
</svg>