<?xml version="1.0" encoding="UTF-8" standalone="no"?>
<svg width="40px" height="40px" viewBox="0 0 40 40" version="1.1" xmlns="http://www.w3.org/2000/svg" xmlns:xlink="http://www.w3.org/1999/xlink">
    <!-- Generator: sketchtool 39.1 (31720) - http://www.bohemiancoding.com/sketch -->
    <title>45E89D86-D8DC-46A7-8A88-325BEFD21341</title>
    <desc>Created with sketchtool.</desc>
    <defs></defs>
    <g id="Website" stroke="none" stroke-width="1" fill="none" fill-rule="evenodd">
        <g id="Medicrea-Case-Study" transform="translate(-771.000000, -6536.000000)" fill="#9D9D9C">
            <g id="Branding-Phase" transform="translate(198.000000, 5464.000000)">
                <g id="Group-4" transform="translate(0.000000, 315.000000)">
                    <g id="Iconography" transform="translate(478.000000, 723.000000)">
                        <g id="Icons" transform="translate(0.000000, 34.000000)">
                            <path d="M135,7.87755102 L125.628183,0 L123,3.12244898 L132.371817,11 L135,7.87755102 L135,7.87755102 Z M107,3.12825279 L104.387755,-1.85037171e-16 L95,7.87174721 L97.6326531,11 L107,3.12825279 L107,3.12825279 Z M116,12 L113,12 L113,24.2033898 L122.5,30 L124,27.4983051 L116,22.6779661 L116,12 L116,12 Z M115,4 C105.06,4 97,12.06 97,22 C97,31.94 105.04,40 115,40 C124.94,40 133,31.94 133,22 C133,12.06 124.94,4 115,4 L115,4 Z M115,36 C107.26,36 101,29.74 101,22 C101,14.26 107.26,8 115,8 C122.74,8 129,14.26 129,22 C129,29.74 122.74,36 115,36 L115,36 Z" id="Alarm-Icon"></path>
                        </g>
                    </g>
                </g>
            </g>
        </g>
    </g>
</svg>