<?xml version="1.0" encoding="UTF-8" standalone="no"?>
<svg width="39px" height="31px" viewBox="0 0 39 31" version="1.1" xmlns="http://www.w3.org/2000/svg" xmlns:xlink="http://www.w3.org/1999/xlink">
    <!-- Generator: sketchtool 39.1 (31720) - http://www.bohemiancoding.com/sketch -->
    <title>03B4DC47-D674-47AB-9FFA-37EE820ADB54</title>
    <desc>Created with sketchtool.</desc>
    <defs></defs>
    <g id="Website" stroke="none" stroke-width="1" fill="none" fill-rule="evenodd">
        <g id="Medicrea-Case-Study" transform="translate(-949.000000, -6627.000000)">
            <g id="Branding-Phase" transform="translate(198.000000, 5464.000000)">
                <g id="Group-4" transform="translate(0.000000, 315.000000)">
                    <g id="Iconography" transform="translate(478.000000, 723.000000)">
                        <g id="Icons" transform="translate(0.000000, 34.000000)">
                            <g id="Don't-Show-icon" transform="translate(273.000000, 93.000000)">
                                <path d="M19.5,0 C10.6363636,0 3.06681818,5.598 0,13.5 C3.06681818,21.402 10.6363636,27 19.5,27 C28.3636364,27 35.9331818,21.402 39,13.5 C35.9331818,5.598 28.3636364,0 19.5,0 L19.5,0 Z M20,23 C15.032,23 11,18.968 11,14 C11,9.032 15.032,5 20,5 C24.968,5 29,9.032 29,14 C29,18.968 24.968,23 20,23 L20,23 Z M19.5,8 C16.4566667,8 14,10.4566667 14,13.5 C14,16.5433333 16.4566667,19 19.5,19 C22.5433333,19 25,16.5433333 25,13.5 C25,10.4566667 22.5433333,8 19.5,8 L19.5,8 Z" id="Shape" fill="#9D9D9C"></path>
                                <path d="M36.1052632,0.9 L3.89473684,26.1" id="Line" stroke="#FFFFFF" stroke-width="4" stroke-linecap="square"></path>
                                <path d="M36.1052632,0.9 L3.89473684,26.1" id="Line" stroke="#AAAAAA" stroke-width="2" stroke-linecap="square"></path>
                            </g>
                        </g>
                    </g>
                </g>
            </g>
        </g>
    </g>
</svg>