<?xml version="1.0" encoding="UTF-8" standalone="no"?>
<svg width="476px" height="124px" viewBox="0 0 476 124" version="1.1" xmlns="http://www.w3.org/2000/svg" xmlns:xlink="http://www.w3.org/1999/xlink">
    <!-- Generator: sketchtool 39.1 (31720) - http://www.bohemiancoding.com/sketch -->
    <title>9A6E0F8E-34EE-4189-9681-0997E1A17126</title>
    <desc>Created with sketchtool.</desc>
    <defs></defs>
    <g id="Website" stroke="none" stroke-width="1" fill="none" fill-rule="evenodd">
        <g id="Medicrea-Case-Study" transform="translate(-676.000000, -6536.000000)">
            <g id="Branding-Phase" transform="translate(198.000000, 5464.000000)">
                <g id="Group-4" transform="translate(0.000000, 315.000000)">
                    <g id="Iconography" transform="translate(478.000000, 723.000000)">
                        <g id="Icons" transform="translate(0.000000, 34.000000)">
                            <path d="M441,30.6569885 L441,38 L448.343011,38 L470,16.3430115 L462.656989,9 L441,30.6569885 L441,30.6569885 Z M475.452107,10.5721584 C476.182631,9.84163474 476.182631,8.66155811 475.452107,7.93103448 L471.068966,3.54789272 C470.338442,2.81736909 469.158365,2.81736909 468.427842,3.54789272 L465,6.97573436 L472.024266,14 L475.452107,10.5721584 L475.452107,10.5721584 Z" id="Shape" fill="#9D9D9C"></path>
                            <g id="Check-Icon" transform="translate(95.000000, 89.000000)">
                                <ellipse id="Oval-1-Copy-2" fill="#9D9D9C" cx="17.5" cy="17.5" rx="17.5" ry="17.5"></ellipse>
                                <polygon id="Shape" fill="#FFFFFF" points="16.8636364 22.1940299 9.46590909 14.9850746 7 17.3880597 16.8636364 27 38 6.40298507 35.5340909 4"></polygon>
                            </g>
                            <path d="M380.666667,113.738956 C379.315556,113.738956 378.106667,114.266064 377.182222,115.091867 L364.506667,107.800201 C364.595556,107.396084 364.666667,106.991968 364.666667,106.570281 C364.666667,106.148594 364.595556,105.744478 364.506667,105.340361 L377.04,98.1189759 C378,98.99749 379.262222,99.5421687 380.666667,99.5421687 C383.617778,99.5421687 386,97.187751 386,94.2710843 C386,91.3544177 383.617778,89 380.666667,89 C377.715556,89 375.333333,91.3544177 375.333333,94.2710843 C375.333333,94.6927711 375.404444,95.0968876 375.493333,95.501004 L362.96,102.72239 C362,101.843876 360.737778,101.299197 359.333333,101.299197 C356.382222,101.299197 354,103.653614 354,106.570281 C354,109.486948 356.382222,111.841365 359.333333,111.841365 C360.737778,111.841365 362,111.296687 362.96,110.418173 L375.617778,117.72741 C375.528889,118.096386 375.475556,118.482932 375.475556,118.869478 C375.475556,121.698293 377.804444,124 380.666667,124 C383.528889,124 385.857778,121.698293 385.857778,118.869478 C385.857778,116.040663 383.528889,113.738956 380.666667,113.738956 L380.666667,113.738956 Z" id="Share-Icon" fill="#9D9D9C"></path>
                            <path d="M358,34.1428571 C358,36.2642857 359.725,38 361.833333,38 L377.166667,38 C379.275,38 381,36.2642857 381,34.1428571 L381,11 L358,11 L358,34.1428571 L358,34.1428571 Z M383,5 L376.25,5 L374.321429,3 L364.678571,3 L362.75,5 L356,5 L356,9 L383,9 L383,5 L383,5 Z" id="Delete-Icon" fill="#9D9D9C"></path>
                            <path d="M452.285714,116 L464.714286,116 L464.714286,103.538462 L473,103.538462 L458.5,89 L444,103.538462 L452.285714,103.538462 L452.285714,116 Z M444,120 L473,120 L473,124 L444,124 L444,120 Z" id="Upload-Icon" fill="#9D9D9C"></path>
                            <path d="M30.0142939,111.012579 L28.4333905,111.012579 L27.8730703,110.47227 C29.834191,108.190966 31.0148656,105.229274 31.0148656,102.007433 C31.0148656,94.8233276 25.191538,89 18.0074328,89 C10.8233276,89 5,94.8233276 5,102.007433 C5,109.191538 10.8233276,115.014866 18.0074328,115.014866 C21.2292739,115.014866 24.1909663,113.834191 26.4722699,111.87307 L27.0125786,112.433391 L27.0125786,114.014294 L37.0182962,124 L40,121.018296 L30.0142939,111.012579 L30.0142939,111.012579 Z M18,111 C13.02,111 9,106.98 9,102 C9,97.02 13.02,93 18,93 C22.98,93 27,97.02 27,102 C27,106.98 22.98,111 18,111 L18,111 Z" id="Search-Icon" fill="#9D9D9C"></path>
                            <g id="Don't-Show-icon" transform="translate(273.000000, 93.000000)">
                                <path d="M19.5,0 C10.6363636,0 3.06681818,5.598 0,13.5 C3.06681818,21.402 10.6363636,27 19.5,27 C28.3636364,27 35.9331818,21.402 39,13.5 C35.9331818,5.598 28.3636364,0 19.5,0 L19.5,0 Z M20,23 C15.032,23 11,18.968 11,14 C11,9.032 15.032,5 20,5 C24.968,5 29,9.032 29,14 C29,18.968 24.968,23 20,23 L20,23 Z M19.5,8 C16.4566667,8 14,10.4566667 14,13.5 C14,16.5433333 16.4566667,19 19.5,19 C22.5433333,19 25,16.5433333 25,13.5 C25,10.4566667 22.5433333,8 19.5,8 L19.5,8 Z" id="Shape" fill="#9D9D9C"></path>
                                <path d="M36.1052632,0.9 L3.89473684,26.1" id="Line" stroke="#FFFFFF" stroke-width="4" stroke-linecap="square"></path>
                                <path d="M36.1052632,0.9 L3.89473684,26.1" id="Line" stroke="#AAAAAA" stroke-width="2" stroke-linecap="square"></path>
                            </g>
                            <path d="M203.5,14 C206.5525,14 209,11.5525 209,8.5 C209,5.4475 206.5525,3 203.5,3 C200.4475,3 198,5.4475 198,8.5 C198,11.5525 200.4475,14 203.5,14 Z M197.285714,38 L197.004517,38 C194.792883,38 193,36.2032848 193,33.9940328 L193,22.6 C193,19.52 195.571429,17 198.714286,17 L207.285714,17 C210.428571,17 213,19.52 213,22.6 L213,33.9940328 C213,36.2064674 211.207303,38 208.995483,38 L208.714286,38 L197.285714,38 Z" id="Man" fill="#9D9D9C" transform="translate(203.000000, 20.500000) scale(-1, 1) translate(-203.000000, -20.500000) "></path>
                            <path d="M296.061055,38 L299.1846,38 C301.392549,38 302.609774,36.3090551 301.896373,34.2025752 L297.153001,20.1966667 C296.488338,18.2833333 294.684253,17 292.642787,17 L292.357932,17 C290.316467,17 288.488643,18.2833333 287.847718,20.1966667 L283.104346,34.2025752 C282.394068,36.299835 283.615302,38 285.816119,38 L288.939665,38 L296.061055,38 Z M292.5,12 C294.9975,12 297,9.9975 297,7.5 C297,5.0025 294.9975,3 292.5,3 C290.0025,3 288,5.0025 288,7.5 C288,9.9975 290.0025,12 292.5,12 L292.5,12 Z" id="Woman" fill="#9D9D9C"></path>
                            <path d="M203,93 C193.909091,93 186.145455,98.598 183,106.5 C186.145455,114.402 193.909091,120 203,120 C212.090909,120 219.854545,114.402 223,106.5 C219.854545,98.598 212.090909,93 203,93 L203,93 Z M203,116 C198.032,116 194,111.968 194,107 C194,102.032 198.032,98 203,98 C207.968,98 212,102.032 212,107 C212,111.968 207.968,116 203,116 L203,116 Z M203.5,101 C200.456667,101 198,103.456667 198,106.5 C198,109.543333 200.456667,112 203.5,112 C206.543333,112 209,109.543333 209,106.5 C209,103.456667 206.543333,101 203.5,101 L203.5,101 Z" id="Show-Icon" fill="#9D9D9C"></path>
                            <path d="M135,7.87755102 L125.628183,0 L123,3.12244898 L132.371817,11 L135,7.87755102 L135,7.87755102 Z M107,3.12825279 L104.387755,-1.85037171e-16 L95,7.87174721 L97.6326531,11 L107,3.12825279 L107,3.12825279 Z M116,12 L113,12 L113,24.2033898 L122.5,30 L124,27.4983051 L116,22.6779661 L116,12 L116,12 Z M115,4 C105.06,4 97,12.06 97,22 C97,31.94 105.04,40 115,40 C124.94,40 133,31.94 133,22 C133,12.06 124.94,4 115,4 L115,4 Z M115,36 C107.26,36 101,29.74 101,22 C101,14.26 107.26,8 115,8 C122.74,8 129,14.26 129,22 C129,29.74 122.74,36 115,36 L115,36 Z" id="Alarm-Icon" fill="#9D9D9C"></path>
                            <path d="M1,36 L43,36 L43,40 L1,40 L1,36 Z M44.8891194,14.7619433 C44.4231424,12.9481781 42.5814237,11.859919 40.8062732,12.3587045 L29.0237114,15.5781377 L13.713038,1 L9.43048728,2.1562753 L18.6168914,18.4121457 L7.58876858,21.4275304 L3.21746036,17.9360324 L0,18.8202429 L4.03846749,25.9846154 L5.74704989,29 L9.29735099,28.0251012 L21.0799127,24.805668 L30.7322938,22.1757085 L42.5148556,18.9562753 C44.3121955,18.4348178 45.3550965,16.5757085 44.8891194,14.7619433 L44.8891194,14.7619433 Z" id="Airplane" fill="#9D9D9C"></path>
                        </g>
                    </g>
                </g>
            </g>
        </g>
    </g>
</svg>