<?xml version="1.0" encoding="UTF-8" standalone="no"?>
<svg width="20px" height="35px" viewBox="0 0 20 35" version="1.1" xmlns="http://www.w3.org/2000/svg" xmlns:xlink="http://www.w3.org/1999/xlink">
    <!-- Generator: sketchtool 39.1 (31720) - http://www.bohemiancoding.com/sketch -->
    <title>4B139471-2A43-4F0C-A8F0-F36F21482F35</title>
    <desc>Created with sketchtool.</desc>
    <defs></defs>
    <g id="Website" stroke="none" stroke-width="1" fill="none" fill-rule="evenodd">
        <g id="Medicrea-Case-Study" transform="translate(-869.000000, -6539.000000)" fill="#9D9D9C">
            <g id="Branding-Phase" transform="translate(198.000000, 5464.000000)">
                <g id="Group-4" transform="translate(0.000000, 315.000000)">
                    <g id="Iconography" transform="translate(478.000000, 723.000000)">
                        <g id="Icons" transform="translate(0.000000, 34.000000)">
                            <path d="M203.5,14 C206.5525,14 209,11.5525 209,8.5 C209,5.4475 206.5525,3 203.5,3 C200.4475,3 198,5.4475 198,8.5 C198,11.5525 200.4475,14 203.5,14 Z M197.285714,38 L197.004517,38 C194.792883,38 193,36.2032848 193,33.9940328 L193,22.6 C193,19.52 195.571429,17 198.714286,17 L207.285714,17 C210.428571,17 213,19.52 213,22.6 L213,33.9940328 C213,36.2064674 211.207303,38 208.995483,38 L208.714286,38 L197.285714,38 Z" id="Man" transform="translate(203.000000, 20.500000) scale(-1, 1) translate(-203.000000, -20.500000) "></path>
                        </g>
                    </g>
                </g>
            </g>
        </g>
    </g>
</svg>