<?xml version="1.0" encoding="UTF-8" standalone="no"?>
<svg width="35px" height="35px" viewBox="0 0 35 35" version="1.1" xmlns="http://www.w3.org/2000/svg" xmlns:xlink="http://www.w3.org/1999/xlink">
    <!-- Generator: sketchtool 39.1 (31720) - http://www.bohemiancoding.com/sketch -->
    <title>DC54F693-83BF-4F4F-91FC-2F799FB1E586</title>
    <desc>Created with sketchtool.</desc>
    <defs></defs>
    <g id="Website" stroke="none" stroke-width="1" fill="none" fill-rule="evenodd">
        <g id="Medicrea-Case-Study" transform="translate(-681.000000, -6625.000000)" fill="#9D9D9C">
            <g id="Branding-Phase" transform="translate(198.000000, 5464.000000)">
                <g id="Group-4" transform="translate(0.000000, 315.000000)">
                    <g id="Iconography" transform="translate(478.000000, 723.000000)">
                        <g id="Icons" transform="translate(0.000000, 34.000000)">
                            <path d="M30.0142939,111.012579 L28.4333905,111.012579 L27.8730703,110.47227 C29.834191,108.190966 31.0148656,105.229274 31.0148656,102.007433 C31.0148656,94.8233276 25.191538,89 18.0074328,89 C10.8233276,89 5,94.8233276 5,102.007433 C5,109.191538 10.8233276,115.014866 18.0074328,115.014866 C21.2292739,115.014866 24.1909663,113.834191 26.4722699,111.87307 L27.0125786,112.433391 L27.0125786,114.014294 L37.0182962,124 L40,121.018296 L30.0142939,111.012579 L30.0142939,111.012579 Z M18,111 C13.02,111 9,106.98 9,102 C9,97.02 13.02,93 18,93 C22.98,93 27,97.02 27,102 C27,106.98 22.98,111 18,111 L18,111 Z" id="Search-Icon"></path>
                        </g>
                    </g>
                </g>
            </g>
        </g>
    </g>
</svg>