<?xml version="1.0" encoding="UTF-8" standalone="no"?>
<svg width="32px" height="35px" viewBox="0 0 32 35" version="1.1" xmlns="http://www.w3.org/2000/svg" xmlns:xlink="http://www.w3.org/1999/xlink">
    <!-- Generator: sketchtool 39.1 (31720) - http://www.bohemiancoding.com/sketch -->
    <title>E46811FF-F0EB-42E8-B65E-031AAFB80F4E</title>
    <desc>Created with sketchtool.</desc>
    <defs></defs>
    <g id="Website" stroke="none" stroke-width="1" fill="none" fill-rule="evenodd">
        <g id="Medicrea-Case-Study" transform="translate(-1030.000000, -6625.000000)" fill="#9D9D9C">
            <g id="Branding-Phase" transform="translate(198.000000, 5464.000000)">
                <g id="Group-4" transform="translate(0.000000, 315.000000)">
                    <g id="Iconography" transform="translate(478.000000, 723.000000)">
                        <g id="Icons" transform="translate(0.000000, 34.000000)">
                            <path d="M380.666667,113.738956 C379.315556,113.738956 378.106667,114.266064 377.182222,115.091867 L364.506667,107.800201 C364.595556,107.396084 364.666667,106.991968 364.666667,106.570281 C364.666667,106.148594 364.595556,105.744478 364.506667,105.340361 L377.04,98.1189759 C378,98.99749 379.262222,99.5421687 380.666667,99.5421687 C383.617778,99.5421687 386,97.187751 386,94.2710843 C386,91.3544177 383.617778,89 380.666667,89 C377.715556,89 375.333333,91.3544177 375.333333,94.2710843 C375.333333,94.6927711 375.404444,95.0968876 375.493333,95.501004 L362.96,102.72239 C362,101.843876 360.737778,101.299197 359.333333,101.299197 C356.382222,101.299197 354,103.653614 354,106.570281 C354,109.486948 356.382222,111.841365 359.333333,111.841365 C360.737778,111.841365 362,111.296687 362.96,110.418173 L375.617778,117.72741 C375.528889,118.096386 375.475556,118.482932 375.475556,118.869478 C375.475556,121.698293 377.804444,124 380.666667,124 C383.528889,124 385.857778,121.698293 385.857778,118.869478 C385.857778,116.040663 383.528889,113.738956 380.666667,113.738956 L380.666667,113.738956 Z" id="Share-Icon"></path>
                        </g>
                    </g>
                </g>
            </g>
        </g>
    </g>
</svg>