<?xml version="1.0" encoding="UTF-8" standalone="no"?>
<svg width="40px" height="27px" viewBox="0 0 40 27" version="1.1" xmlns="http://www.w3.org/2000/svg" xmlns:xlink="http://www.w3.org/1999/xlink">
    <!-- Generator: sketchtool 39.1 (31720) - http://www.bohemiancoding.com/sketch -->
    <title>E894C849-4AB4-4874-8C2C-69347948A82B</title>
    <desc>Created with sketchtool.</desc>
    <defs></defs>
    <g id="Website" stroke="none" stroke-width="1" fill="none" fill-rule="evenodd">
        <g id="Medicrea-Case-Study" transform="translate(-859.000000, -6629.000000)" fill="#9D9D9C">
            <g id="Branding-Phase" transform="translate(198.000000, 5464.000000)">
                <g id="Group-4" transform="translate(0.000000, 315.000000)">
                    <g id="Iconography" transform="translate(478.000000, 723.000000)">
                        <g id="Icons" transform="translate(0.000000, 34.000000)">
                            <path d="M203,93 C193.909091,93 186.145455,98.598 183,106.5 C186.145455,114.402 193.909091,120 203,120 C212.090909,120 219.854545,114.402 223,106.5 C219.854545,98.598 212.090909,93 203,93 L203,93 Z M203,116 C198.032,116 194,111.968 194,107 C194,102.032 198.032,98 203,98 C207.968,98 212,102.032 212,107 C212,111.968 207.968,116 203,116 L203,116 Z M203.5,101 C200.456667,101 198,103.456667 198,106.5 C198,109.543333 200.456667,112 203.5,112 C206.543333,112 209,109.543333 209,106.5 C209,103.456667 206.543333,101 203.5,101 L203.5,101 Z" id="Show-Icon"></path>
                        </g>
                    </g>
                </g>
            </g>
        </g>
    </g>
</svg>