<?xml version="1.0" encoding="UTF-8" standalone="no"?>
<svg width="21px" height="35px" viewBox="0 0 21 35" version="1.1" xmlns="http://www.w3.org/2000/svg" xmlns:xlink="http://www.w3.org/1999/xlink">
    <!-- Generator: sketchtool 39.1 (31720) - http://www.bohemiancoding.com/sketch -->
    <title>4A758FDA-4105-4BB3-9E6C-61781C1E890A</title>
    <desc>Created with sketchtool.</desc>
    <defs></defs>
    <g id="Website" stroke="none" stroke-width="1" fill="none" fill-rule="evenodd">
        <g id="Medicrea-Case-Study" transform="translate(-958.000000, -6539.000000)" fill="#9D9D9C">
            <g id="Branding-Phase" transform="translate(198.000000, 5464.000000)">
                <g id="Group-4" transform="translate(0.000000, 315.000000)">
                    <g id="Iconography" transform="translate(478.000000, 723.000000)">
                        <g id="Icons" transform="translate(0.000000, 34.000000)">
                            <path d="M296.061055,38 L299.1846,38 C301.392549,38 302.609774,36.3090551 301.896373,34.2025752 L297.153001,20.1966667 C296.488338,18.2833333 294.684253,17 292.642787,17 L292.357932,17 C290.316467,17 288.488643,18.2833333 287.847718,20.1966667 L283.104346,34.2025752 C282.394068,36.299835 283.615302,38 285.816119,38 L288.939665,38 L296.061055,38 Z M292.5,12 C294.9975,12 297,9.9975 297,7.5 C297,5.0025 294.9975,3 292.5,3 C290.0025,3 288,5.0025 288,7.5 C288,9.9975 290.0025,12 292.5,12 L292.5,12 Z" id="Woman"></path>
                        </g>
                    </g>
                </g>
            </g>
        </g>
    </g>
</svg>