<?xml version="1.0" standalone="no"?>
<!DOCTYPE svg PUBLIC "-//W3C//DTD SVG 1.1//EN" "http://www.w3.org/Graphics/SVG/1.1/DTD/svg11.dtd" >
<svg xmlns="http://www.w3.org/2000/svg" xmlns:xlink="http://www.w3.org/1999/xlink" version="1.1">
<metadata></metadata>
<defs>
<font id="fortescue_probold" horiz-adv-x="378" >
<font-face units-per-em="1024" ascent="768" descent="-256" />
<missing-glyph horiz-adv-x="327" />
<glyph unicode="ff" horiz-adv-x="773" d="M77 459l14 14v58q0 34 12.5 64t36 51.5t57.5 34t77 12.5q39 0 69 -11t56 -36q13 -11 19 -23t6 -23q0 -26 -17 -39.5t-37 -13.5q-17 0 -28.5 8.5t-16.5 29.5q-8 35 -20.5 46t-30.5 11q-27 0 -33.5 -23.5t-6.5 -54.5v-91l15 -14h201l14 14v53q0 45 10.5 85t34 70t62.5 46.5 t96 16.5q43 0 76 -10.5t63 -36.5q15 -13 22 -26.5t7 -25.5q0 -27 -19 -41t-41 -14q-14 0 -25.5 8t-16.5 27q-11 43 -27 55.5t-39 12.5q-34 0 -47 -30.5t-13 -85.5v-104l15 -14h94v-51h-94l-15 -15v-326l63 -53v-14h-269v14l63 53v326l-14 15h-201l-15 -15v-326l63 -53v-14 h-268v14l62 53v326l-14 15h-57v51h57z" />
<glyph unicode="fi" horiz-adv-x="669" d="M77 459l14 14v53q0 45 16.5 85t47.5 70t77 46.5t104 16.5q57 0 103 -12t74 -40q20 -19 28.5 -37t8.5 -33q0 -29 -18.5 -44t-41.5 -15q-24 0 -39.5 13.5t-23.5 45.5q-11 43 -36 57t-55 14q-47 0 -74.5 -30.5t-27.5 -85.5v-104l15 -14h328v-392l62 -53v-14h-268v14l62 53 v326l-14 15h-170l-15 -15v-326l63 -53v-14h-268v14l62 53v326l-14 15h-57v51h57z" />
<glyph unicode="fl" horiz-adv-x="664" d="M577 67l62 -53v-14h-268v14l62 53v600l-14 14h-115q-34 0 -52 -18t-18 -68v-122l15 -14h94v-51h-94l-15 -15v-326l63 -53v-14h-268v14l62 53v326l-14 15h-57v51h57l14 14v43q0 45 9.5 84.5t32.5 68.5t61.5 46t99.5 17h283v-665z" />
<glyph unicode="ffi" horiz-adv-x="1042" d="M450 459l14 14v53q0 45 16.5 85t47.5 70t76.5 46.5t104.5 16.5q57 0 103 -12t74 -40q20 -19 28.5 -37t8.5 -33q0 -28 -18 -43.5t-42 -15.5q-22 0 -38.5 13.5t-24.5 45.5q-11 43 -36.5 57t-54.5 14q-47 0 -74.5 -30.5t-27.5 -85.5v-104l15 -14h327v-392l63 -53v-14h-269 v14l63 53v326l-14 15h-170l-15 -15v-326l63 -53v-14h-269v14l63 53v326l-14 15h-201l-15 -15v-326l63 -53v-14h-268v14l62 53v326l-14 15h-57v51h57l14 14v58q0 34 12.5 64t36 51.5t57.5 34t77 12.5q39 0 69 -11t56 -36q13 -11 19 -23t6 -23q0 -27 -18 -40t-38 -13 q-16 0 -27 8.5t-16 29.5q-8 35 -20.5 46t-30.5 11q-27 0 -33.5 -23.5t-6.5 -54.5v-91l15 -14h201z" />
<glyph unicode="ffl" horiz-adv-x="1037" d="M949 67l63 -53v-14h-269v14l63 53v600l-14 14h-115q-34 0 -52 -18t-18 -68v-122l15 -14h94v-51h-94l-15 -15v-326l63 -53v-14h-269v14l63 53v326l-14 15h-201l-15 -15v-326l63 -53v-14h-268v14l62 53v326l-14 15h-57v51h57l14 14v58q0 34 12.5 64t36 51.5t57.5 34 t77 12.5q39 0 69 -11t56 -36q13 -11 19 -24t6 -25q0 -24 -18 -37t-38 -13q-14 0 -26 8.5t-17 29.5q-8 35 -20.5 46t-30.5 11q-27 0 -33.5 -23.5t-6.5 -54.5v-91l15 -14h201l14 14v43q0 45 9 84.5t32 68.5t62 46t100 17h282v-665z" />
<glyph unicode="fj" horiz-adv-x="644" d="M77 459l14 14v53q0 45 16.5 85t47.5 70t77 46.5t104 16.5q57 0 103 -12t74 -40q20 -19 28.5 -37t8.5 -33q0 -27 -16.5 -43t-43.5 -16q-24 0 -39.5 13.5t-23.5 45.5q-11 43 -36 57t-55 14q-47 0 -74.5 -30.5t-27.5 -85.5v-104l15 -14h328v-459q0 -56 -18.5 -98.5 t-50.5 -77t-75.5 -64t-92.5 -60.5l-10 40q33 31 53 56t31.5 50t15 54t3.5 69v424l-14 15h-170l-15 -15v-326l63 -53v-14h-268v14l62 53v326l-14 15h-57v51h57z" />
<glyph unicode="ffj" horiz-adv-x="1016" d="M77 459l14 14v58q0 34 12.5 64t36 51.5t57.5 34t77 12.5q39 0 68.5 -11.5t56.5 -35.5q13 -11 19 -23t6 -23q0 -27 -18 -40t-38 -13q-16 0 -27 8.5t-16 29.5q-8 35 -20.5 46t-30.5 11q-27 0 -33.5 -23.5t-6.5 -54.5v-91l15 -14h201l14 14v53q0 45 16.5 85t47.5 70 t76.5 46.5t104.5 16.5q57 0 103 -12t74 -40q20 -19 28.5 -37t8.5 -33q0 -28 -18 -43.5t-42 -15.5q-22 0 -38.5 13.5t-24.5 45.5q-11 43 -36.5 57t-54.5 14q-47 0 -74.5 -30.5t-27.5 -85.5v-104l15 -14h327v-459q0 -56 -18.5 -98.5t-50 -77t-75 -64t-92.5 -60.5l-11 40 q33 31 53.5 56t32 50t15 54t3.5 69v424l-14 15h-170l-15 -15v-326l63 -53v-14h-269v14l63 53v326l-14 15h-201l-15 -15v-326l63 -53v-14h-268v14l62 53v326l-14 15h-57v51h57z" />
<glyph unicode=" "  horiz-adv-x="327" />
<glyph unicode="&#x09;" horiz-adv-x="327" />
<glyph unicode="&#xa0;" horiz-adv-x="327" />
<glyph unicode="!" horiz-adv-x="353" d="M108 69q0 16 6.5 31t17 26.5t25.5 18.5t31 7t31 -7t27 -18.5t18.5 -26.5t6.5 -31t-6.5 -31t-18.5 -26t-26.5 -17.5t-31.5 -6.5q-33 0 -56.5 24t-23.5 57zM153 232l-44 440q0 34 23 53t56 19q34 0 57 -19t23 -53l-44 -440h-71z" />
<glyph unicode="&#x22;" horiz-adv-x="392" d="M97 442q-9 28 -17.5 60t-16 62.5t-12 57t-4.5 43.5q0 29 16.5 48t47.5 19t47 -19.5t16 -47.5q0 -16 -4.5 -43t-11.5 -57.5t-16 -62.5t-18 -60h-27zM269 442q-9 28 -17.5 60t-16 62.5t-12 57t-4.5 43.5q0 29 16.5 48t47.5 19t47 -19.5t16 -47.5q0 -16 -4.5 -43 t-11.5 -57.5t-16 -62.5t-18 -60h-27z" />
<glyph unicode="#" horiz-adv-x="583" d="M29 486h169l62 246h57l-62 -246h125l62 246h58l-63 -246h150v-57h-164l-33 -126h166v-57h-180l-63 -246h-57l62 246h-124l-63 -246h-57l62 246h-138v57h153l32 126h-154v57zM208 303h125l33 126h-125z" />
<glyph unicode="$" horiz-adv-x="583" d="M280 -11q-60 3 -111.5 16.5t-88.5 36.5t-58 52.5t-21 63.5q0 33 19.5 52.5t53.5 19.5q25 0 46 -17.5t26 -59.5q3 -24 11.5 -43.5t24 -33.5t39.5 -22.5t59 -10.5v265q-40 15 -82 32t-76.5 43.5t-56 64t-21.5 94.5q0 51 21 87.5t55 60.5t76 36.5t84 15.5v108h55v-107 q58 -2 102.5 -15.5t81.5 -39.5q27 -17 37 -36t10 -37q0 -32 -21.5 -49.5t-47.5 -17.5q-20 0 -36.5 11.5t-27.5 39.5q-13 35 -34.5 59.5t-63.5 29.5v-238q41 -15 85 -33.5t80.5 -44.5t59.5 -63.5t23 -91.5q0 -97 -64 -159t-184 -69v-107h-55v107zM424 176q0 41 -25 66t-64 43 v-238q42 10 65.5 43.5t23.5 85.5zM199 573q0 -37 22.5 -60t58.5 -40v211q-39 -10 -60 -40.5t-21 -70.5z" />
<glyph unicode="%" horiz-adv-x="683" d="M342 596q0 -31 -10.5 -57t-29.5 -45t-45.5 -29t-55.5 -10q-30 0 -56 10t-45 29t-30 45t-11 57t11 57t30 45t45 29t56 10t56 -10t45 -29t29.5 -45t10.5 -57zM258 596q0 46 -14 78t-43 32q-30 0 -44 -32t-14 -78t14 -78t44 -32t43.5 32t13.5 78zM624 136q0 -31 -11 -57 t-30 -45t-45 -29t-56 -10t-56 10t-45 29t-29.5 45t-10.5 57t10.5 57t29.5 45t45.5 29.5t55.5 10.5q30 0 56 -10.5t45 -29.5t30 -45t11 -57zM540 136q0 46 -14 78t-44 32t-43.5 -32t-13.5 -78t14 -77.5t43 -31.5q30 0 44 31.5t14 77.5zM529 738l43 -24l-417 -720l-43 25z" />
<glyph unicode="&#x26;" horiz-adv-x="752" d="M721 -12q-43 0 -81 0.5t-70.5 5t-60.5 13.5t-49 27q-37 -27 -80 -36.5t-93 -9.5q-58 0 -104.5 15.5t-78 44.5t-48 69.5t-16.5 89.5q0 71 38.5 119t116.5 84q-38 52 -52.5 93.5t-14.5 78.5t15.5 66.5t43 50t66 31.5t84.5 11q43 0 79 -10.5t61 -30.5t38.5 -47.5t13.5 -60.5 q0 -59 -34 -100t-112 -79l143 -207q14 33 24.5 67t18.5 65l-71 70v14h150v-7l-8 -33q-18 -72 -37.5 -127t-42.5 -98q22 -30 39.5 -51.5t35 -38t38 -28t48.5 -21.5v-30zM337 55q25 0 46 6t40 16l-179 261q-30 -28 -40.5 -59t-10.5 -63q0 -36 11 -65.5t30.5 -50.5t45.5 -33 t57 -12zM276 602q0 -11 6.5 -31.5t16.5 -34.5l43 -63q39 27 50.5 61.5t11.5 73.5t-20 58.5t-47 19.5q-28 0 -44.5 -22t-16.5 -62z" />
<glyph unicode="'" horiz-adv-x="220" d="M97 442q-9 28 -17.5 60t-16 62.5t-12 57t-4.5 43.5q0 29 16.5 48t47.5 19t47 -19.5t16 -47.5q0 -16 -4.5 -43t-11.5 -57.5t-16 -62.5t-18 -60h-27z" />
<glyph unicode="(" horiz-adv-x="359" d="M46 289q0 151 66.5 262t183.5 195l33 -32q-42 -44 -69.5 -96t-43.5 -106.5t-22.5 -111.5t-6.5 -111t6.5 -111t22.5 -112t43.5 -106.5t69.5 -95.5l-33 -33q-117 85 -183.5 196t-66.5 262z" />
<glyph unicode=")" horiz-adv-x="359" d="M313 289q0 -151 -66.5 -262t-183.5 -196l-32 33q42 44 69 95.5t43.5 106.5t22.5 111.5t6 111.5q0 54 -6 111t-22.5 111.5t-43.5 106.5t-69 96l32 32q117 -85 183.5 -195.5t66.5 -261.5z" />
<glyph unicode="*" horiz-adv-x="487" d="M231 732h23l29 -110l109 30l11 -20l-80 -80l80 -80l-11 -20l-109 30l-29 -110h-23l-28 110l-110 -30l-11 20l81 80l-81 80l11 20l110 -30z" />
<glyph unicode="+" horiz-adv-x="542" d="M298 540v-207h208v-55h-208v-208h-55v208h-207v55h207v207h55z" />
<glyph unicode="," horiz-adv-x="271" d="M50 71q0 36 23.5 58.5t56.5 22.5q38 0 61 -24t23 -67q0 -45 -8 -79t-24.5 -60.5t-41 -49t-56.5 -43.5l-15 20q19 18 32 32t19.5 25.5t9 22t2.5 22.5q0 19 -10.5 28t-22.5 14q-27 13 -38 29.5t-11 48.5z" />
<glyph unicode="-" horiz-adv-x="467" d="M37 349h380v-55h-380v55z" />
<glyph unicode="." horiz-adv-x="271" d="M50 69q0 16 6.5 31t17.5 26.5t26 18.5t31 7t31 -7t27 -18.5t18.5 -26.5t6.5 -31t-6.5 -31t-18.5 -26t-27 -17.5t-31 -6.5q-33 0 -57 24t-24 57z" />
<glyph unicode="/" horiz-adv-x="459" d="M344 732h125l-353 -732h-125z" />
<glyph unicode="0" horiz-adv-x="614" d="M307 744q66 0 121.5 -28.5t95.5 -79t62.5 -120t22.5 -149.5q0 -81 -22.5 -150.5t-62.5 -120t-95.5 -79.5t-121.5 -29q-67 0 -122 29t-95 79.5t-62.5 120t-22.5 150.5t22.5 150t62.5 119.5t95 79t122 28.5zM307 42q35 0 63.5 22.5t48.5 64.5t31 102t11 136t-11 135.5 t-31 101t-48.5 63.5t-63.5 22t-63.5 -22t-48.5 -63.5t-30.5 -101.5t-10.5 -135q0 -76 10.5 -136t30.5 -102t48.5 -64.5t63.5 -22.5z" />
<glyph unicode="1" horiz-adv-x="614" d="M168 0v14l76 87v473q0 32 -9.5 47.5t-40.5 15.5q-12 0 -30 -2.5t-39 -7.5v33l267 102v-661l76 -87v-14h-300z" />
<glyph unicode="2" horiz-adv-x="614" d="M438 129l111 115h14l-42 -244h-493v31q24 22 59 53.5t74 71.5t77 86.5t69.5 96.5t50.5 103t19 105q0 59 -29 99t-86 40q-37 0 -66.5 -20t-52 -46.5t-36.5 -54.5t-20 -45l-45 16q6 25 23 60.5t47.5 68t75.5 56t109 23.5q47 0 89 -11t72.5 -35.5t48.5 -62.5t18 -90 q0 -44 -15.5 -89t-50 -95t-89.5 -106.5t-131 -125.5h199z" />
<glyph unicode="3" horiz-adv-x="614" d="M402 406q28 -6 56.5 -21t52.5 -39t39 -57t15 -75q0 -56 -20 -98.5t-55.5 -71t-87 -42.5t-112.5 -14q-96 0 -157.5 31.5t-89.5 77.5q-13 23 -13 44q0 31 20.5 49.5t51.5 18.5q22 0 38 -11.5t24 -36.5q6 -19 13.5 -40t21.5 -38t36 -28.5t55 -11.5q63 0 95 48.5t32 129.5 q0 41 -14 70.5t-37.5 48t-54 28t-64.5 11.5v31q79 19 112 57t33 104q0 49 -27 82.5t-79 33.5q-33 0 -59 -14t-46 -33t-34.5 -40t-22.5 -36l-44 17q11 29 31 58.5t49 52.5t68.5 37.5t90.5 14.5q47 0 86 -11t67 -32t43 -52t15 -70q0 -60 -31.5 -106.5t-96.5 -66.5z" />
<glyph unicode="4" horiz-adv-x="614" d="M560 283v-56h-102v-126l76 -87v-14h-301v14l76 87v126h-277v22l376 513h50v-479h102zM309 540l-186 -257h186v257z" />
<glyph unicode="5" horiz-adv-x="614" d="M321 500q42 0 86.5 -13t80.5 -41t59 -72.5t23 -109.5q0 -77 -26.5 -129.5t-68.5 -85.5t-92.5 -47t-97.5 -14q-99 0 -158 29t-83 77q-13 26 -13 47q0 32 20 49t49 17q57 0 68 -59q5 -29 12.5 -48.5t20.5 -32.5t33.5 -18.5t50.5 -5.5q42 0 68.5 19.5t42 49.5t21 65.5 t5.5 68.5q0 39 -7.5 74t-24.5 62.5t-43 43.5t-63 16q-27 0 -51 -11t-44.5 -29t-36.5 -41t-25 -48h-56l52 419h411l-16 -116h-347l-24 -183q26 28 69.5 47.5t104.5 19.5z" />
<glyph unicode="6" horiz-adv-x="614" d="M336 443q46 0 86.5 -14t71 -42t48.5 -67.5t18 -90.5q0 -60 -19.5 -105t-53 -75.5t-80 -45.5t-99.5 -15q-39 0 -83.5 10.5t-82.5 40t-63.5 82t-25.5 135.5q0 67 17.5 123t46 103.5t65 86t74.5 68.5q89 71 204 115l17 -50q-59 -30 -112 -72q-23 -18 -46.5 -42t-44 -52.5 t-38 -63t-27.5 -74.5q18 18 51.5 31.5t75.5 13.5zM308 43q48 0 76.5 45t28.5 127q0 80 -28.5 125.5t-76.5 45.5q-47 0 -76.5 -45t-29.5 -126q0 -87 29.5 -129.5t76.5 -42.5z" />
<glyph unicode="7" horiz-adv-x="614" d="M568 732l-264 -732h-89q8 9 16 20t13 21q6 11 10 22l200 542h-260l-104 -111h-14l30 238h462z" />
<glyph unicode="8" horiz-adv-x="614" d="M565 211q0 -56 -22 -98t-57.5 -70t-81 -41.5t-92.5 -13.5q-48 0 -93.5 10t-81 33t-57 61t-21.5 92q0 65 38.5 118t103.5 82q-40 32 -68 72.5t-28 100.5q0 48 19 83.5t49 58.5t66.5 34t72.5 11q40 0 76.5 -12t63.5 -35t43.5 -56.5t16.5 -74.5q0 -49 -29.5 -89t-75.5 -59 q31 -17 59 -37.5t50.5 -45t35.5 -55t13 -69.5zM262 341q-33 -33 -43.5 -78t-10.5 -86q0 -27 6 -51.5t19.5 -42.5t33 -29t45.5 -11q29 0 49.5 11t33 28t18 40.5t5.5 49.5q0 27 -13.5 49.5t-35.5 43t-50 39.5t-57 37zM221 582q0 -22 10 -40t26 -33t38.5 -29t47.5 -27 q60 33 60 125q0 52 -24 81.5t-67 29.5q-24 0 -40.5 -9t-28 -24t-17 -34.5t-5.5 -39.5z" />
<glyph unicode="9" horiz-adv-x="614" d="M279 289q-46 0 -86.5 14t-71.5 42t-49 68t-18 90q0 60 19.5 105t53.5 75.5t80 45.5t99 15q38 0 83 -10.5t83 -39.5t63.5 -82t25.5 -136q0 -67 -17.5 -123.5t-46 -103.5t-65.5 -85.5t-75 -68.5q-89 -71 -202 -114l-18 49q59 29 113 71q23 18 45.5 42t43.5 53t38 63.5 t29 74.5q-18 -18 -51.5 -31.5t-75.5 -13.5zM306 689q-48 0 -76 -45t-28 -127q0 -80 28 -125.5t76 -45.5q47 0 77 45t30 126q0 87 -30 129.5t-77 42.5z" />
<glyph unicode=":" horiz-adv-x="271" d="M50 69q0 16 6.5 31t17.5 26.5t26 18.5t31 7t31 -7t27 -18.5t18.5 -26.5t6.5 -31t-6.5 -31t-18.5 -26t-27 -17.5t-31 -6.5q-33 0 -57 24t-24 57zM50 388q0 16 6.5 31t17.5 27t26 18.5t31 6.5t31 -6.5t27 -18.5t18.5 -27t6.5 -31t-6.5 -31t-18.5 -25.5t-27 -17.5t-31 -7 q-33 0 -57 24t-24 57z" />
<glyph unicode=";" horiz-adv-x="271" d="M50 71q0 36 23.5 58.5t56.5 22.5q38 0 61 -24t23 -67q0 -45 -8 -79t-24.5 -60.5t-41 -49t-56.5 -43.5l-15 20q19 18 32 32t19.5 25.5t9 22t2.5 22.5q0 19 -10.5 28t-22.5 14q-27 13 -38 29.5t-11 48.5zM50 388q0 16 6.5 31t17.5 27t26 18.5t31 6.5t31 -6.5t27 -18.5 t18.5 -27t6.5 -31t-6.5 -31t-18.5 -25.5t-27 -17.5t-31 -7q-33 0 -57 24t-24 57z" />
<glyph unicode="&#x3c;" horiz-adv-x="542" d="M501 538v-88l-334 -190l334 -189v-88l-460 264v26z" />
<glyph unicode="=" horiz-adv-x="542" d="M36 460h471v-56h-471v56zM36 270h471v-55h-471v55z" />
<glyph unicode="&#x3e;" horiz-adv-x="542" d="M502 273v-26l-460 -264v88l334 189l-334 190v88z" />
<glyph unicode="?" horiz-adv-x="560" d="M188 69q0 16 7 31t17.5 26.5t25.5 18.5t31 7t31 -7t27 -18.5t18.5 -26.5t6.5 -31t-6.5 -31t-18.5 -26t-26.5 -17.5t-31.5 -6.5q-33 0 -57 24t-24 57zM237 224v41q0 38 9 65.5t23 49t30 40.5t30 41.5t23 51t9 68.5q0 53 -20 82.5t-70 29.5t-76 -37.5t-40 -101.5 q-7 -31 -26.5 -45t-43.5 -14q-27 0 -49 16.5t-22 52.5q0 25 15 52q33 61 94 94.5t148 33.5q50 0 95 -10t77.5 -31.5t52 -53.5t19.5 -75q0 -31 -6.5 -57.5t-22 -51t-40 -48.5t-61.5 -49q-30 -20 -46 -39t-24 -36t-10 -33.5t-2 -35.5h-66z" />
<glyph unicode="@" horiz-adv-x="998" d="M705 77q-46 0 -71 22.5t-25 53.5q-22 -36 -58 -56t-89 -20q-36 0 -64 12.5t-47.5 34t-30 50.5t-10.5 60q0 45 16.5 83t46 66t69.5 43t88 15q27 0 53.5 -10.5t36.5 -31.5l6 25h91l-43 -223q-3 -17 -3 -32q0 -18 7 -27.5t27 -9.5q39 0 55 46t16 136q0 124 -65.5 197 t-188.5 73q-70 0 -124 -26t-91.5 -70.5t-57.5 -103.5t-20 -128q0 -73 20 -133.5t58 -103.5t92.5 -67t122.5 -24q37 0 75 6t77 20.5t78.5 39t78.5 61.5l27 -25q-65 -83 -154 -120t-182 -37q-89 0 -165.5 28.5t-133 80t-89 121.5t-32.5 153t34 153t91.5 121.5t133.5 80 t161 28.5q79 0 147 -23t119 -65t79.5 -102.5t28.5 -134.5q0 -58 -14.5 -102.5t-39.5 -74t-60 -45t-77 -15.5zM484 133q31 0 52.5 16t35.5 41.5t20.5 58t6.5 65.5q0 34 -16 53t-42 19q-31 0 -53.5 -14.5t-38 -37.5t-23 -53t-7.5 -61q0 -40 15 -63.5t50 -23.5z" />
<glyph unicode="A" horiz-adv-x="815" d="M538 101l-55 133h-266l-54 -133l62 -87v-14h-214v14l90 87l269 655h67l269 -655l98 -87v-14h-332v14zM460 290l-106 255l-4 36l-4 -27l-106 -264h220z" />
<glyph unicode="B" horiz-adv-x="730" d="M389 732q58 0 106 -11t81.5 -33.5t52 -57t18.5 -80.5q0 -38 -13 -65.5t-33.5 -46.5t-46 -29.5t-48.5 -13.5q29 -5 60 -17t57 -33.5t43.5 -54t17.5 -77.5q0 -53 -17.5 -93t-49 -66.5t-75.5 -40t-98 -13.5h-413v14l75 87v530l-75 87v14h358zM278 55h95q41 0 69 13 t45.5 34.5t25 50t7.5 60.5t-7.5 60.5t-25 50t-45.5 34.5t-69 13h-95l-15 -15v-286zM263 436l15 -14h95q53 0 85 33.5t32 94.5q0 59 -32 93t-85 34h-95l-15 -14v-227z" />
<glyph unicode="C" horiz-adv-x="746" d="M423 689q-54 0 -95.5 -24.5t-70 -67.5t-43 -102t-14.5 -128q0 -76 14.5 -136t43.5 -101.5t70.5 -64t93.5 -22.5q77 0 141.5 42.5t119.5 145.5l33 -22q-51 -115 -124.5 -168t-177.5 -53q-89 0 -160.5 28t-121 78.5t-75.5 120t-26 152.5q0 80 30.5 149t84.5 119.5t126 79.5 t155 29q24 0 52 -2.5t57 -8.5t58.5 -15.5t53.5 -25.5v-183h-24q-9 34 -26 66.5t-42.5 57.5t-58.5 40.5t-74 15.5z" />
<glyph unicode="D" horiz-adv-x="819" d="M31 0v14l75 87v530l-75 87v14h369q87 0 157.5 -26.5t119.5 -74.5t75.5 -116t26.5 -149q0 -82 -26.5 -149t-75.5 -115.5t-119.5 -75t-157.5 -26.5h-369zM263 70l15 -15h98q65 0 111.5 23.5t76.5 65t44.5 98.5t14.5 124q0 68 -14.5 124.5t-44.5 98t-77 65t-111 23.5h-98 l-15 -14v-593z" />
<glyph unicode="E" horiz-adv-x="690" d="M29 718v14h575l19 -173h-15l-79 118h-254l-14 -14v-230l14 -14h220l45 62h14v-180h-14l-45 63h-220l-14 -15v-279l14 -15h268l102 132h14l-26 -187h-604v14l75 87v530z" />
<glyph unicode="F" horiz-adv-x="649" d="M480 357h-205l-14 -14v-242l76 -87v-14h-308v14l75 87v530l-75 87v14h575l19 -173h-15l-79 118h-254l-14 -14v-236l14 -14h205l45 62h15v-180h-15z" />
<glyph unicode="G" horiz-adv-x="789" d="M697 133q0 -17 3 -28.5t8 -18.5q4 -8 11 -13q-19 -23 -47.5 -39.5t-62.5 -26.5t-70.5 -14.5t-74.5 -4.5q-97 0 -176.5 26t-137 74.5t-88.5 119t-31 159.5q0 81 32 150t88 119.5t130.5 79t158.5 28.5q34 0 69 -4t68.5 -11.5t64.5 -18.5t55 -25v-177h-24q-12 36 -32.5 68.5 t-50 57.5t-68 40t-85.5 15q-52 0 -96 -24.5t-75.5 -67.5t-48.5 -102.5t-17 -127.5q0 -74 16.5 -133.5t51 -102t85.5 -65.5t120 -23q27 0 47.5 7.5t20.5 34.5v176l-15 14h-82v56h329v-15l-76 -87v-96v0z" />
<glyph unicode="H" horiz-adv-x="865" d="M522 718v14h308v-14l-75 -87v-530l75 -87v-14h-308v14l76 87v265l-14 14h-302l-15 -14v-265l76 -87v-14h-308v14l76 87v530l-76 87v14h308v-14l-76 -87v-181l15 -15h302l14 15v181z" />
<glyph unicode="I" horiz-adv-x="369" d="M31 718v14h308v-14l-76 -87v-530l76 -87v-14h-308v14l75 87v530z" />
<glyph unicode="J" horiz-adv-x="377" d="M41 718v14h308v-14l-76 -87v-631q0 -61 -21.5 -109.5t-61 -85t-96 -63t-126.5 -42.5v52q74 30 111.5 84.5t37.5 137.5v657z" />
<glyph unicode="K" horiz-adv-x="720" d="M29 0v14l75 87v530l-75 87v14h308v-14l-76 -87v-201l251 243l-45 45v14h217v-14l-134 -87l-181 -174l102 17l249 -518l-112 44l-121 101l-179 297l-47 -45v-252l76 -87v-14h-308z" />
<glyph unicode="L" horiz-adv-x="659" d="M27 718v14h309v-14l-76 -87v-561l14 -15h237l119 132h14l-27 -187h-589v14l75 87v530z" />
<glyph unicode="M" horiz-adv-x="943" d="M604 0v14l76 87v482l-16 -64l-195 -519h-93l-207 545l-11 59v-503l75 -87v-14h-206v14l75 87v530l-75 87v14h237l192 -503l8 -88l10 46l205 545h233v-14l-75 -87v-530l75 -87v-14h-308z" />
<glyph unicode="N" horiz-adv-x="765" d="M738 732v-14l-75 -87v-631l-488 504l-16 53v-456l75 -87v-14h-206v14l75 87v530l-75 87v14h154l406 -419l19 -55v373l-76 87v14h207z" />
<glyph unicode="O" horiz-adv-x="847" d="M643 367q0 67 -14.5 125.5t-42 102t-68.5 69t-94 25.5t-94 -25.5t-69 -69t-42 -102.5t-14 -125q0 -67 14 -126t42 -103t69 -69.5t94 -25.5t94 25.5t68.5 69.5t42 103t14.5 126zM812 367q0 -82 -30 -151.5t-83 -120t-123.5 -79t-151.5 -28.5t-151.5 28.5t-123.5 79 t-83 120t-30 151.5q0 81 30 150t83 119.5t123.5 79t151.5 28.5t151.5 -28.5t123.5 -79t83 -119.5t30 -150z" />
<glyph unicode="P" horiz-adv-x="683" d="M367 732q57 0 109.5 -10t92.5 -36t63.5 -67.5t23.5 -106.5t-23.5 -107.5t-63.5 -68t-92.5 -36t-109.5 -10.5h-91l-14 -15v-174l76 -87v-14h-308v14l75 87v530l-75 87v14h337zM262 359l14 -14h64q72 0 116 40.5t44 126.5q0 84 -44 124.5t-116 40.5h-64l-14 -14v-304z" />
<glyph unicode="Q" horiz-adv-x="847" d="M812 367q0 -82 -30 -151.5t-83 -120t-123.5 -79t-151.5 -28.5h-22.5t-22.5 2l-20 -42q14 6 32 8.5t29 2.5q61 0 93.5 -14.5t52.5 -31t37.5 -31t48.5 -14.5q14 0 26 5t21 11q11 7 20 18q0 -57 -32 -85t-80 -28q-33 0 -56 7.5t-40.5 19.5t-32.5 25.5t-30.5 25t-34.5 19.5 t-44 8q-27 0 -58.5 -7t-54.5 -21q1 1 4.5 9.5t7.5 20t8 22t6 15.5q3 10 3 23q0 17 -3 28.5t-9 19.5t-14.5 14.5t-19.5 13.5q-46 24 -83.5 58t-64 77t-41 93t-14.5 107q0 81 30 150t83 119.5t123.5 79t151.5 28.5t151.5 -28.5t123.5 -79t83 -119.5t30 -150zM643 367 q0 67 -14.5 125.5t-42 102t-68.5 69t-94 25.5t-94 -25.5t-69 -69t-42 -102.5t-14 -125q0 -67 14 -126t42 -103t69 -69.5t94 -25.5t94 25.5t68.5 69.5t42 103t14.5 126z" />
<glyph unicode="R" horiz-adv-x="737" d="M104 631l-75 87v14h380q60 0 110.5 -11.5t87.5 -37t57.5 -63.5t20.5 -92q0 -48 -16.5 -83.5t-45 -61.5t-66.5 -41t-81 -21l75 -11l182 -354l-133 44l-114 101l-142 214h-69l-14 -14v-200l76 -87v-14h-308v14l75 87v530zM261 385l14 -14h110q29 0 55 9.5t45.5 29t31 48 t11.5 65.5t-11.5 65.5t-31 48t-45.5 30t-55 10.5h-110l-14 -14v-278z" />
<glyph unicode="S" horiz-adv-x="625" d="M585 217q0 -51 -18.5 -93t-53.5 -72t-86.5 -47t-117.5 -17q-83 0 -156 24t-119 74v217h35q10 -49 27.5 -95.5t44.5 -83t66.5 -59t93.5 -22.5q57 0 91 35.5t34 97.5q0 43 -28 69t-70 44.5t-92 35.5t-92 43t-70 66.5t-28 107.5q0 56 25.5 94.5t64.5 62.5t86.5 34.5 t90.5 10.5q58 0 111.5 -11t94.5 -36v-180h-23q-4 34 -19.5 65t-39.5 54.5t-54.5 38t-65.5 14.5q-56 0 -86 -33t-30 -83q0 -41 28.5 -65.5t71 -43t92 -35t92 -43t71.5 -66.5t29 -103z" />
<glyph unicode="T" horiz-adv-x="730" d="M272 677h-144l-97 -132h-15l28 187h642l28 -187h-15l-97 132h-144l-15 -14v-562l76 -87v-14h-308v14l76 87v562z" />
<glyph unicode="U" horiz-adv-x="802" d="M337 732v-14l-76 -87v-344q0 -45 6 -89t26 -78.5t57 -55.5t99 -21q66 0 105.5 17t61 48t28.5 77t7 105v341l-76 87v14h207v-14l-75 -87v-379q0 -55 -10.5 -103.5t-38.5 -84t-78.5 -56t-130.5 -20.5q-92 0 -158 19t-107.5 56t-60.5 93t-19 131v344l-75 87v14h308z" />
<glyph unicode="V" horiz-adv-x="771" d="M766 732v-14l-98 -87l-247 -631h-78l-239 631l-98 87v14h334v-14l-68 -87l153 -409l5 -66l7 45l168 430l-67 87v14h228z" />
<glyph unicode="W" horiz-adv-x="1163" d="M1151 732v-10l-89 -91l-238 -631h-86l-148 407l-160 -407h-87l-239 631l-98 91v10h333v-10l-68 -91l157 -416l8 -61l11 45l116 296l-52 136l-98 91v10h321v-10l-67 -91l159 -417l9 -54l6 43l161 428l-76 91v10h225z" />
<glyph unicode="X" horiz-adv-x="858" d="M337 358l-214 273l-103 87v14h369v-14l-64 -87l116 -151l130 151l-54 87v14h236v-14l-105 -87l-170 -197l262 -333l103 -87v-14h-361v14l58 87l-166 211l-183 -211l79 -87v-14h-260v14l105 87z" />
<glyph unicode="Y" horiz-adv-x="722" d="M240 0v14l75 87v208l-198 322l-98 87v14h349v-14l-66 -87l105 -171l8 -63l10 46l117 188l-65 87v14h225v-14l-95 -87l-135 -220v-310l76 -87v-14h-308z" />
<glyph unicode="Z" horiz-adv-x="680" d="M643 732l-413 -677h310l109 134h15l-32 -189h-622l419 677h-249l-98 -116h-14l24 171h551z" />
<glyph unicode="[" horiz-adv-x="393" d="M351 -105v-56h-265v893h266v-55h-119l-14 -14v-754l14 -14h118z" />
<glyph unicode="\" horiz-adv-x="459" d="M469 0h-125l-353 732h125z" />
<glyph unicode="]" horiz-adv-x="393" d="M160 -105l14 14v754l-14 14h-119v55h266v-893h-265v56h118z" />
<glyph unicode="^" horiz-adv-x="542" d="M511 367h-110l-130 212l-130 -212h-109l224 365h31z" />
<glyph unicode="_" horiz-adv-x="621" d="M0 0h622v-55h-622v55z" />
<glyph unicode="`" horiz-adv-x="337" d="M89 608q-15 8 -24 19t-9 31q0 30 17 44.5t41 14.5q29 0 43.5 -10t29.5 -32l95 -138h-37l-156 71v0z" />
<glyph unicode="a" horiz-adv-x="540" d="M471 53l57 -43v-10h-200v53q-17 -17 -32.5 -30t-33.5 -20.5t-40 -11t-53 -3.5q-27 0 -51 7t-43 21.5t-30 37t-11 52.5q0 69 71 113t223 62v36q0 46 -17 75t-63 29q-35 0 -56 -20t-34 -70q-5 -22 -19.5 -31.5t-32.5 -9.5q-22 0 -39.5 13t-17.5 40q0 10 3.5 21.5t13.5 23.5 q32 44 81.5 63.5t100.5 19.5q105 0 164 -42t59 -145v-231zM328 233q-46 -6 -77.5 -17.5t-50.5 -27.5t-26.5 -36t-7.5 -41q0 -30 14 -51.5t51 -21.5q46 0 71.5 42.5t25.5 107.5v45z" />
<glyph unicode="b" horiz-adv-x="596" d="M213 404q18 29 52.5 48t77.5 19q104 0 162.5 -64t58.5 -178q0 -52 -14 -96.5t-42 -76.5t-69.5 -50t-95.5 -18q-42 0 -71.5 8.5t-51 23t-35.5 33t-23 37.5l-78 -90h-14v666l-63 52v14l206 42v-370zM315 38q30 0 50 16t32 42t16.5 60.5t4.5 72.5t-4.5 73t-16.5 61t-32 42 t-50 16q-27 0 -46 -14t-31.5 -36.5t-18.5 -51.5t-6 -59v-61q0 -30 6 -59t18.5 -51.5t31.5 -36.5t46 -14z" />
<glyph unicode="c" horiz-adv-x="539" d="M509 118q-35 -62 -82.5 -96t-119.5 -34q-62 0 -114 15t-88.5 46t-57 76t-20.5 104q0 58 21.5 103.5t57 76t84 46.5t101.5 16q65 0 112 -18.5t77 -46.5q14 -14 20.5 -27.5t6.5 -27.5q0 -27 -16.5 -45t-45.5 -18q-20 0 -34 10.5t-20 35.5q-7 28 -16.5 44.5t-22 26t-28 13 t-33.5 3.5q-25 0 -46 -13t-37.5 -37.5t-25.5 -60t-9 -81.5q0 -86 36 -138.5t110 -52.5q44 0 83 26t79 88z" />
<glyph unicode="d" horiz-adv-x="621" d="M534 67l62 -53v-14h-152v94q-9 -18 -22.5 -37t-35.5 -34.5t-53 -25t-73 -9.5q-54 0 -95.5 18t-69 50t-42 76.5t-14.5 96.5q0 114 58.5 178t162.5 64q43 0 78 -18.5t52 -48.5v262l-62 52v14l206 42v-707zM288 38q27 0 46 14t31.5 36.5t18.5 51.5t6 59v61q0 30 -6 58.5 t-18.5 51.5t-32 37t-45.5 14q-30 0 -50 -16t-31.5 -42t-16.5 -61t-5 -73t5 -72.5t16.5 -60.5t31.5 -42t50 -16z" />
<glyph unicode="e" horiz-adv-x="551" d="M526 138q-36 -77 -92 -113.5t-147 -36.5q-56 0 -103.5 17t-81.5 48t-53.5 76t-19.5 100q0 54 20.5 99t54.5 76.5t80 49t99 17.5q115 0 176 -62t61 -167v-16h-345q0 -32 6.5 -65t22 -60.5t41.5 -45t65 -17.5q58 0 104.5 33.5t79.5 93.5zM283 421q-26 0 -45.5 -12.5 t-33 -33t-20.5 -46.5t-8 -53h212v10q0 23 -5.5 46.5t-18.5 43t-32.5 32.5t-48.5 13z" />
<glyph unicode="f" horiz-adv-x="400" d="M77 459l14 14v53q0 45 11 85t34.5 70t62.5 46.5t95 16.5q43 0 76 -10.5t63 -36.5q15 -13 22 -26.5t7 -25.5q0 -30 -19.5 -42.5t-40.5 -12.5q-14 0 -25 8t-17 27q-11 43 -27 55.5t-39 12.5q-34 0 -47 -30.5t-13 -85.5v-104l15 -14h94v-51h-94l-15 -15v-326l63 -53v-14 h-268v14l62 53v326l-14 15h-57v51h57z" />
<glyph unicode="g" horiz-adv-x="599" d="M285 -63q-40 3 -70 10t-52 18q-15 -14 -22.5 -33.5t-7.5 -39.5q0 -34 14.5 -58.5t38.5 -41.5t55.5 -25.5t67.5 -8.5q86 0 127.5 31.5t41.5 75.5q0 19 -11.5 31.5t-35 20t-60 12t-86.5 8.5zM295 188q44 0 67.5 33.5t23.5 85.5t-23.5 85t-67.5 33q-43 0 -66.5 -33 t-23.5 -85t23.5 -85.5t66.5 -33.5zM295 472q31 0 63 -4.5t62 -17.5l132 47l19 -20l-75 -93q10 -17 14 -33.5t4 -43.5q0 -43 -19.5 -74t-51 -51t-70.5 -30t-78 -10h-4q-19 0 -41 -10.5t-41 -23.5q-23 -15 -45 -34q5 -6 19 -11q12 -4 36.5 -8t64.5 -6q65 -3 119 -10t93 -24.5 t61 -47.5t22 -80q0 -51 -29.5 -84.5t-72 -53.5t-91 -28.5t-87.5 -8.5q-61 0 -112.5 11t-88.5 33.5t-57.5 56t-20.5 79.5q0 40 18 68.5t50 47.5q-11 8 -20.5 20t-16 25t-10 25t-3.5 21l133 70q-14 7 -31 19.5t-31 30t-23 40t-9 48.5q0 43 19.5 74.5t51 51.5t70 29.5t77.5 9.5 z" />
<glyph unicode="h" horiz-adv-x="654" d="M574 67l63 -53v-14h-268v14l62 53v270q0 37 -18 54t-48 17q-24 0 -49 -14t-48 -32q-27 -19 -51 -44v-251l63 -53v-14h-269v14l63 53v599l-63 52v14l206 42v-403q31 28 65 50q29 18 64.5 34t71.5 16q77 0 116.5 -36t39.5 -109v-259z" />
<glyph unicode="i" horiz-adv-x="316" d="M223 67l63 -53v-14h-269v14l63 53v305l-63 52v14l206 42v-413zM67 649q0 35 24.5 59t58.5 24t58 -24t24 -59t-24.5 -59t-57.5 -24q-34 0 -58.5 24t-24.5 59z" />
<glyph unicode="j" horiz-adv-x="301" d="M224 0q0 -56 -18.5 -98.5t-50 -77t-75 -64t-92.5 -60.5l-11 40q33 31 53.5 56t32 50t15 54t3.5 69v403l-63 52v14l206 42v-480zM68 649q0 35 24.5 59t58.5 24t58 -24t24 -59t-24.5 -59t-57.5 -24q-34 0 -58.5 24t-24.5 59z" />
<glyph unicode="k" horiz-adv-x="526" d="M293 310l46 19l193 -373l-118 44l-69 67l-106 196l-22 -18v-178l63 -53v-14h-269v14l63 53v599l-63 52v14l206 42v-460l105 90l-34 40v15h187v-15l-87 -51z" />
<glyph unicode="l" horiz-adv-x="318" d="M230 67l63 -53v-14h-268v14l62 53v599l-62 52v14l205 42v-707z" />
<glyph unicode="m" horiz-adv-x="984" d="M899 67l63 -53v-14h-269v14l63 53v270q0 37 -14.5 54t-47.5 17q-24 0 -46.5 -15t-41.5 -33q-22 -20 -41 -46v-247l63 -53v-14h-269v14l63 53v270q0 37 -14.5 54t-47.5 17q-24 0 -46.5 -14t-41.5 -32q-22 -19 -41 -45v-250l63 -53v-14h-268v14l62 53v305l-62 52v14l205 42 v-109q27 28 58 50q27 18 60.5 34t72.5 16q65 0 98.5 -24.5t41.5 -78.5q23 29 52 51q26 19 61 35.5t80 16.5q77 0 110.5 -34.5t33.5 -110.5v-259z" />
<glyph unicode="n" horiz-adv-x="668" d="M584 67l62 -53v-14h-268v14l62 53v264q0 42 -12 59.5t-46 17.5q-23 0 -48.5 -14t-48.5 -32q-27 -19 -54 -45v-250l63 -53v-14h-268v14l62 53v305l-62 52v14l205 42v-109q33 28 67 50q30 18 65.5 34t71.5 16q81 0 115 -34.5t34 -110.5v-259z" />
<glyph unicode="o" horiz-adv-x="579" d="M553 229q0 -57 -21.5 -102t-57.5 -76t-83.5 -47t-100.5 -16t-101 16t-84 47t-57 76t-21 102t21 102.5t57 76t84 47t101 16.5t100.5 -16.5t83.5 -47t57.5 -76t21.5 -102.5zM407 229q0 39 -7 74t-21 61t-36 41.5t-53 15.5t-53 -15.5t-36.5 -41.5t-21 -61t-6.5 -74 t6.5 -73.5t21 -60.5t36.5 -41.5t53 -15.5t53 15.5t36 41.5t21 60.5t7 73.5z" />
<glyph unicode="p" horiz-adv-x="600" d="M75 392l-63 52v15h152v-94q9 18 23 37t36 34.5t52.5 25t72.5 9.5q54 0 95.5 -18.5t69.5 -50.5t42 -76t14 -97q0 -114 -58 -177.5t-163 -63.5q-43 0 -77.5 18.5t-52.5 47.5v-263l63 -52v-14h-269v14l63 52v601zM321 421q-27 0 -46.5 -14t-32 -36.5t-18.5 -51.5t-6 -59v-61 q0 -30 6 -58.5t18.5 -51.5t32 -37t46.5 -14q30 0 49.5 16t31.5 42t16.5 60.5t4.5 72.5t-4.5 73t-16.5 61t-31.5 42t-49.5 16z" />
<glyph unicode="q" horiz-adv-x="604" d="M382 54q-18 -29 -52.5 -47.5t-77.5 -18.5q-104 0 -162.5 64t-58.5 177q0 52 14 96.5t42 76.5t69.5 50.5t95.5 18.5q42 0 71.5 -8.5t51 -23t35.5 -33t23 -37.5l78 90h14v-668l63 -52v-14h-269v14l63 52v263zM280 421q-30 0 -50 -16t-32 -42t-16.5 -61t-4.5 -73t4.5 -72.5 t16.5 -60.5t32 -42t50 -16q27 0 46 14t31.5 36.5t18.5 51.5t6 59v61q0 30 -6 59t-18.5 51.5t-31.5 36.5t-46 14z" />
<glyph unicode="r" horiz-adv-x="488" d="M333 422q-22 0 -42.5 -16.5t-36 -44t-25.5 -65t-10 -78.5v-151l63 -53v-14h-269v14l63 53v305l-63 52v14l206 42v-108q25 46 65 72t89 26q31 0 58.5 -12.5t41.5 -42.5q12 -25 12 -44q0 -27 -15.5 -42.5t-40.5 -15.5q-24 0 -39 14.5t-18 45.5q-2 24 -11.5 36.5t-27.5 12.5 z" />
<glyph unicode="s" horiz-adv-x="454" d="M219 -12q-39 0 -70 7t-55 19t-41 25.5t-26 26.5v124h20q23 -71 67 -111.5t105 -40.5q39 0 55.5 20.5t16.5 53.5q0 24 -19 37.5t-47 23.5t-61.5 20.5t-61.5 27t-47 43t-19 70.5q0 34 16.5 59.5t43.5 43t61 26t71 8.5q43 0 82 -9.5t71 -30.5v-138h-16q-16 59 -48.5 93.5 t-73.5 34.5q-32 0 -53.5 -18t-21.5 -54q0 -26 19.5 -40t48 -24t62.5 -18t62.5 -23t48 -39t19.5 -64q0 -41 -18.5 -70t-48 -47.5t-67 -27t-75.5 -8.5z" />
<glyph unicode="t" horiz-adv-x="422" d="M237 133q0 -44 15 -69t56 -25q28 0 47.5 17t42.5 53l22 -16q-14 -26 -28 -45.5t-31.5 -33t-39.5 -20t-53 -6.5q-46 0 -79 12.5t-54.5 35.5t-31.5 55.5t-10 71.5v231l-14 15h-63v21q53 13 89.5 45.5t60.5 67.5q27 40 44 87h27v-157l14 -14h95v-50h-95l-14 -15v-261z" />
<glyph unicode="u" horiz-adv-x="668" d="M75 372l-63 52v14l206 42v-352q0 -42 12.5 -59.5t45.5 -17.5q22 0 48 14t50 31q27 19 53 45v231l-62 52v14l205 42v-413l63 -53v-14h-206v88q-33 -29 -67 -50q-30 -19 -65.5 -34.5t-71.5 -15.5q-81 0 -114.5 34t-33.5 111v239z" />
<glyph unicode="v" horiz-adv-x="536" d="M522 444l-63 -52l-151 -392h-78l-154 392l-66 52v15h252v-15l-40 -43l90 -226l3 -44l6 39l89 231l-39 43v15h151v-15z" />
<glyph unicode="w" horiz-adv-x="803" d="M806 444l-64 -52l-136 -392h-82l-105 309l-111 -309h-86l-146 392l-66 52v15h252v-15l-40 -43l82 -226l3 -44l5 39l103 289h98l93 -284l3 -44l5 39l77 231l-39 43v15h154v-15z" />
<glyph unicode="x" horiz-adv-x="560" d="M267 14l50 43l-79 112l-85 -107l29 -48v-14h-173v14l82 53l116 145l-129 180l-67 52v15h257v-15l-34 -42l59 -81l60 74l-28 49v15h164v-15l-74 -52l-91 -114l151 -211l76 -53v-14h-284v14z" />
<glyph unicode="y" horiz-adv-x="513" d="M502 444l-64 -52l-221 -585q-13 -34 -26 -52.5t-25.5 -28.5t-25 -12t-24.5 -2q-25 0 -40.5 16t-18 36t9.5 38.5t42 22.5q38 5 54.5 18t29.5 39l40 109l-171 401l-65 52v15h252v-15l-40 -43l86 -226l3 -29l5 35l85 220l-39 43v15h153v-15z" />
<glyph unicode="z" horiz-adv-x="498" d="M457 136v-136h-437l273 409h-149l-71 -87h-16v137h414l-275 -409h183l63 86h15z" />
<glyph unicode="{" horiz-adv-x="546" d="M224 286l25 -3q36 -8 46.5 -33.5t10.5 -65.5v-192q0 -39 9.5 -63.5t24.5 -38.5t35.5 -19t43.5 -5v-27q-45 0 -89 4.5t-78.5 19t-55.5 41.5t-21 72v188q0 49 -16 76.5t-51 27.5v35q36 0 51.5 27.5t15.5 77.5v187q0 45 21 72t55.5 41.5t78.5 19t89 4.5v-26 q-23 0 -43.5 -5.5t-35.5 -19t-24.5 -38.5t-9.5 -63v-193q0 -40 -10.5 -65t-46.5 -33z" />
<glyph unicode="|" horiz-adv-x="246" d="M80 732h87v-1007h-87v1007z" />
<glyph unicode="}" horiz-adv-x="546" d="M298 289q-36 8 -46.5 33t-10.5 65v193q0 39 -9.5 63.5t-25 38t-35.5 19t-43 5.5v26q45 0 89 -4.5t78.5 -19t55.5 -41.5t21 -72v-187q0 -49 15.5 -77t51.5 -28v-35q-36 0 -51.5 -27.5t-15.5 -76.5v-188q0 -45 -21 -72t-55.5 -41.5t-78.5 -19t-89 -4.5v27q23 0 43 5 t35.5 19t25 38.5t9.5 63.5v192q0 40 10.5 65t46.5 34l25 3z" />
<glyph unicode="~" horiz-adv-x="615" d="M574 404q-7 -61 -26 -109q-9 -20 -21.5 -39.5t-30 -35t-40.5 -25t-52 -9.5q-39 0 -65 14t-48 30.5t-43.5 30t-49.5 13.5q-38 0 -61 -14.5t-37 -32.5q-15 -20 -23 -47h-31q6 60 27 109q9 20 21 39.5t29.5 35t40.5 25t53 9.5q39 0 65 -13.5t48 -30t43 -30.5t51 -14 q37 0 60.5 15t36.5 32q15 20 24 47h29z" />
<glyph unicode="&#xa1;" horiz-adv-x="353" d="M82 663.004q0 -15.999 6.5 -30.998t17 -26.498t25.5 -18.499q15 -6.99902 31 -6.99902t31 6.99902q15 7 27 18.499t18.5 26.498t6.5 30.998t-6.5 30.998t-18.5 25.999q-12 10.999 -26.5 17.499q-14.5 6.49902 -31.5 6.49902q-33 0 -56.5 -23.998 q-23.5 -23.999 -23.5 -56.9971zM127 500.014l-44 -439.973q0 -33.998 23 -52.9971t56 -18.999q34 0 57 18.999t23 52.9971l-44 439.973h-71z" />
<glyph unicode="&#xa2;" horiz-adv-x="583" d="M273 41q-52 6 -95 24t-73 48t-47 72t-17 96q0 53 18 95.5t49.5 73t74 48.5t90.5 22v140h60v-139q54 -4 94 -21.5t68 -42.5q14 -14 20 -27.5t6 -27.5q0 -27 -15.5 -45t-42.5 -18q-22 0 -36.5 10.5t-20.5 35.5q-11 43 -29.5 61.5t-43.5 23.5v-381q45 0 84 26t79 88l27 -34 q-33 -60 -78.5 -93.5t-111.5 -36.5v-138h-60v140zM187 281q0 -68 21 -114.5t65 -66.5v366q-38 -14 -62 -61t-24 -124z" />
<glyph unicode="&#xa3;" horiz-adv-x="583" d="M86 406h82q-15 17 -31 36t-29 40t-21 44t-8 48q0 40 16.5 72t44.5 53.5t66 33t82 11.5q59 0 112 -19.5t76 -60.5q11 -20 11 -37q0 -30 -21 -46.5t-44 -16.5q-19 0 -34 11t-23 36q-14 46 -31 64t-46 18q-27 0 -46.5 -23t-19.5 -66q0 -34 7.5 -60.5t18 -49.5t22 -44.5 t20.5 -43.5h130v-54h-117q1 -6 1.5 -11.5t0.5 -11.5q0 -32 -6 -63.5t-17.5 -60.5t-26.5 -54t-34 -43h170l112 135h13l-43 -243h-421v16q37 31 69 62t55 64t35.5 70t12.5 80q0 17 -4.5 31.5t-12.5 28.5h-121v54z" />
<glyph unicode="&#xa4;" horiz-adv-x="583" d="M135 93q-40 48 -40 116q0 34 11 63.5t29 53.5l-62 46l57 57l47 -65q25 16 54 25t62 9t62 -8.5t53 -24.5l47 63l57 -57l-61 -45q19 -24 30 -53.5t11 -63.5t-11 -63.5t-30 -53.5l60 -45l-57 -57l-47 63q-48 -33 -114 -33q-33 0 -62 9t-53 24l-48 -63l-57 57zM178 209 q0 -58 32 -95t83 -37t83.5 37t32.5 95t-32.5 95.5t-83.5 37.5t-83 -37.5t-32 -95.5z" />
<glyph unicode="&#xa5;" horiz-adv-x="583" d="M138 369h91l-161 262l-98 87v14h348v-14l-65 -87l104 -171l9 -63l10 46l127 188l-65 87v14h226v-14l-96 -87l-145 -220v-42h122v-56h-122v-52h122v-55h-122v-105l76 -87v-14h-309v14l76 87v105h-128v55h128v48l-3 4h-125v56z" />
<glyph unicode="&#xa6;" horiz-adv-x="246" d="M80 282v450h87v-450h-87zM167 175v-450h-87v450h87z" />
<glyph unicode="&#xa7;" horiz-adv-x="583" d="M83 578q0 44 17 75t45 51.5t65 30t76 9.5q74 0 123 -20.5t75 -69.5q6 -11 9 -21t3 -20q0 -30 -18 -44.5t-42 -14.5q-44 0 -61 48q-19 53 -38 72.5t-51 19.5q-31 0 -46 -26.5t-15 -63.5q0 -40 20.5 -69.5t51 -54.5t66 -49t66 -53t51 -66t20.5 -88q0 -26 -9 -48t-23 -41.5 t-33 -36.5t-40 -30q20 -17 39.5 -36.5t33.5 -42t23 -49.5t9 -61q0 -44 -17 -75t-45 -51.5t-65 -30.5t-76 -10q-74 0 -123 20.5t-76 69.5q-6 11 -8.5 21.5t-2.5 19.5q0 27 18 43.5t41 16.5q44 0 62 -48q19 -53 37.5 -73t51.5 -20q31 0 45.5 27t14.5 64q0 40 -20.5 69.5 t-50.5 54.5t-66 49t-66 53t-50.5 65.5t-20.5 87.5q0 26 8.5 48.5t23 42t33.5 36t39 30.5q-22 16 -40.5 35t-33 42t-22.5 50.5t-8 61.5zM355 201q0 23 -8.5 42t-23 36t-33.5 32.5t-40 30.5q-23 -36 -23 -86q0 -24 8.5 -43t22.5 -36t33 -32.5t41 -30.5q11 17 17 38.5t6 48.5z " />
<glyph unicode="&#xa8;" horiz-adv-x="337" d="M0 686q0 30 20.5 50.5t50.5 20.5t50 -20.5t20 -50.5t-20.5 -50.5t-49.5 -20.5q-30 0 -50.5 20.5t-20.5 50.5zM197 686q0 30 20.5 50.5t49.5 20.5q30 0 50.5 -20.5t20.5 -50.5t-20.5 -50.5t-50.5 -20.5t-50 20.5t-20 50.5z" />
<glyph unicode="&#xa9;" horiz-adv-x="849" d="M41 366q0 81 29.5 150.5t81.5 120t122 79t151 28.5t151 -28.5t122 -79t81.5 -120.5t29.5 -150q0 -81 -29.5 -150.5t-81.5 -120t-122 -79t-151 -28.5t-151 28.5t-122 79t-81.5 120t-29.5 150.5zM124 366q0 -67 23 -124.5t63 -99.5t95 -66.5t120 -24.5t120 24.5t95 66.5 t63 99.5t23 124.5t-23 124t-63 99.5t-95.5 67t-119.5 24.5q-65 0 -120 -24.5t-95 -67t-63 -99.5t-23 -124zM438 552q-65 0 -101 -49.5t-36 -136.5q0 -45 12.5 -79.5t33 -58t47 -36t56.5 -12.5q49 0 88 22.5t70 78.5l23 -19q-9 -30 -28 -54t-43.5 -40.5t-54 -26t-58.5 -9.5 q-59 0 -106.5 17t-81.5 47.5t-52.5 73.5t-18.5 96q0 49 20.5 92t55 74t80.5 49t97 18q26 0 64 -6.5t70 -22.5v-125h-13q-5 18 -15 37.5t-25.5 34.5t-36 25t-47.5 10z" />
<glyph unicode="&#xaa;" horiz-adv-x="357" d="M307.708 311.156l38.8115 -29.334v-6.82227h-136.182v36.1562q-11.5752 -11.5977 -22.1299 -20.4658q-10.5537 -8.86816 -22.8096 -13.9854q-12.2568 -5.11621 -27.2363 -7.50391q-14.9805 -2.3877 -36.0889 -2.3877q-18.3838 0 -34.7256 4.77539t-29.2793 14.667 t-20.4277 25.2412t-7.49023 35.8154q0 47.0703 48.3447 77.0869t151.843 42.2959v24.5586q0 31.3809 -11.5752 51.1641q-11.5752 19.7842 -42.8975 19.7842q-23.832 0 -38.1309 -13.6436q-14.2988 -13.6445 -23.1504 -47.7539q-3.40527 -15.0078 -13.2783 -21.4893 q-9.87305 -6.48047 -22.1299 -6.48047q-14.9795 0 -26.8955 8.86816q-11.916 8.86914 -11.916 27.2881q0 6.82227 2.38379 14.667q2.38281 7.8457 9.19141 16.0312q21.7891 30.0166 55.4941 43.3193t68.4316 13.3027q71.4951 0 111.669 -28.6523 q40.1738 -28.6514 40.1738 -98.917v-157.586zM210.338 433.95q-31.3223 -4.09277 -52.7705 -11.9385q-21.4482 -7.84473 -34.3857 -18.7598t-18.0439 -24.5586q-5.10645 -13.6445 -5.10645 -27.9707q0 -20.4648 9.53223 -35.1328q9.53223 -14.667 34.7266 -14.667 q31.3213 0 48.6846 28.9932t17.3633 73.3359v30.6982z" />
<glyph unicode="&#xab;" horiz-adv-x="557" d="M315 537v-115l-164 -162l164 -162v-114l-274 267v18zM511 537v-115l-165 -162l165 -162v-114l-274 267v18z" />
<glyph unicode="&#xac;" horiz-adv-x="542" d="M90 300h362v-200h-56v130l-14 15h-292v55z" />
<glyph unicode="&#xad;" horiz-adv-x="467" d="M37 349h380v-55h-380v55z" />
<glyph unicode="&#xae;" horiz-adv-x="849" d="M41 366q0 81 29.5 150.5t81.5 120t122 79t151 28.5t151 -28.5t122 -79t81.5 -120.5t29.5 -150q0 -81 -29.5 -150.5t-81.5 -120t-122 -79t-151 -28.5t-151 28.5t-122 79t-81.5 120t-29.5 150.5zM232 583v13h217q31 0 63.5 -5t59 -19.5t43.5 -39.5t17 -66q0 -30 -12 -52 t-31.5 -37.5t-43 -24.5t-46.5 -13l53 -7l95 -181q37 42 58 96.5t21 118.5q0 67 -23 124t-63 99.5t-95.5 67t-119.5 24.5q-65 0 -120 -24.5t-95 -67t-63 -100t-23 -123.5q0 -67 23 -124.5t63 -99.5t95 -66.5t120 -24.5q58 0 108.5 19.5t89.5 54.5l-34 12l-75 64l-91 134h-41 l-7 -7v-127l44 -50v-14h-187v14l44 50v331zM375 381l7 -7h52q47 0 68 25t21 67q0 43 -21 67t-68 24h-52l-7 -7v-169z" />
<glyph unicode="&#xaf;" horiz-adv-x="337" d="M22 703h293v-77h-293v77z" />
<glyph unicode="&#xb0;" horiz-adv-x="337" d="M42 632q0 26 9.5 46.5t27 35.5t40.5 22.5t50 7.5t50 -7.5t40 -22.5t27 -36t10 -46q0 -27 -10 -47.5t-27 -35t-40 -22.5t-50 -8t-50 8t-40.5 22.5t-27 35t-9.5 47.5zM120 632q0 -27 14 -42.5t35 -15.5q20 0 34.5 15.5t14.5 42.5t-14.5 42t-34.5 15t-34.5 -15t-14.5 -42z " />
<glyph unicode="&#xb1;" horiz-adv-x="542" d="M298 611v-207h208v-55h-208v-208h-55v208h-207v55h207v207h55zM36 81h470v-55h-470v55z" />
<glyph unicode="&#xb2;" d="M249 486l66 61h14l-24 -129h-266v15q19 17 48.5 50t57 72.5t47 81t19.5 77.5q0 30 -11.5 46.5t-37.5 16.5q-33 0 -55.5 -26.5t-36.5 -58.5l-30 9q7 23 20 44t31.5 37.5t42 26.5t50.5 10q26 0 48.5 -6.5t40 -20.5t27.5 -36t10 -51q0 -31 -12.5 -59.5t-34 -55t-50.5 -52.5 t-61 -52h97z" />
<glyph unicode="&#xb3;" d="M239 633q16 -2 32 -9.5t29 -18.5t21.5 -28t8.5 -39q0 -32 -13.5 -55.5t-35.5 -39t-51.5 -23t-63.5 -7.5q-44 0 -77.5 15t-45.5 39q-7 13 -7 26q0 17 11.5 27t26.5 10q27 0 32 -29q10 -50 62 -50q28 0 46 22t18 65q0 37 -22 56t-54 21v25q29 0 50 21.5t21 65.5 q0 25 -13 39t-37 14q-27 0 -46 -17.5t-35 -48.5l-27 16q13 34 43.5 61.5t83.5 27.5q20 0 39.5 -6.5t34.5 -19t23.5 -30.5t8.5 -40q0 -30 -16.5 -56t-46.5 -34z" />
<glyph unicode="&#xb4;" horiz-adv-x="337" d="M93 537h-37l95 138q15 23 30 32.5t43 9.5q24 0 41 -14.5t17 -44.5q0 -20 -9 -31t-24 -19z" />
<glyph unicode="&#xb5;" horiz-adv-x="583" d="M44 372l-62 52v14l205 42v-352q0 -42 12.5 -59.5t46.5 -17.5q22 0 47.5 14t49.5 31q27 19 53 45v231l-62 52v14l206 42v-413l62 -53v-14h-206v88q-33 -29 -66 -50q-30 -19 -66 -34.5t-71 -15.5h-6v-263h-143v647z" />
<glyph unicode="&#xb6;" horiz-adv-x="555" d="M425 663l-14 14h-59l-14 -14v-938h-13l-86 75v453q-50 0 -95.5 20t-79 53.5t-53 78.5t-19.5 95t19.5 92.5t53 73.5t78.5 48.5t96 17.5h285v-1007h-13l-86 75v863z" />
<glyph unicode="&#xb7;" horiz-adv-x="271" d="M50 313q0 16 6.5 31t17.5 27t26 18.5t31 6.5t31 -6.5t27 -18.5t18.5 -26.5t6.5 -31.5q0 -16 -6.5 -31t-18.5 -25.5t-27 -17.5t-31 -7q-33 0 -57 24t-24 57z" />
<glyph unicode="&#xb8;" horiz-adv-x="337" d="M118 35h57l-39 -89q14 10 30.5 14t31.5 4q37 0 57.5 -18t20.5 -50q0 -24 -9.5 -40.5t-26 -27t-37 -16t-41.5 -5.5q-20 0 -45 6.5t-42 20.5l13 25q19 -7 32.5 -9.5t25.5 -2.5q28 0 39 10t11 28q0 15 -10.5 23t-22.5 8q-17 0 -34 -7.5t-29 -20.5h-20z" />
<glyph unicode="&#xb9;" d="M95 418v13l57 48v219q0 30 -11 45.5t-38 15.5q-12 0 -25 -3v16l168 54v-347l55 -48v-13h-206z" />
<glyph unicode="&#xba;" horiz-adv-x="377" d="M368.622 431.222q0 -38.8848 -14.6816 -69.584q-14.6807 -30.6982 -39.2646 -51.8457q-24.582 -21.1484 -57.0186 -32.0635q-32.4355 -10.915 -68.6279 -10.915q-36.1914 0 -68.9688 10.915t-57.3604 32.0635q-24.583 21.1475 -38.9229 51.8457 q-14.3398 30.6992 -14.3398 69.584t14.3398 69.9238q14.3398 31.04 38.9229 51.8467t57.3604 32.0635q32.7773 11.2559 68.9688 11.2559q36.1924 0 68.6279 -11.2559q32.4365 -11.2568 57.0186 -32.0635q24.584 -20.8066 39.2646 -51.8467 q14.6816 -31.0391 14.6816 -69.9238zM268.925 431.222q0 26.6055 -4.78027 50.4814q-4.78027 23.877 -14.3398 41.6143q-9.56055 17.7363 -24.583 28.3105q-15.0234 10.5742 -36.1924 10.5742q-21.168 0 -36.1914 -10.5742q-15.0225 -10.5742 -24.9238 -28.3105 q-9.90234 -17.7373 -14.3408 -41.6143q-4.43848 -23.876 -4.43848 -50.4814t4.43848 -50.1416q4.43848 -23.5352 14.3408 -41.2725q9.90137 -17.7363 24.9238 -28.3105q15.0234 -10.5742 36.1914 -10.5742q21.1689 0 36.1924 10.5742q15.0225 10.5742 24.583 28.3105 q9.55957 17.7373 14.3398 41.2725q4.78027 23.5361 4.78027 50.1416z" />
<glyph unicode="&#xbb;" horiz-adv-x="557" d="M516 269v-18l-274 -267v114l165 162l-165 162v115zM321 269v-18l-275 -267v114l165 162l-165 162v115z" />
<glyph unicode="&#xbc;" horiz-adv-x="675" d="M54 298v13l57 48v220q0 28 -11 44t-38 16q-12 0 -25 -3v16l170 55v-348l55 -48v-13h-208zM638 152v-36h-59v-55l55 -48v-13h-206v13l56 48v55h-147v14l203 279h39v-257h59zM484 269l-87 -117h87v117zM560 738l43 -24l-418 -720l-43 25z" />
<glyph unicode="&#xbd;" horiz-adv-x="675" d="M590 69l66 60h14l-24 -129h-266v15q19 17 48.5 50t57 72.5t47 81t19.5 77.5q0 30 -11.5 46.5t-37.5 16.5q-33 0 -55.5 -26.5t-36.5 -58.5l-30 10q7 23 20 43.5t31.5 37t42 26.5t50.5 10q26 0 48.5 -6.5t40 -20.5t27.5 -36t10 -51q0 -31 -12.5 -59t-34 -55t-50.5 -53 t-61 -51h97zM24 298v13l56 48v220q0 28 -11 44t-37 16q-12 0 -26 -3v16l170 55v-348l55 -48v-13h-207zM529 738l43 -24l-417 -720l-43 25z" />
<glyph unicode="&#xbe;" horiz-adv-x="675" d="M225 517q16 -2 32 -9t29.5 -18.5t21.5 -28.5t8 -39q0 -32 -13 -55.5t-35 -39t-52 -23t-63 -7.5q-44 0 -77.5 15.5t-45.5 38.5q-7 13 -7 26q0 17 11 27.5t26 10.5q27 0 33 -30q10 -50 62 -50q28 0 46 22t18 65q0 37 -22 56.5t-55 21.5v24q29 0 50.5 21.5t21.5 65.5 q0 25 -13.5 39.5t-36.5 14.5q-27 0 -46.5 -17.5t-34.5 -49.5l-28 16q13 34 44 61.5t83 27.5q20 0 40 -6.5t34.5 -18.5t23.5 -30t9 -41q0 -30 -17 -56t-47 -34zM652 152v-36h-59v-55l55 -48v-13h-206v13l57 48v55h-148v14l203 279h39v-257h59zM499 269l-87 -117h87v117z M574 738l43 -24l-417 -720l-43 25z" />
<glyph unicode="&#xbf;" horiz-adv-x="560" d="M372.012 663.004q0 -15.999 -7 -30.998q-6.99902 -14.999 -17.499 -26.498q-10.499 -11.499 -25.498 -18.499q-14.999 -6.99902 -30.998 -6.99902t-30.998 6.99902q-14.999 7 -26.999 18.499q-11.999 11.499 -18.498 26.498q-6.5 14.999 -6.5 30.998t6.5 30.998 q6.49902 14.999 18.498 25.999q12 10.999 26.499 17.499q14.499 6.49902 31.498 6.49902q32.998 0 56.9961 -23.998q23.999 -23.999 23.999 -56.9971zM323.015 508.014v-40.9971q0 -37.998 -9 -65.4961q-8.99902 -27.499 -22.998 -48.9971q-13.999 -21.499 -29.998 -40.498 t-29.998 -41.4971q-14 -22.499 -22.999 -50.9971t-8.99902 -68.4961q0 -52.9961 19.998 -82.4951q19.999 -29.498 69.9961 -29.498t75.9951 37.498q25.999 37.498 39.998 101.494q6.99902 30.998 26.498 44.9971t43.4971 13.999q26.999 0 48.9971 -16.499 q21.999 -16.499 21.999 -52.4971q0 -24.998 -14.999 -51.9971q-32.998 -60.9961 -93.9941 -94.4941t-147.991 -33.498q-49.9971 0 -94.9941 10q-44.9971 9.99902 -77.4951 31.498t-51.9971 53.4971t-19.499 74.9951q0 30.998 6.5 57.4961q6.49902 26.499 21.998 50.9971 q15.499 24.499 39.998 48.4971q24.498 23.999 61.4961 48.9971q29.998 19.999 45.9971 38.998q15.999 18.998 23.999 35.9971q7.99902 16.999 9.99902 33.498t2 35.498h65.9961z" />
<glyph unicode="&#xc0;" horiz-adv-x="815" d="M538 101l-55 133h-266l-54 -133l62 -87v-14h-214v14l90 87l269 655h67l269 -655l98 -87v-14h-332v14zM460 290l-106 255l-4 36l-4 -27l-106 -264h220zM306 881q-15 8 -24 19t-9 31q0 30 17 44.5t41 14.5q29 0 43.5 -10t29.5 -32l95 -138h-37l-156 71v0z" />
<glyph unicode="&#xc1;" horiz-adv-x="815" d="M538 101l-55 133h-266l-54 -133l62 -87v-14h-214v14l90 87l269 655h67l269 -655l98 -87v-14h-332v14zM460 290l-106 255l-4 36l-4 -27l-106 -264h220zM309 810h-37l95 138q15 23 30 32.5t43 9.5q24 0 41 -14.5t17 -44.5q0 -20 -9 -31t-24 -19z" />
<glyph unicode="&#xc2;" horiz-adv-x="815" d="M538 101l-55 133h-266l-54 -133l62 -87v-14h-214v14l90 87l269 655h67l269 -655l98 -87v-14h-332v14zM460 290l-106 255l-4 36l-4 -27l-106 -264h220zM260 799l115 165h56l115 -165h-37l-106 59l-107 -59h-36z" />
<glyph unicode="&#xc3;" horiz-adv-x="815" d="M538 101l-55 133h-266l-54 -133l62 -87v-14h-214v14l90 87l269 655h67l269 -655l98 -87v-14h-332v14zM460 290l-106 255l-4 36l-4 -27l-106 -264h220zM594 975q-7 -42 -25 -74q-14 -29 -39.5 -52t-66.5 -23q-35 0 -56.5 10.5t-37.5 23t-32 23.5t-38 11q-25 0 -42 -9 t-29 -20q-13 -12 -21 -29h-26q7 41 25 75q7 13 16.5 27t23 24t30 17t36.5 7q35 0 56.5 -11t37.5 -23t31 -23t39 -11q25 0 42 9t29 20q12 12 21 28h26z" />
<glyph unicode="&#xc4;" horiz-adv-x="815" d="M538 101l-55 133h-266l-54 -133l62 -87v-14h-214v14l90 87l269 655h67l269 -655l98 -87v-14h-332v14zM460 290l-106 255l-4 36l-4 -27l-106 -264h220zM218 888q0 30 20.5 50.5t50.5 20.5t50 -20.5t20 -50.5t-20.5 -50.5t-49.5 -20.5q-30 0 -50.5 20.5t-20.5 50.5z M415 888q0 30 20.5 50.5t49.5 20.5q30 0 50.5 -20.5t20.5 -50.5t-20.5 -50.5t-50.5 -20.5t-50 20.5t-20 50.5z" />
<glyph unicode="&#xc5;" horiz-adv-x="815" d="M538 101l-55 133h-266l-54 -133l62 -87v-14h-214v14l90 87l269 655h67l269 -655l98 -87v-14h-332v14zM460 290l-106 255l-4 36l-4 -27l-106 -264h220zM283 910q0 43 29 69t75 26t75 -26t29 -69t-29 -69t-75 -26t-75 26t-29 69zM352 910q0 -14 9 -24.5t26 -10.5t26 10.5 t9 24.5t-9 24.5t-26 10.5t-26 -10.5t-9 -24.5z" />
<glyph unicode="&#xc6;" horiz-adv-x="1088" d="M503 101v133h-232l-85 -133l42 -87l-3 -14h-214l3 14l111 87l354 555l-52 62v14h575l19 -173h-14l-79 118h-254l-15 -14v-230l15 -14h219l45 62h14v-180h-14l-45 63h-219l-15 -15v-279l15 -15h267l102 132h15l-27 -187h-604v14zM503 290v311l-197 -311h197z" />
<glyph unicode="&#xc7;" horiz-adv-x="746" d="M315 -2q-68 13 -120.5 46.5t-88.5 81t-55.5 109t-19.5 132.5q0 80 30.5 149t84.5 119.5t126 79.5t155 29q24 0 52 -2.5t57 -8.5t58.5 -15.5t53.5 -25.5v-183h-24q-9 34 -26 66.5t-42.5 57.5t-58.5 40.5t-74 15.5q-54 0 -95.5 -24.5t-70 -67.5t-43 -102t-14.5 -128 q0 -76 14.5 -136t43.5 -101.5t70.5 -64t93.5 -22.5q77 0 141.5 42.5t119.5 145.5l33 -22q-51 -115 -124.5 -168t-177.5 -53q-26 0 -50 3l-20 -45q14 10 30.5 14t31.5 4q37 0 57.5 -18t20.5 -50q0 -24 -9.5 -40.5t-26 -27t-37 -16t-41.5 -5.5q-20 0 -45 6.5t-42 20.5l13 25 q19 -7 32.5 -9.5t25.5 -2.5q28 0 38.5 10t10.5 28q0 15 -10 23t-22 8q-17 0 -34.5 -7.5t-28.5 -20.5h-20z" />
<glyph unicode="&#xc8;" horiz-adv-x="690" d="M29 718v14h575l19 -173h-15l-79 118h-254l-14 -14v-230l14 -14h220l45 62h14v-180h-14l-45 63h-220l-14 -15v-279l14 -15h268l102 132h14l-26 -187h-604v14l75 87v530zM267 881q-15 8 -24 19t-9 31q0 30 17 44.5t41 14.5q29 0 43.5 -10t29.5 -32l95 -138h-37l-156 71v0z " />
<glyph unicode="&#xc9;" horiz-adv-x="690" d="M29 718v14h575l19 -173h-15l-79 118h-254l-14 -14v-230l14 -14h220l45 62h14v-180h-14l-45 63h-220l-14 -15v-279l14 -15h268l102 132h14l-26 -187h-604v14l75 87v530zM271 810h-37l95 138q15 23 30 32.5t43 9.5q24 0 41 -14.5t17 -44.5q0 -20 -9 -31t-24 -19z" />
<glyph unicode="&#xca;" horiz-adv-x="690" d="M29 718v14h575l19 -173h-15l-79 118h-254l-14 -14v-230l14 -14h220l45 62h14v-180h-14l-45 63h-220l-14 -15v-279l14 -15h268l102 132h14l-26 -187h-604v14l75 87v530zM204 799l115 165h56l115 -165h-37l-106 59l-107 -59h-36z" />
<glyph unicode="&#xcb;" horiz-adv-x="690" d="M29 718v14h575l19 -173h-15l-79 118h-254l-14 -14v-230l14 -14h220l45 62h14v-180h-14l-45 63h-220l-14 -15v-279l14 -15h268l102 132h14l-26 -187h-604v14l75 87v530zM178 888q0 30 20.5 50.5t50.5 20.5t50 -20.5t20 -50.5t-20.5 -50.5t-49.5 -20.5q-30 0 -50.5 20.5 t-20.5 50.5zM375 888q0 30 20.5 50.5t49.5 20.5q30 0 50.5 -20.5t20.5 -50.5t-20.5 -50.5t-50.5 -20.5t-50 20.5t-20 50.5z" />
<glyph unicode="&#xcc;" horiz-adv-x="369" d="M31 718v14h308v-14l-76 -87v-530l76 -87v-14h-308v14l75 87v530zM111 881q-15 8 -24 19t-9 31q0 30 17 44.5t41 14.5q29 0 43.5 -10t29.5 -32l95 -138h-37l-156 71v0z" />
<glyph unicode="&#xcd;" horiz-adv-x="369" d="M31 718v14h308v-14l-76 -87v-530l76 -87v-14h-308v14l75 87v530zM115 810h-37l95 138q15 23 30 32.5t43 9.5q24 0 41 -14.5t17 -44.5q0 -20 -9 -31t-24 -19z" />
<glyph unicode="&#xce;" horiz-adv-x="369" d="M31 718v14h308v-14l-76 -87v-530l76 -87v-14h-308v14l75 87v530zM48 799l115 165h56l115 -165h-37l-106 59l-107 -59h-36z" />
<glyph unicode="&#xcf;" horiz-adv-x="369" d="M26 718v14h308v-14l-76 -87v-530l76 -87v-14h-308v14l75 87v530zM16 888q0 30 20.5 50.5t50.5 20.5t50 -20.5t20 -50.5t-20.5 -50.5t-49.5 -20.5q-30 0 -50.5 20.5t-20.5 50.5zM213 888q0 30 20.5 50.5t49.5 20.5q30 0 50.5 -20.5t20.5 -50.5t-20.5 -50.5t-50.5 -20.5 t-50 20.5t-20 50.5z" />
<glyph unicode="&#xd0;" horiz-adv-x="822" d="M31 403h64l15 15v213l-76 87v14h369q87 0 157.5 -26.5t119.5 -74.5t75.5 -116t26.5 -149q0 -82 -26.5 -149t-75.5 -115.5t-119.5 -75t-157.5 -26.5h-369v14l76 87v214l-15 15h-64v73zM266 70l15 -15h98q65 0 111.5 23.5t76.5 65t44.5 98.5t14.5 124q0 68 -14.5 124.5 t-44.5 98t-77 65t-111 23.5h-98l-15 -14v-245l15 -15h64v-73h-64l-15 -15v-245z" />
<glyph unicode="&#xd1;" horiz-adv-x="765" d="M738 732v-14l-75 -87v-631l-488 504l-16 53v-456l75 -87v-14h-206v14l75 87v530l-75 87v14h154l406 -419l19 -55v373l-76 87v14h207zM570 975q-7 -42 -25 -74q-14 -29 -39.5 -52t-66.5 -23q-35 0 -56.5 10.5t-37.5 23t-32 23.5t-38 11q-25 0 -42 -9t-29 -20 q-13 -12 -21 -29h-26q7 41 25 75q7 13 16.5 27t23 24t30 17t36.5 7q35 0 56.5 -11t37.5 -23t31 -23t39 -11q25 0 42 9t29 20q12 12 21 28h26z" />
<glyph unicode="&#xd2;" horiz-adv-x="847" d="M643 367q0 67 -14.5 125.5t-42 102t-68.5 69t-94 25.5t-94 -25.5t-69 -69t-42 -102.5t-14 -125q0 -67 14 -126t42 -103t69 -69.5t94 -25.5t94 25.5t68.5 69.5t42 103t14.5 126zM812 367q0 -82 -30 -151.5t-83 -120t-123.5 -79t-151.5 -28.5t-151.5 28.5t-123.5 79 t-83 120t-30 151.5q0 81 30 150t83 119.5t123.5 79t151.5 28.5t151.5 -28.5t123.5 -79t83 -119.5t30 -150zM344 881q-15 8 -24 19t-9 31q0 30 17 44.5t41 14.5q29 0 43.5 -10t29.5 -32l95 -138h-37l-156 71v0z" />
<glyph unicode="&#xd3;" horiz-adv-x="847" d="M643 367q0 67 -14.5 125.5t-42 102t-68.5 69t-94 25.5t-94 -25.5t-69 -69t-42 -102.5t-14 -125q0 -67 14 -126t42 -103t69 -69.5t94 -25.5t94 25.5t68.5 69.5t42 103t14.5 126zM812 367q0 -82 -30 -151.5t-83 -120t-123.5 -79t-151.5 -28.5t-151.5 28.5t-123.5 79 t-83 120t-30 151.5q0 81 30 150t83 119.5t123.5 79t151.5 28.5t151.5 -28.5t123.5 -79t83 -119.5t30 -150zM348 810h-37l95 138q15 23 30 32.5t43 9.5q24 0 41 -14.5t17 -44.5q0 -20 -9 -31t-24 -19z" />
<glyph unicode="&#xd4;" horiz-adv-x="847" d="M643 367q0 67 -14.5 125.5t-42 102t-68.5 69t-94 25.5t-94 -25.5t-69 -69t-42 -102.5t-14 -125q0 -67 14 -126t42 -103t69 -69.5t94 -25.5t94 25.5t68.5 69.5t42 103t14.5 126zM812 367q0 -82 -30 -151.5t-83 -120t-123.5 -79t-151.5 -28.5t-151.5 28.5t-123.5 79 t-83 120t-30 151.5q0 81 30 150t83 119.5t123.5 79t151.5 28.5t151.5 -28.5t123.5 -79t83 -119.5t30 -150zM281 799l115 165h56l115 -165h-37l-106 59l-107 -59h-36z" />
<glyph unicode="&#xd5;" horiz-adv-x="847" d="M643 367q0 67 -14.5 125.5t-42 102t-68.5 69t-94 25.5t-94 -25.5t-69 -69t-42 -102.5t-14 -125q0 -67 14 -126t42 -103t69 -69.5t94 -25.5t94 25.5t68.5 69.5t42 103t14.5 126zM812 367q0 -82 -30 -151.5t-83 -120t-123.5 -79t-151.5 -28.5t-151.5 28.5t-123.5 79 t-83 120t-30 151.5q0 81 30 150t83 119.5t123.5 79t151.5 28.5t151.5 -28.5t123.5 -79t83 -119.5t30 -150zM631 975q-7 -42 -25 -74q-14 -29 -39.5 -52t-66.5 -23q-35 0 -56.5 10.5t-37.5 23t-32 23.5t-38 11q-25 0 -42 -9t-29 -20q-13 -12 -21 -29h-26q7 41 25 75 q7 13 16.5 27t23 24t30 17t36.5 7q35 0 56.5 -11t37.5 -23t31 -23t39 -11q25 0 42 9t29 20q12 12 21 28h26z" />
<glyph unicode="&#xd6;" horiz-adv-x="847" d="M643 367q0 67 -14.5 125.5t-42 102t-68.5 69t-94 25.5t-94 -25.5t-69 -69t-42 -102.5t-14 -125q0 -67 14 -126t42 -103t69 -69.5t94 -25.5t94 25.5t68.5 69.5t42 103t14.5 126zM812 367q0 -82 -30 -151.5t-83 -120t-123.5 -79t-151.5 -28.5t-151.5 28.5t-123.5 79 t-83 120t-30 151.5q0 81 30 150t83 119.5t123.5 79t151.5 28.5t151.5 -28.5t123.5 -79t83 -119.5t30 -150zM255 888q0 30 20.5 50.5t50.5 20.5t50 -20.5t20 -50.5t-20.5 -50.5t-49.5 -20.5q-30 0 -50.5 20.5t-20.5 50.5zM452 888q0 30 20.5 50.5t49.5 20.5q30 0 50.5 -20.5 t20.5 -50.5t-20.5 -50.5t-50.5 -20.5t-50 20.5t-20 50.5z" />
<glyph unicode="&#xd7;" horiz-adv-x="542" d="M458 452l-148 -148l148 -146l-39 -39l-147 147l-147 -147l-39 39l147 147l-146 147l39 38l145 -147l148 147z" />
<glyph unicode="&#xd8;" horiz-adv-x="847" d="M813 367q0 -82 -30 -151.5t-83 -120t-123.5 -79t-151.5 -28.5q-76 0 -141 24.5t-117 68.5l-91 -91l-41 41l90 90q-42 49 -65 111.5t-23 134.5q0 81 30 150t83 119.5t123.5 79t151.5 28.5q70 0 131.5 -21t112.5 -59l81 80l40 -41l-79 -78q48 -50 75 -115.5t27 -142.5z M644 367q0 91 -27 164l-369 -369q28 -55 72 -87t105 -32q53 0 94 25.5t68.5 69.5t42 103t14.5 126zM206 367q0 -39 4.5 -76t14.5 -70l367 366q-28 47 -70 74.5t-97 27.5q-53 0 -94 -25.5t-69 -69t-42 -102t-14 -125.5z" />
<glyph unicode="&#xd9;" horiz-adv-x="802" d="M337 732v-14l-76 -87v-344q0 -45 6 -89t26 -78.5t57 -55.5t99 -21q66 0 105.5 17t61 48t28.5 77t7 105v341l-76 87v14h207v-14l-75 -87v-379q0 -55 -10.5 -103.5t-38.5 -84t-78.5 -56t-130.5 -20.5q-92 0 -158 19t-107.5 56t-60.5 93t-19 131v344l-75 87v14h308zM372 881 q-15 8 -24 19t-9 31q0 30 17 44.5t41 14.5q29 0 43.5 -10t29.5 -32l95 -138h-37l-156 71v0z" />
<glyph unicode="&#xda;" horiz-adv-x="802" d="M337 732v-14l-76 -87v-344q0 -45 6 -89t26 -78.5t57 -55.5t99 -21q66 0 105.5 17t61 48t28.5 77t7 105v341l-76 87v14h207v-14l-75 -87v-379q0 -55 -10.5 -103.5t-38.5 -84t-78.5 -56t-130.5 -20.5q-92 0 -158 19t-107.5 56t-60.5 93t-19 131v344l-75 87v14h308zM383 810 h-37l95 138q15 23 30 32.5t43 9.5q24 0 41 -14.5t17 -44.5q0 -20 -9 -31t-24 -19z" />
<glyph unicode="&#xdb;" horiz-adv-x="802" d="M337 732v-14l-76 -87v-344q0 -45 6 -89t26 -78.5t57 -55.5t99 -21q66 0 105.5 17t61 48t28.5 77t7 105v341l-76 87v14h207v-14l-75 -87v-379q0 -55 -10.5 -103.5t-38.5 -84t-78.5 -56t-130.5 -20.5q-92 0 -158 19t-107.5 56t-60.5 93t-19 131v344l-75 87v14h308zM312 799 l115 165h56l115 -165h-37l-106 59l-107 -59h-36z" />
<glyph unicode="&#xdc;" horiz-adv-x="802" d="M337 732v-14l-76 -87v-344q0 -45 6 -89t26 -78.5t57 -55.5t99 -21q66 0 105.5 17t61 48t28.5 77t7 105v341l-76 87v14h207v-14l-75 -87v-379q0 -55 -10.5 -103.5t-38.5 -84t-78.5 -56t-130.5 -20.5q-92 0 -158 19t-107.5 56t-60.5 93t-19 131v344l-75 87v14h308zM286 888 q0 30 20.5 50.5t50.5 20.5t50 -20.5t20 -50.5t-20.5 -50.5t-49.5 -20.5q-30 0 -50.5 20.5t-20.5 50.5zM483 888q0 30 20.5 50.5t49.5 20.5q30 0 50.5 -20.5t20.5 -50.5t-20.5 -50.5t-50.5 -20.5t-50 20.5t-20 50.5z" />
<glyph unicode="&#xdd;" horiz-adv-x="722" d="M240 0v14l75 87v208l-198 322l-98 87v14h349v-14l-66 -87l105 -171l8 -63l10 46l117 188l-65 87v14h225v-14l-95 -87l-135 -220v-310l76 -87v-14h-308zM339 810h-37l95 138q15 23 30 32.5t43 9.5q24 0 41 -14.5t17 -44.5q0 -20 -9 -31t-24 -19z" />
<glyph unicode="&#xde;" horiz-adv-x="685" d="M375 588q57 0 110.5 -11t94 -36t64.5 -67.5t24 -106.5q0 -65 -24 -107.5t-64.5 -68t-94 -36.5t-110.5 -11h-99l-14 -14v-29l76 -87v-14h-308v14l75 87v530l-75 87v14h308v-14l-76 -88v-28l14 -14h99zM262 214l14 -14h72q72 0 117.5 41.5t45.5 125.5t-45.5 124.5 t-117.5 40.5h-72l-14 -14v-304z" />
<glyph unicode="&#xdf;" horiz-adv-x="640" d="M451 -12q-60 0 -98 22.5t-62 55.5v186h20q5 -40 15 -78.5t24 -68.5t33 -48t45 -18q32 0 45 19t13 53q0 30 -13.5 50.5t-34 37.5t-44.5 33t-44.5 36t-34.5 46t-14 65q0 35 12.5 57.5t27 43.5t27 46.5t12.5 67.5q0 17 -3 35t-12 32.5t-23 23t-37 8.5q-42 0 -60 -29.5 t-18 -76.5v-520l63 -53v-14h-268v14l62 53v326l-14 15h-57v51h57l14 14v43q0 45 12.5 86.5t38.5 73t68 50t102 18.5q58 0 97 -13t62 -34t32.5 -47.5t9.5 -53.5q0 -42 -20.5 -70t-45.5 -49.5t-45.5 -40.5t-20.5 -43q0 -23 18 -38t44.5 -30t57.5 -30t58 -36.5t44.5 -51.5 t17.5 -72q0 -39 -13 -66.5t-35 -45.5t-51.5 -26.5t-63.5 -8.5z" />
<glyph unicode="&#xe0;" horiz-adv-x="540" d="M471 53l57 -43v-10h-200v53q-17 -17 -32.5 -30t-33.5 -20.5t-40 -11t-53 -3.5q-27 0 -51 7t-43 21.5t-30 37t-11 52.5q0 69 71 113t223 62v36q0 46 -17 75t-63 29q-35 0 -56 -20t-34 -70q-5 -22 -19.5 -31.5t-32.5 -9.5q-22 0 -39.5 13t-17.5 40q0 10 3.5 21.5t13.5 23.5 q32 44 81.5 63.5t100.5 19.5q105 0 164 -42t59 -145v-231zM328 233q-46 -6 -77.5 -17.5t-50.5 -27.5t-26.5 -36t-7.5 -41q0 -30 14 -51.5t51 -21.5q46 0 71.5 42.5t25.5 107.5v45zM168 588q-15 8 -24 19t-9 31q0 30 17 44.5t41 14.5q29 0 43.5 -10t29.5 -32l95 -138h-37 l-156 71v0z" />
<glyph unicode="&#xe1;" horiz-adv-x="540" d="M471 53l57 -43v-10h-200v53q-17 -17 -32.5 -30t-33.5 -20.5t-40 -11t-53 -3.5q-27 0 -51 7t-43 21.5t-30 37t-11 52.5q0 69 71 113t223 62v36q0 46 -17 75t-63 29q-35 0 -56 -20t-34 -70q-5 -22 -19.5 -31.5t-32.5 -9.5q-22 0 -39.5 13t-17.5 40q0 10 3.5 21.5t13.5 23.5 q32 44 81.5 63.5t100.5 19.5q105 0 164 -42t59 -145v-231zM328 233q-46 -6 -77.5 -17.5t-50.5 -27.5t-26.5 -36t-7.5 -41q0 -30 14 -51.5t51 -21.5q46 0 71.5 42.5t25.5 107.5v45zM172 517h-37l95 138q15 23 30 32.5t43 9.5q24 0 41 -14.5t17 -44.5q0 -20 -9 -31t-24 -19z " />
<glyph unicode="&#xe2;" horiz-adv-x="540" d="M471 53l57 -43v-10h-200v53q-17 -17 -32.5 -30t-33.5 -20.5t-40 -11t-53 -3.5q-27 0 -51 7t-43 21.5t-30 37t-11 52.5q0 69 71 113t223 62v36q0 46 -17 75t-63 29q-35 0 -56 -20t-34 -70q-5 -22 -19.5 -31.5t-32.5 -9.5q-22 0 -39.5 13t-17.5 40q0 10 3.5 21.5t13.5 23.5 q32 44 81.5 63.5t100.5 19.5q105 0 164 -42t59 -145v-231zM328 233q-46 -6 -77.5 -17.5t-50.5 -27.5t-26.5 -36t-7.5 -41q0 -30 14 -51.5t51 -21.5q46 0 71.5 42.5t25.5 107.5v45zM105 526l115 165h56l115 -165h-37l-106 59l-107 -59h-36z" />
<glyph unicode="&#xe3;" horiz-adv-x="540" d="M471 53l57 -43v-10h-200v53q-17 -17 -32.5 -30t-33.5 -20.5t-40 -11t-53 -3.5q-27 0 -51 7t-43 21.5t-30 37t-11 52.5q0 69 71 113t223 62v36q0 46 -17 75t-63 29q-35 0 -56 -20t-34 -70q-5 -22 -19.5 -31.5t-32.5 -9.5q-22 0 -39.5 13t-17.5 40q0 10 3.5 21.5t13.5 23.5 q32 44 81.5 63.5t100.5 19.5q105 0 164 -42t59 -145v-231zM328 233q-46 -6 -77.5 -17.5t-50.5 -27.5t-26.5 -36t-7.5 -41q0 -30 14 -51.5t51 -21.5q46 0 71.5 42.5t25.5 107.5v45zM455 689q-7 -42 -25 -74q-14 -29 -39.5 -52t-66.5 -23q-35 0 -56.5 10.5t-37.5 23t-32 23.5 t-38 11q-25 0 -42 -9t-29 -20q-13 -12 -21 -29h-26q7 41 25 75q7 13 16.5 27t23 24t30 17t36.5 7q35 0 56.5 -11t37.5 -23t31 -23t39 -11q25 0 42 9t29 20q12 12 21 28h26z" />
<glyph unicode="&#xe4;" horiz-adv-x="540" d="M471 53l57 -43v-10h-200v53q-17 -17 -32.5 -30t-33.5 -20.5t-40 -11t-53 -3.5q-27 0 -51 7t-43 21.5t-30 37t-11 52.5q0 69 71 113t223 62v36q0 46 -17 75t-63 29q-35 0 -56 -20t-34 -70q-5 -22 -19.5 -31.5t-32.5 -9.5q-22 0 -39.5 13t-17.5 40q0 10 3.5 21.5t13.5 23.5 q32 44 81.5 63.5t100.5 19.5q105 0 164 -42t59 -145v-231zM328 233q-46 -6 -77.5 -17.5t-50.5 -27.5t-26.5 -36t-7.5 -41q0 -30 14 -51.5t51 -21.5q46 0 71.5 42.5t25.5 107.5v45zM80 616q0 30 20.5 50.5t50.5 20.5t50 -20.5t20 -50.5t-20.5 -50.5t-49.5 -20.5 q-30 0 -50.5 20.5t-20.5 50.5zM277 616q0 30 20.5 50.5t49.5 20.5q30 0 50.5 -20.5t20.5 -50.5t-20.5 -50.5t-50.5 -20.5t-50 20.5t-20 50.5z" />
<glyph unicode="&#xe5;" horiz-adv-x="540" d="M471 53l57 -43v-10h-200v53q-17 -17 -32.5 -30t-33.5 -20.5t-40 -11t-53 -3.5q-27 0 -51 7t-43 21.5t-30 37t-11 52.5q0 69 71 113t223 62v36q0 46 -17 75t-63 29q-35 0 -56 -20t-34 -70q-5 -22 -19.5 -31.5t-32.5 -9.5q-22 0 -39.5 13t-17.5 40q0 10 3.5 21.5t13.5 23.5 q32 44 81.5 63.5t100.5 19.5q105 0 164 -42t59 -145v-231zM328 233q-46 -6 -77.5 -17.5t-50.5 -27.5t-26.5 -36t-7.5 -41q0 -30 14 -51.5t51 -21.5q46 0 71.5 42.5t25.5 107.5v45zM144 637q0 43 29 69t75 26t75 -26t29 -69t-29 -69t-75 -26t-75 26t-29 69zM213 637 q0 -14 9 -24.5t26 -10.5t26 10.5t9 24.5t-9 24.5t-26 10.5t-26 -10.5t-9 -24.5z" />
<glyph unicode="&#xe6;" horiz-adv-x="850" d="M825 138q-36 -77 -92 -113.5t-147 -36.5q-73 0 -130 27t-89 77q-18 -32 -41.5 -52.5t-48 -31.5t-48.5 -15.5t-46 -4.5q-32 0 -59 7t-47 21.5t-31.5 37t-11.5 52.5q0 69 71 113t223 62v36q0 46 -17 75t-63 29q-35 0 -56 -20t-34 -70q-5 -22 -19.5 -31.5t-32.5 -9.5 q-29 0 -43.5 14t-14.5 39q0 22 18 45q32 44 81.5 63.5t100.5 19.5q58 0 101.5 -12.5t72.5 -38.5q33 25 73.5 38t86.5 13q115 0 176 -62t61 -167v-16h-345q0 -32 6.5 -65t22 -60.5t41.5 -45t65 -17.5q58 0 104.5 33.5t79.5 93.5zM582 421q-26 0 -45.5 -12.5t-33 -33 t-20.5 -46.5t-8 -53h212v10q0 23 -5.5 46.5t-18.5 43t-32.5 32.5t-48.5 13zM328 233q-46 -6 -77.5 -17.5t-50.5 -27.5t-26.5 -36t-7.5 -41q0 -30 14 -51.5t51 -21.5q23 0 41 12t30 32.5t19 48t7 57.5v45z" />
<glyph unicode="&#xe7;" horiz-adv-x="539" d="M218 -3q-88 19 -139.5 77.5t-51.5 154.5q0 58 21.5 103.5t57 76t84 46.5t101.5 16q65 0 112 -18.5t77 -46.5q14 -14 20.5 -27.5t6.5 -27.5q0 -27 -16.5 -45t-45.5 -18q-20 0 -34 10.5t-20 35.5q-7 28 -16.5 44.5t-22 26t-28 13t-33.5 3.5q-25 0 -46 -13t-37.5 -37.5 t-25.5 -60t-9 -81.5q0 -86 36 -138.5t110 -52.5q44 0 83 26t79 88l28 -34q-35 -62 -82.5 -96t-119.5 -34q-11 0 -21.5 0.5t-20.5 1.5l-18 -44q14 10 30.5 14t30.5 4q37 0 58 -18t21 -50q0 -24 -9.5 -40.5t-26 -27t-37 -16t-42.5 -5.5q-20 0 -44.5 6.5t-42.5 20.5l14 25 q19 -7 32.5 -9.5t25.5 -2.5q28 0 38.5 10t10.5 28q0 15 -10 23t-23 8q-17 0 -34 -7.5t-28 -20.5h-21z" />
<glyph unicode="&#xe8;" horiz-adv-x="551" d="M526 138q-36 -77 -92 -113.5t-147 -36.5q-56 0 -103.5 17t-81.5 48t-53.5 76t-19.5 100q0 54 20.5 99t54.5 76.5t80 49t99 17.5q115 0 176 -62t61 -167v-16h-345q0 -32 6.5 -65t22 -60.5t41.5 -45t65 -17.5q58 0 104.5 33.5t79.5 93.5zM283 421q-26 0 -45.5 -12.5 t-33 -33t-20.5 -46.5t-8 -53h212v10q0 23 -5.5 46.5t-18.5 43t-32.5 32.5t-48.5 13zM204 588q-15 8 -24 19t-9 31q0 30 17 44.5t41 14.5q29 0 43.5 -10t29.5 -32l95 -138h-37l-156 71v0z" />
<glyph unicode="&#xe9;" horiz-adv-x="551" d="M526 138q-36 -77 -92 -113.5t-147 -36.5q-56 0 -103.5 17t-81.5 48t-53.5 76t-19.5 100q0 54 20.5 99t54.5 76.5t80 49t99 17.5q115 0 176 -62t61 -167v-16h-345q0 -32 6.5 -65t22 -60.5t41.5 -45t65 -17.5q58 0 104.5 33.5t79.5 93.5zM283 421q-26 0 -45.5 -12.5 t-33 -33t-20.5 -46.5t-8 -53h212v10q0 23 -5.5 46.5t-18.5 43t-32.5 32.5t-48.5 13zM208 517h-37l95 138q15 23 30 32.5t43 9.5q24 0 41 -14.5t17 -44.5q0 -20 -9 -31t-24 -19z" />
<glyph unicode="&#xea;" horiz-adv-x="551" d="M526 138q-36 -77 -92 -113.5t-147 -36.5q-56 0 -103.5 17t-81.5 48t-53.5 76t-19.5 100q0 54 20.5 99t54.5 76.5t80 49t99 17.5q115 0 176 -62t61 -167v-16h-345q0 -32 6.5 -65t22 -60.5t41.5 -45t65 -17.5q58 0 104.5 33.5t79.5 93.5zM283 421q-26 0 -45.5 -12.5 t-33 -33t-20.5 -46.5t-8 -53h212v10q0 23 -5.5 46.5t-18.5 43t-32.5 32.5t-48.5 13zM141 526l115 165h56l115 -165h-37l-106 59l-107 -59h-36z" />
<glyph unicode="&#xeb;" horiz-adv-x="551" d="M526 138q-36 -77 -92 -113.5t-147 -36.5q-56 0 -103.5 17t-81.5 48t-53.5 76t-19.5 100q0 54 20.5 99t54.5 76.5t80 49t99 17.5q115 0 176 -62t61 -167v-16h-345q0 -32 6.5 -65t22 -60.5t41.5 -45t65 -17.5q58 0 104.5 33.5t79.5 93.5zM283 421q-26 0 -45.5 -12.5 t-33 -33t-20.5 -46.5t-8 -53h212v10q0 23 -5.5 46.5t-18.5 43t-32.5 32.5t-48.5 13zM115 616q0 30 20.5 50.5t50.5 20.5t50 -20.5t20 -50.5t-20.5 -50.5t-49.5 -20.5q-30 0 -50.5 20.5t-20.5 50.5zM312 616q0 30 20.5 50.5t49.5 20.5q30 0 50.5 -20.5t20.5 -50.5 t-20.5 -50.5t-50.5 -20.5t-50 20.5t-20 50.5z" />
<glyph unicode="&#xec;" horiz-adv-x="316" d="M223 67l63 -53v-14h-269v14l63 53v305l-63 52v14l206 42v-413zM73 588q-15 8 -24 19t-9 31q0 30 17 44.5t41 14.5q29 0 43.5 -10t29.5 -32l95 -138h-37l-156 71v0z" />
<glyph unicode="&#xed;" horiz-adv-x="316" d="M223 67l63 -53v-14h-269v14l63 53v305l-63 52v14l206 42v-413zM77 517h-37l95 138q15 23 30 32.5t43 9.5q24 0 41 -14.5t17 -44.5q0 -20 -9 -31t-24 -19z" />
<glyph unicode="&#xee;" horiz-adv-x="316" d="M224 67l63 -53v-14h-269v14l63 53v305l-63 52v14l206 42v-413zM10 526l115 165h56l115 -165h-37l-106 59l-107 -59h-36z" />
<glyph unicode="&#xef;" horiz-adv-x="316" d="M228 67l63 -53v-14h-269v14l63 53v305l-63 52v14l206 42v-413zM-12 616q0 30 20.5 50.5t50.5 20.5t50 -20.5t20 -50.5t-20.5 -50.5t-49.5 -20.5q-30 0 -50.5 20.5t-20.5 50.5zM185 616q0 30 20.5 50.5t49.5 20.5q30 0 50.5 -20.5t20.5 -50.5t-20.5 -50.5t-50.5 -20.5 t-50 20.5t-20 50.5z" />
<glyph unicode="&#xf0;" horiz-adv-x="579" d="M80 567l171 56q-24 27 -51.5 54.5t-59.5 54.5h58q37 -20 69 -41t61 -44l161 53l21 -61l-124 -41q84 -79 125.5 -169t41.5 -200q0 -57 -21.5 -102t-57.5 -76t-83.5 -47t-100.5 -16t-101 16t-84 47t-57 76t-21 102t21 102.5t57 76t84 47t101 16.5q17 0 33.5 -1.5t32.5 -5.5 q-26 55 -62 104l-194 -62zM407 229q0 40 -7.5 75.5t-21.5 61t-36.5 40.5t-51.5 15q-31 0 -53 -15.5t-36.5 -41.5t-21 -61t-6.5 -74t6.5 -73.5t21 -60.5t36.5 -41.5t53 -15.5t53 15.5t36 41.5t21 60.5t7 73.5z" />
<glyph unicode="&#xf1;" horiz-adv-x="668" d="M584 67l62 -53v-14h-268v14l62 53v264q0 42 -12 59.5t-46 17.5q-23 0 -48.5 -14t-48.5 -32q-27 -19 -54 -45v-250l63 -53v-14h-268v14l62 53v305l-62 52v14l205 42v-109q33 28 67 50q30 18 65.5 34t71.5 16q81 0 115 -34.5t34 -110.5v-259zM548 689q-7 -42 -25 -74 q-14 -29 -39.5 -52t-66.5 -23q-35 0 -56.5 10.5t-37.5 23t-32 23.5t-38 11q-25 0 -42 -9t-29 -20q-13 -12 -21 -29h-26q7 41 25 75q7 13 16.5 27t23 24t30 17t36.5 7q35 0 56.5 -11t37.5 -23t31 -23t39 -11q25 0 42 9t29 20q12 12 21 28h26z" />
<glyph unicode="&#xf2;" horiz-adv-x="579" d="M553 229q0 -57 -21.5 -102t-57.5 -76t-83.5 -47t-100.5 -16t-101 16t-84 47t-57 76t-21 102t21 102.5t57 76t84 47t101 16.5t100.5 -16.5t83.5 -47t57.5 -76t21.5 -102.5zM407 229q0 39 -7 74t-21 61t-36 41.5t-53 15.5t-53 -15.5t-36.5 -41.5t-21 -61t-6.5 -74 t6.5 -73.5t21 -60.5t36.5 -41.5t53 -15.5t53 15.5t36 41.5t21 60.5t7 73.5zM210 588q-15 8 -24 19t-9 31q0 30 17 44.5t41 14.5q29 0 43.5 -10t29.5 -32l95 -138h-37l-156 71v0z" />
<glyph unicode="&#xf3;" horiz-adv-x="579" d="M553 229q0 -57 -21.5 -102t-57.5 -76t-83.5 -47t-100.5 -16t-101 16t-84 47t-57 76t-21 102t21 102.5t57 76t84 47t101 16.5t100.5 -16.5t83.5 -47t57.5 -76t21.5 -102.5zM407 229q0 39 -7 74t-21 61t-36 41.5t-53 15.5t-53 -15.5t-36.5 -41.5t-21 -61t-6.5 -74 t6.5 -73.5t21 -60.5t36.5 -41.5t53 -15.5t53 15.5t36 41.5t21 60.5t7 73.5zM214 517h-37l95 138q15 23 30 32.5t43 9.5q24 0 41 -14.5t17 -44.5q0 -20 -9 -31t-24 -19z" />
<glyph unicode="&#xf4;" horiz-adv-x="579" d="M553 229q0 -57 -21.5 -102t-57.5 -76t-83.5 -47t-100.5 -16t-101 16t-84 47t-57 76t-21 102t21 102.5t57 76t84 47t101 16.5t100.5 -16.5t83.5 -47t57.5 -76t21.5 -102.5zM407 229q0 39 -7 74t-21 61t-36 41.5t-53 15.5t-53 -15.5t-36.5 -41.5t-21 -61t-6.5 -74 t6.5 -73.5t21 -60.5t36.5 -41.5t53 -15.5t53 15.5t36 41.5t21 60.5t7 73.5zM147 526l115 165h56l115 -165h-37l-106 59l-107 -59h-36z" />
<glyph unicode="&#xf5;" horiz-adv-x="579" d="M553 229q0 -57 -21.5 -102t-57.5 -76t-83.5 -47t-100.5 -16t-101 16t-84 47t-57 76t-21 102t21 102.5t57 76t84 47t101 16.5t100.5 -16.5t83.5 -47t57.5 -76t21.5 -102.5zM407 229q0 39 -7 74t-21 61t-36 41.5t-53 15.5t-53 -15.5t-36.5 -41.5t-21 -61t-6.5 -74 t6.5 -73.5t21 -60.5t36.5 -41.5t53 -15.5t53 15.5t36 41.5t21 60.5t7 73.5zM497 689q-7 -42 -25 -74q-14 -29 -39.5 -52t-66.5 -23q-35 0 -56.5 10.5t-37.5 23t-32 23.5t-38 11q-25 0 -42 -9t-29 -20q-13 -12 -21 -29h-26q7 41 25 75q7 13 16.5 27t23 24t30 17t36.5 7 q35 0 56.5 -11t37.5 -23t31 -23t39 -11q25 0 42 9t29 20q12 12 21 28h26z" />
<glyph unicode="&#xf6;" horiz-adv-x="579" d="M553 229q0 -57 -21.5 -102t-57.5 -76t-83.5 -47t-100.5 -16t-101 16t-84 47t-57 76t-21 102t21 102.5t57 76t84 47t101 16.5t100.5 -16.5t83.5 -47t57.5 -76t21.5 -102.5zM407 229q0 39 -7 74t-21 61t-36 41.5t-53 15.5t-53 -15.5t-36.5 -41.5t-21 -61t-6.5 -74 t6.5 -73.5t21 -60.5t36.5 -41.5t53 -15.5t53 15.5t36 41.5t21 60.5t7 73.5zM120 616q0 30 20.5 50.5t50.5 20.5t50 -20.5t20 -50.5t-20.5 -50.5t-49.5 -20.5q-30 0 -50.5 20.5t-20.5 50.5zM317 616q0 30 20.5 50.5t49.5 20.5q30 0 50.5 -20.5t20.5 -50.5t-20.5 -50.5 t-50.5 -20.5t-50 20.5t-20 50.5z" />
<glyph unicode="&#xf7;" horiz-adv-x="542" d="M194 131q0 31 22.5 54t53.5 23t54 -23t23 -54q0 -32 -23 -54.5t-54 -22.5q-32 0 -54 22.5t-22 54.5zM194 479q0 31 22.5 54t53.5 23t54 -23t23 -54q0 -32 -23 -54.5t-54 -22.5q-32 0 -54 22.5t-22 54.5zM81 333h380v-55h-380v55z" />
<glyph unicode="&#xf8;" horiz-adv-x="579" d="M553 229q0 -57 -21.5 -102t-57.5 -76t-83.5 -47t-100.5 -16q-46 0 -87 11t-75 35l-46 -46l-39 40l42 42q-27 30 -42.5 70t-15.5 89q0 57 21 102.5t57 76t84 47t101 16.5q43 0 83 -10.5t72 -31.5l42 42l38 -40l-37 -37q30 -31 47.5 -72t17.5 -93zM407 229q0 20 -2.5 39.5 t-5.5 36.5l-202 -203q14 -30 37 -47t56 -17q31 0 53 15.5t36 41.5t21 60.5t7 73.5zM290 421q-31 0 -53 -15.5t-36.5 -41.5t-21 -61t-6.5 -74q0 -17 1 -34t4 -32l201 199q-14 27 -36 43t-53 16z" />
<glyph unicode="&#xf9;" horiz-adv-x="668" d="M75 372l-63 52v14l206 42v-352q0 -42 12.5 -59.5t45.5 -17.5q22 0 48 14t50 31q27 19 53 45v231l-62 52v14l205 42v-413l63 -53v-14h-206v88q-33 -29 -67 -50q-30 -19 -65.5 -34.5t-71.5 -15.5q-81 0 -114.5 34t-33.5 111v239zM244 608q-15 8 -24 19t-9 31q0 30 17 44.5 t41 14.5q29 0 43.5 -10t29.5 -32l95 -138h-37l-156 71v0z" />
<glyph unicode="&#xfa;" horiz-adv-x="668" d="M75 372l-63 52v14l206 42v-352q0 -42 12.5 -59.5t45.5 -17.5q22 0 48 14t50 31q27 19 53 45v231l-62 52v14l205 42v-413l63 -53v-14h-206v88q-33 -29 -67 -50q-30 -19 -65.5 -34.5t-71.5 -15.5q-81 0 -114.5 34t-33.5 111v239zM248 517h-37l95 138q15 23 30 32.5t43 9.5 q24 0 41 -14.5t17 -44.5q0 -20 -9 -31t-24 -19z" />
<glyph unicode="&#xfb;" horiz-adv-x="668" d="M75 372l-63 52v14l206 42v-352q0 -42 12.5 -59.5t45.5 -17.5q22 0 48 14t50 31q27 19 53 45v231l-62 52v14l205 42v-413l63 -53v-14h-206v88q-33 -29 -67 -50q-30 -19 -65.5 -34.5t-71.5 -15.5q-81 0 -114.5 34t-33.5 111v239zM182 526l115 165h56l115 -165h-37l-106 59 l-107 -59h-36z" />
<glyph unicode="&#xfc;" horiz-adv-x="668" d="M75 372l-63 52v14l206 42v-352q0 -42 12.5 -59.5t45.5 -17.5q22 0 48 14t50 31q27 19 53 45v231l-62 52v14l205 42v-413l63 -53v-14h-206v88q-33 -29 -67 -50q-30 -19 -65.5 -34.5t-71.5 -15.5q-81 0 -114.5 34t-33.5 111v239zM143 616q0 30 20.5 50.5t50.5 20.5 t50 -20.5t20 -50.5t-20.5 -50.5t-49.5 -20.5q-30 0 -50.5 20.5t-20.5 50.5zM340 616q0 30 20.5 50.5t49.5 20.5q30 0 50.5 -20.5t20.5 -50.5t-20.5 -50.5t-50.5 -20.5t-50 20.5t-20 50.5z" />
<glyph unicode="&#xfd;" horiz-adv-x="513" d="M502 444l-64 -52l-221 -585q-13 -34 -26 -52.5t-25.5 -28.5t-25 -12t-24.5 -2q-25 0 -40.5 16t-18 36t9.5 38.5t42 22.5q38 5 54.5 18t29.5 39l40 109l-171 401l-65 52v15h252v-15l-40 -43l86 -226l3 -29l5 35l85 220l-39 43v15h153v-15zM222 517h-37l95 138 q15 23 30 32.5t43 9.5q24 0 41 -14.5t17 -44.5q0 -20 -9 -31t-24 -19z" />
<glyph unicode="&#xfe;" horiz-adv-x="593" d="M69 666l-63 52v14l206 42v-370q18 29 52.5 48t77.5 19q104 0 162.5 -64t58.5 -178q0 -52 -14 -96.5t-42 -76.5t-69.5 -50t-95.5 -18q-46 0 -77.5 9.5t-52.5 27.5v-234l62 -52v-14h-268v14l63 52v875zM314 38q30 0 50 16t32 42t16.5 60.5t4.5 72.5t-4.5 73t-16.5 61 t-32 42t-50 16q-27 0 -46 -14t-31.5 -36.5t-18.5 -51.5t-6 -59v-61q0 -30 6 -59t18.5 -51.5t31.5 -36.5t46 -14z" />
<glyph unicode="&#xff;" horiz-adv-x="513" d="M502 444l-64 -52l-221 -585q-13 -34 -26 -52.5t-25.5 -28.5t-25 -12t-24.5 -2q-25 0 -40.5 16t-18 36t9.5 38.5t42 22.5q38 5 54.5 18t29.5 39l40 109l-171 401l-65 52v15h252v-15l-40 -43l86 -226l3 -29l5 35l85 220l-39 43v15h153v-15zM129 616q0 30 20.5 50.5 t50.5 20.5t50 -20.5t20 -50.5t-20.5 -50.5t-49.5 -20.5q-30 0 -50.5 20.5t-20.5 50.5zM326 616q0 30 20.5 50.5t49.5 20.5q30 0 50.5 -20.5t20.5 -50.5t-20.5 -50.5t-50.5 -20.5t-50 20.5t-20 50.5z" />
<glyph unicode="&#x100;" horiz-adv-x="815" d="M538 101l-55 133h-266l-54 -133l62 -87v-14h-214v14l90 87l269 655h67l269 -655l98 -87v-14h-332v14zM460 290l-106 255l-4 36l-4 -27l-106 -264h220zM239 915h293v-77h-293v77z" />
<glyph unicode="&#x101;" horiz-adv-x="540" d="M471 53l57 -43v-10h-200v53q-17 -17 -32.5 -30t-33.5 -20.5t-40 -11t-53 -3.5q-27 0 -51 7t-43 21.5t-30 37t-11 52.5q0 69 71 113t223 62v36q0 46 -17 75t-63 29q-35 0 -56 -20t-34 -70q-5 -22 -19.5 -31.5t-32.5 -9.5q-22 0 -39.5 13t-17.5 40q0 10 3.5 21.5t13.5 23.5 q32 44 81.5 63.5t100.5 19.5q105 0 164 -42t59 -145v-231zM328 233q-46 -6 -77.5 -17.5t-50.5 -27.5t-26.5 -36t-7.5 -41q0 -30 14 -51.5t51 -21.5q46 0 71.5 42.5t25.5 107.5v45zM102 621h293v-77h-293v77z" />
<glyph unicode="&#x102;" horiz-adv-x="815" d="M538 101l-55 133h-266l-54 -133l62 -87v-14h-214v14l90 87l269 655h67l269 -655l98 -87v-14h-332v14zM460 290l-106 255l-4 36l-4 -27l-106 -264h220zM509 926q-10 -46 -41 -75.5t-82 -29.5q-50 0 -81 29.5t-42 75.5l28 18q16 -31 42 -45.5t53 -14.5q28 0 53.5 14.5 t42.5 45.5z" />
<glyph unicode="&#x103;" horiz-adv-x="540" d="M471 53l57 -43v-10h-200v53q-17 -17 -32.5 -30t-33.5 -20.5t-40 -11t-53 -3.5q-27 0 -51 7t-43 21.5t-30 37t-11 52.5q0 69 71 113t223 62v36q0 46 -17 75t-63 29q-35 0 -56 -20t-34 -70q-5 -22 -19.5 -31.5t-32.5 -9.5q-22 0 -39.5 13t-17.5 40q0 10 3.5 21.5t13.5 23.5 q32 44 81.5 63.5t100.5 19.5q105 0 164 -42t59 -145v-231zM328 233q-46 -6 -77.5 -17.5t-50.5 -27.5t-26.5 -36t-7.5 -41q0 -30 14 -51.5t51 -21.5q46 0 71.5 42.5t25.5 107.5v45zM370 653q-10 -46 -41 -75.5t-82 -29.5q-50 0 -81 29.5t-42 75.5l28 18q16 -31 42 -45.5 t53 -14.5q28 0 53.5 14.5t42.5 45.5z" />
<glyph unicode="&#x104;" horiz-adv-x="815" d="M479 -102q2 24 18.5 42.5t33.5 31.5q20 15 48 28h-107v14l66 87l-55 133h-266l-54 -133l62 -87v-14h-214v14l90 87l269 655h67l269 -655l98 -87v-14h-161q-24 -12 -42 -28q-15 -13 -28 -31t-13 -39q0 -13 7 -23t23 -10q30 0 49.5 25.5t35.5 60.5l75 -49 q-38 -49 -83.5 -67t-89.5 -18q-54 0 -78 21.5t-20 55.5zM460 290l-106 255l-4 36l-4 -27l-106 -264h220z" />
<glyph unicode="&#x105;" horiz-adv-x="540" d="M228 -102q2 24 18.5 42.5t34.5 31.5q20 15 47 28v53q-17 -17 -32.5 -30t-33.5 -20.5t-40 -11t-53 -3.5q-27 0 -51 7t-43 21.5t-30 37t-11 52.5q0 69 71 113t223 62v36q0 46 -17 75t-63 29q-35 0 -56 -20t-34 -70q-5 -22 -19.5 -31.5t-32.5 -9.5q-22 0 -39.5 13t-17.5 40 q0 10 3.5 21.5t13.5 23.5q32 44 81.5 63.5t100.5 19.5q105 0 164 -42t59 -145v-231l57 -43v-10h-136q-24 -12 -42 -28q-15 -13 -28 -31t-13 -39q0 -13 7.5 -23t22.5 -10q30 0 50 25.5t35 60.5l75 -49q-38 -49 -83.5 -67t-89.5 -18q-54 0 -78 21.5t-20 55.5zM328 233 q-46 -6 -77.5 -17.5t-50.5 -27.5t-26.5 -36t-7.5 -41q0 -30 14 -51.5t51 -21.5q46 0 71.5 42.5t25.5 107.5v45z" />
<glyph unicode="&#x106;" horiz-adv-x="746" d="M423 689q-54 0 -95.5 -24.5t-70 -67.5t-43 -102t-14.5 -128q0 -76 14.5 -136t43.5 -101.5t70.5 -64t93.5 -22.5q77 0 141.5 42.5t119.5 145.5l33 -22q-51 -115 -124.5 -168t-177.5 -53q-89 0 -160.5 28t-121 78.5t-75.5 120t-26 152.5q0 80 30.5 149t84.5 119.5t126 79.5 t155 29q24 0 52 -2.5t57 -8.5t58.5 -15.5t53.5 -25.5v-183h-24q-9 34 -26 66.5t-42.5 57.5t-58.5 40.5t-74 15.5zM351 810h-37l95 138q15 23 30 32.5t43 9.5q24 0 41 -14.5t17 -44.5q0 -20 -9 -31t-24 -19z" />
<glyph unicode="&#x107;" horiz-adv-x="539" d="M509 118q-35 -62 -82.5 -96t-119.5 -34q-62 0 -114 15t-88.5 46t-57 76t-20.5 104q0 58 21.5 103.5t57 76t84 46.5t101.5 16q65 0 112 -18.5t77 -46.5q14 -14 20.5 -27.5t6.5 -27.5q0 -27 -16.5 -45t-45.5 -18q-20 0 -34 10.5t-20 35.5q-7 28 -16.5 44.5t-22 26t-28 13 t-33.5 3.5q-25 0 -46 -13t-37.5 -37.5t-25.5 -60t-9 -81.5q0 -86 36 -138.5t110 -52.5q44 0 83 26t79 88zM215 517h-37l95 138q15 23 30 32.5t43 9.5q24 0 41 -14.5t17 -44.5q0 -20 -9 -31t-24 -19z" />
<glyph unicode="&#x108;" horiz-adv-x="746" d="M423 689q-54 0 -95.5 -24.5t-70 -67.5t-43 -102t-14.5 -128q0 -76 14.5 -136t43.5 -101.5t70.5 -64t93.5 -22.5q77 0 141.5 42.5t119.5 145.5l33 -22q-51 -115 -124.5 -168t-177.5 -53q-89 0 -160.5 28t-121 78.5t-75.5 120t-26 152.5q0 80 30.5 149t84.5 119.5t126 79.5 t155 29q24 0 52 -2.5t57 -8.5t58.5 -15.5t53.5 -25.5v-183h-24q-9 34 -26 66.5t-42.5 57.5t-58.5 40.5t-74 15.5zM284 799l115 165h56l115 -165h-37l-106 59l-107 -59h-36z" />
<glyph unicode="&#x109;" horiz-adv-x="539" d="M509 118q-35 -62 -82.5 -96t-119.5 -34q-62 0 -114 15t-88.5 46t-57 76t-20.5 104q0 58 21.5 103.5t57 76t84 46.5t101.5 16q65 0 112 -18.5t77 -46.5q14 -14 20.5 -27.5t6.5 -27.5q0 -27 -16.5 -45t-45.5 -18q-20 0 -34 10.5t-20 35.5q-7 28 -16.5 44.5t-22 26t-28 13 t-33.5 3.5q-25 0 -46 -13t-37.5 -37.5t-25.5 -60t-9 -81.5q0 -86 36 -138.5t110 -52.5q44 0 83 26t79 88zM146 526l115 165h56l115 -165h-37l-106 59l-107 -59h-36z" />
<glyph unicode="&#x10a;" horiz-adv-x="746" d="M423 689q-54 0 -95.5 -24.5t-70 -67.5t-43 -102t-14.5 -128q0 -76 14.5 -136t43.5 -101.5t70.5 -64t93.5 -22.5q77 0 141.5 42.5t119.5 145.5l33 -22q-51 -115 -124.5 -168t-177.5 -53q-89 0 -160.5 28t-121 78.5t-75.5 120t-26 152.5q0 80 30.5 149t84.5 119.5t126 79.5 t155 29q24 0 52 -2.5t57 -8.5t58.5 -15.5t53.5 -25.5v-183h-24q-9 34 -26 66.5t-42.5 57.5t-58.5 40.5t-74 15.5zM344 890q0 35 24.5 59t58.5 24t58.5 -24t24.5 -59t-24.5 -59t-58.5 -24t-58.5 24t-24.5 59z" />
<glyph unicode="&#x10b;" horiz-adv-x="539" d="M509 118q-35 -62 -82.5 -96t-119.5 -34q-62 0 -114 15t-88.5 46t-57 76t-20.5 104q0 58 21.5 103.5t57 76t84 46.5t101.5 16q65 0 112 -18.5t77 -46.5q14 -14 20.5 -27.5t6.5 -27.5q0 -27 -16.5 -45t-45.5 -18q-20 0 -34 10.5t-20 35.5q-7 28 -16.5 44.5t-22 26t-28 13 t-33.5 3.5q-25 0 -46 -13t-37.5 -37.5t-25.5 -60t-9 -81.5q0 -86 36 -138.5t110 -52.5q44 0 83 26t79 88zM208 626q0 35 24.5 59t58.5 24t58.5 -24t24.5 -59t-24.5 -59t-58.5 -24t-58.5 24t-24.5 59z" />
<glyph unicode="&#x10c;" horiz-adv-x="746" d="M423 689q-54 0 -95.5 -24.5t-70 -67.5t-43 -102t-14.5 -128q0 -76 14.5 -136t43.5 -101.5t70.5 -64t93.5 -22.5q77 0 141.5 42.5t119.5 145.5l33 -22q-51 -115 -124.5 -168t-177.5 -53q-89 0 -160.5 28t-121 78.5t-75.5 120t-26 152.5q0 80 30.5 149t84.5 119.5t126 79.5 t155 29q24 0 52 -2.5t57 -8.5t58.5 -15.5t53.5 -25.5v-183h-24q-9 34 -26 66.5t-42.5 57.5t-58.5 40.5t-74 15.5zM322 964l107 -58l106 58h37l-115 -165h-56l-115 165h36z" />
<glyph unicode="&#x10d;" horiz-adv-x="539" d="M509 118q-35 -62 -82.5 -96t-119.5 -34q-62 0 -114 15t-88.5 46t-57 76t-20.5 104q0 58 21.5 103.5t57 76t84 46.5t101.5 16q65 0 112 -18.5t77 -46.5q14 -14 20.5 -27.5t6.5 -27.5q0 -27 -16.5 -45t-45.5 -18q-20 0 -34 10.5t-20 35.5q-7 28 -16.5 44.5t-22 26t-28 13 t-33.5 3.5q-25 0 -46 -13t-37.5 -37.5t-25.5 -60t-9 -81.5q0 -86 36 -138.5t110 -52.5q44 0 83 26t79 88zM184 691l107 -58l106 58h37l-115 -165h-56l-115 165h36z" />
<glyph unicode="&#x10e;" horiz-adv-x="819" d="M31 0v14l75 87v530l-75 87v14h369q87 0 157.5 -26.5t119.5 -74.5t75.5 -116t26.5 -149q0 -82 -26.5 -149t-75.5 -115.5t-119.5 -75t-157.5 -26.5h-369zM263 70l15 -15h98q65 0 111.5 23.5t76.5 65t44.5 98.5t14.5 124q0 68 -14.5 124.5t-44.5 98t-77 65t-111 23.5h-98 l-15 -14v-593zM252 964l107 -58l106 58h37l-115 -165h-56l-115 165h36z" />
<glyph unicode="&#x10f;" horiz-adv-x="786" d="M534 67l62 -53v-14h-152v94q-9 -18 -22.5 -37t-35.5 -34.5t-53 -25t-73 -9.5q-54 0 -95.5 18t-69 50t-42 76.5t-14.5 96.5q0 114 58.5 178t162.5 64q43 0 78 -18.5t52 -48.5v262l-62 52v14l206 42v-707zM288 38q27 0 46 14t31.5 36.5t18.5 51.5t6 59v61q0 30 -6 58.5 t-18.5 51.5t-32 37t-45.5 14q-30 0 -50 -16t-31.5 -42t-16.5 -61t-5 -73t5 -72.5t16.5 -60.5t31.5 -42t50 -16zM612 651q0 36 23.5 58.5t56.5 22.5q38 0 61 -23.5t23 -66.5q0 -24 -6 -50t-19.5 -52t-38 -50t-60.5 -44l-17 21q30 19 41 34.5t11 32.5q0 19 -6 27t-20 16 q-27 13 -38 30t-11 44z" />
<glyph unicode="&#x110;" horiz-adv-x="822" d="M31 403h64l15 15v213l-76 87v14h369q87 0 157.5 -26.5t119.5 -74.5t75.5 -116t26.5 -149q0 -82 -26.5 -149t-75.5 -115.5t-119.5 -75t-157.5 -26.5h-369v14l76 87v214l-15 15h-64v73zM266 70l15 -15h98q65 0 111.5 23.5t76.5 65t44.5 98.5t14.5 124q0 68 -14.5 124.5 t-44.5 98t-77 65t-111 23.5h-98l-15 -14v-245l15 -15h64v-73h-64l-15 -15v-245z" />
<glyph unicode="&#x111;" horiz-adv-x="621" d="M534 67l62 -53v-14h-152v94q-9 -18 -22.5 -37t-35.5 -34.5t-53 -25t-73 -9.5q-54 0 -95.5 18t-69 50t-42 76.5t-14.5 96.5q0 114 58.5 178t162.5 64q43 0 78 -18.5t52 -48.5v144l-11 11h-167v50h167l11 12v45l-62 52v14l206 42v-153l11 -12h81v-50h-81l-11 -11v-481z M288 38q27 0 46 14t31.5 36.5t18.5 51.5t6 59v61q0 30 -6 58.5t-18.5 51.5t-32 37t-45.5 14q-30 0 -50 -16t-31.5 -42t-16.5 -61t-5 -73t5 -72.5t16.5 -60.5t31.5 -42t50 -16z" />
<glyph unicode="&#x112;" horiz-adv-x="690" d="M29 718v14h575l19 -173h-15l-79 118h-254l-14 -14v-230l14 -14h220l45 62h14v-180h-14l-45 63h-220l-14 -15v-279l14 -15h268l102 132h14l-26 -187h-604v14l75 87v530zM200 915h293v-77h-293v77z" />
<glyph unicode="&#x113;" horiz-adv-x="551" d="M526 138q-36 -77 -92 -113.5t-147 -36.5q-56 0 -103.5 17t-81.5 48t-53.5 76t-19.5 100q0 54 20.5 99t54.5 76.5t80 49t99 17.5q115 0 176 -62t61 -167v-16h-345q0 -32 6.5 -65t22 -60.5t41.5 -45t65 -17.5q58 0 104.5 33.5t79.5 93.5zM283 421q-26 0 -45.5 -12.5 t-33 -33t-20.5 -46.5t-8 -53h212v10q0 23 -5.5 46.5t-18.5 43t-32.5 32.5t-48.5 13zM138 621h293v-77h-293v77z" />
<glyph unicode="&#x114;" horiz-adv-x="690" d="M29 718v14h575l19 -173h-15l-79 118h-254l-14 -14v-230l14 -14h220l45 62h14v-180h-14l-45 63h-220l-14 -15v-279l14 -15h268l102 132h14l-26 -187h-604v14l75 87v530zM470 926q-10 -46 -41 -75.5t-82 -29.5q-50 0 -81 29.5t-42 75.5l28 18q16 -31 42 -45.5t53 -14.5 q28 0 53.5 14.5t42.5 45.5z" />
<glyph unicode="&#x115;" horiz-adv-x="551" d="M526 138q-36 -77 -92 -113.5t-147 -36.5q-56 0 -103.5 17t-81.5 48t-53.5 76t-19.5 100q0 54 20.5 99t54.5 76.5t80 49t99 17.5q115 0 176 -62t61 -167v-16h-345q0 -32 6.5 -65t22 -60.5t41.5 -45t65 -17.5q58 0 104.5 33.5t79.5 93.5zM283 421q-26 0 -45.5 -12.5 t-33 -33t-20.5 -46.5t-8 -53h212v10q0 23 -5.5 46.5t-18.5 43t-32.5 32.5t-48.5 13zM406 653q-10 -46 -41 -75.5t-82 -29.5q-50 0 -81 29.5t-42 75.5l28 18q16 -31 42 -45.5t53 -14.5q28 0 53.5 14.5t42.5 45.5z" />
<glyph unicode="&#x116;" horiz-adv-x="690" d="M29 718v14h575l19 -173h-15l-79 118h-254l-14 -14v-230l14 -14h220l45 62h14v-180h-14l-45 63h-220l-14 -15v-279l14 -15h268l102 132h14l-26 -187h-604v14l75 87v530zM264 890q0 35 24.5 59t58.5 24t58.5 -24t24.5 -59t-24.5 -59t-58.5 -24t-58.5 24t-24.5 59z" />
<glyph unicode="&#x117;" horiz-adv-x="551" d="M526 138q-36 -77 -92 -113.5t-147 -36.5q-56 0 -103.5 17t-81.5 48t-53.5 76t-19.5 100q0 54 20.5 99t54.5 76.5t80 49t99 17.5q115 0 176 -62t61 -167v-16h-345q0 -32 6.5 -65t22 -60.5t41.5 -45t65 -17.5q58 0 104.5 33.5t79.5 93.5zM283 421q-26 0 -45.5 -12.5 t-33 -33t-20.5 -46.5t-8 -53h212v10q0 23 -5.5 46.5t-18.5 43t-32.5 32.5t-48.5 13zM205 626q0 35 24.5 59t58.5 24t58.5 -24t24.5 -59t-24.5 -59t-58.5 -24t-58.5 24t-24.5 59z" />
<glyph unicode="&#x118;" horiz-adv-x="690" d="M389 -102q2 24 18.5 42.5t33.5 31.5q20 15 47 28h-459v14l75 87v530l-75 87v14h575l19 -173h-15l-79 118h-254l-14 -14v-230l14 -14h220l45 62h14v-180h-14l-45 63h-220l-14 -15v-279l14 -15h268l102 132h14l-26 -187h-80q-24 -12 -42 -28q-15 -13 -28 -31t-13 -39 q0 -13 7 -23t23 -10q30 0 49.5 25.5t35.5 60.5l74 -49q-38 -49 -83.5 -67t-89.5 -18q-54 0 -77.5 21.5t-19.5 55.5z" />
<glyph unicode="&#x119;" horiz-adv-x="551" d="M216 -102q2 24 18.5 42.5t33.5 31.5q10 8 23 16h-4q-56 0 -103.5 17t-81.5 48t-53.5 76t-19.5 100q0 54 20.5 99t54.5 76.5t80 49t99 17.5q115 0 176 -62t61 -167v-16h-345q0 -32 6.5 -65t22 -60.5t41.5 -45t65 -17.5q58 0 104.5 33.5t79.5 93.5l32 -27q-27 -55 -62 -89 t-85 -49q-23 -12 -41 -28q-15 -13 -28 -31t-13 -39q0 -13 7 -23t23 -10q30 0 49.5 25.5t35.5 60.5l74 -49q-38 -49 -83.5 -67t-89.5 -18q-54 0 -77.5 21.5t-19.5 55.5zM283 421q-26 0 -45.5 -12.5t-33 -33t-20.5 -46.5t-8 -53h212v10q0 23 -5.5 46.5t-18.5 43t-32.5 32.5 t-48.5 13z" />
<glyph unicode="&#x11a;" horiz-adv-x="690" d="M29 718v14h575l19 -173h-15l-79 118h-254l-14 -14v-230l14 -14h220l45 62h14v-180h-14l-45 63h-220l-14 -15v-279l14 -15h268l102 132h14l-26 -187h-604v14l75 87v530zM240 964l107 -58l106 58h37l-115 -165h-56l-115 165h36z" />
<glyph unicode="&#x11b;" horiz-adv-x="551" d="M526 138q-36 -77 -92 -113.5t-147 -36.5q-56 0 -103.5 17t-81.5 48t-53.5 76t-19.5 100q0 54 20.5 99t54.5 76.5t80 49t99 17.5q115 0 176 -62t61 -167v-16h-345q0 -32 6.5 -65t22 -60.5t41.5 -45t65 -17.5q58 0 104.5 33.5t79.5 93.5zM283 421q-26 0 -45.5 -12.5 t-33 -33t-20.5 -46.5t-8 -53h212v10q0 23 -5.5 46.5t-18.5 43t-32.5 32.5t-48.5 13zM177 691l107 -58l106 58h37l-115 -165h-56l-115 165h36z" />
<glyph unicode="&#x11c;" horiz-adv-x="789" d="M697 133q0 -17 3 -28.5t8 -18.5q4 -8 11 -13q-19 -23 -47.5 -39.5t-62.5 -26.5t-70.5 -14.5t-74.5 -4.5q-97 0 -176.5 26t-137 74.5t-88.5 119t-31 159.5q0 81 32 150t88 119.5t130.5 79t158.5 28.5q34 0 69 -4t68.5 -11.5t64.5 -18.5t55 -25v-177h-24q-12 36 -32.5 68.5 t-50 57.5t-68 40t-85.5 15q-52 0 -96 -24.5t-75.5 -67.5t-48.5 -102.5t-17 -127.5q0 -74 16.5 -133.5t51 -102t85.5 -65.5t120 -23q27 0 47.5 7.5t20.5 34.5v176l-15 14h-82v56h329v-15l-76 -87v-96v0zM297 799l115 165h56l115 -165h-37l-106 59l-107 -59h-36z" />
<glyph unicode="&#x11d;" horiz-adv-x="599" d="M285 -63q-40 3 -70 10t-52 18q-15 -14 -22.5 -33.5t-7.5 -39.5q0 -34 14.5 -58.5t38.5 -41.5t55.5 -25.5t67.5 -8.5q86 0 127.5 31.5t41.5 75.5q0 19 -11.5 31.5t-35 20t-60 12t-86.5 8.5zM295 188q44 0 67.5 33.5t23.5 85.5t-23.5 85t-67.5 33q-43 0 -66.5 -33 t-23.5 -85t23.5 -85.5t66.5 -33.5zM295 472q31 0 63 -4.5t62 -17.5l132 47l19 -20l-75 -93q10 -17 14 -33.5t4 -43.5q0 -43 -19.5 -74t-51 -51t-70.5 -30t-78 -10h-4q-19 0 -41 -10.5t-41 -23.5q-23 -15 -45 -34q5 -6 19 -11q12 -4 36.5 -8t64.5 -6q65 -3 119 -10t93 -24.5 t61 -47.5t22 -80q0 -51 -29.5 -84.5t-72 -53.5t-91 -28.5t-87.5 -8.5q-61 0 -112.5 11t-88.5 33.5t-57.5 56t-20.5 79.5q0 40 18 68.5t50 47.5q-11 8 -20.5 20t-16 25t-10 25t-3.5 21l133 70q-14 7 -31 19.5t-31 30t-23 40t-9 48.5q0 43 19.5 74.5t51 51.5t70 29.5t77.5 9.5 zM152 526l115 165h56l115 -165h-37l-106 59l-107 -59h-36z" />
<glyph unicode="&#x11e;" horiz-adv-x="789" d="M697 133q0 -17 3 -28.5t8 -18.5q4 -8 11 -13q-19 -23 -47.5 -39.5t-62.5 -26.5t-70.5 -14.5t-74.5 -4.5q-97 0 -176.5 26t-137 74.5t-88.5 119t-31 159.5q0 81 32 150t88 119.5t130.5 79t158.5 28.5q34 0 69 -4t68.5 -11.5t64.5 -18.5t55 -25v-177h-24q-12 36 -32.5 68.5 t-50 57.5t-68 40t-85.5 15q-52 0 -96 -24.5t-75.5 -67.5t-48.5 -102.5t-17 -127.5q0 -74 16.5 -133.5t51 -102t85.5 -65.5t120 -23q27 0 47.5 7.5t20.5 34.5v176l-15 14h-82v56h329v-15l-76 -87v-96v0zM563 926q-10 -46 -41 -75.5t-82 -29.5q-50 0 -81 29.5t-42 75.5l28 18 q16 -31 42 -45.5t53 -14.5q28 0 53.5 14.5t42.5 45.5z" />
<glyph unicode="&#x11f;" horiz-adv-x="599" d="M285 -63q-40 3 -70 10t-52 18q-15 -14 -22.5 -33.5t-7.5 -39.5q0 -34 14.5 -58.5t38.5 -41.5t55.5 -25.5t67.5 -8.5q86 0 127.5 31.5t41.5 75.5q0 19 -11.5 31.5t-35 20t-60 12t-86.5 8.5zM295 188q44 0 67.5 33.5t23.5 85.5t-23.5 85t-67.5 33q-43 0 -66.5 -33 t-23.5 -85t23.5 -85.5t66.5 -33.5zM295 472q31 0 63 -4.5t62 -17.5l132 47l19 -20l-75 -93q10 -17 14 -33.5t4 -43.5q0 -43 -19.5 -74t-51 -51t-70.5 -30t-78 -10h-4q-19 0 -41 -10.5t-41 -23.5q-23 -15 -45 -34q5 -6 19 -11q12 -4 36.5 -8t64.5 -6q65 -3 119 -10t93 -24.5 t61 -47.5t22 -80q0 -51 -29.5 -84.5t-72 -53.5t-91 -28.5t-87.5 -8.5q-61 0 -112.5 11t-88.5 33.5t-57.5 56t-20.5 79.5q0 40 18 68.5t50 47.5q-11 8 -20.5 20t-16 25t-10 25t-3.5 21l133 70q-14 7 -31 19.5t-31 30t-23 40t-9 48.5q0 43 19.5 74.5t51 51.5t70 29.5t77.5 9.5 zM418 653q-10 -46 -41 -75.5t-82 -29.5q-50 0 -81 29.5t-42 75.5l28 18q16 -31 42 -45.5t53 -14.5q28 0 53.5 14.5t42.5 45.5z" />
<glyph unicode="&#x120;" horiz-adv-x="789" d="M697 133q0 -17 3 -28.5t8 -18.5q4 -8 11 -13q-19 -23 -47.5 -39.5t-62.5 -26.5t-70.5 -14.5t-74.5 -4.5q-97 0 -176.5 26t-137 74.5t-88.5 119t-31 159.5q0 81 32 150t88 119.5t130.5 79t158.5 28.5q34 0 69 -4t68.5 -11.5t64.5 -18.5t55 -25v-177h-24q-12 36 -32.5 68.5 t-50 57.5t-68 40t-85.5 15q-52 0 -96 -24.5t-75.5 -67.5t-48.5 -102.5t-17 -127.5q0 -74 16.5 -133.5t51 -102t85.5 -65.5t120 -23q27 0 47.5 7.5t20.5 34.5v176l-15 14h-82v56h329v-15l-76 -87v-96v0zM357 890q0 35 24.5 59t58.5 24t58.5 -24t24.5 -59t-24.5 -59t-58.5 -24 t-58.5 24t-24.5 59z" />
<glyph unicode="&#x121;" horiz-adv-x="599" d="M285 -63q-40 3 -70 10t-52 18q-15 -14 -22.5 -33.5t-7.5 -39.5q0 -34 14.5 -58.5t38.5 -41.5t55.5 -25.5t67.5 -8.5q86 0 127.5 31.5t41.5 75.5q0 19 -11.5 31.5t-35 20t-60 12t-86.5 8.5zM295 188q44 0 67.5 33.5t23.5 85.5t-23.5 85t-67.5 33q-43 0 -66.5 -33 t-23.5 -85t23.5 -85.5t66.5 -33.5zM295 472q31 0 63 -4.5t62 -17.5l132 47l19 -20l-75 -93q10 -17 14 -33.5t4 -43.5q0 -43 -19.5 -74t-51 -51t-70.5 -30t-78 -10h-4q-19 0 -41 -10.5t-41 -23.5q-23 -15 -45 -34q5 -6 19 -11q12 -4 36.5 -8t64.5 -6q65 -3 119 -10t93 -24.5 t61 -47.5t22 -80q0 -51 -29.5 -84.5t-72 -53.5t-91 -28.5t-87.5 -8.5q-61 0 -112.5 11t-88.5 33.5t-57.5 56t-20.5 79.5q0 40 18 68.5t50 47.5q-11 8 -20.5 20t-16 25t-10 25t-3.5 21l133 70q-14 7 -31 19.5t-31 30t-23 40t-9 48.5q0 43 19.5 74.5t51 51.5t70 29.5t77.5 9.5 zM212 626q0 35 24.5 59t58.5 24t58.5 -24t24.5 -59t-24.5 -59t-58.5 -24t-58.5 24t-24.5 59z" />
<glyph unicode="&#x122;" horiz-adv-x="789" d="M697 133q0 -17 3 -28.5t8 -18.5q4 -8 11 -13q-19 -23 -47.5 -39.5t-62.5 -26.5t-70.5 -14.5t-74.5 -4.5q-97 0 -176.5 26t-137 74.5t-88.5 119t-31 159.5q0 81 32 150t88 119.5t130.5 79t158.5 28.5q34 0 69 -4t68.5 -11.5t64.5 -18.5t55 -25v-177h-24q-12 36 -32.5 68.5 t-50 57.5t-68 40t-85.5 15q-52 0 -96 -24.5t-75.5 -67.5t-48.5 -102.5t-17 -127.5q0 -74 16.5 -133.5t51 -102t85.5 -65.5t120 -23q27 0 47.5 7.5t20.5 34.5v176l-15 14h-82v56h329v-15l-76 -87v-96v0zM382 -130q0 36 23.5 58.5t56.5 22.5q38 0 61 -24t23 -67q0 -45 -8 -79 t-24.5 -60.5t-41 -49t-56.5 -43.5l-15 20q19 18 32 32t19.5 25.5t9 22t2.5 22.5q0 19 -10.5 28t-22.5 14q-27 13 -38 29.5t-11 48.5z" />
<glyph unicode="&#x123;" horiz-adv-x="599" d="M285 -63q-40 3 -70 10t-52 18q-15 -14 -22.5 -33.5t-7.5 -39.5q0 -34 14.5 -58.5t38.5 -41.5t55.5 -25.5t67.5 -8.5q86 0 127.5 31.5t41.5 75.5q0 19 -11.5 31.5t-35 20t-60 12t-86.5 8.5zM295 188q44 0 67.5 33.5t23.5 85.5t-23.5 85t-67.5 33q-43 0 -66.5 -33 t-23.5 -85t23.5 -85.5t66.5 -33.5zM295 472q31 0 63 -4.5t62 -17.5l132 47l19 -20l-75 -93q10 -17 14 -33.5t4 -43.5q0 -43 -19.5 -74t-51 -51t-70.5 -30t-78 -10h-4q-19 0 -41 -10.5t-41 -23.5q-23 -15 -45 -34q5 -6 19 -11q12 -4 36.5 -8t64.5 -6q65 -3 119 -10t93 -24.5 t61 -47.5t22 -80q0 -51 -29.5 -84.5t-72 -53.5t-91 -28.5t-87.5 -8.5q-61 0 -112.5 11t-88.5 33.5t-57.5 56t-20.5 79.5q0 40 18 68.5t50 47.5q-11 8 -20.5 20t-16 25t-10 25t-3.5 21l133 70q-14 7 -31 19.5t-31 30t-23 40t-9 48.5q0 43 19.5 74.5t51 51.5t70 29.5t77.5 9.5 zM376 609q0 -36 -23.5 -58.5t-55.5 -22.5q-38 0 -61 24t-23 67q0 24 5.5 49.5t19.5 52t38 50.5t61 43l16 -20q-30 -19 -41 -34.5t-11 -32.5q0 -19 6 -27.5t20 -15.5q27 -13 38 -30.5t11 -44.5z" />
<glyph unicode="&#x124;" horiz-adv-x="865" d="M522 718v14h308v-14l-75 -87v-530l75 -87v-14h-308v14l76 87v265l-14 14h-302l-15 -14v-265l76 -87v-14h-308v14l76 87v530l-76 87v14h308v-14l-76 -87v-181l15 -15h302l14 15v181zM291 799l115 165h56l115 -165h-37l-106 59l-107 -59h-36z" />
<glyph unicode="&#x125;" horiz-adv-x="654" d="M574 67l63 -53v-14h-268v14l62 53v270q0 37 -18 54t-48 17q-24 0 -49 -14t-48 -32q-27 -19 -51 -44v-251l63 -53v-14h-269v14l63 53v599l-63 52v14l206 42v-403q31 28 65 50q29 18 64.5 34t71.5 16q77 0 116.5 -36t39.5 -109v-259zM81 799l115 165h56l115 -165h-37 l-106 59l-107 -59h-36z" />
<glyph unicode="&#x126;" horiz-adv-x="865" d="M522 718v14h308v-14l-75 -87v-38l14 -14h61v-56h-61l-14 -14v-408l75 -87v-14h-308v14l76 87v265l-14 14h-302l-15 -14v-265l76 -87v-14h-308v14l76 87v408l-15 14h-61v56h61l15 14v38l-76 87v14h308v-14l-76 -87v-38l15 -14h302l14 14v38zM267 509v-59l15 -15h302l14 15 v59l-14 14h-302z" />
<glyph unicode="&#x127;" horiz-adv-x="690" d="M610 67l63 -53v-14h-269v14l63 53v270q0 37 -18 54t-49 17q-24 0 -48.5 -14t-47.5 -32q-27 -19 -51 -44v-251l62 -53v-14h-268v14l63 53v469l-15 14h-84v50h84l15 14v52l-63 52v14l206 42v-160l14 -14h84v-50h-84l-14 -14v-165q31 28 64 50q29 18 65 34t72 16 q77 0 116.5 -36t39.5 -109v-259z" />
<glyph unicode="&#x128;" horiz-adv-x="369" d="M25 718v14h308v-14l-76 -87v-530l76 -87v-14h-308v14l75 87v530zM391 975q-7 -42 -25 -74q-14 -29 -39.5 -52t-66.5 -23q-35 0 -56.5 10.5t-37.5 23t-32 23.5t-38 11q-25 0 -42 -9t-29 -20q-13 -12 -21 -29h-26q7 41 25 75q7 13 16.5 27t23 24t30 17t36.5 7 q35 0 56.5 -11t37.5 -23t31 -23t39 -11q25 0 42 9t29 20q12 12 21 28h26z" />
<glyph unicode="&#x129;" horiz-adv-x="316" d="M225 67l63 -53v-14h-269v14l63 53v305l-63 52v14l206 42v-413zM361 689q-7 -42 -25 -74q-14 -29 -39.5 -52t-66.5 -23q-35 0 -56.5 10.5t-37.5 23t-32 23.5t-38 11q-25 0 -42 -9t-29 -20q-13 -12 -21 -29h-26q7 41 25 75q7 13 16.5 27t23 24t30 17t36.5 7q35 0 56.5 -11 t37.5 -23t31 -23t39 -11q25 0 42 9t29 20q12 12 21 28h26z" />
<glyph unicode="&#x12a;" horiz-adv-x="369" d="M31 718v14h308v-14l-76 -87v-530l76 -87v-14h-308v14l75 87v530zM45 915h293v-77h-293v77z" />
<glyph unicode="&#x12b;" horiz-adv-x="316" d="M240 67l63 -53v-14h-269v14l63 53v305l-63 52v14l206 42v-413zM6 621h293v-77h-293v77z" />
<glyph unicode="&#x12c;" horiz-adv-x="369" d="M31 718v14h308v-14l-76 -87v-530l76 -87v-14h-308v14l75 87v530zM313 926q-10 -46 -41 -75.5t-82 -29.5q-50 0 -81 29.5t-42 75.5l28 18q16 -31 42 -45.5t53 -14.5q28 0 53.5 14.5t42.5 45.5z" />
<glyph unicode="&#x12d;" horiz-adv-x="316" d="M223 67l63 -53v-14h-269v14l63 53v305l-63 52v14l206 42v-413zM274 653q-10 -46 -41 -75.5t-82 -29.5q-50 0 -81 29.5t-42 75.5l28 18q16 -31 42 -45.5t53 -14.5q28 0 53.5 14.5t42.5 45.5z" />
<glyph unicode="&#x12e;" horiz-adv-x="369" d="M69 -102q2 24 18 42.5t34 31.5q20 15 47 28h-137v14l75 87v530l-75 87v14h308v-14l-76 -87v-530l76 -87v-14h-107q-24 -12 -42 -28q-15 -13 -27.5 -31t-12.5 -39q0 -13 7 -23t22 -10q30 0 50 25.5t35 60.5l75 -49q-38 -49 -83.5 -67t-89.5 -18q-54 0 -77.5 21.5 t-19.5 55.5z" />
<glyph unicode="&#x12f;" horiz-adv-x="316" d="M22 -102q2 24 18 42.5t34 31.5q20 15 47 28h-102v14l63 53v305l-63 52v14l206 42v-413l63 -53v-14h-103q-24 -12 -42 -28q-15 -13 -28 -31t-13 -39q0 -13 7.5 -23t22.5 -10q30 0 50 25.5t35 60.5l75 -49q-38 -49 -83.5 -67t-89.5 -18q-54 0 -77.5 21.5t-19.5 55.5z M69 649q0 35 24.5 59t58.5 24t58 -24t24 -59t-24.5 -59t-57.5 -24q-34 0 -58.5 24t-24.5 59z" />
<glyph unicode="&#x130;" horiz-adv-x="369" d="M31 718v14h308v-14l-76 -87v-530l76 -87v-14h-308v14l75 87v530zM108 890q0 35 24.5 59t58.5 24t58.5 -24t24.5 -59t-24.5 -59t-58.5 -24t-58.5 24t-24.5 59z" />
<glyph unicode="&#x131;" horiz-adv-x="316" d="M223 67l63 -53v-14h-269v14l63 53v305l-63 52v14l206 42v-413z" />
<glyph unicode="&#x132;" horiz-adv-x="750" d="M31 718v14h308v-14l-76 -87v-530l76 -87v-14h-308v14l75 87v530zM414 718v14h308v-14l-76 -87v-631q0 -61 -21.5 -109.5t-61 -85t-96 -63t-126.5 -42.5v52q74 30 111.5 84.5t37.5 137.5v657z" />
<glyph unicode="&#x133;" horiz-adv-x="592" d="M223 67l63 -53v-14h-269v14l63 53v305l-63 52v14l206 42v-413zM67 649q0 35 24.5 59t58.5 24t58 -24t24 -59t-24.5 -59t-57.5 -24q-34 0 -58.5 24t-24.5 59zM516 0q0 -56 -18.5 -98.5t-50 -77t-75 -64t-92.5 -60.5l-11 40q33 31 53.5 56t32 50t15 54t3.5 69v403l-63 52 v14l206 42v-480zM360 649q0 35 24.5 59t58.5 24t58 -24t24 -59t-24.5 -59t-57.5 -24q-34 0 -58.5 24t-24.5 59z" />
<glyph unicode="&#x134;" horiz-adv-x="377" d="M41 718v14h308v-14l-76 -87v-631q0 -61 -21.5 -109.5t-61 -85t-96 -63t-126.5 -42.5v52q74 30 111.5 84.5t37.5 137.5v657zM56 799l115 165h56l115 -165h-37l-106 59l-107 -59h-36z" />
<glyph unicode="&#x135;" horiz-adv-x="301" d="M224 0q0 -56 -18.5 -98.5t-50 -77t-75 -64t-92.5 -60.5l-11 40q33 31 53.5 56t32 50t15 54t3.5 69v403l-63 52v14l206 42v-480zM5 526l116 165h55l116 -165h-37l-107 59l-106 -59h-37z" />
<glyph unicode="&#x136;" horiz-adv-x="720" d="M29 0v14l75 87v530l-75 87v14h308v-14l-76 -87v-201l251 243l-45 45v14h217v-14l-134 -87l-181 -174l102 17l249 -518l-112 44l-121 101l-179 297l-47 -45v-252l76 -87v-14h-308zM385 -130q0 36 23.5 58.5t56.5 22.5q38 0 61 -24t23 -67q0 -45 -8 -79t-24.5 -60.5 t-41 -49t-56.5 -43.5l-15 20q19 18 32 32t19.5 25.5t9 22t2.5 22.5q0 19 -10.5 28t-22.5 14q-27 13 -38 29.5t-11 48.5z" />
<glyph unicode="&#x137;" horiz-adv-x="526" d="M293 310l46 19l193 -373l-118 44l-69 67l-106 196l-22 -18v-178l63 -53v-14h-269v14l63 53v599l-63 52v14l206 42v-460l105 90l-34 40v15h187v-15l-87 -51zM260 -130q0 36 23.5 58.5t56.5 22.5q38 0 61 -24t23 -67q0 -45 -8 -79t-24.5 -60.5t-41 -49t-56.5 -43.5l-15 20 q19 18 32 32t19.5 25.5t9 22t2.5 22.5q0 19 -10.5 28t-22.5 14q-27 13 -38 29.5t-11 48.5z" />
<glyph unicode="&#x139;" horiz-adv-x="659" d="M27 718v14h309v-14l-76 -87v-561l14 -15h237l119 132h14l-27 -187h-589v14l75 87v530zM203 810h-37l95 138q15 23 30 32.5t43 9.5q24 0 41 -14.5t17 -44.5q0 -20 -9 -31t-24 -19z" />
<glyph unicode="&#x13a;" horiz-adv-x="318" d="M230 67l63 -53v-14h-268v14l62 53v599l-62 52v14l205 42v-707zM117 810h-37l95 138q15 23 30 32.5t43 9.5q24 0 41 -14.5t17 -44.5q0 -20 -9 -31t-24 -19z" />
<glyph unicode="&#x13b;" horiz-adv-x="659" d="M27 718v14h309v-14l-76 -87v-561l14 -15h237l119 132h14l-27 -187h-589v14l75 87v530zM257 -130q0 36 23.5 58.5t56.5 22.5q38 0 61 -24t23 -67q0 -45 -8 -79t-24.5 -60.5t-41 -49t-56.5 -43.5l-15 20q19 18 32 32t19.5 25.5t9 22t2.5 22.5q0 19 -10.5 28t-22.5 14 q-27 13 -38 29.5t-11 48.5z" />
<glyph unicode="&#x13c;" horiz-adv-x="318" d="M230 67l63 -53v-14h-268v14l62 53v599l-62 52v14l205 42v-707zM80 -130q0 36 23.5 58.5t56.5 22.5q38 0 61 -24t23 -67q0 -45 -8 -79t-24.5 -60.5t-41 -49t-56.5 -43.5l-15 20q19 18 32 32t19.5 25.5t9 22t2.5 22.5q0 19 -10.5 28t-22.5 14q-27 13 -38 29.5t-11 48.5z " />
<glyph unicode="&#x13d;" horiz-adv-x="659" d="M27 718v14h309v-14l-76 -87v-561l14 -15h237l119 132h14l-27 -187h-589v14l75 87v530zM74 964l107 -58l106 58h37l-115 -165h-56l-115 165h36z" />
<glyph unicode="&#x13e;" horiz-adv-x="463" d="M230 67l63 -53v-14h-268v14l62 53v599l-62 52v14l205 42v-707zM289 651q0 36 23.5 58.5t56.5 22.5q38 0 61 -23.5t23 -66.5q0 -24 -6 -50t-19.5 -52t-38 -50t-60.5 -44l-17 21q30 19 41 34.5t11 32.5q0 19 -6 27t-20 16q-27 13 -38 30t-11 44z" />
<glyph unicode="&#x13f;" horiz-adv-x="659" d="M27 718v14h309v-14l-76 -87v-561l14 -15h237l119 132h14l-27 -187h-589v14l75 87v530zM462 368q0 16 6.5 31t17.5 27t26 18.5t31 6.5t31 -6.5t27 -18.5t18.5 -26.5t6.5 -31.5q0 -16 -6.5 -31t-18.5 -25.5t-27 -17.5t-31 -7q-33 0 -57 24t-24 57z" />
<glyph unicode="&#x140;" horiz-adv-x="479" d="M230 67l63 -53v-14h-268v14l62 53v599l-62 52v14l205 42v-707zM304 364q0 16 6.5 31t17.5 27t26 18.5t31 6.5t31 -6.5t27 -18.5t18.5 -26.5t6.5 -31.5q0 -16 -6.5 -31t-18.5 -25.5t-27 -17.5t-31 -7q-33 0 -57 24t-24 57z" />
<glyph unicode="&#x141;" horiz-adv-x="659" d="M28 268l75 44v319l-76 87v14h309v-14l-76 -87v-228l107 63v-95l-107 -63v-238l14 -15h237l119 132h14l-27 -187h-589v14l75 87v116l-75 -44v95z" />
<glyph unicode="&#x142;" horiz-adv-x="318" d="M230 67l63 -53v-14h-268v14l62 53v142l-62 -36v95l62 36v362l-62 52v14l205 42v-386l63 37v-95l-63 -37v-226z" />
<glyph unicode="&#x143;" horiz-adv-x="765" d="M738 732v-14l-75 -87v-631l-488 504l-16 53v-456l75 -87v-14h-206v14l75 87v530l-75 87v14h154l406 -419l19 -55v373l-76 87v14h207zM304 810h-37l95 138q15 23 30 32.5t43 9.5q24 0 41 -14.5t17 -44.5q0 -20 -9 -31t-24 -19z" />
<glyph unicode="&#x144;" horiz-adv-x="668" d="M584 67l62 -53v-14h-268v14l62 53v264q0 42 -12 59.5t-46 17.5q-23 0 -48.5 -14t-48.5 -32q-27 -19 -54 -45v-250l63 -53v-14h-268v14l62 53v305l-62 52v14l205 42v-109q33 28 67 50q30 18 65.5 34t71.5 16q81 0 115 -34.5t34 -110.5v-259zM298 517h-37l95 138 q15 23 30 32.5t43 9.5q24 0 41 -14.5t17 -44.5q0 -20 -9 -31t-24 -19z" />
<glyph unicode="&#x145;" horiz-adv-x="765" d="M738 732v-14l-75 -87v-631l-488 504l-16 53v-456l75 -87v-14h-206v14l75 87v530l-75 87v14h154l406 -419l19 -55v373l-76 87v14h207zM298 -130q0 36 23.5 58.5t56.5 22.5q38 0 61 -24t23 -67q0 -45 -8 -79t-24.5 -60.5t-41 -49t-56.5 -43.5l-15 20q19 18 32 32t19.5 25.5 t9 22t2.5 22.5q0 19 -10.5 28t-22.5 14q-27 13 -38 29.5t-11 48.5z" />
<glyph unicode="&#x146;" horiz-adv-x="668" d="M584 67l62 -53v-14h-268v14l62 53v264q0 42 -12 59.5t-46 17.5q-23 0 -48.5 -14t-48.5 -32q-27 -19 -54 -45v-250l63 -53v-14h-268v14l62 53v305l-62 52v14l205 42v-109q33 28 67 50q30 18 65.5 34t71.5 16q81 0 115 -34.5t34 -110.5v-259zM255 -130q0 36 23.5 58.5 t56.5 22.5q38 0 61 -24t23 -67q0 -45 -8 -79t-24.5 -60.5t-41 -49t-56.5 -43.5l-15 20q19 18 32 32t19.5 25.5t9 22t2.5 22.5q0 19 -10.5 28t-22.5 14q-27 13 -38 29.5t-11 48.5z" />
<glyph unicode="&#x147;" horiz-adv-x="765" d="M738 732v-14l-75 -87v-631l-488 504l-16 53v-456l75 -87v-14h-206v14l75 87v530l-75 87v14h154l406 -419l19 -55v373l-76 87v14h207zM273 964l107 -58l106 58h37l-115 -165h-56l-115 165h36z" />
<glyph unicode="&#x148;" horiz-adv-x="668" d="M584 67l62 -53v-14h-268v14l62 53v264q0 42 -12 59.5t-46 17.5q-23 0 -48.5 -14t-48.5 -32q-27 -19 -54 -45v-250l63 -53v-14h-268v14l62 53v305l-62 52v14l205 42v-109q33 28 67 50q30 18 65.5 34t71.5 16q81 0 115 -34.5t34 -110.5v-259zM231 691l107 -58l106 58h37 l-115 -165h-56l-115 165h36z" />
<glyph unicode="&#x149;" horiz-adv-x="802" d="M729 67l62 -53v-14h-268v14l62 53v264q0 42 -12 59.5t-46 17.5q-23 0 -48.5 -14t-48.5 -32q-27 -19 -54 -45v-250l63 -53v-14h-268v14l62 53v305l-62 52v14l205 42v-109q33 28 67 50q30 18 65.5 34t71.5 16q81 0 115 -34.5t34 -110.5v-259zM26 651q0 36 23.5 58.5 t56.5 22.5q38 0 61 -23.5t23 -66.5q0 -48 -20.5 -95.5t-71.5 -87.5h-35q8 6 15 16.5t12 22.5t8 23t3 19q0 14 -6 21.5t-20 15.5q-27 13 -38 30t-11 44z" />
<glyph unicode="&#x14a;" horiz-adv-x="765" d="M738 732v-14l-75 -87v-631q0 -48 -9.5 -94t-34 -86.5t-67.5 -72t-112 -47.5v47q37 15 67.5 36.5t53 50.5t34.5 63.5t12 76.5v83l-432 447l-16 53v-456l75 -87v-14h-206v14l75 87v530l-75 87v14h154l406 -419l19 -55v373l-76 87v14h207z" />
<glyph unicode="&#x14b;" horiz-adv-x="668" d="M584 0q0 -56 -18.5 -98.5t-50.5 -77t-75.5 -64t-92.5 -60.5l-10 40q33 31 53.5 56t31.5 50t14.5 54t3.5 69v362q0 42 -12 59.5t-46 17.5q-23 0 -48.5 -14t-48.5 -32q-27 -19 -54 -45v-250l63 -53v-14h-268v14l62 53v305l-62 52v14l205 42v-109q33 28 67 50q30 18 65.5 34 t71.5 16q81 0 115 -34.5t34 -110.5v-326z" />
<glyph unicode="&#x14c;" horiz-adv-x="847" d="M643 367q0 67 -14.5 125.5t-42 102t-68.5 69t-94 25.5t-94 -25.5t-69 -69t-42 -102.5t-14 -125q0 -67 14 -126t42 -103t69 -69.5t94 -25.5t94 25.5t68.5 69.5t42 103t14.5 126zM812 367q0 -82 -30 -151.5t-83 -120t-123.5 -79t-151.5 -28.5t-151.5 28.5t-123.5 79 t-83 120t-30 151.5q0 81 30 150t83 119.5t123.5 79t151.5 28.5t151.5 -28.5t123.5 -79t83 -119.5t30 -150zM278 915h293v-77h-293v77z" />
<glyph unicode="&#x14d;" horiz-adv-x="579" d="M553 229q0 -57 -21.5 -102t-57.5 -76t-83.5 -47t-100.5 -16t-101 16t-84 47t-57 76t-21 102t21 102.5t57 76t84 47t101 16.5t100.5 -16.5t83.5 -47t57.5 -76t21.5 -102.5zM407 229q0 39 -7 74t-21 61t-36 41.5t-53 15.5t-53 -15.5t-36.5 -41.5t-21 -61t-6.5 -74 t6.5 -73.5t21 -60.5t36.5 -41.5t53 -15.5t53 15.5t36 41.5t21 60.5t7 73.5zM144 621h293v-77h-293v77z" />
<glyph unicode="&#x14e;" horiz-adv-x="847" d="M643 367q0 67 -14.5 125.5t-42 102t-68.5 69t-94 25.5t-94 -25.5t-69 -69t-42 -102.5t-14 -125q0 -67 14 -126t42 -103t69 -69.5t94 -25.5t94 25.5t68.5 69.5t42 103t14.5 126zM812 367q0 -82 -30 -151.5t-83 -120t-123.5 -79t-151.5 -28.5t-151.5 28.5t-123.5 79 t-83 120t-30 151.5q0 81 30 150t83 119.5t123.5 79t151.5 28.5t151.5 -28.5t123.5 -79t83 -119.5t30 -150zM547 926q-10 -46 -41 -75.5t-82 -29.5q-50 0 -81 29.5t-42 75.5l28 18q16 -31 42 -45.5t53 -14.5q28 0 53.5 14.5t42.5 45.5z" />
<glyph unicode="&#x14f;" horiz-adv-x="579" d="M553 229q0 -57 -21.5 -102t-57.5 -76t-83.5 -47t-100.5 -16t-101 16t-84 47t-57 76t-21 102t21 102.5t57 76t84 47t101 16.5t100.5 -16.5t83.5 -47t57.5 -76t21.5 -102.5zM407 229q0 39 -7 74t-21 61t-36 41.5t-53 15.5t-53 -15.5t-36.5 -41.5t-21 -61t-6.5 -74 t6.5 -73.5t21 -60.5t36.5 -41.5t53 -15.5t53 15.5t36 41.5t21 60.5t7 73.5zM412 653q-10 -46 -41 -75.5t-82 -29.5q-50 0 -81 29.5t-42 75.5l28 18q16 -31 42 -45.5t53 -14.5q28 0 53.5 14.5t42.5 45.5z" />
<glyph unicode="&#x150;" horiz-adv-x="847" d="M643 367q0 67 -14.5 125.5t-42 102t-68.5 69t-94 25.5t-94 -25.5t-69 -69t-42 -102.5t-14 -125q0 -67 14 -126t42 -103t69 -69.5t94 -25.5t94 25.5t68.5 69.5t42 103t14.5 126zM812 367q0 -82 -30 -151.5t-83 -120t-123.5 -79t-151.5 -28.5t-151.5 28.5t-123.5 79 t-83 120t-30 151.5q0 81 30 150t83 119.5t123.5 79t151.5 28.5t151.5 -28.5t123.5 -79t83 -119.5t30 -150zM266 810h-37l94 138q15 23 30 32.5t44 9.5q24 0 40.5 -14.5t16.5 -44.5q0 -20 -8.5 -31t-24.5 -19zM483 810h-37l94 138q15 23 30 32.5t44 9.5q24 0 40.5 -14.5 t16.5 -44.5q0 -20 -8.5 -31t-24.5 -19z" />
<glyph unicode="&#x151;" horiz-adv-x="579" d="M553 229q0 -57 -21.5 -102t-57.5 -76t-83.5 -47t-100.5 -16t-101 16t-84 47t-57 76t-21 102t21 102.5t57 76t84 47t101 16.5t100.5 -16.5t83.5 -47t57.5 -76t21.5 -102.5zM407 229q0 39 -7 74t-21 61t-36 41.5t-53 15.5t-53 -15.5t-36.5 -41.5t-21 -61t-6.5 -74 t6.5 -73.5t21 -60.5t36.5 -41.5t53 -15.5t53 15.5t36 41.5t21 60.5t7 73.5zM126 517h-37l94 138q15 23 30 32.5t44 9.5q24 0 40.5 -14.5t16.5 -44.5q0 -20 -8.5 -31t-24.5 -19zM343 517h-37l94 138q15 23 30 32.5t44 9.5q24 0 40.5 -14.5t16.5 -44.5q0 -20 -8.5 -31 t-24.5 -19z" />
<glyph unicode="&#x152;" horiz-adv-x="1181" d="M424 -12q-81 0 -151.5 28.5t-123.5 79t-83 120t-30 151.5q0 81 30 150t83 119.5t123.5 79t151.5 28.5q27 0 50.5 -3.5t45.5 -8.5h576l18 -173h-14l-79 118h-254l-14 -14v-230l14 -14h219l45 62h15v-180h-15l-45 63h-219l-14 -15v-279l14 -15h267l103 132h14l-27 -187 h-604q-23 -5 -46 -8.5t-50 -3.5zM596 367q0 73 -6.5 131.5t-25.5 100.5t-53 65t-87 23t-94 -25t-69 -68.5t-42 -102t-14 -124.5q0 -67 14 -126t42 -102.5t69 -68.5t94 -25q50 0 83.5 21t53.5 62t27.5 101t7.5 138z" />
<glyph unicode="&#x153;" horiz-adv-x="930" d="M904 138q-36 -77 -92 -113.5t-147 -36.5q-57 0 -104.5 17t-82.5 49q-37 -33 -85 -49.5t-103 -16.5q-53 0 -101 16t-84 47t-57 76t-21 102t21 102.5t57 76t84 47t101 16.5q55 0 104 -18t85 -51q36 33 82 51t99 18q115 0 177.5 -62t62.5 -167v-32h-347q0 -22 5.5 -49 t21 -50.5t41.5 -40t67 -16.5q58 0 104.5 25.5t78.5 85.5zM407 229q0 39 -7 74t-21 61t-36 41.5t-53 15.5t-53 -15.5t-36.5 -41.5t-21 -61t-6.5 -74t6.5 -73.5t21 -60.5t36.5 -41.5t53 -15.5t53 15.5t36 41.5t21 60.5t7 73.5zM660 404q-26 0 -45 -9.5t-32.5 -27t-20.5 -41 t-8 -50.5h212v10q0 23 -5.5 44t-18.5 37.5t-33 26.5t-49 10z" />
<glyph unicode="&#x154;" horiz-adv-x="737" d="M104 631l-75 87v14h380q60 0 110.5 -11.5t87.5 -37t57.5 -63.5t20.5 -92q0 -48 -16.5 -83.5t-45 -61.5t-66.5 -41t-81 -21l75 -11l182 -354l-133 44l-114 101l-142 214h-69l-14 -14v-200l76 -87v-14h-308v14l75 87v530zM261 385l14 -14h110q29 0 55 9.5t45.5 29t31 48 t11.5 65.5t-11.5 65.5t-31 48t-45.5 30t-55 10.5h-110l-14 -14v-278zM300 810h-37l95 138q15 23 30 32.5t43 9.5q24 0 41 -14.5t17 -44.5q0 -20 -9 -31t-24 -19z" />
<glyph unicode="&#x155;" horiz-adv-x="488" d="M333 422q-22 0 -42.5 -16.5t-36 -44t-25.5 -65t-10 -78.5v-151l63 -53v-14h-269v14l63 53v305l-63 52v14l206 42v-108q25 46 65 72t89 26q31 0 58.5 -12.5t41.5 -42.5q12 -25 12 -44q0 -27 -15.5 -42.5t-40.5 -15.5q-24 0 -39 14.5t-18 45.5q-2 24 -11.5 36.5t-27.5 12.5 zM276 517h-37l95 138q15 23 30 32.5t43 9.5q24 0 41 -14.5t17 -44.5q0 -20 -9 -31t-24 -19z" />
<glyph unicode="&#x156;" horiz-adv-x="737" d="M104 631l-75 87v14h380q60 0 110.5 -11.5t87.5 -37t57.5 -63.5t20.5 -92q0 -48 -16.5 -83.5t-45 -61.5t-66.5 -41t-81 -21l75 -11l182 -354l-133 44l-114 101l-142 214h-69l-14 -14v-200l76 -87v-14h-308v14l75 87v530zM261 385l14 -14h110q29 0 55 9.5t45.5 29t31 48 t11.5 65.5t-11.5 65.5t-31 48t-45.5 30t-55 10.5h-110l-14 -14v-278zM361 -130q0 36 23.5 58.5t56.5 22.5q38 0 61 -24t23 -67q0 -45 -8 -79t-24.5 -60.5t-41 -49t-56.5 -43.5l-15 20q19 18 32 32t19.5 25.5t9 22t2.5 22.5q0 19 -10.5 28t-22.5 14q-27 13 -38 29.5t-11 48.5 z" />
<glyph unicode="&#x157;" horiz-adv-x="488" d="M333 422q-22 0 -42.5 -16.5t-36 -44t-25.5 -65t-10 -78.5v-151l63 -53v-14h-269v14l63 53v305l-63 52v14l206 42v-108q25 46 65 72t89 26q31 0 58.5 -12.5t41.5 -42.5q12 -25 12 -44q0 -27 -15.5 -42.5t-40.5 -15.5q-24 0 -39 14.5t-18 45.5q-2 24 -11.5 36.5t-27.5 12.5 zM68 -130q0 36 23.5 58.5t56.5 22.5q38 0 61 -24t23 -67q0 -45 -8 -79t-24.5 -60.5t-41 -49t-56.5 -43.5l-15 20q19 18 32 32t19.5 25.5t9 22t2.5 22.5q0 19 -10.5 28t-22.5 14q-27 13 -38 29.5t-11 48.5z" />
<glyph unicode="&#x158;" horiz-adv-x="737" d="M104 631l-75 87v14h380q60 0 110.5 -11.5t87.5 -37t57.5 -63.5t20.5 -92q0 -48 -16.5 -83.5t-45 -61.5t-66.5 -41t-81 -21l75 -11l182 -354l-133 44l-114 101l-142 214h-69l-14 -14v-200l76 -87v-14h-308v14l75 87v530zM261 385l14 -14h110q29 0 55 9.5t45.5 29t31 48 t11.5 65.5t-11.5 65.5t-31 48t-45.5 30t-55 10.5h-110l-14 -14v-278zM261 964l107 -58l106 58h37l-115 -165h-56l-115 165h36z" />
<glyph unicode="&#x159;" horiz-adv-x="488" d="M333 422q-22 0 -42.5 -16.5t-36 -44t-25.5 -65t-10 -78.5v-151l63 -53v-14h-269v14l63 53v305l-63 52v14l206 42v-108q25 46 65 72t89 26q31 0 58.5 -12.5t41.5 -42.5q12 -25 12 -44q0 -27 -15.5 -42.5t-40.5 -15.5q-24 0 -39 14.5t-18 45.5q-2 24 -11.5 36.5t-27.5 12.5 zM193 691l107 -58l106 58h37l-115 -165h-56l-115 165h36z" />
<glyph unicode="&#x15a;" horiz-adv-x="625" d="M585 217q0 -51 -18.5 -93t-53.5 -72t-86.5 -47t-117.5 -17q-83 0 -156 24t-119 74v217h35q10 -49 27.5 -95.5t44.5 -83t66.5 -59t93.5 -22.5q57 0 91 35.5t34 97.5q0 43 -28 69t-70 44.5t-92 35.5t-92 43t-70 66.5t-28 107.5q0 56 25.5 94.5t64.5 62.5t86.5 34.5 t90.5 10.5q58 0 111.5 -11t94.5 -36v-180h-23q-4 34 -19.5 65t-39.5 54.5t-54.5 38t-65.5 14.5q-56 0 -86 -33t-30 -83q0 -41 28.5 -65.5t71 -43t92 -35t92 -43t71.5 -66.5t29 -103zM237 810h-37l95 138q15 23 30 32.5t43 9.5q24 0 41 -14.5t17 -44.5q0 -20 -9 -31t-24 -19z " />
<glyph unicode="&#x15b;" horiz-adv-x="454" d="M219 -12q-39 0 -70 7t-55 19t-41 25.5t-26 26.5v124h20q23 -71 67 -111.5t105 -40.5q39 0 55.5 20.5t16.5 53.5q0 24 -19 37.5t-47 23.5t-61.5 20.5t-61.5 27t-47 43t-19 70.5q0 34 16.5 59.5t43.5 43t61 26t71 8.5q43 0 82 -9.5t71 -30.5v-138h-16q-16 59 -48.5 93.5 t-73.5 34.5q-32 0 -53.5 -18t-21.5 -54q0 -26 19.5 -40t48 -24t62.5 -18t62.5 -23t48 -39t19.5 -64q0 -41 -18.5 -70t-48 -47.5t-67 -27t-75.5 -8.5zM152 517h-37l95 138q15 23 30 32.5t43 9.5q24 0 41 -14.5t17 -44.5q0 -20 -9 -31t-24 -19z" />
<glyph unicode="&#x15c;" horiz-adv-x="625" d="M585 217q0 -51 -18.5 -93t-53.5 -72t-86.5 -47t-117.5 -17q-83 0 -156 24t-119 74v217h35q10 -49 27.5 -95.5t44.5 -83t66.5 -59t93.5 -22.5q57 0 91 35.5t34 97.5q0 43 -28 69t-70 44.5t-92 35.5t-92 43t-70 66.5t-28 107.5q0 56 25.5 94.5t64.5 62.5t86.5 34.5 t90.5 10.5q58 0 111.5 -11t94.5 -36v-180h-23q-4 34 -19.5 65t-39.5 54.5t-54.5 38t-65.5 14.5q-56 0 -86 -33t-30 -83q0 -41 28.5 -65.5t71 -43t92 -35t92 -43t71.5 -66.5t29 -103zM170 799l115 165h56l115 -165h-37l-106 59l-107 -59h-36z" />
<glyph unicode="&#x15d;" horiz-adv-x="454" d="M219 -12q-39 0 -70 7t-55 19t-41 25.5t-26 26.5v124h20q23 -71 67 -111.5t105 -40.5q39 0 55.5 20.5t16.5 53.5q0 24 -19 37.5t-47 23.5t-61.5 20.5t-61.5 27t-47 43t-19 70.5q0 34 16.5 59.5t43.5 43t61 26t71 8.5q43 0 82 -9.5t71 -30.5v-138h-16q-16 59 -48.5 93.5 t-73.5 34.5q-32 0 -53.5 -18t-21.5 -54q0 -26 19.5 -40t48 -24t62.5 -18t62.5 -23t48 -39t19.5 -64q0 -41 -18.5 -70t-48 -47.5t-67 -27t-75.5 -8.5zM85 526l115 165h56l115 -165h-37l-106 59l-107 -59h-36z" />
<glyph unicode="&#x15e;" horiz-adv-x="625" d="M238 -7q-61 8 -114.5 31t-89.5 62v217h35q10 -49 27.5 -95.5t44.5 -83t66.5 -59t93.5 -22.5q57 0 91 35.5t34 97.5q0 43 -28 69t-70 44.5t-92 35.5t-92 43t-70 66.5t-28 107.5q0 56 25.5 94.5t64.5 62.5t86.5 34.5t90.5 10.5q58 0 111.5 -11t94.5 -36v-180h-23 q-4 34 -19.5 65t-39.5 54.5t-54.5 38t-65.5 14.5q-56 0 -86 -33t-30 -83q0 -41 28.5 -65.5t71 -43t92 -35t92 -43t71.5 -66t29 -103.5q0 -51 -18.5 -93t-53.5 -72t-86.5 -47t-117.5 -17h-12t-11 1l-19 -43q14 10 30.5 14t31.5 4q37 0 58 -18t21 -50q0 -24 -10 -40.5 t-26.5 -27t-37 -16t-41.5 -5.5q-20 0 -45 6.5t-42 20.5l13 25q19 -7 32.5 -9.5t26.5 -2.5q28 0 38.5 10t10.5 28q0 15 -10.5 23t-22.5 8q-17 0 -34 -7.5t-29 -20.5h-20z" />
<glyph unicode="&#x15f;" horiz-adv-x="454" d="M211 -12l-18 -42q14 10 30.5 14t30.5 4q37 0 58 -18t21 -50q0 -24 -10 -40.5t-26 -27t-36.5 -16t-42.5 -5.5q-20 0 -45 6.5t-42 20.5l13 25q19 -7 32.5 -9.5t26.5 -2.5q28 0 38.5 10t10.5 28q0 15 -10.5 23t-22.5 8q-17 0 -34 -7.5t-28 -20.5h-21l27 105q-53 8 -87 30 t-49 43v124h20q23 -71 67 -111.5t105 -40.5q39 0 55.5 20.5t16.5 53.5q0 24 -19 37.5t-47 23.5t-61.5 20.5t-61.5 27t-47 43t-19 70.5q0 34 16.5 59.5t43.5 43t61 26t71 8.5q43 0 82 -9.5t71 -30.5v-138h-16q-16 59 -48.5 93.5t-73.5 34.5q-32 0 -53.5 -18t-21.5 -54 q0 -26 19.5 -40t48 -24t62.5 -18t62.5 -23t48 -39t19.5 -64q0 -41 -18.5 -70t-48 -47.5t-67 -27t-75.5 -8.5h-8z" />
<glyph unicode="&#x160;" horiz-adv-x="625" d="M585 217q0 -51 -18.5 -93t-53.5 -72t-86.5 -47t-117.5 -17q-83 0 -156 24t-119 74v217h35q10 -49 27.5 -95.5t44.5 -83t66.5 -59t93.5 -22.5q57 0 91 35.5t34 97.5q0 43 -28 69t-70 44.5t-92 35.5t-92 43t-70 66.5t-28 107.5q0 56 25.5 94.5t64.5 62.5t86.5 34.5 t90.5 10.5q58 0 111.5 -11t94.5 -36v-180h-23q-4 34 -19.5 65t-39.5 54.5t-54.5 38t-65.5 14.5q-56 0 -86 -33t-30 -83q0 -41 28.5 -65.5t71 -43t92 -35t92 -43t71.5 -66.5t29 -103zM206 964l107 -58l106 58h37l-115 -165h-56l-115 165h36z" />
<glyph unicode="&#x161;" horiz-adv-x="454" d="M219 -12q-39 0 -70 7t-55 19t-41 25.5t-26 26.5v124h20q23 -71 67 -111.5t105 -40.5q39 0 55.5 20.5t16.5 53.5q0 24 -19 37.5t-47 23.5t-61.5 20.5t-61.5 27t-47 43t-19 70.5q0 34 16.5 59.5t43.5 43t61 26t71 8.5q43 0 82 -9.5t71 -30.5v-138h-16q-16 59 -48.5 93.5 t-73.5 34.5q-32 0 -53.5 -18t-21.5 -54q0 -26 19.5 -40t48 -24t62.5 -18t62.5 -23t48 -39t19.5 -64q0 -41 -18.5 -70t-48 -47.5t-67 -27t-75.5 -8.5zM121 691l107 -58l106 58h37l-115 -165h-56l-115 165h36z" />
<glyph unicode="&#x162;" horiz-adv-x="730" d="M312 0h-101v14l76 87v562l-15 14h-144l-97 -132h-15l28 187h642l28 -187h-15l-97 132h-144l-15 -14v-562l76 -87v-14h-155l-24 -54q14 10 30.5 14t30.5 4q37 0 58 -18t21 -50q0 -24 -9.5 -40.5t-26 -27t-37 -16t-41.5 -5.5q-20 0 -45 6.5t-42 20.5l13 25q19 -7 32.5 -9.5 t25.5 -2.5q28 0 38.5 10t10.5 28q0 15 -10 23t-22 8q-17 0 -34.5 -7.5t-28.5 -20.5h-20z" />
<glyph unicode="&#x163;" horiz-adv-x="422" d="M184 2q-48 20 -69.5 61.5t-21.5 99.5v231l-14 15h-63v21q53 13 89.5 45.5t60.5 67.5q27 40 44 87h27v-157l14 -14h95v-50h-95l-14 -15v-261q0 -44 15 -69t56 -25q28 0 47.5 17t42.5 53l22 -16q-14 -26 -28 -45.5t-31.5 -33t-39.5 -20t-53 -6.5q-22 0 -38 3l-19 -45 q14 10 30.5 14t30.5 4q37 0 58 -18t21 -50q0 -24 -9.5 -40.5t-26 -27t-37 -16t-41.5 -5.5q-20 0 -45 6.5t-42 20.5l13 25q19 -7 32.5 -9.5t25.5 -2.5q28 0 38.5 10t10.5 28q0 15 -10 23t-22 8q-17 0 -34.5 -7.5t-28.5 -20.5h-20z" />
<glyph unicode="&#x164;" horiz-adv-x="730" d="M272 677h-144l-97 -132h-15l28 187h642l28 -187h-15l-97 132h-144l-15 -14v-562l76 -87v-14h-308v14l76 87v562zM258 964l107 -58l106 58h37l-115 -165h-56l-115 165h36z" />
<glyph unicode="&#x165;" horiz-adv-x="486" d="M237 133q0 -44 15 -69t56 -25q28 0 47.5 17t42.5 53l22 -16q-14 -26 -28 -45.5t-31.5 -33t-39.5 -20t-53 -6.5q-46 0 -79 12.5t-54.5 35.5t-31.5 55.5t-10 71.5v231l-14 15h-63v21q53 13 89.5 45.5t60.5 67.5q27 40 44 87h27v-157l14 -14h95v-50h-95l-14 -15v-261z M312 701q0 36 23.5 58.5t56.5 22.5q38 0 61 -23.5t23 -66.5q0 -48 -20.5 -95.5t-71.5 -87.5h-35q8 6 15 16.5t12 22.5t8 23t3 19q0 14 -6 21.5t-20 15.5q-27 13 -38 30t-11 44z" />
<glyph unicode="&#x166;" horiz-adv-x="730" d="M272 677h-144l-97 -132h-15l28 187h642l28 -187h-15l-97 132h-144l-15 -14v-131l15 -14h136v-55h-136l-15 -14v-348l76 -87v-14h-308v14l76 87v348l-15 14h-136v55h136l15 14v131z" />
<glyph unicode="&#x167;" horiz-adv-x="422" d="M237 290l11 -11h98v-51h-98l-11 -11v-84q0 -44 15 -69t56 -25q28 0 47.5 17t42.5 53l22 -16q-14 -26 -28 -45.5t-31.5 -33t-39.5 -20t-53 -6.5q-46 0 -79 12.5t-54.5 35.5t-31.5 55.5t-10 71.5v54l-11 11h-66v51h66l11 11v104l-14 15h-63v21q53 13 89.5 45.5t60.5 67.5 q27 40 44 87h27v-157l14 -14h95v-50h-95l-14 -15v-104z" />
<glyph unicode="&#x168;" horiz-adv-x="802" d="M337 732v-14l-76 -87v-344q0 -45 6 -89t26 -78.5t57 -55.5t99 -21q66 0 105.5 17t61 48t28.5 77t7 105v341l-76 87v14h207v-14l-75 -87v-379q0 -55 -10.5 -103.5t-38.5 -84t-78.5 -56t-130.5 -20.5q-92 0 -158 19t-107.5 56t-60.5 93t-19 131v344l-75 87v14h308zM664 975 q-7 -42 -25 -74q-14 -29 -39.5 -52t-66.5 -23q-35 0 -56.5 10.5t-37.5 23t-32 23.5t-38 11q-25 0 -42 -9t-29 -20q-13 -12 -21 -29h-26q7 41 25 75q7 13 16.5 27t23 24t30 17t36.5 7q35 0 56.5 -11t37.5 -23t31 -23t39 -11q25 0 42 9t29 20q12 12 21 28h26z" />
<glyph unicode="&#x169;" horiz-adv-x="668" d="M75 372l-63 52v14l206 42v-352q0 -42 12.5 -59.5t45.5 -17.5q22 0 48 14t50 31q27 19 53 45v231l-62 52v14l205 42v-413l63 -53v-14h-206v88q-33 -29 -67 -50q-30 -19 -65.5 -34.5t-71.5 -15.5q-81 0 -114.5 34t-33.5 111v239zM532 689q-7 -42 -25 -74q-14 -29 -39.5 -52 t-66.5 -23q-35 0 -56.5 10.5t-37.5 23t-32 23.5t-38 11q-25 0 -42 -9t-29 -20q-13 -12 -21 -29h-26q7 41 25 75q7 13 16.5 27t23 24t30 17t36.5 7q35 0 56.5 -11t37.5 -23t31 -23t39 -11q25 0 42 9t29 20q12 12 21 28h26z" />
<glyph unicode="&#x16a;" horiz-adv-x="802" d="M337 732v-14l-76 -87v-344q0 -45 6 -89t26 -78.5t57 -55.5t99 -21q66 0 105.5 17t61 48t28.5 77t7 105v341l-76 87v14h207v-14l-75 -87v-379q0 -55 -10.5 -103.5t-38.5 -84t-78.5 -56t-130.5 -20.5q-92 0 -158 19t-107.5 56t-60.5 93t-19 131v344l-75 87v14h308zM304 915 h293v-77h-293v77z" />
<glyph unicode="&#x16b;" horiz-adv-x="668" d="M75 372l-63 52v14l206 42v-352q0 -42 12.5 -59.5t45.5 -17.5q22 0 48 14t50 31q27 19 53 45v231l-62 52v14l205 42v-413l63 -53v-14h-206v88q-33 -29 -67 -50q-30 -19 -65.5 -34.5t-71.5 -15.5q-81 0 -114.5 34t-33.5 111v239zM179 621h293v-77h-293v77z" />
<glyph unicode="&#x16c;" horiz-adv-x="802" d="M337 732v-14l-76 -87v-344q0 -45 6 -89t26 -78.5t57 -55.5t99 -21q66 0 105.5 17t61 48t28.5 77t7 105v341l-76 87v14h207v-14l-75 -87v-379q0 -55 -10.5 -103.5t-38.5 -84t-78.5 -56t-130.5 -20.5q-92 0 -158 19t-107.5 56t-60.5 93t-19 131v344l-75 87v14h308zM571 926 q-10 -46 -41 -75.5t-82 -29.5q-50 0 -81 29.5t-42 75.5l28 18q16 -31 42 -45.5t53 -14.5q28 0 53.5 14.5t42.5 45.5z" />
<glyph unicode="&#x16d;" horiz-adv-x="668" d="M75 372l-63 52v14l206 42v-352q0 -42 12.5 -59.5t45.5 -17.5q22 0 48 14t50 31q27 19 53 45v231l-62 52v14l205 42v-413l63 -53v-14h-206v88q-33 -29 -67 -50q-30 -19 -65.5 -34.5t-71.5 -15.5q-81 0 -114.5 34t-33.5 111v239zM445 653q-10 -46 -41 -75.5t-82 -29.5 q-50 0 -81 29.5t-42 75.5l28 18q16 -31 42 -45.5t53 -14.5q28 0 53.5 14.5t42.5 45.5z" />
<glyph unicode="&#x16e;" horiz-adv-x="802" d="M337 732v-14l-76 -87v-344q0 -45 6 -89t26 -78.5t57 -55.5t99 -21q66 0 105.5 17t61 48t28.5 77t7 105v341l-76 87v14h207v-14l-75 -87v-379q0 -55 -10.5 -103.5t-38.5 -84t-78.5 -56t-130.5 -20.5q-92 0 -158 19t-107.5 56t-60.5 93t-19 131v344l-75 87v14h308zM345 910 q0 43 29 69t75 26t75 -26t29 -69t-29 -69t-75 -26t-75 26t-29 69zM414 910q0 -14 9 -24.5t26 -10.5t26 10.5t9 24.5t-9 24.5t-26 10.5t-26 -10.5t-9 -24.5z" />
<glyph unicode="&#x16f;" horiz-adv-x="668" d="M75 372l-63 52v14l206 42v-352q0 -42 12.5 -59.5t45.5 -17.5q22 0 48 14t50 31q27 19 53 45v231l-62 52v14l205 42v-413l63 -53v-14h-206v88q-33 -29 -67 -50q-30 -19 -65.5 -34.5t-71.5 -15.5q-81 0 -114.5 34t-33.5 111v239zM222 637q0 43 29 69t75 26t75 -26t29 -69 t-29 -69t-75 -26t-75 26t-29 69zM291 637q0 -14 9 -24.5t26 -10.5t26 10.5t9 24.5t-9 24.5t-26 10.5t-26 -10.5t-9 -24.5z" />
<glyph unicode="&#x170;" horiz-adv-x="802" d="M337 732v-14l-76 -87v-344q0 -45 6 -89t26 -78.5t57 -55.5t99 -21q66 0 105.5 17t61 48t28.5 77t7 105v341l-76 87v14h207v-14l-75 -87v-379q0 -55 -10.5 -103.5t-38.5 -84t-78.5 -56t-130.5 -20.5q-92 0 -158 19t-107.5 56t-60.5 93t-19 131v344l-75 87v14h308zM278 810 h-37l94 138q15 23 30 32.5t44 9.5q24 0 40.5 -14.5t16.5 -44.5q0 -20 -8.5 -31t-24.5 -19zM495 810h-37l94 138q15 23 30 32.5t44 9.5q24 0 40.5 -14.5t16.5 -44.5q0 -20 -8.5 -31t-24.5 -19z" />
<glyph unicode="&#x171;" horiz-adv-x="668" d="M75 372l-63 52v14l206 42v-352q0 -42 12.5 -59.5t45.5 -17.5q22 0 48 14t50 31q27 19 53 45v231l-62 52v14l205 42v-413l63 -53v-14h-206v88q-33 -29 -67 -50q-30 -19 -65.5 -34.5t-71.5 -15.5q-81 0 -114.5 34t-33.5 111v239zM153 517h-37l94 138q15 23 30 32.5t44 9.5 q24 0 40.5 -14.5t16.5 -44.5q0 -20 -8.5 -31t-24.5 -19zM370 517h-37l94 138q15 23 30 32.5t44 9.5q24 0 40.5 -14.5t16.5 -44.5q0 -20 -8.5 -31t-24.5 -19z" />
<glyph unicode="&#x172;" horiz-adv-x="802" d="M389 -102q2 24 18.5 42.5t33.5 31.5q10 8 23 16h-15q-92 0 -158 19t-107.5 56t-60.5 93t-19 131v344l-75 87v14h308v-14l-76 -87v-344q0 -45 6 -89t26 -78.5t57 -55.5t99 -21q66 0 105.5 17t61 48t28.5 77t7 105v341l-76 87v14h207v-14l-75 -87v-379q0 -45 -7 -86 t-24.5 -74t-47.5 -57t-78 -36q-22 -12 -39 -27q-15 -13 -28 -31t-13 -39q0 -13 7 -23t23 -10q30 0 49.5 25.5t35.5 60.5l74 -49q-38 -49 -83.5 -67t-89.5 -18q-54 0 -77.5 21.5t-19.5 55.5z" />
<glyph unicode="&#x173;" horiz-adv-x="668" d="M328 -102q2 24 18 42.5t34 31.5q20 15 47 28v88q-33 -29 -67 -50q-30 -19 -65.5 -34.5t-71.5 -15.5q-81 0 -114.5 34t-33.5 111v239l-63 52v14l206 42v-352q0 -42 12.5 -59.5t45.5 -17.5q22 0 48 14t50 31q27 19 53 45v231l-62 52v14l205 42v-413l63 -53v-14h-141 q-24 -12 -42 -28q-15 -13 -28 -31t-13 -39q0 -13 7 -23t22 -10q30 0 50 25.5t35 60.5l75 -49q-38 -49 -83.5 -67t-89.5 -18q-54 0 -77.5 21.5t-19.5 55.5z" />
<glyph unicode="&#x174;" horiz-adv-x="1163" d="M1151 732v-10l-89 -91l-238 -631h-86l-148 407l-160 -407h-87l-239 631l-98 91v10h333v-10l-68 -91l157 -416l8 -61l11 45l116 296l-52 136l-98 91v10h321v-10l-67 -91l159 -417l9 -54l6 43l161 428l-76 91v10h225zM461 799l115 165h56l115 -165h-37l-106 59l-107 -59 h-36z" />
<glyph unicode="&#x175;" horiz-adv-x="803" d="M806 444l-64 -52l-136 -392h-82l-105 309l-111 -309h-86l-146 392l-66 52v15h252v-15l-40 -43l82 -226l3 -44l5 39l103 289h98l93 -284l3 -44l5 39l77 231l-39 43v15h154v-15zM327 526l115 165h56l115 -165h-37l-106 59l-107 -59h-36z" />
<glyph unicode="&#x176;" horiz-adv-x="722" d="M240 0v14l75 87v208l-198 322l-98 87v14h349v-14l-66 -87l105 -171l8 -63l10 46l117 188l-65 87v14h225v-14l-95 -87l-135 -220v-310l76 -87v-14h-308zM272 799l115 165h56l115 -165h-37l-106 59l-107 -59h-36z" />
<glyph unicode="&#x177;" horiz-adv-x="513" d="M502 444l-64 -52l-221 -585q-13 -34 -26 -52.5t-25.5 -28.5t-25 -12t-24.5 -2q-25 0 -40.5 16t-18 36t9.5 38.5t42 22.5q38 5 54.5 18t29.5 39l40 109l-171 401l-65 52v15h252v-15l-40 -43l86 -226l3 -29l5 35l85 220l-39 43v15h153v-15zM155 526l115 165h56l115 -165 h-37l-106 59l-107 -59h-36z" />
<glyph unicode="&#x178;" horiz-adv-x="722" d="M240 0v14l75 87v208l-198 322l-98 87v14h349v-14l-66 -87l105 -171l8 -63l10 46l117 188l-65 87v14h225v-14l-95 -87l-135 -220v-310l76 -87v-14h-308zM246 898q0 30 20.5 50.5t50.5 20.5t50 -20.5t20 -50.5t-20.5 -50.5t-49.5 -20.5q-30 0 -50.5 20.5t-20.5 50.5z M443 898q0 30 20.5 50.5t49.5 20.5q30 0 50.5 -20.5t20.5 -50.5t-20.5 -50.5t-50.5 -20.5t-50 20.5t-20 50.5z" />
<glyph unicode="&#x179;" horiz-adv-x="680" d="M643 732l-413 -677h310l109 134h15l-32 -189h-622l419 677h-249l-98 -116h-14l24 171h551zM278 810h-37l95 138q15 23 30 32.5t43 9.5q24 0 41 -14.5t17 -44.5q0 -20 -9 -31t-24 -19z" />
<glyph unicode="&#x17a;" horiz-adv-x="498" d="M457 136v-136h-437l273 409h-149l-71 -87h-16v137h414l-275 -409h183l63 86h15zM195 517h-37l95 138q15 23 30 32.5t43 9.5q24 0 41 -14.5t17 -44.5q0 -20 -9 -31t-24 -19z" />
<glyph unicode="&#x17b;" horiz-adv-x="680" d="M643 732l-413 -677h310l109 134h15l-32 -189h-622l419 677h-249l-98 -116h-14l24 171h551zM271 890q0 35 24.5 59t58.5 24t58.5 -24t24.5 -59t-24.5 -59t-58.5 -24t-58.5 24t-24.5 59z" />
<glyph unicode="&#x17c;" horiz-adv-x="498" d="M457 136v-136h-437l273 409h-149l-71 -87h-16v137h414l-275 -409h183l63 86h15zM180 626q0 35 24.5 59t58.5 24t58.5 -24t24.5 -59t-24.5 -59t-58.5 -24t-58.5 24t-24.5 59z" />
<glyph unicode="&#x17d;" horiz-adv-x="680" d="M643 732l-413 -677h310l109 134h15l-32 -189h-622l419 677h-249l-98 -116h-14l24 171h551zM247 964l107 -58l106 58h37l-115 -165h-56l-115 165h36z" />
<glyph unicode="&#x17e;" horiz-adv-x="519" d="M447 136v-136h-437l273 409h-149l-71 -87h-16v137h414l-275 -409h183l63 86h15zM152 691l107 -58l106 58h37l-115 -165h-56l-115 165h36z" />
<glyph unicode="&#x17f;" horiz-adv-x="400" d="M77 459l14 14v53q0 45 11 85t34.5 70t62.5 46.5t95 16.5q43 0 76 -10.5t63 -36.5q15 -13 22 -26.5t7 -25.5q0 -27 -19.5 -41t-40.5 -14q-14 0 -25 8t-17 27q-11 43 -27 55.5t-39 12.5q-34 0 -47 -30.5t-13 -85.5v-510l63 -53v-14h-268v14l62 53v326l-14 15h-57v51h57z " />
<glyph unicode="&#x18e;" horiz-adv-x="690" d="M661.002 14.0439v-13.999h-574.965l-18.999 172.989h14.999l78.9951 -117.993h253.984l13.999 13.999v229.986l-13.999 13.999h-219.986l-44.9971 -61.9961h-13.999v179.989h13.999l44.9971 -62.9961h219.986l13.999 14.999v278.982l-13.999 14.999h-267.983 l-101.994 -131.991h-13.999l25.999 186.988h603.963v-13.999l-74.9961 -86.9951v-529.968z" />
<glyph unicode="&#x18f;" horiz-adv-x="551" d="M26.0322 321.009q35.998 76.9951 91.9941 113.493q55.9971 36.4971 146.991 36.4971q55.9961 0 103.493 -16.999t81.4951 -47.9971t53.4971 -75.9951t19.499 -99.9941q0 -53.9961 -20.499 -98.9941q-20.499 -44.9971 -54.4971 -76.4951 q-33.9971 -31.498 -79.9941 -48.9971q-45.998 -17.499 -98.9941 -17.499q-114.993 0 -175.989 61.9971q-60.9971 61.9961 -60.9971 166.989v15.999h344.979q0 31.998 -6.5 64.9961q-6.49902 32.998 -21.998 60.4961q-15.499 27.499 -41.498 44.9971 q-25.998 17.499 -64.9961 17.499q-57.9961 0 -104.493 -33.498q-46.4971 -33.4971 -79.4951 -93.4941zM269.018 38.0254q25.998 0 45.4971 12.5q19.499 12.499 32.998 32.9971q13.499 20.499 20.499 46.498q6.99902 25.998 7.99902 52.9961h-211.987v-9.99902 q0 -22.999 5.5 -46.4971q5.5 -23.499 18.499 -42.998q12.999 -19.498 32.498 -32.4971q19.499 -13 48.4971 -13z" />
<glyph unicode="&#x192;" horiz-adv-x="583" d="M260 409h-76l12 50h73l21 116q14 78 58 123.5t117 45.5q43 0 69 -12t45 -32q18 -20 18 -42q0 -24 -15 -34t-35 -10q-18 0 -29.5 10.5t-14.5 26.5q-6 33 -17 44t-29 11q-27 0 -39 -24.5t-21 -75.5l-25 -147h96l-11 -50h-95l-57 -333q-14 -84 -59.5 -129t-115.5 -45 q-74 0 -117 37q-28 25 -27 47q0 19 14 31t35 12q13 0 24.5 -8t16.5 -25q7 -27 17 -42t38 -15q29 0 41.5 23t23.5 78z" />
<glyph unicode="&#x1fa;" horiz-adv-x="815" d="M290 791q0 43 29 69t75 26t75.5 -26t29.5 -69q0 -27 -11.5 -47.5t-31.5 -32.5l250 -610l98 -87v-14h-332v14l66 87l-55 133h-266l-54 -133l62 -87v-14h-214v14l90 87l247 602q-27 11 -42.5 33.5t-15.5 54.5zM460 290l-106 255l-4 36l-4 -27l-106 -264h220zM318 912h-36 l94 139q15 23 30 32.5t44 9.5q24 0 40.5 -14.5t16.5 -44.5q0 -20 -9 -31t-24 -19zM359 791q0 -14 9 -24.5t26 -10.5t26 10t9 25q0 14 -8.5 24t-26.5 10q-17 0 -26 -10t-9 -24z" />
<glyph unicode="&#x1fb;" horiz-adv-x="540" d="M471 53l57 -43v-10h-200v53q-17 -17 -32.5 -30t-33.5 -20.5t-40 -11t-53 -3.5q-27 0 -51 7t-43 21.5t-30 37t-11 52.5q0 69 71 113t223 62v36q0 46 -17 75t-63 29q-35 0 -56 -20t-34 -70q-5 -22 -19.5 -31.5t-32.5 -9.5q-22 0 -39.5 13t-17.5 40q0 10 3.5 21.5t13.5 23.5 q32 44 81.5 63.5t100.5 19.5q105 0 164 -42t59 -145v-231zM328 233q-46 -6 -77.5 -17.5t-50.5 -27.5t-26.5 -36t-7.5 -41q0 -30 14 -51.5t51 -21.5q46 0 71.5 42.5t25.5 107.5v45zM169 637q0 43 29 69t75 26t75 -26t29 -69t-29 -69t-75 -26t-75 26t-29 69zM238 637 q0 -14 9 -24.5t26 -10.5t26 10.5t9 24.5t-9 24.5t-26 10.5t-26 -10.5t-9 -24.5zM197 796h-37l95 138q15 23 30 32.5t43 9.5q24 0 41 -14.5t17 -44.5q0 -20 -9 -31t-24 -19z" />
<glyph unicode="&#x1fc;" horiz-adv-x="1088" d="M503 101v133h-232l-85 -133l42 -87l-3 -14h-214l3 14l111 87l354 555l-52 62v14h575l19 -173h-14l-79 118h-254l-15 -14v-230l15 -14h219l45 62h14v-180h-14l-45 63h-219l-15 -15v-279l15 -15h267l102 132h15l-27 -187h-604v14zM503 290v311l-197 -311h197zM666 810h-37 l95 138q15 23 30 32.5t43 9.5q24 0 41 -14.5t17 -44.5q0 -20 -9 -31t-24 -19z" />
<glyph unicode="&#x1fd;" horiz-adv-x="850" d="M825 138q-36 -77 -92 -113.5t-147 -36.5q-73 0 -130 27t-89 77q-18 -32 -41.5 -52.5t-48 -31.5t-48.5 -15.5t-46 -4.5q-32 0 -59 7t-47 21.5t-31.5 37t-11.5 52.5q0 69 71 113t223 62v36q0 46 -17 75t-63 29q-35 0 -56 -20t-34 -70q-5 -22 -19.5 -31.5t-32.5 -9.5 q-29 0 -43.5 14t-14.5 39q0 22 18 45q32 44 81.5 63.5t100.5 19.5q58 0 101.5 -12.5t72.5 -38.5q33 25 73.5 38t86.5 13q115 0 176 -62t61 -167v-16h-345q0 -32 6.5 -65t22 -60.5t41.5 -45t65 -17.5q58 0 104.5 33.5t79.5 93.5zM582 421q-26 0 -45.5 -12.5t-33 -33 t-20.5 -46.5t-8 -53h212v10q0 23 -5.5 46.5t-18.5 43t-32.5 32.5t-48.5 13zM328 233q-46 -6 -77.5 -17.5t-50.5 -27.5t-26.5 -36t-7.5 -41q0 -30 14 -51.5t51 -21.5q23 0 41 12t30 32.5t19 48t7 57.5v45zM369 537h-37l95 138q15 23 30 32.5t43 9.5q24 0 41 -14.5t17 -44.5 q0 -20 -9 -31t-24 -19z" />
<glyph unicode="&#x218;" horiz-adv-x="625" d="M585 217q0 -51 -18.5 -93t-53.5 -72t-86.5 -47t-117.5 -17q-83 0 -156 24t-119 74v217h35q10 -49 27.5 -95.5t44.5 -83t66.5 -59t93.5 -22.5q57 0 91 35.5t34 97.5q0 43 -28 69t-70 44.5t-92 35.5t-92 43t-70 66.5t-28 107.5q0 56 25.5 94.5t64.5 62.5t86.5 34.5 t90.5 10.5q58 0 111.5 -11t94.5 -36v-180h-23q-4 34 -19.5 65t-39.5 54.5t-54.5 38t-65.5 14.5q-56 0 -86 -33t-30 -83q0 -41 28.5 -65.5t71 -43t92 -35t92 -43t71.5 -66.5t29 -103zM225 -130q0 36 23.5 58.5t56.5 22.5q38 0 61 -24t23 -67q0 -45 -8 -79t-24.5 -60.5 t-41 -49t-56.5 -43.5l-15 20q19 18 32 32t19.5 25.5t9 22t2.5 22.5q0 19 -10.5 28t-22.5 14q-27 13 -38 29.5t-11 48.5z" />
<glyph unicode="&#x219;" horiz-adv-x="454" d="M219 -12q-39 0 -70 7t-55 19t-41 25.5t-26 26.5v124h20q23 -71 67 -111.5t105 -40.5q39 0 55.5 20.5t16.5 53.5q0 24 -19 37.5t-47 23.5t-61.5 20.5t-61.5 27t-47 43t-19 70.5q0 34 16.5 59.5t43.5 43t61 26t71 8.5q43 0 82 -9.5t71 -30.5v-138h-16q-16 59 -48.5 93.5 t-73.5 34.5q-32 0 -53.5 -18t-21.5 -54q0 -26 19.5 -40t48 -24t62.5 -18t62.5 -23t48 -39t19.5 -64q0 -41 -18.5 -70t-48 -47.5t-67 -27t-75.5 -8.5zM137 -130q0 36 23.5 58.5t56.5 22.5q38 0 61 -24t23 -67q0 -45 -8 -79t-24.5 -60.5t-41 -49t-56.5 -43.5l-15 20 q19 18 32 32t19.5 25.5t9 22t2.5 22.5q0 19 -10.5 28t-22.5 14q-27 13 -38 29.5t-11 48.5z" />
<glyph unicode="&#x21a;" horiz-adv-x="730" d="M279 -130q0 36 23.5 58.5t56.5 22.5q38 0 61 -24t23 -67q0 -45 -8 -79t-24.5 -60.5t-41 -49t-56.5 -43.5l-15 20q19 18 32 32t19.5 25.5t9 22t2.5 22.5q0 19 -10.5 28t-22.5 14q-27 13 -38 29.5t-11 48.5zM272 677h-144l-97 -132h-15l28 187h642l28 -187h-15l-97 132 h-144l-15 -14v-562l76 -87v-14h-308v14l76 87v562z" />
<glyph unicode="&#x2bc;" horiz-adv-x="348" d="M72 651q0 36 23.5 58.5t56.5 22.5q38 0 61 -23.5t23 -66.5q0 -48 -20.5 -95.5t-71.5 -87.5h-35q8 6 15 16.5t12 22.5t8 23t3 19q0 14 -6 21.5t-20 15.5q-27 13 -38 30t-11 44z" />
<glyph unicode="&#x2c6;" horiz-adv-x="337" d="M26 567l115 165h56l115 -165h-37l-106 59l-107 -59h-36z" />
<glyph unicode="&#x2c7;" horiz-adv-x="337" d="M62 732l107 -58l106 58h37l-115 -165h-56l-115 165h36z" />
<glyph unicode="&#x2d8;" horiz-adv-x="337" d="M266 713q-10 -46 -41 -75.5t-82 -29.5q-50 0 -81 29.5t-42 75.5l28 18q16 -31 42 -45.5t53 -14.5q28 0 53.5 14.5t42.5 45.5z" />
<glyph unicode="&#x2d9;" horiz-adv-x="337" d="M86 649q0 35 24.5 59t58.5 24t58.5 -24t24.5 -59t-24.5 -59t-58.5 -24t-58.5 24t-24.5 59z" />
<glyph unicode="&#x2da;" horiz-adv-x="337" d="M65 637q0 43 29 69t75 26t75 -26t29 -69t-29 -69t-75 -26t-75 26t-29 69zM134 637q0 -14 9 -24.5t26 -10.5t26 10.5t9 24.5t-9 24.5t-26 10.5t-26 -10.5t-9 -24.5z" />
<glyph unicode="&#x2db;" horiz-adv-x="337" d="M52 -102q2 24 18.5 42.5t33.5 31.5q20 15 48 28h64q-24 -12 -42 -28q-15 -13 -28 -31t-13 -39q0 -13 7 -23t23 -10q30 0 49.5 25.5t35.5 60.5l75 -49q-38 -49 -83.5 -67t-89.5 -18q-54 0 -78 21.5t-20 55.5z" />
<glyph unicode="&#x2dc;" horiz-adv-x="337" d="M376 702q-7 -42 -25 -74q-14 -29 -39.5 -52t-66.5 -23q-35 0 -56.5 10.5t-37.5 23t-32 23.5t-38 11q-25 0 -42 -9t-29 -20q-13 -12 -21 -29h-26q7 41 25 75q7 13 16.5 27t23 24t30 17t36.5 7q35 0 56.5 -11t37.5 -23t31 -23t39 -11q25 0 42 9t29 20q12 12 21 28h26z" />
<glyph unicode="&#x2dd;" horiz-adv-x="337" d="M-15 537h-37l94 138q15 23 30 32.5t44 9.5q24 0 40.5 -14.5t16.5 -44.5q0 -20 -8.5 -31t-24.5 -19zM202 537h-37l94 138q15 23 30 32.5t44 9.5q24 0 40.5 -14.5t16.5 -44.5q0 -20 -8.5 -31t-24.5 -19z" />
<glyph unicode="&#x3c0;" horiz-adv-x="542" d="M442 98q0 -35 13 -48.5t31 -13.5q19 0 34.5 15.5t29.5 38.5l25 -22q-20 -41 -51.5 -60.5t-82.5 -19.5q-67 0 -104.5 37t-37.5 109v259l-14 15h-72l-14 -15v-393h-144v393l-14 15h-73v51h574v-51h-85l-15 -15v-295z" />
<glyph unicode="&#x2000;" horiz-adv-x="546" />
<glyph unicode="&#x2001;" horiz-adv-x="1093" />
<glyph unicode="&#x2002;" horiz-adv-x="546" />
<glyph unicode="&#x2003;" horiz-adv-x="1093" />
<glyph unicode="&#x2004;" horiz-adv-x="364" />
<glyph unicode="&#x2005;" horiz-adv-x="273" />
<glyph unicode="&#x2006;" horiz-adv-x="182" />
<glyph unicode="&#x2007;" horiz-adv-x="182" />
<glyph unicode="&#x2008;" horiz-adv-x="136" />
<glyph unicode="&#x2009;" horiz-adv-x="218" />
<glyph unicode="&#x200a;" horiz-adv-x="60" />
<glyph unicode="&#x2010;" horiz-adv-x="467" d="M37 349h380v-55h-380v55z" />
<glyph unicode="&#x2011;" horiz-adv-x="467" d="M37 349h380v-55h-380v55z" />
<glyph unicode="&#x2012;" horiz-adv-x="467" d="M37 349h380v-55h-380v55z" />
<glyph unicode="&#x2013;" horiz-adv-x="621" d="M0 349h622v-55h-622v55z" />
<glyph unicode="&#x2014;" horiz-adv-x="942" d="M0 349h942v-55h-942v55z" />
<glyph unicode="&#x2018;" horiz-adv-x="347" d="M275 527q0 -36 -23.5 -58.5t-55.5 -22.5q-38 0 -61 24t-23 67q0 24 5.5 49.5t19.5 52t38 50.5t61 43l16 -20q-30 -19 -41 -34.5t-11 -32.5q0 -19 6 -27.5t20 -15.5q27 -13 38 -30.5t11 -44.5z" />
<glyph unicode="&#x2019;" horiz-adv-x="347" d="M72 651q0 36 23.5 58.5t56.5 22.5q38 0 61 -23.5t23 -66.5q0 -24 -6 -50t-19.5 -52t-38 -50t-60.5 -44l-17 21q30 19 41 34.5t11 32.5q0 19 -6 27t-20 16q-27 13 -38 30t-11 44z" />
<glyph unicode="&#x201a;" horiz-adv-x="347" d="M72 75q0 36 23.5 58.5t56.5 22.5q38 0 61 -23.5t23 -66.5q0 -24 -6 -50t-19.5 -52t-38 -50.5t-60.5 -43.5l-17 20q30 19 41 35t11 32q0 19 -6 27.5t-20 15.5q-27 13 -38 30.5t-11 44.5z" />
<glyph unicode="&#x201b;" horiz-adv-x="422" d="M237 133q0 -44 15 -69t56 -25q28 0 47.5 17t42.5 53l22 -16q-14 -26 -28 -45.5t-31.5 -33t-39.5 -20t-53 -6.5q-46 0 -79 12.5t-54.5 35.5t-31.5 55.5t-10 71.5v231l-14 15h-63v21q53 13 89.5 45.5t60.5 67.5q27 40 44 87h27v-157l14 -14h95v-50h-95l-14 -15v-261z M165 -130q0 36 23.5 58.5t56.5 22.5q38 0 61 -24t23 -67q0 -45 -8 -79t-24.5 -60.5t-41 -49t-56.5 -43.5l-15 20q19 18 32 32t19.5 25.5t9 22t2.5 22.5q0 19 -10.5 28t-22.5 14q-27 13 -38 29.5t-11 48.5z" />
<glyph unicode="&#x201c;" horiz-adv-x="562" d="M490 527q0 -36 -23.5 -58.5t-55.5 -22.5q-38 0 -61 24t-23 67q0 24 5.5 49.5t19.5 52t38 50.5t61 43l16 -20q-30 -19 -41 -34.5t-11 -32.5q0 -19 6 -27.5t20 -15.5q27 -13 38 -30.5t11 -44.5zM275 527q0 -36 -23.5 -58.5t-55.5 -22.5q-38 0 -61 24t-23 67q0 24 5.5 49.5 t19.5 52t38 50.5t61 43l16 -20q-30 -19 -41 -34.5t-11 -32.5q0 -19 6 -27.5t20 -15.5q27 -13 38 -30.5t11 -44.5z" />
<glyph unicode="&#x201d;" horiz-adv-x="562" d="M72 651q0 36 23.5 58.5t56.5 22.5q38 0 61 -23.5t23 -66.5q0 -24 -6 -50t-19.5 -52t-38 -50t-60.5 -44l-17 21q30 19 41 34.5t11 32.5q0 19 -6 27t-20 16q-27 13 -38 30t-11 44zM287 651q0 36 23.5 58.5t56.5 22.5q38 0 61 -23.5t23 -66.5q0 -24 -6 -50t-19.5 -52 t-37.5 -50t-61 -44l-17 21q30 19 41 34.5t11 32.5q0 19 -6 27t-20 16q-27 13 -38 30t-11 44z" />
<glyph unicode="&#x201e;" horiz-adv-x="562" d="M72 75q0 36 23.5 58.5t56.5 22.5q38 0 61 -23.5t23 -66.5q0 -24 -6 -50t-19.5 -52t-38 -50.5t-60.5 -43.5l-17 20q30 19 41 35t11 32q0 19 -6 27.5t-20 15.5q-27 13 -38 30.5t-11 44.5zM287 75q0 36 23.5 58.5t56.5 22.5q38 0 61 -23.5t23 -66.5q0 -24 -6 -50t-19.5 -52 t-37.5 -50.5t-61 -43.5l-17 20q30 19 41 35t11 32q0 19 -6 27.5t-20 15.5q-27 13 -38 30.5t-11 44.5z" />
<glyph unicode="&#x2020;" horiz-adv-x="577" d="M496 454q0 -34 -19 -51.5t-42 -17.5q-12 0 -24 6t-25 14t-28 14t-33 6q0 -46 8 -82t18 -62q11 -31 28 -55l-76 -409h-29l-75 409q15 24 26 55q10 27 19 62.5t9 81.5q-18 0 -33 -6t-28.5 -14t-25 -14t-24.5 -6q-23 0 -41.5 17.5t-18.5 51.5t19 51t41 17q12 0 24 -5 t25.5 -11.5t27.5 -12t32 -5.5q0 27 -6.5 52t-15.5 48.5t-15.5 47t-6.5 47.5q0 30 22.5 49t59.5 19t59.5 -19t22.5 -49q0 -24 -7 -47.5t-15.5 -47t-15 -48.5t-6.5 -52q17 0 31.5 5.5t27.5 12t25 11.5t24 5q23 0 42 -17t19 -51z" />
<glyph unicode="&#x2021;" horiz-adv-x="577" d="M496 -1q0 -34 -19 -51.5t-42 -17.5q-12 0 -24 5.5t-25 12t-27.5 11.5t-31.5 5q0 -27 6.5 -52t15 -48.5t15.5 -47t7 -46.5q0 -30 -22.5 -49t-59.5 -19t-59.5 19t-22.5 49q0 24 6.5 47t15.5 46.5t15.5 49t6.5 51.5q-17 0 -31.5 -5t-28 -11.5t-25 -12t-24.5 -5.5 q-23 0 -41.5 17.5t-18.5 51.5t19 51.5t41 17.5q12 0 24 -6.5t25.5 -14t28 -13.5t33.5 -6q0 45 -8.5 81t-19.5 63q-11 31 -26 54q15 24 26 55q10 27 19 62.5t9 81.5q-18 0 -33 -6t-28.5 -14t-25 -14t-24.5 -6q-23 0 -41.5 17.5t-18.5 51.5t19 51t41 17q12 0 24 -5t25.5 -11.5 t27.5 -12t32 -5.5q0 27 -6.5 52t-15.5 48.5t-15.5 47t-6.5 47.5q0 30 22.5 49t59.5 19t59.5 -19t22.5 -49q0 -24 -7 -47.5t-15.5 -47t-15 -48.5t-6.5 -52q17 0 31.5 5.5t27.5 12t25 11.5t24 5q23 0 42 -17.5t19 -50.5q0 -34 -19 -51.5t-42 -17.5q-12 0 -24 6t-25 14t-28 14 t-33 6q0 -46 8 -82t18 -62q11 -31 28 -55q-16 -24 -28 -54q-10 -27 -18 -63t-8 -81q18 0 33 6t28 13.5t25 14t24 6.5q23 0 42 -17.5t19 -51.5z" />
<glyph unicode="&#x2022;" horiz-adv-x="352" d="M41 307q0 28 10.5 52.5t29 43t43 29t52.5 10.5t52.5 -10.5t43 -29t29 -43t10.5 -52.5t-10.5 -52.5t-29 -42.5t-43 -29t-52.5 -11t-52.5 11t-43 29t-29 42.5t-10.5 52.5z" />
<glyph unicode="&#x2026;" horiz-adv-x="744" d="M50 69q0 16 6.5 31t17.5 26.5t26 18.5t31 7t31 -7t27 -18.5t18.5 -26.5t6.5 -31t-6.5 -31t-18.5 -26t-27 -17.5t-31 -6.5q-33 0 -57 24t-24 57zM287 69q0 16 6.5 31t17.5 26.5t25.5 18.5t31.5 7q16 0 31 -7t26.5 -18.5t18.5 -26.5t7 -31t-7 -31t-18.5 -26t-26.5 -17.5 t-31 -6.5q-33 0 -57 24t-24 57zM523 69q0 16 7 31t17.5 26.5t25.5 18.5t31 7t31 -7t27 -18.5t18.5 -26.5t6.5 -31t-6.5 -31t-18.5 -26t-26.5 -17.5t-31.5 -6.5q-33 0 -57 24t-24 57z" />
<glyph unicode="&#x202f;" horiz-adv-x="218" />
<glyph unicode="&#x2030;" horiz-adv-x="910" d="M294 596q0 -31 -11 -57t-30 -45t-45 -29t-55 -10q-30 0 -56 10t-45 29t-30 45t-11 57t11 57t30 45t45 29t56 10t55.5 -10t44.5 -29t30 -45t11 -57zM210 596q0 46 -14 78t-43 32q-30 0 -44 -32t-14 -78t14 -78t44 -32t43.5 32t13.5 78zM575 136q0 -31 -10.5 -57t-29.5 -45 t-45 -29t-56 -10t-56 10t-45 29t-29.5 45t-10.5 57t10.5 57t29.5 45t45 29.5t56 10.5t56 -10.5t45 -29.5t29.5 -45t10.5 -57zM492 136q0 46 -14 78t-44 32t-43.5 -32t-13.5 -78t13.5 -77.5t43.5 -31.5t44 31.5t14 77.5zM898 136q0 -31 -10.5 -57t-29.5 -45t-45.5 -29 t-55.5 -10q-30 0 -56 10t-45 29t-30 45t-11 57t11 57t30 45t45 29.5t56 10.5t56 -10.5t45 -29.5t29.5 -45t10.5 -57zM814 136q0 46 -14 78t-43 32q-30 0 -44 -32t-14 -78t14 -77.5t44 -31.5t43.5 31.5t13.5 77.5zM471 738l43 -24l-418 -720l-43 25z" />
<glyph unicode="&#x2039;" horiz-adv-x="361" d="M315 537v-115l-164 -162l164 -162v-114l-274 267v18z" />
<glyph unicode="&#x203a;" horiz-adv-x="361" d="M321 269v-18l-275 -267v114l165 162l-165 162v115z" />
<glyph unicode="&#x2044;" horiz-adv-x="440" d="M408 738l43 -24l-418 -720l-43 25z" />
<glyph unicode="&#x205f;" horiz-adv-x="273" />
<glyph unicode="&#x2070;" d="M189 819q33 0 64.5 -13.5t56 -40t40 -64t15.5 -86.5q0 -48 -15.5 -85t-40 -63.5t-56 -40t-64.5 -13.5t-64 13.5t-55.5 40t-40 63.5t-15.5 85t15.5 86t40 64.5t55.5 40t64 13.5zM189 447q34 0 53 43.5t19 124.5q0 83 -19 126t-53 43t-52.5 -43t-18.5 -126q0 -82 18.5 -125 t52.5 -43z" />
<glyph unicode="&#x2074;" d="M340 569v-35h-59v-55l55 -48v-13h-206v13l56 48v55h-147v14l203 278h39v-257h59zM186 687l-87 -118h87v118z" />
<glyph unicode="&#x2075;" d="M210 691q27 0 50 -7t39.5 -22t26 -38.5t9.5 -57.5q0 -44 -14 -73t-36 -47t-49 -25.5t-54 -7.5q-52 0 -87 18.5t-50 43.5q-9 15 -9 29q0 17 11.5 27t27.5 10q28 0 35 -30q8 -32 22 -47t46 -15q61 0 62 107q0 52 -18.5 74.5t-47.5 22.5q-26 0 -49 -20t-36 -44h-35l23 226 h238l-7 -72h-194l-12 -93q14 14 42.5 27.5t65.5 13.5z" />
<glyph unicode="&#x2076;" d="M212 657q25 0 46.5 -7t38 -21.5t26.5 -36t10 -49.5q0 -61 -40 -95.5t-102 -34.5q-24 0 -49 7t-46 23.5t-35 44t-14 69.5q0 36 10 66.5t25.5 56.5t35.5 47t42 36q49 37 112 60l12 -25q-33 -18 -60 -43q-24 -20 -45 -51t-29 -71q7 9 24.5 16.5t37.5 7.5zM191 447 q18 0 32.5 20t14.5 68t-14 67.5t-33 19.5q-17 0 -32.5 -19.5t-15.5 -67.5q0 -47 15 -67.5t33 -20.5z" />
<glyph unicode="&#x2077;" d="M332 815l-145 -397h-49q8 10 14 21q3 6 5 13l101 282h-133l-65 -74h-13l19 155h266z" />
<glyph unicode="&#x2078;" d="M332 535q0 -31 -12.5 -54t-32.5 -38.5t-45 -22.5t-52 -7q-29 0 -54.5 6.5t-45 20t-31.5 34.5t-12 50q0 33 18.5 57.5t52.5 42.5q-19 17 -31.5 39.5t-12.5 55.5q0 28 10.5 46.5t27.5 30.5t37.5 17.5t40.5 5.5q23 0 43.5 -5.5t36 -17.5t24.5 -29t9 -40q0 -29 -13.5 -48.5 t-34.5 -31.5q30 -17 53.5 -43t23.5 -69zM159 593q-11 -17 -15.5 -38t-4.5 -42q0 -31 14 -48.5t37 -17.5q20 0 35 13.5t15 45.5q0 28 -25 48t-56 39zM147 735q0 -23 20 -37t47 -28q19 22 19 62q0 52 -43 52q-18 0 -30.5 -12.5t-12.5 -36.5z" />
<glyph unicode="&#x2079;" d="M167 574q-25 0 -46.5 7.5t-38 21.5t-26.5 35.5t-10 50.5q0 61 40 95.5t101 34.5q24 0 49.5 -7t46.5 -23.5t35 -44.5t14 -69q0 -37 -10 -67.5t-25.5 -56.5t-35.5 -46.5t-42 -35.5q-49 -37 -113 -60l-11 25q33 17 60 42q24 20 45 51.5t29 71.5q-7 -9 -24.5 -17t-37.5 -8z M187 784q-18 0 -32 -20t-14 -67q0 -48 14 -67.5t32 -19.5q17 0 33 19.5t16 67.5q0 47 -15.5 67t-33.5 20z" />
<glyph unicode="&#x2080;" d="M189 290q33 0 64.5 -14t56 -40t40 -64t15.5 -86t-15.5 -85.5t-40 -63.5t-56 -40t-64.5 -14t-64 14t-55.5 40t-40 63.5t-15.5 85.5t15.5 86t40 64t55.5 40t64 14zM189 -82q34 0 53 43t19 125q0 83 -19 126t-53 43t-52.5 -43t-18.5 -126q0 -82 18.5 -125t52.5 -43z" />
<glyph unicode="&#x2081;" d="M95 -112v14l57 48v219q0 28 -11 44t-38 16q-12 0 -25 -3v17l168 54v-347l55 -48v-14h-206z" />
<glyph unicode="&#x2082;" d="M249 -43l66 60h14l-24 -129h-266v16q19 17 48.5 50t57 72.5t47 80.5t19.5 77q0 30 -11.5 47t-37.5 17q-33 0 -55.5 -26.5t-36.5 -58.5l-30 9q7 23 20 44t31.5 37t42 26.5t50.5 10.5q26 0 48.5 -7t40 -20.5t27.5 -35.5t10 -52q0 -31 -12.5 -59t-34 -54.5t-50.5 -52.5 t-61 -52h97z" />
<glyph unicode="&#x2083;" d="M239 103q16 -2 32 -9t29 -18t21.5 -28t8.5 -40q0 -32 -13.5 -55.5t-35.5 -38.5t-51.5 -23t-63.5 -8q-44 0 -77.5 15.5t-45.5 39.5q-7 13 -7 25q0 17 10.5 27.5t27.5 10.5q27 0 32 -30q10 -50 62 -50q28 0 46 22t18 65q0 37 -22 56.5t-54 21.5v25q29 0 50 21.5t21 65.5 q0 25 -13 39t-37 14q-27 0 -46 -17.5t-35 -49.5l-27 17q13 34 43.5 61.5t83.5 27.5q20 0 39.5 -7t34.5 -19t23.5 -30t8.5 -40q0 -30 -16.5 -56.5t-46.5 -34.5z" />
<glyph unicode="&#x2084;" d="M340 36v-36h-59v-50l55 -48v-14h-206v14l56 48v50h-147v14l203 283h39v-261h59zM186 158l-87 -122h87v122z" />
<glyph unicode="&#x2085;" d="M210 162q27 0 50 -7.5t39.5 -22t26 -38t9.5 -57.5q0 -44 -14 -73.5t-36 -47t-49 -25.5t-54 -8q-52 0 -87 18.5t-50 44.5q-9 15 -9 28q0 17 11.5 27t27.5 10q28 0 35 -29q8 -32 22 -47.5t46 -15.5q61 0 62 108q0 52 -18.5 74.5t-47.5 22.5q-26 0 -49 -20t-36 -45h-35 l23 227h238l-7 -72h-194l-12 -93q14 14 42.5 27.5t65.5 13.5z" />
<glyph unicode="&#x2086;" d="M212 128q25 0 46.5 -7t38 -21.5t26.5 -36t10 -50.5q0 -61 -40 -95.5t-102 -34.5q-24 0 -49 7.5t-46 23.5t-35 44t-14 70q0 36 10 66.5t25.5 56t35.5 46.5t42 36q49 37 112 61l12 -26q-33 -18 -60 -43q-24 -20 -45 -51t-29 -71q7 9 24.5 17t37.5 8zM191 -82q18 0 32.5 20 t14.5 67q0 48 -14 67.5t-33 19.5q-17 0 -32.5 -19.5t-15.5 -67.5q0 -47 15 -67t33 -20z" />
<glyph unicode="&#x2087;" d="M332 286l-145 -398h-49q8 10 14 22q3 6 5 12l101 283h-133l-65 -74h-13l19 155h266z" />
<glyph unicode="&#x2088;" d="M332 5q0 -31 -12.5 -54t-32.5 -38t-45 -22.5t-52 -7.5q-29 0 -54.5 7t-45 20t-31.5 34t-12 51q0 33 18.5 57.5t52.5 41.5q-19 17 -31.5 40t-12.5 55q0 28 10.5 47t27.5 31t37.5 17.5t40.5 5.5q23 0 43.5 -5.5t36 -17.5t24.5 -29.5t9 -39.5q0 -29 -13.5 -48.5t-34.5 -31.5 q30 -17 53.5 -43.5t23.5 -69.5zM159 63q-11 -17 -15.5 -38t-4.5 -41q0 -31 14 -48.5t37 -17.5q20 0 35 13.5t15 44.5q0 29 -25 49t-56 38zM147 206q0 -23 20 -37t47 -29q19 22 19 63q0 52 -43 52q-18 0 -30.5 -12.5t-12.5 -36.5z" />
<glyph unicode="&#x2089;" d="M167 45q-25 0 -46.5 7t-38 21.5t-26.5 36t-10 50.5q0 61 40 95.5t101 34.5q24 0 49.5 -7.5t46.5 -23.5t35 -44.5t14 -69.5q0 -37 -10 -67.5t-25.5 -56t-35.5 -46t-42 -35.5q-49 -37 -113 -61l-11 26q33 17 60 42q24 20 45 51.5t29 71.5q-7 -9 -24.5 -17t-37.5 -8z M187 255q-18 0 -32 -20t-14 -67q0 -48 14 -67.5t32 -19.5q17 0 33 19.5t16 67.5q0 47 -15.5 67t-33.5 20z" />
<glyph unicode="&#x20ac;" horiz-adv-x="583" d="M2 460h66q11 62 37.5 114.5t64.5 90t86.5 58.5t104.5 21q58 0 110 -17t85 -47v-158h-34q-27 93 -67 130t-94 37q-61 0 -99.5 -60.5t-49.5 -168.5h257l-17 -58h-244v-70h221l-17 -58h-200q11 -109 49 -170.5t100 -61.5q38 0 67 11.5t52.5 34t44.5 56t42 78.5l29 -16 q-18 -48 -38 -88.5t-47.5 -69.5t-63 -44.5t-86.5 -15.5q-56 0 -105 20.5t-87.5 58t-64.5 90.5t-37 117h-82l17 58h58q-1 8 -1 16.5v18.5v17.5t1 17.5h-75z" />
<glyph unicode="&#x2116;" horiz-adv-x="1221" d="M687 732v-14l-76 -87v-631l-437 504l-16 53v-456l75 -87v-14h-206v14l75 87v530l-75 87v14h154l356 -419l19 -55v373l-76 87v14h207zM1176 430q0 -52 -19.5 -93t-53 -69t-77 -43t-92.5 -15q-48 0 -92 15t-77 43t-52.5 69t-19.5 93q0 53 19.5 94t52.5 70t77 43.5t92 14.5 q49 0 92.5 -14.5t77 -43.5t53 -70t19.5 -94zM1041 430q0 36 -6 67.5t-19.5 56t-33.5 38.5t-48 14t-48 -14t-33 -38.5t-19.5 -56t-6.5 -67.5q0 -35 6.5 -66.5t19.5 -55t33 -38t48 -14.5t48 14.5t33.5 38t19.5 55t6 66.5zM719 134h431v-47h-431v47z" />
<glyph unicode="&#x2122;" horiz-adv-x="838" d="M141 693h-62l-42 -61h-6l12 100h297l12 -100h-6l-43 61h-62l-7 -6v-224l40 -38v-6h-166v6l39 38v224zM647 419v6l39 38v205l-7 -28l-81 -221h-78l-78 232l-5 26v-214l39 -38v-6h-117v6l39 38v225l-42 38v6h151l72 -214l3 -39l4 21l86 232h138v-6l-37 -38v-225l37 -38v-6 h-163z" />
<glyph unicode="&#x2126;" horiz-adv-x="765" d="M59 0l-28 178h13l122 -123h100q-33 25 -69.5 61.5t-67.5 80.5t-51.5 94t-20.5 103q0 71 24 127t67 94t103 58t132 20t131.5 -20t102.5 -58t67.5 -94t24.5 -127q0 -53 -20.5 -103t-51.5 -94t-68 -80.5t-69 -61.5h100l122 123h13l-28 -178h-279v55q31 14 57 54.5t45 90 t29.5 102t10.5 92.5q0 55 -11.5 100.5t-35 77t-58.5 49t-82 17.5t-82 -17.5t-58.5 -49t-35 -76.5t-11.5 -101q0 -40 10.5 -92.5t29.5 -102t45 -89.5t57 -55v-55h-279z" />
<glyph unicode="&#x2153;" horiz-adv-x="675" d="M575 214q16 -2 32.5 -9t29.5 -18.5t21.5 -28.5t8.5 -39q0 -32 -13.5 -55.5t-35.5 -39t-51.5 -23t-63.5 -7.5q-44 0 -77.5 15.5t-45.5 38.5q-7 13 -7 26q0 17 10.5 27.5t27.5 10.5q27 0 32 -30q10 -50 62 -50q28 0 46 22t18 65q0 37 -22 56.5t-54 21.5v24q29 0 50 21.5 t21 65.5q0 25 -13 39t-37 14q-27 0 -46 -17t-35 -49l-27 16q13 34 43.5 61.5t82.5 27.5q20 0 40 -6.5t35 -19t23.5 -30t8.5 -40.5q0 -30 -17 -56t-47 -34zM27 302v13l56 49v219q0 28 -11 44t-37 16q-12 0 -26 -3v16l168 55v-347l55 -49v-13h-205zM543 738l43 -24l-418 -720 l-43 25z" />
<glyph unicode="&#x2154;" horiz-adv-x="675" d="M566 738l43 -24l-418 -720l-43 25zM197 371l66 60h13l-23 -129h-266v15q19 17 48.5 50t57 72.5t47 81t19.5 77.5q0 30 -11.5 47t-37.5 17q-33 0 -55.5 -27t-37.5 -58l-29 9q7 23 19.5 43.5t31 37t42 26.5t51.5 10q26 0 48.5 -6.5t40 -20t27.5 -36t10 -51.5q0 -31 -13 -59 t-34.5 -54.5t-50 -53t-61.5 -51.5h98zM599 214q16 -2 32 -9t29.5 -18.5t21.5 -28.5t8 -39q0 -32 -13 -55.5t-35 -39t-52 -23t-64 -7.5q-44 0 -77 15.5t-46 38.5q-7 13 -7 26q0 17 11 27.5t27 10.5q27 0 33 -30q10 -50 61 -50q28 0 46.5 22t18.5 65q0 37 -22 56.5t-55 21.5 v24q29 0 50.5 21.5t21.5 65.5q0 25 -13.5 39t-36.5 14q-27 0 -46.5 -17t-34.5 -49l-28 16q13 34 44 61.5t83 27.5q20 0 39.5 -6.5t34.5 -19t24 -30t9 -40.5q0 -30 -17 -56t-47 -34z" />
<glyph unicode="&#x215b;" horiz-adv-x="675" d="M669 116q0 -31 -12.5 -54t-32.5 -38.5t-45 -22.5t-52 -7q-29 0 -55 6.5t-45 20t-31 34.5t-12 50q0 33 18.5 57.5t52.5 42.5q-19 17 -31.5 39.5t-12.5 55.5q0 28 10.5 47t27.5 30.5t37.5 17t40.5 5.5q23 0 43.5 -5.5t36 -17t24.5 -29t9 -40.5q0 -29 -13.5 -48t-34.5 -32 q30 -17 53.5 -43t23.5 -69zM496 174q-11 -17 -15.5 -38t-4.5 -42q0 -31 14 -48t37 -17q20 0 35 13t15 45q0 29 -25 48t-56 39zM484 316q0 -23 20 -37t47 -28q19 22 19 62q0 52 -43 53q-18 0 -30.5 -13t-12.5 -37zM536 738l43 -24l-418 -720l-43 25zM24 302v13l56 49v219 q0 28 -11 44t-37 16q-12 0 -26 -3v16l168 55v-347l55 -49v-13h-205z" />
<glyph unicode="&#x215c;" horiz-adv-x="675" d="M690 116q0 -31 -12 -54t-32 -38.5t-45.5 -22.5t-51.5 -7q-29 0 -55 6.5t-45.5 20t-31 34.5t-11.5 50q0 33 18 57.5t52 42.5q-19 17 -31.5 39.5t-12.5 55.5q0 28 11 47t27.5 30.5t37 17t41.5 5.5q23 0 43 -5.5t35.5 -17t25 -29t9.5 -40.5q0 -29 -13.5 -48t-35.5 -32 q30 -17 53.5 -43t23.5 -69zM517 174q-11 -17 -15 -38t-4 -42q0 -31 13.5 -48t37.5 -17q20 0 34.5 13t14.5 45q0 29 -25 48t-56 39zM506 316q0 -23 20 -37t46 -28q19 22 20 62q0 52 -43 53q-18 0 -30.5 -13t-12.5 -37zM557 738l43 -24l-418 -720l-43 25zM188 517 q16 -2 32.5 -9t29.5 -18.5t21.5 -28.5t8.5 -39q0 -32 -13.5 -55.5t-35.5 -39t-51.5 -23t-63.5 -7.5q-44 0 -77.5 15.5t-45.5 38.5q-7 13 -7 26q0 17 11 27.5t27 10.5q27 0 32 -30q10 -50 62 -50q28 0 46 22t18 65q0 37 -22 56.5t-55 21.5v24q29 0 50.5 21.5t21.5 65.5 q0 25 -13 39.5t-37 14.5q-27 0 -46.5 -17.5t-34.5 -49.5l-28 16q13 34 44 61.5t83 27.5q20 0 40 -6.5t34.5 -18.5t23.5 -30t9 -41q0 -30 -17 -56t-47 -34z" />
<glyph unicode="&#x215d;" horiz-adv-x="675" d="M685 116q0 -31 -12.5 -54t-32 -38.5t-45 -22.5t-51.5 -7q-29 0 -55 6.5t-45.5 20t-31.5 34.5t-12 50q0 33 18.5 57.5t52.5 42.5q-19 17 -31.5 39.5t-12.5 55.5q0 28 11 47t27.5 30.5t37 17t41.5 5.5q23 0 43 -5.5t35.5 -17t24.5 -29t9 -40.5q0 -29 -13 -48t-35 -32 q30 -17 53.5 -43t23.5 -69zM512 174q-11 -17 -15 -38t-4 -42q0 -31 13.5 -48t37.5 -17q20 0 34.5 13t14.5 45q0 29 -25 48t-56 39zM501 316q0 -23 20 -37t46 -28q19 22 20 62q0 52 -43 53q-18 0 -30.5 -13t-12.5 -37zM552 738l43 -24l-418 -720l-43 25zM165 575q27 0 50 -7 t39.5 -22t26 -38.5t9.5 -56.5q0 -44 -14 -73.5t-36 -47.5t-49 -25.5t-54 -7.5q-52 0 -87 18.5t-50 43.5q-9 15 -9 29q0 17 11 27t28 10q28 0 35 -30q8 -32 22 -47t46 -15q61 0 62 107q0 52 -18.5 75t-47.5 23q-26 0 -49 -20t-36 -45h-35l23 226h238l-7 -71h-194l-12 -93 q14 14 42.5 27t65.5 13z" />
<glyph unicode="&#x215e;" horiz-adv-x="675" d="M638 116q0 -31 -12.5 -54t-32.5 -38.5t-45 -22.5t-51 -7q-29 0 -55 6.5t-45.5 20t-31.5 34.5t-12 50q0 33 18.5 57.5t52.5 42.5q-19 17 -31.5 39.5t-12.5 55.5q0 28 10.5 47t27.5 30.5t37.5 17t41.5 5.5q23 0 43 -5.5t35.5 -17t24.5 -29t9 -40.5q0 -29 -13 -48t-35 -32 q30 -17 53.5 -43t23.5 -69zM465 174q-11 -17 -15.5 -38t-4.5 -42q0 -31 14 -48t38 -17q20 0 34.5 13t14.5 45q0 29 -25 48t-56 39zM454 316q0 -23 20 -37t46 -28q19 22 20 62q0 52 -43 53q-18 0 -30.5 -13t-12.5 -37zM505 738l43 -24l-418 -720l-43 25zM323 699l-145 -397 h-49q8 10 13 22q3 6 5 12l102 282h-133l-65 -73h-13l18 154h267z" />
<glyph unicode="&#x2202;" horiz-adv-x="615" d="M577 357q0 -73 -17.5 -139t-55.5 -117.5t-99 -82t-147 -30.5q-49 0 -90.5 14t-72 41.5t-47.5 66t-17 87.5q0 63 23 113.5t63 86.5t92.5 55t112.5 19q39 0 71 -15t42 -42q-3 38 -11 84.5t-23.5 87t-41 68t-64.5 27.5q-29 0 -50.5 -19t-37.5 -44q-15 -24 -32.5 -33.5 t-33.5 -9.5q-26 0 -41 15.5t-15 44.5q0 14 6.5 29t23.5 28q7 6 22 13.5t34 13.5t42.5 10t46.5 4q89 0 149.5 -32.5t97.5 -85.5t53.5 -120.5t16.5 -137.5zM419 282q0 28 -5 53t-16.5 44t-28.5 30.5t-41 11.5q-43 0 -72.5 -26t-47.5 -64t-25.5 -80t-7.5 -73q0 -68 21 -104 t70 -36q43 0 72.5 24t47 60.5t25.5 79t8 80.5z" />
<glyph unicode="&#x2206;" horiz-adv-x="642" d="M605 55v-55h-575v55l253 677h62zM90 55h375l-195 475z" />
<glyph unicode="&#x220f;" horiz-adv-x="734" d="M502 667l-15 14h-240l-15 -14v-722l63 -53v-14h-268v14l62 53v721l-62 52v14h681v-14l-63 -52v-721l63 -53v-14h-269v14l63 53v722z" />
<glyph unicode="&#x2211;" horiz-adv-x="656" d="M236 631l160 -236l-229 -349h332l121 155h13l-28 -290h-579v42l248 371l-216 309v53h517l19 -170h-13l-114 115h-231z" />
<glyph unicode="&#x2212;" horiz-adv-x="542" d="M81 349h380v-55h-380v55z" />
<glyph unicode="&#x221a;" horiz-adv-x="603" d="M186 459h20l87 -330l13 -94l10 94l198 633h73l-269 -892h-28l-145 481l-114 49v20z" />
<glyph unicode="&#x221e;" horiz-adv-x="690" d="M36 245q0 60 40.5 96t117.5 36q32 0 59.5 -13t47.5 -27q25 -18 44 -40q6 8 18.5 22t31.5 26.5t44.5 22t57.5 9.5q77 0 117 -36t40 -96t-40.5 -96t-116.5 -36q-32 0 -59.5 12t-48.5 28q-25 17 -44 40q-6 -8 -18.5 -22t-31.5 -27t-44.5 -22t-56.5 -9q-77 0 -117.5 36 t-40.5 96zM497 332q-28 0 -51 -14t-39 -30q-18 -18 -34 -43q3 -6 13 -20.5t26 -29.5t37.5 -26t47.5 -11q46 0 64.5 24.5t18.5 62.5t-18.5 62.5t-64.5 24.5zM317 245q-14 25 -32 43q-16 16 -39 30t-52 14q-46 0 -64.5 -24.5t-18.5 -62.5t18 -62.5t65 -24.5q30 0 52 13t39 30 q18 18 32 44z" />
<glyph unicode="&#x222b;" horiz-adv-x="583" d="M290 575q14 78 58 123.5t117 45.5q43 0 71 -13t47 -33q8 -9 11 -18.5t3 -17.5q0 -23 -16 -35.5t-38 -12.5q-34 0 -40 34q-6 33 -17 45.5t-29 12.5q-27 0 -39 -24.5t-21 -75.5l-92 -530q-14 -84 -59.5 -129t-115.5 -45q-74 0 -117 37q-15 13 -21.5 25t-6.5 24 q0 18 12.5 29.5t33.5 11.5q37 0 45 -33q7 -27 17 -42t38 -15q29 0 41.5 23t23.5 78z" />
<glyph unicode="&#x2248;" horiz-adv-x="542" d="M532 230q-7 -61 -26 -109q-9 -20 -21.5 -39.5t-30 -35t-40.5 -25t-52 -9.5q-39 0 -65 14t-48 30.5t-43.5 30t-49.5 13.5q-38 0 -61 -14.5t-37 -32.5q-15 -20 -23 -47h-31q6 60 27 109q9 20 21 39.5t29.5 35t40.5 25t53 9.5q39 0 65 -13.5t48 -30t43 -30.5t51 -14 q37 0 60.5 15t36.5 32q15 20 24 47h29zM538 455q-7 -61 -26 -109q-9 -20 -21.5 -39.5t-30 -35t-40.5 -25t-52 -9.5q-39 0 -65 14t-48 30.5t-43.5 30t-49.5 13.5q-38 0 -61 -14.5t-37 -32.5q-15 -20 -23 -47h-31q6 60 27 109q9 20 21 39.5t29.5 35t40.5 25t53 9.5 q39 0 65 -13.5t48 -30t43 -30.5t51 -14q37 0 60.5 15t36.5 32q15 20 24 47h29z" />
<glyph unicode="&#x2260;" horiz-adv-x="542" d="M36 460h277l81 141l48 -28l-64 -113h129v-56h-161l-77 -134h238v-55h-269l-80 -141l-48 27l64 114h-138v55h170l76 134h-246v56z" />
<glyph unicode="&#x2264;" horiz-adv-x="542" d="M501 695v-88l-334 -189l334 -190v-88l-460 264v27zM41 55h460v-55h-460v55z" />
<glyph unicode="&#x2265;" horiz-adv-x="542" d="M502 431v-27l-460 -264v88l334 190l-334 189v88zM502 0h-460v55h460v-55z" />
<glyph unicode="&#x25ca;" horiz-adv-x="530" d="M41 366l182 366h84l182 -366l-182 -366h-84zM128 366l137 -285l137 285l-137 286z" />
<glyph unicode="&#x25fc;" horiz-adv-x="460" d="M0 461h461v-461h-461v461z" />
<glyph unicode="&#xf639;" horiz-adv-x="684" d="M342 744q66 0 121.5 -28.5t95.5 -79t62.5 -120t22.5 -149.5q0 -81 -22.5 -150.5t-62.5 -120t-95.5 -79.5t-121.5 -29q-67 0 -122 29t-95 79.5t-62.5 120t-22.5 150.5t22.5 150t62.5 119.5t95 79t122 28.5zM342 42q35 0 63.5 22.5t48.5 64.5t31 102t11 136t-11 135.5 t-31 101t-48.5 63.5t-63.5 22t-63.5 -22t-48.5 -63.5t-30.5 -101.5t-10.5 -135q0 -76 10.5 -136t30.5 -102t48.5 -64.5t63.5 -22.5z" />
<glyph unicode="&#xf63a;" horiz-adv-x="646" d="M453 129l111 115h14l-42 -244h-493v31q24 22 59 53.5t74 71.5t77 86.5t69.5 96.5t50.5 103t19 105q0 59 -29 99t-86 40q-37 0 -66.5 -20t-52 -46.5t-36.5 -54.5t-20 -45l-45 16q6 25 23 60.5t47.5 68t75.5 56t109 23.5q47 0 89 -11t72.5 -35.5t48.5 -62.5t18 -90 q0 -44 -15.5 -89t-50 -95t-89.5 -106.5t-131 -125.5h199z" />
<glyph unicode="&#xf63b;" horiz-adv-x="649" d="M419 406q28 -6 56.5 -21t52.5 -39t39 -57t15 -75q0 -56 -20 -98.5t-55.5 -71t-87 -42.5t-112.5 -14q-96 0 -157.5 31.5t-89.5 77.5q-13 23 -13 44q0 31 20.5 49.5t51.5 18.5q22 0 38 -11.5t24 -36.5q6 -19 13.5 -40t21.5 -38t36 -28.5t55 -11.5q63 0 95 48.5t32 129.5 q0 41 -14 70.5t-37.5 48t-54 28t-64.5 11.5v31q79 19 112 57t33 104q0 49 -27 82.5t-79 33.5q-33 0 -59 -14t-46 -33t-34.5 -40t-22.5 -36l-44 17q11 29 31 58.5t49 52.5t68.5 37.5t90.5 14.5q47 0 86 -11t67 -32t43 -52t15 -70q0 -60 -31.5 -106.5t-96.5 -66.5z" />
<glyph unicode="&#xf63c;" horiz-adv-x="645" d="M566 283v-56h-102v-126l76 -87v-14h-301v14l76 87v126h-277v22l376 513h50v-479h102zM315 540l-186 -257h186v257z" />
<glyph unicode="&#xf63d;" horiz-adv-x="670" d="M344 500q42 0 86.5 -13t80.5 -41t59 -72.5t23 -109.5q0 -77 -26.5 -129.5t-68.5 -85.5t-92.5 -47t-97.5 -14q-99 0 -158 29t-83 77q-13 26 -13 47q0 32 20 49t49 17q57 0 68 -59q5 -29 12.5 -48.5t20.5 -32.5t33.5 -18.5t50.5 -5.5q42 0 68.5 19.5t42 49.5t21 65.5 t5.5 68.5q0 39 -7.5 74t-24.5 62.5t-43 43.5t-63 16q-27 0 -51 -11t-44.5 -29t-36.5 -41t-25 -48h-56l52 419h411l-16 -116h-347l-24 -183q26 28 69.5 47.5t104.5 19.5z" />
<glyph unicode="&#xf63e;" horiz-adv-x="621" d="M340 443q46 0 86.5 -14t71 -42t48.5 -67.5t18 -90.5q0 -60 -19.5 -105t-53 -75.5t-80 -45.5t-99.5 -15q-39 0 -83.5 10.5t-82.5 40t-63.5 82t-25.5 135.5q0 67 17.5 123t46 103.5t65 86t74.5 68.5q89 71 204 115l17 -50q-59 -30 -112 -72q-23 -18 -46.5 -42t-44 -52.5 t-38 -63t-27.5 -74.5q18 18 51.5 31.5t75.5 13.5zM312 43q48 0 76.5 45t28.5 127q0 80 -28.5 125.5t-76.5 45.5q-47 0 -76.5 -45t-29.5 -126q0 -87 29.5 -129.5t76.5 -42.5z" />
<glyph unicode="&#xf63f;" horiz-adv-x="582" d="M554 732l-264 -732h-89q8 9 16 20t13 21q6 11 10 22l200 542h-260l-104 -111h-14l30 238h462z" />
<glyph unicode="&#xf640;" horiz-adv-x="612" d="M559 211q0 -56 -22 -98t-57.5 -70t-81 -41.5t-92.5 -13.5q-48 0 -93.5 10t-81 33t-57 61t-21.5 92q0 65 38.5 118t103.5 82q-40 32 -68 72.5t-28 100.5q0 48 19 83.5t49 58.5t66.5 34t72.5 11q40 0 76.5 -12t63.5 -35t43.5 -56.5t16.5 -74.5q0 -49 -29.5 -89t-75.5 -59 q31 -17 59 -37.5t50.5 -45t35.5 -55t13 -69.5zM256 341q-33 -33 -43.5 -78t-10.5 -86q0 -27 6 -51.5t19.5 -42.5t33 -29t45.5 -11q29 0 49.5 11t33 28t18 40.5t5.5 49.5q0 27 -13.5 49.5t-35.5 43t-50 39.5t-57 37zM215 582q0 -22 10 -40t26 -33t38.5 -29t47.5 -27 q60 33 60 125q0 52 -24 81.5t-67 29.5q-24 0 -40.5 -9t-28 -24t-17 -34.5t-5.5 -39.5z" />
<glyph unicode="&#xf641;" horiz-adv-x="621" d="M282 289q-46 0 -86.5 14t-71.5 42t-49 68t-18 90q0 60 19.5 105t53.5 75.5t80 45.5t99 15q38 0 83 -10.5t83 -39.5t63.5 -82t25.5 -136q0 -67 -17.5 -123.5t-46 -103.5t-65.5 -85.5t-75 -68.5q-89 -71 -202 -114l-18 49q59 29 113 71q23 18 45.5 42t43.5 53t38 63.5 t29 74.5q-18 -18 -51.5 -31.5t-75.5 -13.5zM309 689q-48 0 -76 -45t-28 -127q0 -80 28 -125.5t76 -45.5q47 0 77 45t30 126q0 87 -30 129.5t-77 42.5z" />
<glyph unicode="&#xf643;" horiz-adv-x="583" d="M44 229q0 52 18 96.5t50 76.5t78 50.5t102 18.5q55 0 101 -18.5t78.5 -50.5t50.5 -76t18 -97q0 -52 -18 -96.5t-50.5 -76.5t-78.5 -50t-101 -18q-56 0 -102 18t-78 50t-50 76.5t-18 96.5zM154 229q0 -39 9 -72.5t26.5 -58t43.5 -39t59 -14.5t58.5 14.5t43.5 39t27 58 t9 72.5t-9 73t-27 58.5t-43.5 39t-58.5 14.5t-59 -14.5t-43.5 -39t-26.5 -58.5t-9 -73z" />
<glyph unicode="&#xf644;" horiz-adv-x="342" d="M40 0v13l80 61v259q0 41 -15 63.5t-60 42.5v20h252v-20q-45 -20 -60 -42.5t-15 -63.5v-259l80 -61v-13h-262z" />
<glyph unicode="&#xf645;" horiz-adv-x="456" d="M295 86l93 100h13l-34 -186h-326v18q29 25 67 64t72.5 84t58 92t23.5 87q0 30 -14.5 50.5t-43.5 20.5q-33 0 -62.5 -28t-46.5 -65l-29 11q6 23 18 47.5t32 44t49 32.5t66 13q67 0 104 -33.5t37 -88.5q0 -48 -18.5 -86.5t-47 -70.5t-64 -58t-70.5 -48h123z" />
<glyph unicode="&#xf646;" horiz-adv-x="474" d="M276 169q23 -3 49 -15t47.5 -33t36 -50t14.5 -66q0 -54 -16 -93.5t-44.5 -65t-68.5 -38t-88 -12.5q-49 0 -84.5 8t-64.5 27q-18 12 -25.5 26t-7.5 26q0 19 12.5 32.5t35.5 13.5q14 0 23.5 -6t18.5 -20q18 -31 37 -47t55 -16q50 0 75.5 43t25.5 115q0 62 -29 100t-90 49 v21q29 10 48 28t30.5 39.5t16 46.5t4.5 50q0 46 -20 65t-52 19q-37 0 -67 -28t-46 -66l-29 12q8 26 22.5 51t36 43.5t50 30.5t66.5 12q32 0 59.5 -8t47.5 -25t31.5 -42.5t11.5 -59.5q0 -35 -10 -62.5t-27 -48t-39 -35t-46 -21.5z" />
<glyph unicode="&#xf647;" horiz-adv-x="533" d="M481 53v-53h-101v-130l80 -60v-14h-262v14l80 60v130h-254v13l312 458h44v-418h101zM278 293l-164 -240h164v240z" />
<glyph unicode="&#xf648;" horiz-adv-x="508" d="M274 260q37 0 70 -12t56.5 -37.5t37.5 -62.5t14 -88q0 -62 -18.5 -109.5t-50.5 -79.5t-73 -48.5t-86 -16.5q-39 0 -79.5 8.5t-68.5 27.5q-23 14 -31.5 30t-8.5 31q0 20 13 33.5t34 13.5q32 0 52 -37q7 -12 14.5 -24t18 -20t26 -13.5t38.5 -5.5q26 0 46.5 15.5t35.5 42 t22.5 63t7.5 78.5q0 82 -21.5 119t-76.5 37q-19 0 -39 -9.5t-37.5 -24t-33.5 -34t-27 -40.5h-47l39 374h333l-8 -99h-266l-18 -169q16 23 52.5 40t79.5 17z" />
<glyph unicode="&#xf649;" horiz-adv-x="509" d="M282 391q37 0 69.5 -12t57.5 -36.5t39.5 -59.5t14.5 -81t-13.5 -85.5t-39.5 -68.5t-64.5 -44.5t-88.5 -15.5q-37 0 -74.5 11t-67.5 38.5t-49 73t-19 114.5q0 60 15 111.5t38.5 93.5t54 75.5t63.5 59.5q75 60 171 99l14 -32q-55 -28 -103 -69q-20 -17 -41 -40t-40 -51.5 t-34 -61.5t-24 -72q52 53 121 53zM257 42q44 0 71 38.5t27 109.5q0 70 -26.5 108t-71.5 38q-41 0 -71 -38t-30 -108q0 -74 27.5 -111t73.5 -37z" />
<glyph unicode="&#xf64a;" horiz-adv-x="505" d="M464 471l-253 -675h-75q7 8 13 18.5t11 19.5q5 10 9 21l193 517h-228l-97 -104h-13l39 203h401z" />
<glyph unicode="&#xf64b;" horiz-adv-x="500" d="M463 185q0 -49 -16.5 -86t-45 -61.5t-67 -37t-82.5 -12.5t-83 9t-68 29.5t-46 54.5t-17 82q0 55 28 101.5t92 70.5q-43 31 -64 74.5t-21 87.5q0 43 14.5 74t39.5 51.5t57 30.5t68 10q81 0 126 -42t45 -112q0 -46 -21.5 -85.5t-61.5 -56.5q57 -34 90 -75.5t33 -106.5z M212 302q-30 -23 -45 -53.5t-15 -81.5q0 -28 5.5 -51.5t17.5 -41t31 -27t46 -9.5t45.5 10t30.5 26t17.5 36.5t5.5 41.5q0 25 -11.5 45t-31 38t-44.5 34.5t-52 32.5zM169 521q0 -24 9.5 -41.5t26.5 -32.5t39 -28t47 -27q13 10 20.5 26t12.5 33t6.5 34.5t1.5 31.5 q0 46 -21.5 76t-58.5 30q-34 0 -58.5 -27t-24.5 -75z" />
<glyph unicode="&#xf64c;" horiz-adv-x="509" d="M228 68q-37 0 -69.5 12t-57.5 36t-39.5 59.5t-14.5 81.5t13.5 85.5t39.5 68t64.5 44.5t88.5 16q37 0 74.5 -11t67.5 -38.5t49 -73t19 -115.5q0 -60 -15 -111t-39 -93.5t-54.5 -76.5t-62.5 -60q-76 -61 -171 -97l-15 32q55 28 104 69q41 36 81 91t58 134q-52 -53 -121 -53 zM253 417q-44 0 -71 -38.5t-27 -110.5q0 -70 26.5 -107.5t71.5 -37.5q41 0 71 38t30 107q0 74 -27.5 111.5t-73.5 37.5z" />
<glyph unicode="&#xf6dc;" horiz-adv-x="435" d="M89 0v14l76 87v473q0 32 -9.5 47.5t-40.5 15.5q-12 0 -30 -2.5t-39 -7.5v33l267 102v-661l76 -87v-14h-300z" />
<glyph unicode="&#xfb05;" horiz-adv-x="746" d="M77 459l14 14v53q0 45 11 85t34.5 70t62.5 46.5t95 16.5q43 0 76 -10.5t63 -36.5q15 -13 22 -26.5t7 -25.5q0 -30 -19.5 -42.5t-40.5 -12.5q-14 0 -25 8t-17 27q-11 43 -27 55.5t-39 12.5q-34 0 -47 -30.5t-13 -85.5v-104l15 -14h91q43 0 74.5 16.5t55 41t38.5 54.5 t26 58h26v-157l14 -14h96v-50h-96l-14 -15v-261q0 -44 15.5 -69t56.5 -25q28 0 47 17t43 53l21 -16q-14 -26 -28 -45.5t-31 -33t-39 -20t-53 -6.5q-46 0 -79.5 12.5t-55 35.5t-31 55.5t-9.5 71.5v231l-15 15h-153l-15 -15v-326l63 -53v-14h-268v14l62 53v326l-14 15h-57v51 h57z" />
<glyph unicode="&#xfb06;" horiz-adv-x="863" d="M677 133q0 -44 15.5 -69t56.5 -25q28 0 47 17t43 53l21 -16q-14 -26 -28 -45.5t-31.5 -33t-39.5 -20t-52 -6.5q-46 0 -79.5 12.5t-55 35.5t-31 55.5t-9.5 71.5v231l-15 15h-62v21q82 18 115 54.5t33 79.5q0 61 -45.5 95.5t-132.5 34.5q-36 0 -66 -11t-54 -30t-41.5 -44.5 t-26.5 -54.5q10 -22 26.5 -39t36 -32t39.5 -28t40 -24v-138h-16q-16 59 -48.5 93.5t-73.5 34.5q-32 0 -53.5 -18t-21.5 -54q0 -26 19.5 -40t48 -24t62.5 -18t62.5 -23t48 -39t19.5 -64q0 -41 -18.5 -70t-48 -47.5t-67 -27t-75.5 -8.5q-39 0 -70 7t-55 19t-41 25.5t-26 26.5 v124h20q23 -71 67 -111.5t105 -40.5q39 0 55.5 20.5t16.5 53.5q0 24 -19 37.5t-47 23.5t-61.5 20.5t-61.5 27t-47 43t-19 70.5q0 34 16.5 59.5t43.5 43t61 26t71 8.5h6l-128 83q14 47 47 83t77 60t95 35.5t102 11.5q118 0 184 -46t66 -134v-91l14 -14h95v-50h-95l-14 -15 v-261z" />
<glyph horiz-adv-x="602" d="M360 63l-29 73h-165l-28 -73l40 -49v-14h-151v14l57 49l161 411h97l167 -411l62 -49v-14h-253v14zM310 186l-59 144l-4 29l-4 -23l-58 -150h125z" />
<glyph horiz-adv-x="546" d="M305 459q37 0 70 -6.5t57.5 -20.5t39 -36.5t14.5 -54.5q0 -43 -26 -66t-59 -27q15 -3 34 -10t34.5 -19.5t26 -31.5t10.5 -46q0 -69 -41 -105t-115 -36h-322v14l57 62v307l-57 61v15h277zM243 50h42q43 0 59.5 23.5t16.5 62.5q0 38 -16.5 61.5t-59.5 23.5h-42l-15 -14 v-142zM228 286l15 -15h33q33 0 52.5 15.5t19.5 53.5t-19.5 53.5t-52.5 15.5h-33l-15 -15v-108z" />
<glyph horiz-adv-x="525" d="M294 421q-55 0 -90.5 -52t-35.5 -140q0 -87 33 -139t103 -52q58 0 102 25t71 91l27 -22q-24 -71 -74.5 -107.5t-131.5 -36.5q-60 0 -111 16t-88 47.5t-57 76.5t-20 101q0 51 22.5 95.5t60 77t87.5 51t104 18.5q39 0 78.5 -8.5t70.5 -28.5v-128h-16q-9 26 -20 47t-26.5 36 t-37 23.5t-51.5 8.5z" />
<glyph horiz-adv-x="582" d="M22 0v13l57 63v307l-57 62v14h278q55 0 103 -15t82.5 -43.5t54 -71.5t19.5 -100q0 -56 -19.5 -99t-54 -71.5t-82.5 -43.5t-103 -15h-278zM222 65l15 -15h42q34 0 58.5 14t41.5 38t25.5 56.5t8.5 70.5t-8.5 71t-25.5 57t-42 38t-58 14h-42l-15 -15v-329z" />
<glyph horiz-adv-x="505" d="M24 444v15h415l13 -125h-15l-53 75h-145l-15 -15v-108l15 -15h127l32 47h15v-144h-15l-32 47h-127l-15 -14v-142l15 -15h156l65 88h14l-17 -138h-433v14l57 62v307z" />
<glyph horiz-adv-x="466" d="M361 217h-122l-15 -14v-127l60 -62v-14h-260v14l57 62v307l-57 61v15h419l13 -129h-15l-53 79h-149l-15 -15v-112l15 -15h122l29 43h13v-144h-13z" />
<glyph horiz-adv-x="581" d="M502 80q0 -10 2 -17t4 -12q3 -5 7 -9q-12 -14 -36 -24.5t-53.5 -17t-59 -9.5t-54.5 -3q-66 0 -119 17t-90.5 48t-58.5 75.5t-21 100.5q0 58 25 103.5t66 76t94 46.5t110 16q56 0 104 -13t80 -30v-129h-20q-23 58 -62.5 90t-103.5 32q-33 0 -59.5 -14.5t-46.5 -40 t-30.5 -61t-10.5 -76.5t9.5 -75.5t28.5 -60t47 -40.5t64 -15q19 0 29.5 6.5t10.5 24.5v74l-14 15h-47v50h262v-14l-57 -62v-52v0z" />
<glyph horiz-adv-x="666" d="M377 444v15h258v-15l-57 -61v-307l57 -62v-14h-258v14l57 62v137l-14 14h-179l-15 -14v-137l58 -62v-14h-258v14l57 62v307l-57 61v15h258v-15l-58 -61v-91l15 -14h179l14 14v91z" />
<glyph horiz-adv-x="307" d="M19 444v15h259v-15l-58 -61v-307l58 -62v-14h-259v14l58 62v307z" />
<glyph horiz-adv-x="292" d="M14 444v15h258v-15l-57 -61v-383q0 -47 -20 -79.5t-52.5 -54t-75.5 -34t-90 -20.5v35q23 10 40.5 22.5t29.5 28t18.5 36.5t6.5 50v399z" />
<glyph horiz-adv-x="507" d="M23 0v14l57 62v307l-57 61v15h258v-15l-58 -61v-99l120 116l-27 44v15h179v-15l-83 -49l-121 -117l79 18l128 -336l-90 40l-79 76l-78 162l-28 -26v-136l58 -62v-14h-258z" />
<glyph horiz-adv-x="487" d="M23 444v15h258v-15l-58 -61v-318l15 -15h151l65 98h12l-16 -148h-427v14l57 62v307z" />
<glyph horiz-adv-x="722" d="M442 0v14l58 62v282l-11 -40l-124 -318h-100l-130 341l-7 38v-303l48 -62v-14h-156v14l58 62v307l-58 61v15h226l110 -290l6 -44l7 25l120 309h211v-15l-57 -61v-307l57 -62v-14h-258z" />
<glyph horiz-adv-x="527" d="M502 459v-15l-58 -61v-383h-28l-276 289l-10 34v-247l57 -62v-14h-164v14l57 62v307l-57 61v15h152l207 -214l12 -35v173l-57 61v15h165z" />
<glyph horiz-adv-x="569" d="M395 229q0 39 -6 74t-19.5 61t-35 41.5t-50.5 15.5q-30 0 -51.5 -15.5t-35 -41.5t-19.5 -61t-6 -74t6 -73.5t19.5 -60.5t35 -41.5t51.5 -15.5t51 15.5t34.5 41.5t19.5 60.5t6 73.5zM542 229q0 -52 -21 -96t-56.5 -76t-82 -50.5t-98.5 -18.5t-99 18.5t-82 50.5t-56 76 t-21 96t21 96.5t56 76.5t81.5 50.5t99.5 18.5q52 0 98.5 -18.5t82 -50.5t56.5 -76.5t21 -96.5z" />
<glyph horiz-adv-x="495" d="M282 459q36 0 72 -7t65.5 -23t47 -44t17.5 -70t-17.5 -68t-47 -41.5t-66 -21t-71.5 -5.5h-49l-14 -14v-89l57 -62v-14h-258v14l58 62v307l-58 61v15h264zM219 244l14 -15h30q37 0 57.5 22t20.5 67q0 46 -20.5 68.5t-57.5 22.5h-30l-14 -15v-150z" />
<glyph horiz-adv-x="569" d="M542 229q0 -52 -21 -96t-56.5 -76t-82 -50.5t-98.5 -18.5h-13.5t-13.5 1l-8 -23q11 2 18 2.5t17 0.5q39 0 57.5 -8.5t30.5 -19t23 -19t32 -8.5q10 0 20.5 3t18.5 8q10 5 18 13q0 -41 -24.5 -62t-61.5 -21q-34 0 -52.5 8.5t-32.5 19.5t-27.5 19.5t-37.5 8.5 q-25 0 -45 -8.5t-34 -20.5l29 74q2 5 3 12.5t1 13.5q0 18 -17 23q-35 13 -64 35t-50.5 51.5t-33 64t-11.5 73.5q0 52 21 96.5t56 76.5t81.5 50.5t99.5 18.5q52 0 98.5 -18.5t82 -50.5t56.5 -76.5t21 -96.5zM395 229q0 39 -6 74t-19.5 61t-35 41.5t-50.5 15.5 q-30 0 -51.5 -15.5t-35 -41.5t-19.5 -61t-6 -74t6 -73.5t19.5 -60.5t35 -41.5t51.5 -15.5t51 15.5t34.5 41.5t19.5 60.5t6 73.5z" />
<glyph horiz-adv-x="533" d="M78 383l-58 61v15h302q37 0 68.5 -7.5t55.5 -23t37.5 -41.5t13.5 -61q0 -62 -34 -91.5t-91 -34.5l56 -10l96 -230l-110 40l-77 76l-75 122h-26l-15 -15v-107l48 -62v-14h-249v14l58 62v307zM221 262l15 -14h38q34 0 54 21.5t20 58.5q0 36 -20 58.5t-54 22.5h-38l-15 -15 v-132z" />
<glyph horiz-adv-x="429" d="M398 137q0 -35 -13.5 -62.5t-39.5 -47t-60.5 -29.5t-76.5 -10q-61 0 -107.5 17.5t-75.5 48.5v149h23q8 -34 21 -63.5t30.5 -52t40.5 -36t53 -13.5q70 0 69 73q0 23 -17 37t-42.5 24.5t-54.5 22t-54.5 29.5t-42.5 45t-17 70q0 31 15.5 55.5t41 41.5t57 26t64.5 9 q42 0 83 -10t65 -29v-122h-18q-19 52 -52 81.5t-65 29.5q-26 0 -43.5 -14.5t-17.5 -45.5q0 -23 17.5 -37t43.5 -24.5t56 -22t56.5 -29t43.5 -44t17 -67.5z" />
<glyph horiz-adv-x="514" d="M171 409h-79l-62 -94h-15l18 144h448l18 -144h-14l-63 94h-79l-14 -15v-318l57 -62v-14h-258v14l57 62v318z" />
<glyph horiz-adv-x="586" d="M284 459v-15l-58 -61v-220q0 -30 3.5 -54t15 -41t32 -26.5t53.5 -9.5q71 0 96 31t25 99v221l-58 61v15h165v-15l-57 -61v-225q0 -39 -8.5 -72t-28.5 -56t-52.5 -35.5t-81.5 -12.5q-118 0 -182.5 47t-64.5 150v204l-57 61v15h258z" />
<glyph horiz-adv-x="528" d="M520 459v-15l-69 -61l-145 -383h-100l-135 383l-66 61v15h260v-15l-47 -61l79 -226l4 -43l8 38l87 231l-46 61v15h170z" />
<glyph horiz-adv-x="803" d="M795 459v-15l-60 -61l-138 -383h-100l-91 239l-92 -239h-97l-145 383l-67 61v15h245v-15l-38 -61l91 -241l6 -46l5 46l64 169l-27 72l-58 61v15h234v-15l-37 -61l93 -241l6 -46l5 46l86 241l-45 61v15h160z" />
<glyph horiz-adv-x="584" d="M219 216l-138 180l-64 49v14h273v-14l-41 -49l60 -80l73 80l-34 49v14h167v-14l-64 -49l-110 -121l164 -212l63 -49v-14h-267v14l36 49l-87 112l-102 -112l50 -49v-14h-184v14l66 49z" />
<glyph horiz-adv-x="519" d="M156 0v14l57 62v107l-133 212l-62 49v15h250v-15l-41 -49l62 -100l9 -36l9 24l70 112l-41 49v15h163v-15l-61 -49l-82 -133v-186l58 -62v-14h-258z" />
<glyph horiz-adv-x="451" d="M419 459l-220 -409h151l69 101h14l-20 -151h-398l221 409h-114l-67 -95h-14l20 145h358z" />
<glyph horiz-adv-x="602" d="M360 63l-29 73h-165l-28 -73l40 -49v-14h-151v14l57 49l161 411h97l167 -411l62 -49v-14h-253v14zM310 186l-59 144l-4 29l-4 -23l-58 -150h125zM213 588q-15 8 -24 19t-9 31q0 30 17 44.5t41 14.5q29 0 43.5 -10t29.5 -32l95 -138h-37l-156 71v0z" />
<glyph horiz-adv-x="602" d="M360 63l-29 73h-165l-28 -73l40 -49v-14h-151v14l57 49l161 411h97l167 -411l62 -49v-14h-253v14zM310 186l-59 144l-4 29l-4 -23l-58 -150h125zM217 517h-37l95 138q15 23 30 32.5t43 9.5q24 0 41 -14.5t17 -44.5q0 -20 -9 -31t-24 -19z" />
<glyph horiz-adv-x="602" d="M360 63l-29 73h-165l-28 -73l40 -49v-14h-151v14l57 49l161 411h97l167 -411l62 -49v-14h-253v14zM310 186l-59 144l-4 29l-4 -23l-58 -150h125zM150 526l115 165h56l115 -165h-37l-106 59l-107 -59h-36z" />
<glyph horiz-adv-x="602" d="M360 63l-29 73h-165l-28 -73l40 -49v-14h-151v14l57 49l161 411h97l167 -411l62 -49v-14h-253v14zM310 186l-59 144l-4 29l-4 -23l-58 -150h125zM501 689q-7 -42 -25 -74q-14 -29 -39.5 -52t-66.5 -23q-35 0 -56.5 10.5t-37.5 23t-32 23.5t-38 11q-25 0 -42 -9t-29 -20 q-13 -12 -21 -29h-26q7 41 25 75q7 13 16.5 27t23 24t30 17t36.5 7q35 0 56.5 -11t37.5 -23t31 -23t39 -11q25 0 42 9t29 20q12 12 21 28h26z" />
<glyph horiz-adv-x="602" d="M360 63l-29 73h-165l-28 -73l40 -49v-14h-151v14l57 49l161 411h97l167 -411l62 -49v-14h-253v14zM310 186l-59 144l-4 29l-4 -23l-58 -150h125zM123 616q0 30 20.5 50.5t50.5 20.5t50 -20.5t20 -50.5t-20.5 -50.5t-49.5 -20.5q-30 0 -50.5 20.5t-20.5 50.5zM320 616 q0 30 20.5 50.5t49.5 20.5q30 0 50.5 -20.5t20.5 -50.5t-20.5 -50.5t-50.5 -20.5t-50 20.5t-20 50.5z" />
<glyph horiz-adv-x="602" d="M360 63l-29 73h-165l-28 -73l40 -49v-14h-151v14l57 49l161 411h97l167 -411l62 -49v-14h-253v14zM310 186l-59 144l-4 29l-4 -23l-58 -150h125zM190 637q0 43 29 69t75 26t75 -26t29 -69t-29 -69t-75 -26t-75 26t-29 69zM259 637q0 -14 9 -24.5t26 -10.5t26 10.5t9 24.5 t-9 24.5t-26 10.5t-26 -10.5t-9 -24.5z" />
<glyph horiz-adv-x="602" d="M360 63l-29 73h-165l-28 -73l40 -49v-14h-151v14l57 49l161 411h97l167 -411l62 -49v-14h-253v14zM310 186l-59 144l-4 29l-4 -23l-58 -150h125zM414 653q-10 -46 -41 -75.5t-82 -29.5q-50 0 -81 29.5t-42 75.5l28 18q16 -31 42 -45.5t53 -14.5q28 0 53.5 14.5t42.5 45.5 z" />
<glyph horiz-adv-x="602" d="M360 63l-29 73h-165l-28 -73l40 -49v-14h-151v14l57 49l161 411h97l167 -411l62 -49v-14h-253v14zM310 186l-59 144l-4 29l-4 -23l-58 -150h125zM147 621h293v-77h-293v77z" />
<glyph horiz-adv-x="602" d="M290 -102q2 24 18.5 42.5t33.5 31.5q20 15 47 28h-71v14l42 49l-29 73h-165l-28 -73l40 -49v-14h-151v14l57 49l161 411h97l167 -411l62 -49v-14h-117q-24 -12 -42 -28q-15 -13 -28 -31t-13 -39q0 -13 7 -23t22 -10q30 0 50 25.5t35 60.5l75 -49q-38 -49 -83.5 -67 t-89.5 -18q-54 0 -77.5 21.5t-19.5 55.5zM310 186l-59 144l-4 29l-4 -23l-58 -150h125z" />
<glyph horiz-adv-x="751" d="M269 444v15h416l12 -125h-14l-53 75h-146l-14 -15v-108l14 -15h127l33 47h14v-144h-14l-33 47h-127l-14 -14v-142l14 -15h157l65 88h14l-18 -138h-433v14l58 62v60h-125l-45 -73l27 -49v-14h-157v14l69 49l213 337zM318 322l-86 -136h95v159z" />
<glyph horiz-adv-x="525" d="M294 421q-55 0 -90.5 -52t-35.5 -140q0 -87 33 -139t103 -52q58 0 102 25t71 91l27 -22q-24 -71 -74.5 -107.5t-131.5 -36.5q-60 0 -111 16t-88 47.5t-57 76.5t-20 101q0 51 22.5 95.5t60 77t87.5 51t104 18.5q39 0 78.5 -8.5t70.5 -28.5v-128h-16q-9 26 -20 47t-26.5 36 t-37 23.5t-51.5 8.5zM220 517h-37l95 138q15 23 30 32.5t43 9.5q24 0 41 -14.5t17 -44.5q0 -20 -9 -31t-24 -19z" />
<glyph horiz-adv-x="525" d="M229 -6q-46 8 -84.5 28t-66 49.5t-42 69.5t-14.5 88q0 51 22.5 95.5t60 77t87.5 51t104 18.5q39 0 78.5 -8.5t70.5 -28.5v-128h-16q-9 26 -20 47t-26.5 36t-37 23.5t-51.5 8.5q-55 0 -90.5 -52t-35.5 -140q0 -87 33 -139t103 -52q58 0 102 25t71 91l27 -22 q-24 -71 -74.5 -107.5t-131.5 -36.5h-10t-10 1l-19 -43q14 10 30.5 14t31.5 4q37 0 57.5 -18t20.5 -50q0 -24 -9.5 -40.5t-26 -27t-37 -16t-41.5 -5.5q-20 0 -45 6.5t-42 20.5l13 25q19 -7 32.5 -9.5t25.5 -2.5q28 0 38.5 10t10.5 28q0 15 -10 23t-22 8q-17 0 -34.5 -7.5 t-28.5 -20.5h-20z" />
<glyph horiz-adv-x="525" d="M294 421q-55 0 -90.5 -52t-35.5 -140q0 -87 33 -139t103 -52q58 0 102 25t71 91l27 -22q-24 -71 -74.5 -107.5t-131.5 -36.5q-60 0 -111 16t-88 47.5t-57 76.5t-20 101q0 51 22.5 95.5t60 77t87.5 51t104 18.5q39 0 78.5 -8.5t70.5 -28.5v-128h-16q-9 26 -20 47t-26.5 36 t-37 23.5t-51.5 8.5zM189 691l107 -58l106 58h37l-115 -165h-56l-115 165h36z" />
<glyph horiz-adv-x="525" d="M294 421q-55 0 -90.5 -52t-35.5 -140q0 -87 33 -139t103 -52q58 0 102 25t71 91l27 -22q-24 -71 -74.5 -107.5t-131.5 -36.5q-60 0 -111 16t-88 47.5t-57 76.5t-20 101q0 51 22.5 95.5t60 77t87.5 51t104 18.5q39 0 78.5 -8.5t70.5 -28.5v-128h-16q-9 26 -20 47t-26.5 36 t-37 23.5t-51.5 8.5zM211 626q0 35 24.5 59t58.5 24t58.5 -24t24.5 -59t-24.5 -59t-58.5 -24t-58.5 24t-24.5 59z" />
<glyph horiz-adv-x="582" d="M22 0v13l57 63v307l-57 62v14h278q55 0 103 -15t82.5 -43.5t54 -71.5t19.5 -100q0 -56 -19.5 -99t-54 -71.5t-82.5 -43.5t-103 -15h-278zM222 65l15 -15h42q34 0 58.5 14t41.5 38t25.5 56.5t8.5 70.5t-8.5 71t-25.5 57t-42 38t-58 14h-42l-15 -15v-329zM139 691l107 -58 l106 58h37l-115 -165h-56l-115 165h36z" />
<glyph horiz-adv-x="582" d="M22 255h41l16 14v114l-57 62v14h278q55 0 103 -15t82.5 -43.5t54 -71.5t19.5 -100q0 -56 -19.5 -99t-54 -71.5t-82.5 -43.5t-103 -15h-278v13l57 63v114l-16 15h-41v50zM238 205l-16 -15v-125l15 -15h42q34 0 58.5 14t41.5 38t25.5 56.5t8.5 70.5t-8.5 71t-25.5 57 t-42 38t-58 14h-42l-15 -15v-125l16 -14h48v-50h-48z" />
<glyph horiz-adv-x="505" d="M24 444v15h415l13 -125h-15l-53 75h-145l-15 -15v-108l15 -15h127l32 47h15v-144h-15l-32 47h-127l-15 -14v-142l15 -15h156l65 88h14l-17 -138h-433v14l57 62v307zM181 517h-37l95 138q15 23 30 32.5t43 9.5q24 0 41 -14.5t17 -44.5q0 -20 -9 -31t-24 -19z" />
<glyph horiz-adv-x="505" d="M24 444v15h415l13 -125h-15l-53 75h-145l-15 -15v-108l15 -15h127l32 47h15v-144h-15l-32 47h-127l-15 -14v-142l15 -15h156l65 88h14l-17 -138h-433v14l57 62v307zM156 588q-15 8 -24 19t-9 31q0 30 17 44.5t41 14.5q29 0 43.5 -10t29.5 -32l95 -138h-37l-156 71v0z" />
<glyph horiz-adv-x="505" d="M24 444v15h415l13 -125h-15l-53 75h-145l-15 -15v-108l15 -15h127l32 47h15v-144h-15l-32 47h-127l-15 -14v-142l15 -15h156l65 88h14l-17 -138h-433v14l57 62v307zM121 526l115 165h56l115 -165h-37l-106 59l-107 -59h-36z" />
<glyph horiz-adv-x="505" d="M24 444v15h415l13 -125h-15l-53 75h-145l-15 -15v-108l15 -15h127l32 47h15v-144h-15l-32 47h-127l-15 -14v-142l15 -15h156l65 88h14l-17 -138h-433v14l57 62v307zM147 691l107 -58l106 58h37l-115 -165h-56l-115 165h36z" />
<glyph horiz-adv-x="505" d="M24 444v15h415l13 -125h-15l-53 75h-145l-15 -15v-108l15 -15h127l32 47h15v-144h-15l-32 47h-127l-15 -14v-142l15 -15h156l65 88h14l-17 -138h-433v14l57 62v307zM78 616q0 30 20.5 50.5t50.5 20.5t50 -20.5t20 -50.5t-20.5 -50.5t-49.5 -20.5q-30 0 -50.5 20.5 t-20.5 50.5zM275 616q0 30 20.5 50.5t49.5 20.5q30 0 50.5 -20.5t20.5 -50.5t-20.5 -50.5t-50.5 -20.5t-50 20.5t-20 50.5z" />
<glyph horiz-adv-x="505" d="M24 444v15h415l13 -125h-15l-53 75h-145l-15 -15v-108l15 -15h127l32 47h15v-144h-15l-32 47h-127l-15 -14v-142l15 -15h156l65 88h14l-17 -138h-433v14l57 62v307zM167 626q0 35 24.5 59t58.5 24t58.5 -24t24.5 -59t-24.5 -59t-58.5 -24t-58.5 24t-24.5 59z" />
<glyph horiz-adv-x="505" d="M24 444v15h415l13 -125h-15l-53 75h-145l-15 -15v-108l15 -15h127l32 47h15v-144h-15l-32 47h-127l-15 -14v-142l15 -15h156l65 88h14l-17 -138h-433v14l57 62v307zM103 621h293v-77h-293v77z" />
<glyph horiz-adv-x="518" d="M216 -102q2 24 18.5 42.5t33.5 31.5q20 15 47 28h-291v14l57 62v307l-57 61v15h415l13 -125h-15l-53 75h-145l-15 -15v-108l15 -15h127l32 47h15v-144h-15l-32 47h-127l-15 -14v-142l15 -15h156l65 88h14l-17 -138h-77q-24 -12 -42 -28q-15 -13 -28 -31t-13 -39 q0 -13 7 -23t23 -10q30 0 49.5 25.5t35.5 60.5l74 -49q-38 -49 -83.5 -67t-89.5 -18q-54 0 -77.5 21.5t-19.5 55.5z" />
<glyph horiz-adv-x="581" d="M502 80q0 -10 2 -17t4 -12q3 -5 7 -9q-12 -14 -36 -24.5t-53.5 -17t-59 -9.5t-54.5 -3q-66 0 -119 17t-90.5 48t-58.5 75.5t-21 100.5q0 58 25 103.5t66 76t94 46.5t110 16q56 0 104 -13t80 -30v-129h-20q-23 58 -62.5 90t-103.5 32q-33 0 -59.5 -14.5t-46.5 -40 t-30.5 -61t-10.5 -76.5t9.5 -75.5t28.5 -60t47 -40.5t64 -15q19 0 29.5 6.5t10.5 24.5v74l-14 15h-47v50h262v-14l-57 -62v-52v0zM441 653q-10 -46 -41 -75.5t-82 -29.5q-50 0 -81 29.5t-42 75.5l28 18q16 -31 42 -45.5t53 -14.5q28 0 53.5 14.5t42.5 45.5z" />
<glyph horiz-adv-x="581" d="M502 80q0 -10 2 -17t4 -12q3 -5 7 -9q-12 -14 -36 -24.5t-53.5 -17t-59 -9.5t-54.5 -3q-66 0 -119 17t-90.5 48t-58.5 75.5t-21 100.5q0 58 25 103.5t66 76t94 46.5t110 16q56 0 104 -13t80 -30v-129h-20q-23 58 -62.5 90t-103.5 32q-33 0 -59.5 -14.5t-46.5 -40 t-30.5 -61t-10.5 -76.5t9.5 -75.5t28.5 -60t47 -40.5t64 -15q19 0 29.5 6.5t10.5 24.5v74l-14 15h-47v50h262v-14l-57 -62v-52v0zM230 -130q0 36 23.5 58.5t56.5 22.5q38 0 61 -24t23 -67q0 -45 -8 -79t-24.5 -60.5t-41 -49t-56.5 -43.5l-15 20q19 18 32 32t19.5 25.5t9 22 t2.5 22.5q0 19 -10.5 28t-22.5 14q-27 13 -38 29.5t-11 48.5z" />
<glyph horiz-adv-x="666" d="M377 444v15h258v-15l-57 -61v-307l57 -62v-14h-258v14l57 62v137l-14 14h-179l-15 -14v-137l58 -62v-14h-258v14l57 62v307l-57 61v15h258v-15l-58 -61v-91l15 -14h179l14 14v91zM190 526l115 165h56l115 -165h-37l-106 59l-107 -59h-36z" />
<glyph horiz-adv-x="307" d="M19 444v15h259v-15l-58 -61v-307l58 -62v-14h-259v14l58 62v307zM70 517h-37l95 138q15 23 30 32.5t43 9.5q24 0 41 -14.5t17 -44.5q0 -20 -9 -31t-24 -19z" />
<glyph horiz-adv-x="307" d="M19 444v15h259v-15l-58 -61v-307l58 -62v-14h-259v14l58 62v307zM63 588q-15 8 -24 19t-9 31q0 30 17 44.5t41 14.5q29 0 43.5 -10t29.5 -32l95 -138h-37l-156 71v0z" />
<glyph horiz-adv-x="307" d="M18 444v15h259v-15l-58 -61v-307l58 -62v-14h-259v14l58 62v307zM4 526l115 165h56l115 -165h-37l-106 59l-107 -59h-36z" />
<glyph horiz-adv-x="307" d="M24 444v15h259v-15l-58 -61v-307l58 -62v-14h-259v14l58 62v307zM-15 616q0 30 20.5 50.5t50.5 20.5t50 -20.5t20 -50.5t-20.5 -50.5t-49.5 -20.5q-30 0 -50.5 20.5t-20.5 50.5zM182 616q0 30 20.5 50.5t49.5 20.5q30 0 50.5 -20.5t20.5 -50.5t-20.5 -50.5t-50.5 -20.5 t-50 20.5t-20 50.5z" />
<glyph horiz-adv-x="307" d="M19 444v15h259v-15l-58 -61v-307l58 -62v-14h-259v14l58 62v307zM274 653q-10 -46 -41 -75.5t-82 -29.5q-50 0 -81 29.5t-42 75.5l28 18q16 -31 42 -45.5t53 -14.5q28 0 53.5 14.5t42.5 45.5z" />
<glyph horiz-adv-x="307" d="M19 444v15h259v-15l-58 -61v-307l58 -62v-14h-259v14l58 62v307zM62 626q0 35 24.5 59t58.5 24t58.5 -24t24.5 -59t-24.5 -59t-58.5 -24t-58.5 24t-24.5 59z" />
<glyph horiz-adv-x="307" d="M20 444v15h259v-15l-58 -61v-307l58 -62v-14h-259v14l58 62v307zM0 621h293v-77h-293v77z" />
<glyph horiz-adv-x="307" d="M18 -102q2 24 18.5 42.5t34.5 31.5q20 15 47 28h-96v14l57 62v307l-57 61v15h258v-15l-58 -61v-307l58 -62v-14h-98q-24 -12 -42 -28q-15 -13 -28 -31t-13 -39q0 -13 7.5 -23t22.5 -10q30 0 50 25.5t35 60.5l75 -49q-38 -49 -83.5 -67t-89.5 -18q-54 0 -78 21.5t-20 55.5 z" />
<glyph horiz-adv-x="507" d="M23 0v14l57 62v307l-57 61v15h258v-15l-58 -61v-99l120 116l-27 44v15h179v-15l-83 -49l-121 -117l79 18l128 -336l-90 40l-79 76l-78 162l-28 -26v-136l58 -62v-14h-258zM132 -130q0 36 23.5 58.5t56.5 22.5q38 0 61 -24t23 -67q0 -45 -8 -79t-24.5 -60.5t-41 -49 t-56.5 -43.5l-15 20q19 18 32 32t19.5 25.5t9 22t2.5 22.5q0 19 -10.5 28t-22.5 14q-27 13 -38 29.5t-11 48.5z" />
<glyph horiz-adv-x="487" d="M23 444v15h258v-15l-58 -61v-318l15 -15h151l65 98h12l-16 -148h-427v14l57 62v307zM79 517h-37l95 138q15 23 30 32.5t43 9.5q24 0 41 -14.5t17 -44.5q0 -20 -9 -31t-24 -19z" />
<glyph horiz-adv-x="487" d="M23 444v15h258v-15l-58 -61v-318l15 -15h151l65 98h12l-16 -148h-427v14l57 62v307zM166 -130q0 36 23.5 58.5t56.5 22.5q38 0 61 -24t23 -67q0 -45 -8 -79t-24.5 -60.5t-41 -49t-56.5 -43.5l-15 20q19 18 32 32t19.5 25.5t9 22t2.5 22.5q0 19 -10.5 28t-22.5 14 q-27 13 -38 29.5t-11 48.5z" />
<glyph horiz-adv-x="527" d="M502 459v-15l-58 -61v-383h-28l-276 289l-10 34v-247l57 -62v-14h-164v14l57 62v307l-57 61v15h152l207 -214l12 -35v173l-57 61v15h165zM192 517h-37l95 138q15 23 30 32.5t43 9.5q24 0 41 -14.5t17 -44.5q0 -20 -9 -31t-24 -19z" />
<glyph horiz-adv-x="527" d="M502 459v-15l-58 -61v-383h-28l-276 289l-10 34v-247l57 -62v-14h-164v14l57 62v307l-57 61v15h152l207 -214l12 -35v173l-57 61v15h165zM159 691l107 -58l106 58h37l-115 -165h-56l-115 165h36z" />
<glyph horiz-adv-x="527" d="M502 459v-15l-58 -61v-383h-28l-276 289l-10 34v-247l57 -62v-14h-164v14l57 62v307l-57 61v15h152l207 -214l12 -35v173l-57 61v15h165zM206 -130q0 36 23.5 58.5t56.5 22.5q38 0 61 -24t23 -67q0 -45 -8 -79t-24.5 -60.5t-41 -49t-56.5 -43.5l-15 20q19 18 32 32 t19.5 25.5t9 22t2.5 22.5q0 19 -10.5 28t-22.5 14q-27 13 -38 29.5t-11 48.5z" />
<glyph horiz-adv-x="527" d="M502 459v-15l-58 -61v-383h-28l-276 289l-10 34v-247l57 -62v-14h-164v14l57 62v307l-57 61v15h152l207 -214l12 -35v173l-57 61v15h165zM465 689q-7 -42 -25 -74q-14 -29 -39.5 -52t-66.5 -23q-35 0 -56.5 10.5t-37.5 23t-32 23.5t-38 11q-25 0 -42 -9t-29 -20 q-13 -12 -21 -29h-26q7 41 25 75q7 13 16.5 27t23 24t30 17t36.5 7q35 0 56.5 -11t37.5 -23t31 -23t39 -11q25 0 42 9t29 20q12 12 21 28h26z" />
<glyph horiz-adv-x="569" d="M395 229q0 39 -6 74t-19.5 61t-35 41.5t-50.5 15.5q-30 0 -51.5 -15.5t-35 -41.5t-19.5 -61t-6 -74t6 -73.5t19.5 -60.5t35 -41.5t51.5 -15.5t51 15.5t34.5 41.5t19.5 60.5t6 73.5zM542 229q0 -52 -21 -96t-56.5 -76t-82 -50.5t-98.5 -18.5t-99 18.5t-82 50.5t-56 76 t-21 96t21 96.5t56 76.5t81.5 50.5t99.5 18.5q52 0 98.5 -18.5t82 -50.5t56.5 -76.5t21 -96.5zM208 517h-37l95 138q15 23 30 32.5t43 9.5q24 0 41 -14.5t17 -44.5q0 -20 -9 -31t-24 -19z" />
<glyph horiz-adv-x="569" d="M395 229q0 39 -6 74t-19.5 61t-35 41.5t-50.5 15.5q-30 0 -51.5 -15.5t-35 -41.5t-19.5 -61t-6 -74t6 -73.5t19.5 -60.5t35 -41.5t51.5 -15.5t51 15.5t34.5 41.5t19.5 60.5t6 73.5zM542 229q0 -52 -21 -96t-56.5 -76t-82 -50.5t-98.5 -18.5t-99 18.5t-82 50.5t-56 76 t-21 96t21 96.5t56 76.5t81.5 50.5t99.5 18.5q52 0 98.5 -18.5t82 -50.5t56.5 -76.5t21 -96.5zM204 588q-15 8 -24 19t-9 31q0 30 17 44.5t41 14.5q29 0 43.5 -10t29.5 -32l95 -138h-37l-156 71v0z" />
<glyph horiz-adv-x="569" d="M395 229q0 39 -6 74t-19.5 61t-35 41.5t-50.5 15.5q-30 0 -51.5 -15.5t-35 -41.5t-19.5 -61t-6 -74t6 -73.5t19.5 -60.5t35 -41.5t51.5 -15.5t51 15.5t34.5 41.5t19.5 60.5t6 73.5zM542 229q0 -52 -21 -96t-56.5 -76t-82 -50.5t-98.5 -18.5t-99 18.5t-82 50.5t-56 76 t-21 96t21 96.5t56 76.5t81.5 50.5t99.5 18.5q52 0 98.5 -18.5t82 -50.5t56.5 -76.5t21 -96.5zM141 526l115 165h56l115 -165h-37l-106 59l-107 -59h-36z" />
<glyph horiz-adv-x="569" d="M395 229q0 39 -6 74t-19.5 61t-35 41.5t-50.5 15.5q-30 0 -51.5 -15.5t-35 -41.5t-19.5 -61t-6 -74t6 -73.5t19.5 -60.5t35 -41.5t51.5 -15.5t51 15.5t34.5 41.5t19.5 60.5t6 73.5zM542 229q0 -52 -21 -96t-56.5 -76t-82 -50.5t-98.5 -18.5t-99 18.5t-82 50.5t-56 76 t-21 96t21 96.5t56 76.5t81.5 50.5t99.5 18.5q52 0 98.5 -18.5t82 -50.5t56.5 -76.5t21 -96.5zM491 689q-7 -42 -25 -74q-14 -29 -39.5 -52t-66.5 -23q-35 0 -56.5 10.5t-37.5 23t-32 23.5t-38 11q-25 0 -42 -9t-29 -20q-13 -12 -21 -29h-26q7 41 25 75q7 13 16.5 27t23 24 t30 17t36.5 7q35 0 56.5 -11t37.5 -23t31 -23t39 -11q25 0 42 9t29 20q12 12 21 28h26z" />
<glyph horiz-adv-x="569" d="M395 229q0 39 -6 74t-19.5 61t-35 41.5t-50.5 15.5q-30 0 -51.5 -15.5t-35 -41.5t-19.5 -61t-6 -74t6 -73.5t19.5 -60.5t35 -41.5t51.5 -15.5t51 15.5t34.5 41.5t19.5 60.5t6 73.5zM542 229q0 -52 -21 -96t-56.5 -76t-82 -50.5t-98.5 -18.5t-99 18.5t-82 50.5t-56 76 t-21 96t21 96.5t56 76.5t81.5 50.5t99.5 18.5q52 0 98.5 -18.5t82 -50.5t56.5 -76.5t21 -96.5zM115 616q0 30 20.5 50.5t50.5 20.5t50 -20.5t20 -50.5t-20.5 -50.5t-49.5 -20.5q-30 0 -50.5 20.5t-20.5 50.5zM312 616q0 30 20.5 50.5t49.5 20.5q30 0 50.5 -20.5t20.5 -50.5 t-20.5 -50.5t-50.5 -20.5t-50 20.5t-20 50.5z" />
<glyph horiz-adv-x="569" d="M395 229q0 39 -6 74t-19.5 61t-35 41.5t-50.5 15.5q-30 0 -51.5 -15.5t-35 -41.5t-19.5 -61t-6 -74t6 -73.5t19.5 -60.5t35 -41.5t51.5 -15.5t51 15.5t34.5 41.5t19.5 60.5t6 73.5zM542 229q0 -52 -21 -96t-56.5 -76t-82 -50.5t-98.5 -18.5t-99 18.5t-82 50.5t-56 76 t-21 96t21 96.5t56 76.5t81.5 50.5t99.5 18.5q52 0 98.5 -18.5t82 -50.5t56.5 -76.5t21 -96.5zM108 517h-37l94 138q15 23 30 32.5t44 9.5q24 0 40.5 -14.5t16.5 -44.5q0 -20 -8.5 -31t-24.5 -19zM325 517h-37l94 138q15 23 30 32.5t44 9.5q24 0 40.5 -14.5t16.5 -44.5 q0 -20 -8.5 -31t-24.5 -19z" />
<glyph horiz-adv-x="569" d="M395 229q0 39 -6 74t-19.5 61t-35 41.5t-50.5 15.5q-30 0 -51.5 -15.5t-35 -41.5t-19.5 -61t-6 -74t6 -73.5t19.5 -60.5t35 -41.5t51.5 -15.5t51 15.5t34.5 41.5t19.5 60.5t6 73.5zM542 229q0 -52 -21 -96t-56.5 -76t-82 -50.5t-98.5 -18.5t-99 18.5t-82 50.5t-56 76 t-21 96t21 96.5t56 76.5t81.5 50.5t99.5 18.5q52 0 98.5 -18.5t82 -50.5t56.5 -76.5t21 -96.5zM138 621h293v-77h-293v77z" />
<glyph horiz-adv-x="569" d="M542 229q0 -52 -21 -96t-56.5 -76t-82 -50.5t-98.5 -18.5q-43 0 -82 12t-72 35l-47 -47l-39 40l44 44q-30 31 -46 71t-16 86q0 52 21 96.5t56 76.5t81.5 50.5t99.5 18.5q43 0 83 -13t72 -36l49 49l38 -40l-46 -46q29 -31 45.5 -70.5t16.5 -85.5zM172 229q0 -18 1.5 -35 t3.5 -33l196 194q-13 30 -35 48t-54 18q-30 0 -51.5 -15.5t-35 -41.5t-19.5 -61t-6 -74zM395 229q0 17 -1.5 34t-3.5 32l-195 -196q14 -29 35.5 -45t53.5 -16q30 0 51 15.5t34.5 41.5t19.5 60.5t6 73.5z" />
<glyph horiz-adv-x="801" d="M284 471q20 0 40 -3.5t37 -8.5h374l13 -125h-15l-53 75h-145l-15 -15v-108l15 -15h127l32 47h15v-144h-15l-32 47h-127l-15 -14v-142l15 -15h156l65 88h14l-17 -138h-389q-37 -12 -80 -12q-52 0 -99 18.5t-82 50.5t-56 76t-21 96t21 96.5t56 76.5t82 50.5t99 18.5z M284 38q28 0 45 9.5t28 30.5t15 54t5 78v39q-1 45 -5 77t-15 53t-28.5 31.5t-44.5 10.5q-30 0 -51.5 -15.5t-35 -41.5t-19.5 -61t-6 -74t6 -73.5t19.5 -60.5t35 -41.5t51.5 -15.5z" />
<glyph horiz-adv-x="495" d="M18 444v15h258v-15l-57 -61l14 -13h49q36 0 72 -6.5t65.5 -22t47 -43t17.5 -69.5t-17.5 -68.5t-47 -42.5t-66 -22t-71.5 -6h-49l-14 -14l57 -62v-14h-258v14l58 62v307zM219 155l14 -15h30q37 0 57.5 21.5t20.5 67.5t-20.5 68t-57.5 22h-30l-14 -14v-150z" />
<glyph horiz-adv-x="533" d="M78 383l-58 61v15h302q37 0 68.5 -7.5t55.5 -23t37.5 -41.5t13.5 -61q0 -62 -34 -91.5t-91 -34.5l56 -10l96 -230l-110 40l-77 76l-75 122h-26l-15 -15v-107l48 -62v-14h-249v14l58 62v307zM221 262l15 -14h38q34 0 54 21.5t20 58.5q0 36 -20 58.5t-54 22.5h-38l-15 -15 v-132zM194 517h-37l95 138q15 23 30 32.5t43 9.5q24 0 41 -14.5t17 -44.5q0 -20 -9 -31t-24 -19z" />
<glyph horiz-adv-x="533" d="M78 383l-58 61v15h302q37 0 68.5 -7.5t55.5 -23t37.5 -41.5t13.5 -61q0 -62 -34 -91.5t-91 -34.5l56 -10l96 -230l-110 40l-77 76l-75 122h-26l-15 -15v-107l48 -62v-14h-249v14l58 62v307zM221 262l15 -14h38q34 0 54 21.5t20 58.5q0 36 -20 58.5t-54 22.5h-38l-15 -15 v-132zM153 691l107 -58l106 58h37l-115 -165h-56l-115 165h36z" />
<glyph horiz-adv-x="533" d="M78 383l-58 61v15h302q37 0 68.5 -7.5t55.5 -23t37.5 -41.5t13.5 -61q0 -62 -34 -91.5t-91 -34.5l56 -10l96 -230l-110 40l-77 76l-75 122h-26l-15 -15v-107l48 -62v-14h-249v14l58 62v307zM221 262l15 -14h38q34 0 54 21.5t20 58.5q0 36 -20 58.5t-54 22.5h-38l-15 -15 v-132zM225 -130q0 36 23.5 58.5t56.5 22.5q38 0 61 -24t23 -67q0 -45 -8 -79t-24.5 -60.5t-41 -49t-56.5 -43.5l-15 20q19 18 32 32t19.5 25.5t9 22t2.5 22.5q0 19 -10.5 28t-22.5 14q-27 13 -38 29.5t-11 48.5z" />
<glyph horiz-adv-x="429" d="M398 137q0 -35 -13.5 -62.5t-39.5 -47t-60.5 -29.5t-76.5 -10q-61 0 -107.5 17.5t-75.5 48.5v149h23q8 -34 21 -63.5t30.5 -52t40.5 -36t53 -13.5q70 0 69 73q0 23 -17 37t-42.5 24.5t-54.5 22t-54.5 29.5t-42.5 45t-17 70q0 31 15.5 55.5t41 41.5t57 26t64.5 9 q42 0 83 -10t65 -29v-122h-18q-19 52 -52 81.5t-65 29.5q-26 0 -43.5 -14.5t-17.5 -45.5q0 -23 17.5 -37t43.5 -24.5t56 -22t56.5 -29t43.5 -44t17 -67.5zM136 517h-37l95 138q15 23 30 32.5t43 9.5q24 0 41 -14.5t17 -44.5q0 -20 -9 -31t-24 -19z" />
<glyph horiz-adv-x="429" d="M398 137q0 -35 -13.5 -62.5t-39.5 -47t-60.5 -29.5t-76.5 -10q-61 0 -107.5 17.5t-75.5 48.5v149h23q8 -34 21 -63.5t30.5 -52t40.5 -36t53 -13.5q70 0 69 73q0 23 -17 37t-42.5 24.5t-54.5 22t-54.5 29.5t-42.5 45t-17 70q0 31 15.5 55.5t41 41.5t57 26t64.5 9 q42 0 83 -10t65 -29v-122h-18q-19 52 -52 81.5t-65 29.5q-26 0 -43.5 -14.5t-17.5 -45.5q0 -23 17.5 -37t43.5 -24.5t56 -22t56.5 -29t43.5 -44t17 -67.5zM152 35h57l-39 -89q14 10 30.5 14t31.5 4q37 0 57.5 -18t20.5 -50q0 -24 -9.5 -40.5t-26 -27t-37 -16t-41.5 -5.5 q-20 0 -45 6.5t-42 20.5l13 25q19 -7 32.5 -9.5t25.5 -2.5q28 0 39 10t11 28q0 15 -10.5 23t-22.5 8q-17 0 -34 -7.5t-29 -20.5h-20z" />
<glyph horiz-adv-x="514" d="M171 409h-79l-62 -94h-15l18 144h448l18 -144h-14l-63 94h-79l-14 -15v-318l57 -62v-14h-258v14l57 62v318zM151 691l107 -58l106 58h37l-115 -165h-56l-115 165h36z" />
<glyph horiz-adv-x="514" d="M171 409h-79l-62 -94h-15l18 144h448l18 -144h-14l-63 94h-79l-14 -15v-318l57 -62v-14h-258v14l57 62v318zM176 -130q0 36 23.5 58.5t56.5 22.5q38 0 61 -24t23 -67q0 -45 -8 -79t-24.5 -60.5t-41 -49t-56.5 -43.5l-15 20q19 18 32 32t19.5 25.5t9 22t2.5 22.5 q0 19 -10.5 28t-22.5 14q-27 13 -38 29.5t-11 48.5z" />
<glyph horiz-adv-x="586" d="M284 459v-15l-58 -61v-220q0 -30 3.5 -54t15 -41t32 -26.5t53.5 -9.5q71 0 96 31t25 99v221l-58 61v15h165v-15l-57 -61v-225q0 -39 -8.5 -72t-28.5 -56t-52.5 -35.5t-81.5 -12.5q-118 0 -182.5 47t-64.5 150v204l-57 61v15h258zM264 517h-37l95 138q15 23 30 32.5 t43 9.5q24 0 41 -14.5t17 -44.5q0 -20 -9 -31t-24 -19z" />
<glyph horiz-adv-x="586" d="M284 459v-15l-58 -61v-220q0 -30 3.5 -54t15 -41t32 -26.5t53.5 -9.5q71 0 96 31t25 99v221l-58 61v15h165v-15l-57 -61v-225q0 -39 -8.5 -72t-28.5 -56t-52.5 -35.5t-81.5 -12.5q-118 0 -182.5 47t-64.5 150v204l-57 61v15h258zM262 588q-15 8 -24 19t-9 31 q0 30 17 44.5t41 14.5q29 0 43.5 -10t29.5 -32l95 -138h-37l-156 71v0z" />
<glyph horiz-adv-x="586" d="M284 459v-15l-58 -61v-220q0 -30 3.5 -54t15 -41t32 -26.5t53.5 -9.5q71 0 96 31t25 99v221l-58 61v15h165v-15l-57 -61v-225q0 -39 -8.5 -72t-28.5 -56t-52.5 -35.5t-81.5 -12.5q-118 0 -182.5 47t-64.5 150v204l-57 61v15h258zM198 526l115 165h56l115 -165h-37 l-106 59l-107 -59h-36z" />
<glyph horiz-adv-x="586" d="M284 459v-15l-58 -61v-220q0 -30 3.5 -54t15 -41t32 -26.5t53.5 -9.5q71 0 96 31t25 99v221l-58 61v15h165v-15l-57 -61v-225q0 -39 -8.5 -72t-28.5 -56t-52.5 -35.5t-81.5 -12.5q-118 0 -182.5 47t-64.5 150v204l-57 61v15h258zM172 616q0 30 20.5 50.5t50.5 20.5 t50 -20.5t20 -50.5t-20.5 -50.5t-49.5 -20.5q-30 0 -50.5 20.5t-20.5 50.5zM369 616q0 30 20.5 50.5t49.5 20.5q30 0 50.5 -20.5t20.5 -50.5t-20.5 -50.5t-50.5 -20.5t-50 20.5t-20 50.5z" />
<glyph horiz-adv-x="586" d="M284 459v-15l-58 -61v-220q0 -30 3.5 -54t15 -41t32 -26.5t53.5 -9.5q71 0 96 31t25 99v221l-58 61v15h165v-15l-57 -61v-225q0 -39 -8.5 -72t-28.5 -56t-52.5 -35.5t-81.5 -12.5q-118 0 -182.5 47t-64.5 150v204l-57 61v15h258zM546 689q-7 -42 -25 -74 q-14 -29 -39.5 -52t-66.5 -23q-35 0 -56.5 10.5t-37.5 23t-32 23.5t-38 11q-25 0 -42 -9t-29 -20q-13 -12 -21 -29h-26q7 41 25 75q7 13 16.5 27t23 24t30 17t36.5 7q35 0 56.5 -11t37.5 -23t31 -23t39 -11q25 0 42 9t29 20q12 12 21 28h26z" />
<glyph horiz-adv-x="586" d="M284 459v-15l-58 -61v-220q0 -30 3.5 -54t15 -41t32 -26.5t53.5 -9.5q71 0 96 31t25 99v221l-58 61v15h165v-15l-57 -61v-225q0 -39 -8.5 -72t-28.5 -56t-52.5 -35.5t-81.5 -12.5q-118 0 -182.5 47t-64.5 150v204l-57 61v15h258zM237 637q0 43 29 69t75 26t75 -26t29 -69 t-29 -69t-75 -26t-75 26t-29 69zM306 637q0 -14 9 -24.5t26 -10.5t26 10.5t9 24.5t-9 24.5t-26 10.5t-26 -10.5t-9 -24.5z" />
<glyph horiz-adv-x="586" d="M284 459v-15l-58 -61v-220q0 -30 3.5 -54t15 -41t32 -26.5t53.5 -9.5q71 0 96 31t25 99v221l-58 61v15h165v-15l-57 -61v-225q0 -39 -8.5 -72t-28.5 -56t-52.5 -35.5t-81.5 -12.5q-118 0 -182.5 47t-64.5 150v204l-57 61v15h258zM197 621h293v-77h-293v77z" />
<glyph horiz-adv-x="586" d="M284 459v-15l-58 -61v-220q0 -30 3.5 -54t15 -41t32 -26.5t53.5 -9.5q71 0 96 31t25 99v221l-58 61v15h165v-15l-57 -61v-225q0 -39 -8.5 -72t-28.5 -56t-52.5 -35.5t-81.5 -12.5q-118 0 -182.5 47t-64.5 150v204l-57 61v15h258zM147 517h-37l94 138q15 23 30 32.5 t44 9.5q24 0 40.5 -14.5t16.5 -44.5q0 -20 -8.5 -31t-24.5 -19zM364 517h-37l94 138q15 23 30 32.5t44 9.5q24 0 40.5 -14.5t16.5 -44.5q0 -20 -8.5 -31t-24.5 -19z" />
<glyph horiz-adv-x="586" d="M239 -102q2 24 18 42.5t34 31.5q6 5 13 11q-105 5 -163 51.5t-58 144.5v204l-57 61v15h258v-15l-58 -61v-220q0 -30 3.5 -54t15 -41t32 -26.5t53.5 -9.5q71 0 96 31t25 99v221l-58 61v15h165v-15l-57 -61v-225q0 -69 -27.5 -115t-96.5 -57q-8 -6 -17 -14q-15 -13 -28 -31 t-13 -39q0 -13 7.5 -23t22.5 -10q30 0 50 25.5t35 60.5l75 -49q-38 -49 -83.5 -67t-89.5 -18q-54 0 -77.5 21.5t-19.5 55.5z" />
<glyph horiz-adv-x="803" d="M795 459v-15l-60 -61l-138 -383h-100l-91 239l-92 -239h-97l-145 383l-67 61v15h245v-15l-38 -61l91 -241l6 -46l5 46l64 169l-27 72l-58 61v15h234v-15l-37 -61l93 -241l6 -46l5 46l86 241l-45 61v15h160zM305 691l107 -58l106 58h37l-115 -165h-56l-115 165h36z" />
<glyph horiz-adv-x="519" d="M156 0v14l57 62v107l-133 212l-62 49v15h250v-15l-41 -49l62 -100l9 -36l9 24l70 112l-41 49v15h163v-15l-61 -49l-82 -133v-186l58 -62v-14h-258zM223 517h-37l95 138q15 23 30 32.5t43 9.5q24 0 41 -14.5t17 -44.5q0 -20 -9 -31t-24 -19z" />
<glyph horiz-adv-x="519" d="M156 0v14l57 62v107l-133 212l-62 49v15h250v-15l-41 -49l62 -100l9 -36l9 24l70 112l-41 49v15h163v-15l-61 -49l-82 -133v-186l58 -62v-14h-258zM130 616q0 30 20.5 50.5t50.5 20.5t50 -20.5t20 -50.5t-20.5 -50.5t-49.5 -20.5q-30 0 -50.5 20.5t-20.5 50.5zM327 616 q0 30 20.5 50.5t49.5 20.5q30 0 50.5 -20.5t20.5 -50.5t-20.5 -50.5t-50.5 -20.5t-50 20.5t-20 50.5z" />
<glyph horiz-adv-x="451" d="M419 459l-220 -409h151l69 101h14l-20 -151h-398l221 409h-114l-67 -95h-14l20 145h358zM170 517h-37l95 138q15 23 30 32.5t43 9.5q24 0 41 -14.5t17 -44.5q0 -20 -9 -31t-24 -19z" />
<glyph horiz-adv-x="451" d="M419 459l-220 -409h151l69 101h14l-20 -151h-398l221 409h-114l-67 -95h-14l20 145h358zM154 626q0 35 24.5 59t58.5 24t58.5 -24t24.5 -59t-24.5 -59t-58.5 -24t-58.5 24t-24.5 59z" />
<glyph horiz-adv-x="960" d="M577 404q18 29 52.5 48t77.5 19q104 0 162.5 -64t58.5 -178q0 -52 -14.5 -96.5t-42 -76.5t-69 -50t-95.5 -18q-42 0 -72 8.5t-51.5 23t-35 33t-23.5 37.5l-78 -90h-14v666l-14 15h-115q-34 0 -52 -18t-18 -68v-122l15 -14h94v-51h-94l-15 -15v-326l63 -53v-14h-268v14 l62 53v326l-14 15h-57v51h57l14 14v43q0 45 9.5 84.5t32.5 68.5t61.5 46t99.5 17h125l158 42v-370zM679 38q30 0 50 16t31.5 42t16 60.5t4.5 72.5t-4.5 73t-16 61t-31.5 42t-50 16q-27 0 -46.5 -14t-31.5 -36.5t-18 -51.5t-6 -59v-61q0 -30 6 -59t18 -51.5t31.5 -36.5 t46.5 -14z" />
<glyph horiz-adv-x="1005" d="M926 67l62 -53v-14h-268v14l62 53v270q0 37 -18 54t-48 17q-24 0 -49 -14t-47 -32q-27 -19 -52 -44v-251l63 -53v-14h-269v14l63 53v499q0 55 -22 91t-73 36q-49 0 -72.5 -35.5t-23.5 -91.5v-93l15 -14h94v-67h-94l-15 -14v-311l63 -53v-14h-268v14l62 53v311l-14 14h-57 v67h57l14 14v43q0 47 14 89t42.5 73t73.5 48.5t109 17.5q112 0 175 -50t63 -143v-180q31 28 65 50q29 18 64.5 34t71.5 16q77 0 117 -36t40 -109v-259z" />
<glyph horiz-adv-x="843" d="M77 459l14 14v53q0 45 11 85t34.5 70t62.5 46.5t95 16.5q43 0 76 -10.5t63 -36.5q15 -13 22 -26.5t7 -25.5q0 -30 -19.5 -42.5t-40.5 -12.5q-14 0 -25 8t-17 27q-11 43 -27 55.5t-39 12.5q-34 0 -47 -30.5t-13 -85.5v-104l15 -14h325v-87q25 46 65 72t89 26q22 0 42.5 -7 t36 -20.5t25 -31.5t9.5 -40q0 -29 -18 -43.5t-39 -14.5q-24 0 -39 14.5t-18 45.5q-2 24 -11 36.5t-28 12.5q-22 0 -42 -16.5t-36 -44t-26 -65t-10 -78.5v-151l63 -53v-14h-268v14l62 53v326l-14 15h-168l-15 -15v-326l63 -53v-14h-268v14l62 53v326l-14 15h-57v51h57z" />
<glyph horiz-adv-x="792" d="M77 459l14 14v53q0 45 11 85t34.5 70t62.5 46.5t95 16.5q43 0 76 -10.5t63 -36.5q15 -13 22 -26.5t7 -25.5q0 -30 -19.5 -42.5t-40.5 -12.5q-14 0 -25 8t-17 27q-11 43 -27 55.5t-39 12.5q-34 0 -47 -30.5t-13 -85.5v-104l15 -14h279v-15l-40 -43l86 -226l4 -29l5 35 l85 220l-39 43v15h152v-15l-63 -52l-221 -585q-13 -34 -26 -52.5t-26 -28.5t-25 -12t-25 -2q-27 0 -42.5 17t-15.5 43q0 18 12 33.5t39 19.5q38 5 55 18t29 39l41 109l-178 417h-86l-15 -15v-326l63 -53v-14h-268v14l62 53v326l-14 15h-57v51h57z" />
<glyph horiz-adv-x="1173" d="M1162 444l-63 -52l-221 -585q-13 -34 -26 -52.5t-26 -28.5t-25.5 -12t-24.5 -2q-27 0 -42.5 16t-15.5 44q0 18 12 33.5t39 19.5q38 5 55 18t29 39l41 109l-178 417h-94l-15 -15v-326l63 -53v-14h-269v14l63 53v326l-14 15h-201l-15 -15v-326l63 -53v-14h-268v14l62 53 v326l-14 15h-57v51h57l14 14v58q0 34 12.5 64t36 51.5t57.5 34t77 12.5q39 0 69 -11t56 -36q13 -11 19 -23t6 -23q0 -26 -17 -39.5t-37 -13.5q-17 0 -28.5 8.5t-16.5 29.5q-8 35 -20.5 46t-30.5 11q-27 0 -33.5 -23.5t-6.5 -54.5v-91l15 -14h201l14 14v53q0 45 10.5 85 t34 70t62.5 46.5t96 16.5q43 0 76 -10.5t63 -36.5q15 -13 22 -26.5t7 -25.5q0 -27 -19 -41t-41 -14q-14 0 -25.5 8t-16.5 27q-11 43 -27 55.5t-39 12.5q-34 0 -47 -30.5t-13 -85.5v-104l15 -14h287v-15l-40 -43l86 -226l3 -29l6 35l85 220l-39 43v15h152v-15z" />
<glyph horiz-adv-x="964" d="M778 133q0 -44 15.5 -69t56.5 -25q28 0 47 17t43 53l22 -16q-14 -26 -28 -45.5t-31.5 -33t-39.5 -20t-53 -6.5q-46 0 -79.5 12.5t-55 35.5t-31 55.5t-9.5 71.5v231l-14 15h-63v21q82 18 115.5 54.5t33.5 79.5q0 61 -49 95.5t-134 34.5q-43 0 -78.5 -11t-63 -30 t-46.5 -44.5t-28 -54.5q9 -17 28 -37q15 -17 40 -38t64 -44q11 -7 21 -14t19 -15q14 -14 20.5 -27.5t6.5 -27.5q0 -27 -16.5 -45t-45.5 -18q-20 0 -34 10.5t-20 35.5q-7 28 -16.5 44.5t-22 26t-28 13t-33.5 3.5q-25 0 -46 -13t-37.5 -37.5t-25.5 -60t-9 -81.5 q0 -86 36 -138.5t110 -52.5q44 0 83 26t79 88l28 -34q-35 -62 -82.5 -96t-119.5 -34q-62 0 -114 15t-88.5 46t-57 76t-20.5 104q0 58 21.5 103.5t57 76t84 46.5t101.5 16h13l-128 83q14 47 51.5 83t87 60t104 35.5t105.5 11.5q121 0 187.5 -44t66.5 -136v-91l15 -14h95v-50 h-95l-15 -15v-261z" />
<glyph horiz-adv-x="691" d="M505 133q0 -44 15.5 -69t56.5 -25q28 0 47 17t43 53l21 -16q-14 -26 -28 -45.5t-31.5 -33t-39.5 -20t-52 -6.5q-46 0 -79.5 12.5t-55 35.5t-31.5 55.5t-10 71.5v231l-14 15h-62v21q43 9 74 25.5t51 36.5t30 41.5t10 38.5q0 58 -27.5 90t-76.5 32q-52 0 -79 -25.5 t-37 -66.5q-14 -67 -76 -66q-30 0 -51.5 18t-21.5 52q0 40 23.5 66t58 42.5t75 23t73.5 6.5q43 0 79 -10t61 -31t39.5 -53.5t14.5 -77.5v-99l14 -14h95v-50h-95l-14 -15v-261zM223 67l63 -53v-14h-269v14l63 53v305l-63 52v14l206 42v-413z" />
<glyph horiz-adv-x="1245" d="M1165 67l63 -53v-14h-269v14l63 53v270q0 37 -18 54t-49 17q-24 0 -48.5 -14t-47.5 -32q-27 -19 -51 -44v-251l62 -53v-14h-268v14l63 53v597l-14 13h-193l-15 -14v-562l76 -87v-14h-308v14l76 87v562l-15 14h-144l-97 -132h-15l28 187h607l157 42v-403q31 28 64 50 q29 18 65 34t72 16q77 0 116.5 -36t39.5 -109v-259z" />
<glyph horiz-adv-x="1031" d="M219 -12q-39 0 -70 7t-55 19t-41 25.5t-26 26.5v124h20q23 -71 67 -111.5t105 -40.5q39 0 55.5 20.5t16.5 53.5q0 24 -19 37.5t-47 23.5t-61.5 20.5t-61.5 27t-47 43t-19 70.5q0 34 16.5 59.5t43.5 43t61 26t71 8.5h8l-128 83q12 44 41 79.5t68 60t84 37.5t89 13 q95 0 150 -43.5t55 -136.5v-199q9 18 23 37t36 34.5t52.5 25t72.5 9.5q54 0 95.5 -18.5t69.5 -50.5t42 -76t14 -97q0 -114 -58 -177.5t-163 -63.5q-43 0 -77.5 18.5t-52.5 47.5v-263l63 -52v-14h-269v14l63 52v601l-63 52v15q77 20 77 105q0 60 -31 91.5t-99 31.5 q-59 0 -96 -37t-54 -96q10 -16 28 -35q15 -16 39.5 -36.5t60.5 -44.5l13 -7v-138h-16q-16 59 -48.5 93.5t-73.5 34.5q-32 0 -53.5 -18t-21.5 -54q0 -26 19.5 -40t48 -24t62.5 -18t62.5 -23t48 -39t19.5 -64q0 -41 -18.5 -70t-48 -47.5t-67 -27t-75.5 -8.5zM752 421 q-27 0 -46.5 -14t-31.5 -36.5t-18.5 -51.5t-6.5 -59v-61q0 -30 6.5 -58.5t18.5 -51.5t31.5 -37t46.5 -14q30 0 49.5 16t31.5 42t16.5 60.5t4.5 72.5t-4.5 73t-16.5 61t-31.5 42t-49.5 16z" />
<glyph horiz-adv-x="912" d="M476 365q9 18 23 37t36 34.5t52.5 25t72.5 9.5q54 0 96 -18.5t69.5 -50.5t42 -76t14.5 -97q0 -114 -58.5 -177.5t-163.5 -63.5q-43 0 -77.5 18.5t-52.5 47.5v-263l63 -52v-14h-268v14l62 52v601l-62 52v15q33 10 55 41.5t22 84.5q0 97 -83 97q-69 0 -87 -80 q-8 -36 -29 -51.5t-47 -15.5q-28 0 -50.5 17t-22.5 54q0 12 5 30q8 28 27.5 48.5t47 33.5t61.5 19.5t73 6.5q81 0 130 -37.5t49 -121.5v-220zM223 67l63 -53v-14h-269v14l63 53v305l-63 52v14l206 42v-413zM633 421q-27 0 -46.5 -14t-31.5 -36.5t-18.5 -51.5t-6.5 -59v-61 q0 -30 6.5 -58.5t18.5 -51.5t31.5 -37t46.5 -14q30 0 49.5 16t31.5 42t16.5 60.5t4.5 72.5t-4.5 73t-16.5 61t-31.5 42t-49.5 16z" />
<glyph horiz-adv-x="708" d="M657 23q0 -8 -6 -15.5t-16 -7.5q-3 0 -7 1l-274 79l-273 -79q-4 -1 -7 -1q-10 0 -16.5 7t-6.5 16v609q0 17 17 22l276 80q6 2 10 2t11 -2l276 -80q16 -5 16 -22v-609zM332 685l-236 -69q3 -48 22.5 -90t51 -74t73 -52.5t89.5 -24.5v310zM377 375q47 4 89 24.5t73 52.5 t50.5 74t22.5 90l-235 69v-310zM95 52l237 69v209q-76 6 -138 44.5t-99 99.5v-422zM613 474q-38 -61 -99 -99.5t-137 -44.5v-209l236 -69v422z" />
</font>
</defs>
</svg>
