<?xml version="1.0" standalone="no"?>
<!DOCTYPE svg PUBLIC "-//W3C//DTD SVG 1.1//EN" "http://www.w3.org/Graphics/SVG/1.1/DTD/svg11.dtd" >
<svg xmlns="http://www.w3.org/2000/svg" xmlns:xlink="http://www.w3.org/1999/xlink" version="1.1">
<metadata></metadata>
<defs>
<font id="fortescue_proregular" horiz-adv-x="348" >
<font-face units-per-em="1024" ascent="768" descent="-256" />
<missing-glyph horiz-adv-x="250" />
<glyph unicode="ff" horiz-adv-x="649" d="M180 466l7 -7h220l7 7v127q0 71 36 111t111 40q30 0 63.5 -8t62.5 -33q14 -11 20 -22.5t6 -23.5q0 -20 -16 -34.5t-37 -14.5q-15 0 -29 11t-19 35q-6 27 -19.5 35t-31.5 8q-33 0 -43 -23.5t-10 -67.5v-140l7 -7h102v-47h-102l-7 -8v-364l54 -33v-7h-203v7l55 33v364l-7 8 h-220l-7 -8v-364l54 -33v-7h-202v7l54 33v364l-7 8h-59v47h59l7 7v69q0 36 6.5 65t23 50t42.5 32t66 11q30 0 62.5 -7t59.5 -34q22 -22 22 -44t-16 -36.5t-36 -14.5q-14 0 -27 11t-18 35q-6 27 -17.5 35t-29.5 8q-28 0 -36 -23.5t-8 -67.5v-89z" />
<glyph unicode="fi" horiz-adv-x="572" d="M180 466l7 -7h306v-419l54 -33v-7h-203v7l54 33v364l-7 8h-204l-7 -8v-364l54 -33v-7h-202v7l54 33v364l-7 8h-59v47h59l7 7v74q0 44 12 81t36 65t60 43t86 15q23 0 47 -3t46.5 -12t42 -25t34.5 -41q10 -19 10 -37q0 -22 -13.5 -34.5t-30.5 -12.5q-16 0 -30 12.5 t-19 42.5q-7 40 -32.5 51.5t-54.5 11.5q-19 0 -37.5 -7t-32 -24.5t-22 -48t-8.5 -77.5v-74z" />
<glyph unicode="fl" horiz-adv-x="571" d="M180 466l7 -7h103v-47h-103l-7 -8v-364l54 -33v-7h-202v7l54 33v364l-7 8h-59v47h59l7 7v55q0 51 11.5 90.5t37.5 66.5t69 40.5t106 13.5h183v-692l54 -33v-7h-203v7l54 33v640l-5 5h-83q-30 0 -53.5 -7t-40.5 -25.5t-26.5 -50.5t-9.5 -81v-55z" />
<glyph unicode="ffi" horiz-adv-x="884" d="M180 466l7 -7h220l7 7v74q0 44 11.5 81t35.5 65t60.5 43t85.5 15q23 0 47.5 -3t47 -12t42 -25t33.5 -41q10 -19 10 -37q0 -22 -13 -34.5t-31 -12.5q-16 0 -30 12.5t-19 42.5q-7 40 -32 51.5t-55 11.5q-19 0 -37 -7t-32 -24.5t-22 -48t-8 -77.5v-74l7 -7h305v-419l39 -33 v-7h-172v7l39 33v364l-7 8h-204l-7 -8v-364l54 -33v-7h-203v7l55 33v364l-7 8h-220l-7 -8v-364l54 -33v-7h-202v7l54 33v364l-7 8h-59v47h59l7 7v69q0 36 6.5 65t23 50t42.5 32t66 11q30 0 62.5 -7t59.5 -34q22 -22 22 -44t-16 -36.5t-36 -14.5q-14 0 -27 11t-18 35 q-6 27 -17.5 35t-29.5 8q-28 0 -36 -23.5t-8 -67.5v-89z" />
<glyph unicode="ffl" horiz-adv-x="899" d="M508 466l7 -7h102v-47h-102l-7 -8v-364l54 -33v-7h-203v7l55 33v364l-7 8h-220l-7 -8v-364l54 -33v-7h-202v7l54 33v364l-7 8h-59v47h59l7 7v69q0 36 6.5 65t23 50t42.5 32t66 11q30 0 62.5 -7t59.5 -34q22 -22 22 -44t-16 -36.5t-36 -14.5q-14 0 -27 11t-18 35 q-6 27 -17.5 35t-29.5 8q-28 0 -36 -23.5t-8 -67.5v-89l7 -7h220l7 7v55q0 51 11 90.5t37 66.5t69 40.5t107 13.5h182v-692l54 -33v-7h-202v7l54 33v640l-5 5h-83q-30 0 -53.5 -7t-41 -25.5t-26.5 -50.5t-9 -81v-55z" />
<glyph unicode="fj" horiz-adv-x="548" d="M180 466l7 -7h306v-459q0 -69 -10 -113t-31.5 -75.5t-56 -56t-82.5 -55.5l-7 18q34 31 53 59t27.5 57.5t10 62t1.5 72.5v435l-7 8h-204l-7 -8v-364l54 -33v-7h-202v7l54 33v364l-7 8h-59v47h59l7 7v74q0 44 12 81t36 65t60 43t86 15q23 0 47 -3t46.5 -12t42 -25t34.5 -41 q10 -19 10 -37q0 -22 -13.5 -34.5t-30.5 -12.5q-16 0 -30 12.5t-19 42.5q-7 40 -32.5 51.5t-54.5 11.5q-19 0 -37.5 -7t-32 -24.5t-22 -48t-8.5 -77.5v-74z" />
<glyph unicode="ffj" horiz-adv-x="876" d="M180 466l7 -7h220l7 7v74q0 44 11.5 81t35.5 65t60.5 43t85.5 15q23 0 47.5 -3t47 -12t42 -25t33.5 -41q10 -19 10 -37q0 -22 -13 -34.5t-31 -12.5q-16 0 -30 12.5t-19 42.5q-7 40 -32 51.5t-55 11.5q-19 0 -37 -7t-32 -24.5t-22 -48t-8 -77.5v-74l7 -7h305v-459 q0 -69 -9.5 -113t-31 -75.5t-56 -56t-82.5 -55.5l-7 18q34 31 53 59t27.5 57.5t10 62t1.5 72.5v435l-7 8h-204l-7 -8v-364l54 -33v-7h-203v7l55 33v364l-7 8h-220l-7 -8v-364l54 -33v-7h-202v7l54 33v364l-7 8h-59v47h59l7 7v82q0 26 6.5 52t23 47t42.5 33.5t66 12.5 q30 0 62.5 -7t59.5 -34q22 -22 22 -44t-16 -36.5t-36 -14.5q-14 0 -27 11t-18 35q-6 27 -17.5 35t-29.5 8q-28 0 -36 -23.5t-8 -67.5v-89z" />
<glyph unicode=" "  horiz-adv-x="250" />
<glyph unicode="&#x09;" horiz-adv-x="250" />
<glyph unicode="&#xa0;" horiz-adv-x="250" />
<glyph unicode="!" horiz-adv-x="310" d="M145 210l-37 472q0 27 16.5 44.5t42.5 17.5t42.5 -17.5t16.5 -44.5l-38 -472h-43zM100 54q0 27 19.5 47t47.5 20t47 -20t19 -47q0 -28 -19 -47t-47 -19t-47.5 19t-19.5 47z" />
<glyph unicode="&#x22;" horiz-adv-x="353" d="M89 469q-8 28 -15.5 55.5t-15 53.5t-11.5 48t-4 39q0 29 14 48t41 19q28 0 42 -19.5t14 -47.5q0 -16 -4.5 -38.5t-11.5 -48.5t-15 -53.5t-15 -55.5h-19zM248 469q-8 28 -16 55.5t-15 53.5t-11 48t-4 39q0 29 13.5 48t41.5 19t41.5 -19.5t13.5 -47.5q0 -16 -4 -38.5 t-11 -48.5t-15.5 -53.5t-15.5 -55.5h-18z" />
<glyph unicode="#" horiz-adv-x="563" d="M31 483h157l63 249h51l-62 -249h131l62 249h51l-62 -249h140v-51h-153l-33 -132h155v-51h-169l-62 -249h-51l62 249h-131l-62 -249h-51l62 249h-128v51h141l33 132h-144v51zM194 300h131l32 132h-131z" />
<glyph unicode="$" horiz-adv-x="563" d="M270 -11q-41 3 -78 13t-68.5 27.5t-54.5 41t-35 52.5q-8 17 -8 37q0 27 16 41.5t37 14.5q18 0 34.5 -13t20.5 -48q5 -55 41.5 -79.5t94.5 -28.5v291q-39 13 -77 29t-69 40t-50 59t-19 86q0 48 19 83t50 58t69 35t77 15v107h52v-107q44 -2 82.5 -12.5t71.5 -34.5 q27 -19 38 -38t11 -35q0 -19 -12.5 -31.5t-30.5 -12.5q-17 0 -35 13t-30 43q-16 33 -38 44t-57 13v-270q39 -14 78 -30.5t70.5 -39.5t51.5 -55.5t20 -79.5q0 -46 -14 -86.5t-41 -70.5t-68.5 -49t-96.5 -22v-107h-52v107zM436 188q0 26 -9 46t-24.5 35.5t-36.5 27t-44 21.5 v-270q60 8 87 47t27 93zM161 573q0 -25 8.5 -44t23 -34.5t34.5 -28t43 -23.5v247q-22 -4 -41 -12.5t-34.5 -23.5t-24.5 -35t-9 -46z" />
<glyph unicode="%" horiz-adv-x="644" d="M507 732l41 -23l-412 -709l-41 24zM310 596q0 -30 -9.5 -55.5t-26.5 -45t-41 -30t-52 -10.5t-52 10.5t-40.5 30t-26.5 45t-10 55.5t10 55.5t26.5 45t41 30t51.5 10.5q28 0 52 -10.5t41 -30t26.5 -45t9.5 -55.5zM251 596q0 49 -16.5 80.5t-53.5 31.5t-52.5 -31.5 t-15.5 -80.5t15.5 -80.5t52.5 -31.5t53.5 31.5t16.5 80.5zM592 136q0 -30 -10 -55.5t-26.5 -45t-41 -30t-51.5 -10.5q-28 0 -52 10.5t-41 30t-26.5 45t-9.5 55.5t9.5 55.5t26.5 45t41 30.5t52 11t52 -11t40.5 -30.5t26.5 -45t10 -55.5zM532 136q0 49 -16 80.5t-53 31.5 t-53 -31.5t-16 -80.5t16 -80t53 -31t53 31t16 80z" />
<glyph unicode="&#x26;" horiz-adv-x="710" d="M681 -12q-43 0 -77.5 3.5t-62 12t-49 22t-38.5 33.5q-37 -36 -84 -53.5t-110 -17.5q-49 0 -90 14.5t-71 42t-46.5 64t-16.5 80.5q0 38 12.5 71.5t34.5 61.5t52 50t64 40q-22 32 -36.5 56t-22.5 44t-11 38t-3 38q0 35 15 63t40 48t57 31t67 11q41 0 73.5 -10.5t55.5 -29.5 t35 -44.5t12 -55.5q0 -31 -8.5 -56t-27.5 -47t-49.5 -42.5t-73.5 -40.5l162 -241q27 48 44.5 100.5t28.5 94.5l-64 46v7h123v-7l-9 -33q-24 -78 -46 -139.5t-50 -108.5q23 -30 39.5 -51.5t34.5 -36.5t40.5 -25t55.5 -17v-16zM310 50q34 0 62.5 13t52.5 34l-196 272 q-49 -33 -69.5 -74t-20.5 -79q0 -82 47.5 -124t123.5 -42zM216 604q0 -13 3.5 -27.5t12.5 -29.5l66 -97q56 26 79.5 60.5t23.5 78.5q0 51 -25 76t-71 25q-40 0 -64.5 -24.5t-24.5 -61.5z" />
<glyph unicode="'" horiz-adv-x="164" d="M72 469q-8 28 -16 55.5t-15 53.5t-11 48t-4 39q0 29 13.5 48t41.5 19t41.5 -19.5t13.5 -47.5q0 -16 -4 -38.5t-11 -48.5t-15.5 -53.5t-15.5 -55.5h-18z" />
<glyph unicode="(" horiz-adv-x="318" d="M43 289q0 151 61 262.5t178 194.5l11 -14q-43 -44 -74 -89.5t-51 -98t-29.5 -115t-9.5 -140.5t9.5 -140.5t29.5 -115t51 -98.5t74 -90l-11 -14q-117 84 -178 195.5t-61 262.5z" />
<glyph unicode=")" horiz-adv-x="318" d="M275 289q0 -151 -60.5 -262.5t-177.5 -195.5l-11 14q43 44 73.5 90t50.5 98.5t29.5 115t9.5 140.5t-9.5 140.5t-29.5 115t-50.5 98t-73.5 89.5l11 14q117 -84 177.5 -195t60.5 -262z" />
<glyph unicode="*" horiz-adv-x="460" d="M203 506l-117 -54l-6 8l100 95l-100 94l6 10l117 -54l20 127h11l21 -128l119 55l6 -10l-101 -94l101 -95l-6 -8l-119 55l-21 -129h-11z" />
<glyph unicode="+" horiz-adv-x="522" d="M286 528v-197h198v-51h-198v-198h-52v198h-197v51h197v197h52z" />
<glyph unicode="," horiz-adv-x="243" d="M48 54q0 27 19.5 47t47.5 20q39 0 57 -26t18 -72q0 -50 -26 -100.5t-85 -93.5l-11 10q36 34 48.5 58.5t12.5 53.5q0 17 -6.5 26t-26.5 14q-26 6 -37 22.5t-11 40.5z" />
<glyph unicode="-" horiz-adv-x="432" d="M35 349h356v-51h-356v51z" />
<glyph unicode="." horiz-adv-x="243" d="M48 54q0 27 19.5 47t47.5 20q27 0 46.5 -20t19.5 -47q0 -28 -20 -47t-46 -19q-28 0 -47.5 19t-19.5 47z" />
<glyph unicode="/" horiz-adv-x="419" d="M343 732h87l-353 -732h-87z" />
<glyph unicode="0" horiz-adv-x="593" d="M297 744q61 0 111.5 -26t86.5 -75t56 -119t20 -157q0 -88 -20 -158.5t-56 -119.5t-86.5 -75t-111.5 -26t-111.5 26t-87 75t-56 119.5t-19.5 158.5q0 87 19.5 157t56 119t87 75t111.5 26zM297 39q43 0 75 23.5t53.5 66.5t32 103.5t10.5 134.5t-10.5 134t-32 102.5 t-53.5 66t-75 23.5t-75.5 -23.5t-54 -66t-31.5 -103t-10 -133.5q0 -74 10 -134.5t31.5 -103.5t54 -66.5t75.5 -23.5z" />
<glyph unicode="1" horiz-adv-x="593" d="M199 0v7l69 51v540q0 33 -7 47t-33 14t-75 -12v13l219 102v-704l69 -51v-7h-242z" />
<glyph unicode="2" horiz-adv-x="593" d="M450 99l80 116h8l-36 -215h-470v15q24 23 59.5 57t75.5 77.5t80 92t71.5 99.5t51.5 102t20 97q0 72 -32.5 111t-97.5 39q-34 0 -63 -16t-53 -40.5t-41.5 -54t-26.5 -57.5l-33 12q9 33 27.5 69.5t49 68t74 52t101.5 20.5q44 0 81 -14t64 -40t42 -61.5t15 -76.5 q0 -110 -80.5 -220.5t-222.5 -232.5h256z" />
<glyph unicode="3" horiz-adv-x="593" d="M368 406q32 -8 61.5 -22.5t52.5 -37t36.5 -53.5t13.5 -72q0 -57 -19 -100.5t-54 -73.5t-82.5 -44.5t-104.5 -14.5q-94 0 -152.5 31.5t-80.5 80.5q-8 16 -8 34q0 26 17 40t38 14q17 0 33.5 -11t22.5 -38q5 -22 14 -39.5t24 -31.5t37.5 -21.5t54.5 -7.5q78 0 117.5 50.5 t39.5 131.5q0 36 -15.5 63.5t-42 47.5t-62 32.5t-75.5 17.5v27q30 0 59.5 9t53 27.5t37.5 47t14 67.5q0 65 -32 98t-96 33q-54 0 -95 -32t-66 -81l-36 12q14 31 33.5 58.5t46.5 49t62 34t81 12.5q40 0 75.5 -12.5t62.5 -35.5t43 -55.5t16 -71.5q0 -62 -34.5 -104.5 t-90.5 -58.5z" />
<glyph unicode="4" horiz-adv-x="593" d="M534 281v-52h-111v-171l70 -51v-7h-247v7l69 51v171h-283v13l379 520h12v-481h111zM315 543l-190 -262h190v262z" />
<glyph unicode="5" horiz-adv-x="593" d="M305 500q40 0 81.5 -13t75 -41t54.5 -72.5t21 -109.5q0 -77 -25 -129.5t-63 -85.5t-86 -47t-94 -14q-96 0 -150 28.5t-77 77.5q-5 9 -6.5 18t-1.5 17q0 26 16 40t36 14q17 0 32.5 -12t20.5 -40q10 -49 45.5 -70.5t84.5 -21.5q43 0 73.5 18t49.5 47t27.5 66t8.5 76 q0 95 -37 147.5t-112 52.5q-29 0 -54.5 -10.5t-47.5 -28t-40.5 -39.5t-32.5 -45h-43l53 409h390l-14 -86h-335l-28 -224q24 30 71 54t107 24z" />
<glyph unicode="6" horiz-adv-x="593" d="M327 443q42 0 77.5 -14t62 -42t41 -67.5t14.5 -90.5q0 -112 -58 -176.5t-165 -64.5q-39 0 -79 10.5t-72.5 40t-53.5 82t-21 135.5q0 67 15.5 123t42.5 103.5t60 86t69 68.5q83 71 189 115l13 -32q-65 -32 -121 -81q-24 -20 -48.5 -46.5t-46 -58.5t-39.5 -70t-28 -82 q30 33 68 47t80 14zM299 39q120 0 120 177q0 87 -32.5 130.5t-87.5 43.5q-52 0 -87.5 -43.5t-35.5 -130.5q0 -93 32 -135t91 -42z" />
<glyph unicode="7" horiz-adv-x="593" d="M548 732l-268 -732h-76q14 19 24 41q5 11 11 22l208 570h-264l-99 -114h-7l21 213h450z" />
<glyph unicode="8" horiz-adv-x="593" d="M527 209q0 -54 -19 -95.5t-50.5 -69.5t-73 -42t-87.5 -14q-47 0 -89 10t-73.5 33t-49.5 61t-18 92q0 61 39 114.5t110 80.5q-23 16 -43 34t-35.5 39.5t-24.5 47.5t-9 59q0 48 17 83t44.5 58t61.5 33.5t70 10.5q40 0 74.5 -12t59 -35t38.5 -56.5t14 -74.5 q0 -50 -28.5 -91.5t-79.5 -60.5q29 -17 56.5 -37t49 -44.5t34 -54.5t12.5 -69zM264 348q-49 -29 -70 -72.5t-21 -87.5q0 -67 30 -108t94 -41q34 0 57.5 11t38.5 30.5t21.5 45t6.5 52.5q0 30 -13.5 54t-36 44t-50.5 37.5t-57 34.5zM197 584q0 -25 11 -45.5t30 -38t43.5 -32.5 t51.5 -31q32 16 48 54t16 91q0 52 -28 81.5t-72 29.5q-45 0 -72.5 -28.5t-27.5 -80.5z" />
<glyph unicode="9" horiz-adv-x="593" d="M268 289q-42 0 -77.5 14t-62 42t-41 68t-14.5 90q0 112 58 176.5t165 64.5q38 0 78.5 -10.5t73 -39.5t53.5 -82t21 -136q0 -67 -16.5 -123.5t-42.5 -103.5t-60 -85.5t-69 -68.5q-83 -71 -188 -114l-13 31q65 32 121 81q24 20 48.5 46.5t46 58.5t39.5 70t28 82 q-30 -33 -68 -47t-80 -14zM296 693q-120 0 -120 -177q0 -87 32.5 -130.5t87.5 -43.5q52 0 87.5 43.5t35.5 130.5q0 93 -32 135t-91 42z" />
<glyph unicode=":" horiz-adv-x="243" d="M48 54q0 27 19.5 47t47.5 20q27 0 46.5 -20t19.5 -47q0 -28 -20 -47t-46 -19q-28 0 -47.5 19t-19.5 47zM48 402q0 27 19.5 47t47.5 20q27 0 46.5 -20t19.5 -47q0 -28 -20 -47t-46 -19q-28 0 -47.5 19t-19.5 47z" />
<glyph unicode=";" horiz-adv-x="243" d="M48 402q0 27 19.5 47t47.5 20q27 0 46.5 -20t19.5 -47q0 -28 -20 -47t-46 -19q-28 0 -47.5 19t-19.5 47zM48 54q0 27 19.5 47t47.5 20q39 0 57 -26t18 -72q0 -50 -26 -100.5t-85 -93.5l-11 10q36 34 48.5 58.5t12.5 53.5q0 33 -33 40q-26 6 -37 22.5t-11 40.5z" />
<glyph unicode="&#x3c;" horiz-adv-x="522" d="M482 520v-65l-347 -195l347 -194v-66l-443 251v18z" />
<glyph unicode="=" horiz-adv-x="522" d="M42 459h438v-51h-438v51zM42 267h438v-51h-438v51z" />
<glyph unicode="&#x3e;" horiz-adv-x="522" d="M483 269v-18l-443 -251v66l347 194l-347 195v65z" />
<glyph unicode="?" horiz-adv-x="571" d="M284 199v66q0 38 10 64.5t26 47t34.5 38.5t34 39t26 48.5t10.5 67.5q0 59 -33.5 93t-85.5 34q-33 0 -55 -9.5t-36 -27.5t-24 -43t-18 -57q-5 -20 -20.5 -30.5t-32.5 -10.5q-20 0 -36.5 13t-16.5 37q0 18 12 43q31 61 85.5 96.5t141.5 35.5q49 0 90 -11t71.5 -33t46.5 -54 t16 -72q0 -25 -4.5 -47.5t-17 -45.5t-35.5 -47.5t-59 -52.5q-30 -24 -47.5 -44t-26.5 -41.5t-11.5 -45t-2.5 -51.5h-42zM238 54q0 27 19 47t47 20t47.5 -20t19.5 -47q0 -28 -19.5 -47t-47.5 -19t-47 19t-19 47z" />
<glyph unicode="@" horiz-adv-x="935" d="M673 77q-43 0 -66.5 25t-23.5 64q-28 -44 -64 -66.5t-89 -22.5q-66 0 -100 40t-34 103q0 41 16.5 80.5t44 70.5t65.5 50.5t81 19.5q73 0 90 -56l8 39h69l-43 -223q-1 -5 -1.5 -10t-0.5 -10q0 -26 12.5 -38.5t32.5 -12.5q49 0 70 48.5t21 135.5q0 68 -20.5 119t-57 85.5 t-85.5 51.5t-108 17q-56 0 -109 -22.5t-94.5 -65.5t-66.5 -105.5t-25 -142.5q0 -83 25 -144.5t66.5 -102t94.5 -60t109 -19.5q37 0 75.5 4.5t78 19t79 39.5t77.5 67l15 -14q-29 -43 -66 -75t-79 -52t-87.5 -30.5t-92.5 -10.5q-81 0 -152 28.5t-123.5 79.5t-83.5 120t-31 150 q0 80 31 150.5t83.5 123.5t124 83.5t151.5 30.5q77 0 141 -23t110 -65t72 -102.5t26 -134.5q0 -55 -12.5 -99t-35 -74.5t-52.5 -47t-66 -16.5zM445 130q36 0 61.5 15t42.5 40t25 57t8 67q0 36 -18 58t-55 22q-33 0 -57.5 -16t-41.5 -41t-25 -56t-8 -61q0 -37 14.5 -61 t53.5 -24z" />
<glyph unicode="A" horiz-adv-x="751" d="M563 58l-74 179h-279l-74 -179l70 -51v-7h-196v7l70 51l288 698h18l287 -698l68 -51v-7h-247v7zM469 288l-109 261l-9 42l-6 -27l-114 -276h238z" />
<glyph unicode="B" horiz-adv-x="658" d="M316 732q38 0 82.5 -7t82.5 -27t63 -56t25 -94q0 -36 -11.5 -63t-30.5 -46t-42.5 -30.5t-47.5 -15.5q29 -5 60 -17t56.5 -33.5t41.5 -54.5t16 -77q0 -56 -18 -96t-49 -65.5t-73.5 -37.5t-90.5 -12h-353v7l69 51v616l-69 51v7h289zM211 51h122q46 0 76.5 12t50 33.5 t28 50.5t8.5 64q0 47 -14.5 78.5t-40 49.5t-62 26t-80.5 8h-88l-7 -8v-307zM204 427l7 -7h106q24 0 49.5 5t46.5 19.5t35 39t14 64.5q0 41 -13 67t-34.5 40.5t-50.5 20t-61 5.5h-92l-7 -7v-247z" />
<glyph unicode="C" horiz-adv-x="723" d="M392 693q-59 0 -104 -25t-75 -68.5t-45 -103.5t-15 -129q0 -74 18.5 -134.5t53 -103.5t81.5 -66.5t104 -23.5q84 0 148 40t109 129l28 -20q-40 -100 -112.5 -150t-172.5 -50q-91 0 -162.5 27t-119.5 76.5t-73 120t-25 155.5q0 80 27 149t75.5 119.5t116 79.5t147.5 29 q42 0 98 -10t108 -35v-165h-16q-8 30 -22.5 58.5t-37.5 51t-56 36t-78 13.5z" />
<glyph unicode="D" horiz-adv-x="742" d="M28 0v7l69 51v616l-69 51v7h324q83 0 148.5 -27t111.5 -76t70.5 -116.5t24.5 -146.5q0 -80 -24.5 -147t-70.5 -116t-111.5 -76t-148.5 -27h-324zM205 58l7 -7h125q67 0 115.5 22.5t79.5 64t46.5 99.5t15.5 129t-15.5 128.5t-46.5 99t-80 64.5t-115 23h-125l-7 -7v-616z " />
<glyph unicode="E" horiz-adv-x="630" d="M210 366l-7 -8v-300l7 -7h285l99 114h7l-26 -165h-549v7l69 51v616l-69 51v7h520l18 -150h-7l-72 99h-275l-7 -7v-250l7 -7h248l35 59h6v-169h-6l-35 59h-248z" />
<glyph unicode="F" horiz-adv-x="586" d="M443 359h-232l-8 -7v-294l69 -51v-7h-246v7l69 51v616l-69 51v7h519l18 -150h-7l-72 99h-273l-8 -7v-256l8 -7h232l35 59h6v-169h-6z" />
<glyph unicode="G" horiz-adv-x="714" d="M630 117q0 -13 3 -22t7 -15q4 -7 11 -11q-46 -45 -97.5 -63t-119.5 -18q-95 0 -170.5 26t-127.5 75t-79 119.5t-27 158.5q0 80 29 149t80.5 119.5t121.5 79.5t150 29q25 0 53 -2.5t57 -7.5t57 -14.5t52 -23.5v-162h-15q-9 28 -23.5 55.5t-38.5 51t-59.5 38t-85.5 14.5 q-57 0 -104.5 -24t-81 -67t-51.5 -103.5t-18 -131.5q0 -74 19 -134.5t56.5 -103.5t91.5 -66.5t123 -23.5q13 0 27 1.5t25.5 5.5t19 12t7.5 21v193l-7 8h-82v51h266v-7l-69 -52v-155v0z" />
<glyph unicode="H" horiz-adv-x="784" d="M32 725v7h247v-7l-70 -51v-234l7 -7h352l7 7v234l-69 51v7h247v-7l-70 -51v-616l70 -51v-7h-247v7l69 51v317l-7 7h-352l-7 -7v-317l70 -51v-7h-247v7l69 51v616z" />
<glyph unicode="I" horiz-adv-x="308" d="M208 58l70 -51v-7h-247v7l69 51v616l-69 51v7h247v-7l-70 -51v-616z" />
<glyph unicode="J" horiz-adv-x="309" d="M37 725v7h247v-7l-70 -51v-674q0 -50 -13 -96.5t-43 -86.5t-79.5 -70.5t-123.5 -46.5v32q83 30 117 89.5t34 152.5v700z" />
<glyph unicode="K" horiz-adv-x="665" d="M27 0v7l69 51v616l-69 51v7h246v-7l-69 -51v-259l288 279l-45 31v7h190v-7l-91 -50l-240 -233l72 25l287 -511l-77 43l-82 59l-242 344l-60 -58v-286l69 -51v-7h-246z" />
<glyph unicode="L" horiz-adv-x="592" d="M26 725v7h246v-7l-69 -51v-616l7 -7h264l99 114h8l-26 -165h-529v7l69 51v616z" />
<glyph unicode="M" horiz-adv-x="896" d="M621 0v7l69 51v567l-10 -48l-240 -577h-54l-231 568l-9 57v-567l69 -51v-7h-189v7l69 51v616l-69 51v7h183l219 -539l13 -65l13 49l229 555h183v-7l-68 -51v-616l68 -51v-7h-245z" />
<glyph unicode="N" horiz-adv-x="747" d="M721 732v-7l-70 -51v-674l-493 588l-12 47v-577l69 -51v-7h-189v7l69 51v616l-69 51v7h151l411 -489l12 -48v479l-70 51v7h191z" />
<glyph unicode="O" horiz-adv-x="786" d="M630 367q0 72 -15 131.5t-44 103t-73.5 67.5t-104.5 24t-104 -24t-74 -67.5t-44 -103.5t-14 -131t14 -131t44 -104t74 -68.5t104 -24.5q59 0 104 24.5t74 68.5t44 104t15 131zM753 367q0 -80 -26.5 -149.5t-73.5 -120.5t-113.5 -80t-146.5 -29q-81 0 -147 29t-113 80 t-73 120.5t-26 149.5t26 149t73 119.5t113 79.5t147 29q80 0 146.5 -29t113.5 -79.5t73.5 -119.5t26.5 -149z" />
<glyph unicode="P" horiz-adv-x="612" d="M312 732q43 0 91.5 -7.5t89.5 -31.5t67.5 -67t26.5 -114t-26.5 -114t-67.5 -67t-89.5 -31.5t-91.5 -7.5h-99l-8 -7v-227l69 -51v-7h-246v7l69 51v616l-69 51v7h284zM205 351l8 -8h74q44 0 79 6t60.5 24.5t39 51.5t13.5 87q0 53 -13.5 86.5t-39 52t-60.5 24.5t-79 6h-74 l-8 -7v-323z" />
<glyph unicode="Q" horiz-adv-x="786" d="M753 367q0 -80 -26.5 -149.5t-73.5 -120.5t-113.5 -80t-146.5 -29h-19.5t-15.5 1t-13 2l-17 -40q16 5 31 6.5t29 1.5q30 0 56.5 -7t50 -19t44 -27t36.5 -29q22 -18 46 -18q14 0 25 5t21 11q10 7 19 16q0 -2 1 -5q2 -6 2 -13t-2.5 -16t-10 -18t-22 -17.5t-38.5 -15.5 q-11 -3 -20.5 -4t-20.5 -1q-28 0 -53.5 9.5t-48.5 23t-43 30t-38 32.5l-5 4q-10 8 -22.5 11.5t-25.5 3.5q-27 0 -52 -9t-48 -24q1 1 3.5 8t6 15.5l7 17t5.5 14.5q6 16 6 29q0 43 -47 63q-88 47 -137 136t-49 202q0 80 26 149t73 119.5t113 79.5t147 29q80 0 146.5 -29 t113.5 -79.5t73.5 -119.5t26.5 -149zM630 367q0 72 -15 131.5t-44 103t-73.5 67.5t-104.5 24t-104 -24t-74 -67.5t-44 -103.5t-14 -131t14 -131t44 -104t74 -68.5t104 -24.5q59 0 104 24.5t74 68.5t44 104t15 131z" />
<glyph unicode="R" horiz-adv-x="678" d="M97 674l-69 51v7h333q15 0 39.5 -2t51.5 -8.5t53.5 -20.5t49 -36.5t35.5 -56t13 -80.5t-16 -82t-42.5 -60.5t-62 -40.5t-73.5 -21l49 -15l219 -353l-107 44l-80 58l-167 259h-111l-7 -7v-252l69 -51v-7h-246v7l69 51v616zM205 376l7 -7h99q37 0 70.5 9.5t58.5 29t40.5 48 t15.5 65.5q0 48 -17.5 79.5t-42 49.5t-52 24.5t-46.5 6.5h-126l-7 -7v-298z" />
<glyph unicode="S" horiz-adv-x="581" d="M541 217q0 -49 -15 -91t-45.5 -72.5t-76.5 -48t-107 -17.5q-37 0 -75.5 7t-73 20.5t-65 33.5t-50.5 46v188h28q12 -49 31 -94t46.5 -78t65.5 -52.5t88 -19.5q38 0 65 11.5t44.5 32t25.5 48t8 57.5q0 45 -28 72t-70.5 45.5t-91.5 34.5t-91.5 42t-71 65t-28.5 105 q0 52 22.5 89t57.5 60t78 33t84 10q52 0 99.5 -10t94.5 -37v-159h-20q-6 71 -51 113t-119 42q-25 0 -49.5 -7t-45 -22t-33 -37.5t-12.5 -53.5q0 -45 28 -72t70.5 -46.5t91.5 -36.5t91.5 -41.5t71 -62t28.5 -97.5z" />
<glyph unicode="T" horiz-adv-x="706" d="M666 732l25 -165h-7l-79 114h-190l-7 -7v-616l69 -51v-7h-247v7l70 51v616l-7 7h-191l-78 -114h-8l26 165h624z" />
<glyph unicode="U" horiz-adv-x="768" d="M272 732v-7l-69 -51v-404q0 -44 7.5 -86.5t30 -76t64 -54t110.5 -20.5t110 14t64 43.5t31 73t8 100.5v410l-70 51v7h191v-7l-70 -51v-448q0 -48 -11 -92.5t-40 -78t-80.5 -53.5t-132.5 -20q-90 0 -151.5 17t-99 53t-53.5 90.5t-16 127.5v404l-69 51v7h246z" />
<glyph unicode="V" horiz-adv-x="712" d="M709 732v-7l-70 -51l-262 -674h-47l-254 674l-70 51v7h251v-7l-70 -51l183 -484l12 -53l9 40l193 497l-70 51v7h195z" />
<glyph unicode="W" horiz-adv-x="1138" d="M247 732v-7l-58 -51l177 -467l18 -81l15 68l138 345l-53 135l-69 51v7h251v-7l-70 -51l185 -491l14 -57l7 32l200 516l-69 51v7h194v-7l-69 -51l-262 -674h-56l-177 466l-184 -466h-49l-255 674l-70 51v7h242z" />
<glyph unicode="X" horiz-adv-x="824" d="M351 372l-239 302l-70 51v7h247v-7l-48 -35l182 -231l180 216l-69 50v7h215v-7l-80 -51l-213 -256l284 -360l70 -51v-7h-280v7l70 51l-217 274l-227 -274l69 -51v-7h-215v7l80 51z" />
<glyph unicode="Y" horiz-adv-x="696" d="M243 0v7l69 51v267l-224 349l-70 51v7h271v-7l-70 -51l150 -232l14 -61l13 58l149 235l-70 51v7h201v-7l-70 -51l-186 -294v-322l69 -51v-7h-246z" />
<glyph unicode="Z" horiz-adv-x="647" d="M602 732l-424 -681h368l79 114h7l-26 -165h-596l423 681h-300l-61 -99h-7l18 150h519z" />
<glyph unicode="[" horiz-adv-x="347" d="M310 -110v-51h-228v893h229v-51h-123l-7 -7v-776l7 -8h122z" />
<glyph unicode="\" horiz-adv-x="419" d="M430 0h-87l-353 732h87z" />
<glyph unicode="]" horiz-adv-x="347" d="M159 -110l7 8v776l-7 7h-123v51h229v-893h-229v51h123z" />
<glyph unicode="^" horiz-adv-x="509" d="M484 367h-86l-143 237l-143 -237h-86l220 365h18z" />
<glyph unicode="_" horiz-adv-x="524" d="M0 0h524v-51h-524v51z" />
<glyph unicode="`" horiz-adv-x="337" d="M101 610q-15 8 -21.5 19.5t-6.5 22.5q0 19 13.5 34t36.5 15q12 0 25.5 -5t24.5 -21l91 -138h-23l-140 73v0z" />
<glyph unicode="a" horiz-adv-x="487" d="M425 40l54 -33v-7h-148v50q-22 -30 -58.5 -46t-83.5 -16q-31 0 -59 5.5t-49.5 20t-34.5 38.5t-13 61q0 44 27 73.5t69.5 49t96 29.5t105.5 16v37q0 55 -20 80.5t-69 25.5q-39 0 -65.5 -14.5t-38.5 -59.5q-6 -25 -21 -35.5t-30 -10.5q-17 0 -30.5 11t-13.5 31q0 23 20 49 q17 22 39 36.5t46 23.5t48 12.5t46 3.5q54 0 89.5 -13t56.5 -35.5t29 -51.5t8 -63v-268zM331 239q-46 -4 -83 -11.5t-63 -20t-40 -34t-14 -54.5q0 -41 23.5 -62.5t56.5 -21.5q55 0 87.5 33t32.5 82v89z" />
<glyph unicode="b" horiz-adv-x="546" d="M284 471q51 0 93.5 -17.5t73 -49t47.5 -76t17 -99.5q0 -50 -16 -94t-45.5 -76.5t-72.5 -51.5t-97 -19q-49 0 -90 23.5t-63 59.5l-64 -71h-8v698l-54 27v7l149 42v-370q18 29 54.5 48t75.5 19zM284 35q62 0 93 51.5t31 142.5q0 93 -31 144t-93 51q-27 0 -50.5 -10t-41 -27 t-28 -41.5t-10.5 -54.5v-134q0 -28 10.5 -50t28 -38.5t41 -25t50.5 -8.5z" />
<glyph unicode="c" horiz-adv-x="501" d="M472 101q-11 -22 -30.5 -42t-45 -36t-55.5 -25.5t-59 -9.5q-53 0 -100 15t-81 46t-54 76t-20 104q0 58 22 103.5t56.5 76t77.5 46.5t86 16q42 0 84.5 -13t73.5 -42q18 -17 26 -33.5t8 -31.5q0 -22 -14.5 -35t-31.5 -13q-15 0 -30 12.5t-23 41.5q-7 31 -27.5 49t-65.5 18 q-36 0 -61 -16.5t-41.5 -43.5t-24.5 -62.5t-8 -72.5q0 -90 40.5 -142t107.5 -52q54 0 97 25t73 71z" />
<glyph unicode="d" horiz-adv-x="551" d="M416 71q-22 -36 -63 -59.5t-90 -23.5q-54 0 -97 19t-73 51.5t-45.5 76.5t-15.5 94q0 54 17 99t47.5 76.5t73 49t93.5 17.5q39 0 75.5 -19t54.5 -48v294l-54 27v7l148 42v-734l55 -33v-7h-126v71zM139 229q0 -91 31 -142.5t93 -51.5q26 0 50 8.5t41.5 25t28 38.5t10.5 50 v134q0 30 -10.5 54.5t-28 41.5t-41.5 27t-50 10q-62 0 -93 -51t-31 -144z" />
<glyph unicode="e" horiz-adv-x="500" d="M480 125q-30 -63 -79.5 -100t-118.5 -37q-54 0 -100.5 15t-80 46t-52.5 76t-19 104q0 54 19.5 99t51.5 76.5t74 49t87 17.5q46 0 85.5 -16.5t67.5 -45t44.5 -67.5t16.5 -84v-29h-339q0 -98 38.5 -146t106.5 -48q22 0 45 4t46 16.5t44 34.5t39 57zM260 424 q-33 0 -55.5 -13t-36.5 -34t-21.5 -47.5t-8.5 -53.5h244v10q0 25 -6.5 49t-21.5 44t-38 32.5t-56 12.5z" />
<glyph unicode="f" horiz-adv-x="321" d="M180 466l7 -7h103v-47h-103l-7 -8v-364l54 -33v-7h-202v7l54 33v364l-7 8h-59v47h59l7 7v127q0 71 36.5 111t110.5 40q30 0 64 -8t62 -33q14 -11 20 -22.5t6 -23.5q0 -20 -16 -34.5t-36 -14.5q-15 0 -29 11t-19 35q-6 27 -20 35t-32 8q-33 0 -43 -23.5t-10 -67.5v-140z " />
<glyph unicode="g" horiz-adv-x="569" d="M264 -41q-41 3 -71.5 6t-53.5 9q-31 -31 -30 -82q0 -37 14.5 -62.5t39 -42t57.5 -24.5t69 -8q35 0 67 7.5t56.5 20.5t39 32.5t14.5 43.5q0 30 -19 48t-48.5 29t-65.5 15.5t-69 7.5zM274 185q53 0 83 35t30 87q0 25 -7.5 47t-22 38.5t-35.5 26t-48 9.5t-47 -9.5t-34.5 -26 t-22 -38.5t-7.5 -47q0 -52 29.5 -87t81.5 -35zM274 472q33 0 66 -7.5t60 -24.5l138 53l8 -11l-87 -100q8 -15 12.5 -34.5t4.5 -40.5q0 -43 -17.5 -74t-46 -51t-65 -30t-73.5 -10h-7q-27 0 -54 -9.5t-47 -20.5q-26 -13 -47 -31q8 -8 28 -15q17 -6 51 -12.5t92 -9.5 q37 -2 82.5 -8.5t85 -23t66.5 -46t27 -79.5q0 -51 -27.5 -84.5t-69 -53.5t-89.5 -28.5t-86 -8.5q-39 0 -83.5 10t-83 31.5t-64 55.5t-25.5 83q0 42 18.5 70t39.5 38q-12 9 -20.5 22t-13 25.5t-6 24.5t-1.5 21l129 70q-43 20 -69 55t-26 89q0 43 18 74.5t46.5 51.5t64 29.5 t71.5 9.5z" />
<glyph unicode="h" horiz-adv-x="558" d="M492 40l54 -33v-7h-203v7l54 33v286q0 49 -23 67t-57 18q-24 0 -51.5 -14.5t-51.5 -31.5q-28 -20 -56 -47v-278l54 -33v-7h-203v7l54 33v658l-54 27v7l149 42v-403q36 28 71 50q31 18 67.5 34t67.5 16q68 0 98 -39.5t30 -105.5v-286z" />
<glyph unicode="i" horiz-adv-x="243" d="M47 669q0 27 18.5 45t45.5 18t45 -18.5t18 -44.5q0 -27 -18.5 -45.5t-44.5 -18.5q-27 0 -45.5 18.5t-18.5 45.5zM164 40l54 -33v-7h-203v7l55 33v364l-55 26v7l149 43v-440z" />
<glyph unicode="j" horiz-adv-x="230" d="M71 404l-55 26v7l149 43v-480q0 -69 -10 -113t-31.5 -75.5t-55.5 -56t-82 -55.5l-8 18q34 31 53 59t28 57.5t10.5 62t1.5 72.5v435zM174 669q0 -27 -18 -45.5t-44 -18.5q-27 0 -45 18.5t-18 45.5q0 26 18 44t45 18t44.5 -18t17.5 -44z" />
<glyph unicode="k" horiz-adv-x="463" d="M476 -44l-94 44l-46 40l-137 224l-42 -34v-190l54 -33v-7h-203v7l54 33v658l-54 27v7l149 42v-481l154 132l-43 27v7h185v-7l-83 -40l-124 -106l23 10z" />
<glyph unicode="l" horiz-adv-x="249" d="M171 40l54 -33v-7h-202v7l54 33v658l-54 27v7l148 42v-734z" />
<glyph unicode="m" horiz-adv-x="845" d="M771 40l54 -33v-7h-202v7l54 33v286q0 49 -19 67t-53 18q-24 0 -47.5 -14.5t-43.5 -31.5q-23 -20 -43 -47v-278l54 -33v-7h-202v7l54 33v286q0 49 -19 67t-53 18q-24 0 -48 -14.5t-43 -31.5q-23 -20 -43 -47v-278l54 -33v-7h-202v7l54 33v364l-54 27v7l148 42v-109 q27 28 56 50q26 18 58 34t66 16q56 0 83 -27.5t34 -75.5q1 1 17.5 17t42.5 35.5t58 35t65 15.5q68 0 94 -39.5t26 -105.5v-286z" />
<glyph unicode="n" horiz-adv-x="567" d="M493 40l54 -33v-7h-203v7l54 33v286q0 49 -18.5 67t-51.5 18q-24 0 -51.5 -14.5t-51.5 -31.5q-28 -20 -54 -47v-278l54 -33v-7h-202v7l54 33v364l-54 27v7l148 42v-109q36 28 72 50q31 18 66 34t65 16q68 0 93.5 -39.5t25.5 -105.5v-286z" />
<glyph unicode="o" horiz-adv-x="538" d="M514 229q0 -50 -18.5 -94t-51 -76.5t-77 -51.5t-98.5 -19q-53 0 -97.5 19t-77.5 51.5t-51 76.5t-18 94t18 94.5t51 77t77.5 51.5t97.5 19t98 -19t77.5 -51.5t51 -77t18.5 -94.5zM407 229q0 41 -8.5 77t-25.5 62t-43 41t-61 15q-36 0 -61.5 -15t-42.5 -41t-25 -62t-8 -77 q0 -42 8 -77t25 -61t42.5 -41t61.5 -15q35 0 61 15t43 41t25.5 61t8.5 77z" />
<glyph unicode="p" horiz-adv-x="551" d="M138 388q22 36 63 59.5t90 23.5q54 0 97 -19t72.5 -51.5t45.5 -76.5t16 -95q0 -54 -17 -98.5t-47.5 -76t-73 -49t-93.5 -17.5q-39 0 -75.5 19t-54.5 47v-290l54 -32v-7h-203v7l55 32v655l-55 33v7h126v-71zM415 229q0 91 -31 143t-93 52q-27 0 -50.5 -8.5t-41 -25 t-28 -38.5t-10.5 -50v-136q0 -30 10.5 -54t28 -41t41 -26.5t50.5 -9.5q62 0 93 50.5t31 143.5z" />
<glyph unicode="q" horiz-adv-x="553" d="M540 -267v-8h-203v8l54 33v288q-18 -29 -55 -47.5t-75 -18.5q-51 0 -93.5 17.5t-73.5 49t-47.5 76t-16.5 98.5q0 50 15.5 94.5t45.5 77t73 51.5t97 19q49 0 88.5 -23.5t63.5 -57.5l65 69h7v-693zM261 35q26 0 50 9.5t41.5 26.5t28 41t10.5 54v136q0 28 -10.5 50t-28 38.5 t-41.5 25t-50 8.5q-62 0 -93 -51.5t-31 -143.5q0 -93 31 -143.5t93 -50.5z" />
<glyph unicode="r" horiz-adv-x="412" d="M12 0v7l55 33v364l-55 27v7l149 42v-109q27 41 64.5 70t84.5 29t78 -29t31 -71q0 -24 -13.5 -36.5t-30.5 -12.5t-32.5 13t-20.5 43q-4 27 -15 37.5t-29 10.5q-17 0 -38 -14.5t-38.5 -39.5t-29 -58t-11.5 -70v-203l54 -33v-7h-203z" />
<glyph unicode="s" horiz-adv-x="415" d="M203 -12q-29 0 -56.5 5.5t-50.5 14.5t-41.5 21.5t-28.5 24.5v123h16q24 -75 66 -108.5t95 -33.5q42 0 67 20t25 63q0 26 -19 39.5t-47.5 23t-62 18.5t-62 24.5t-47.5 41.5t-19 69q0 37 16.5 63t41.5 42.5t56 24t61 7.5q33 0 71 -8.5t68 -25.5v-114h-10q-16 57 -50.5 79 t-75.5 22q-15 0 -30.5 -4t-28 -13.5t-20 -23.5t-7.5 -36q0 -26 19.5 -40.5t48 -25t62.5 -19t62.5 -22.5t48 -37t19.5 -62q0 -41 -15.5 -70t-41.5 -47.5t-59.5 -27t-70.5 -8.5z" />
<glyph unicode="t" horiz-adv-x="359" d="M176 130q0 -39 16.5 -66.5t55.5 -27.5q37 0 58.5 15.5t32.5 30.5l18 -14q-5 -8 -14 -22t-24 -27t-36 -22t-50 -9q-76 0 -113.5 37t-37.5 109v270l-7 8h-60v18q43 15 70.5 48t43.5 67q18 40 29 85h18v-164l7 -7h103v-47h-103l-7 -8v-274z" />
<glyph unicode="u" horiz-adv-x="553" d="M66 404l-55 27v7l149 42v-347q0 -49 18.5 -67t51.5 -18q24 0 51.5 14.5t51.5 31.5q27 19 54 46v264l-54 27v7l148 42v-440l55 -33v-7h-149v88q-34 -29 -68 -50q-30 -19 -64 -34.5t-66 -15.5q-36 0 -59.5 10t-37.5 29t-20 46t-6 60v271z" />
<glyph unicode="v" horiz-adv-x="506" d="M495 452l-54 -32l-161 -420h-50l-161 419l-56 33v7h200v-7l-44 -27l106 -275l9 -35l10 46l102 265l-43 26v7h142v-7z" />
<glyph unicode="w" horiz-adv-x="723" d="M732 452l-52 -32l-146 -420h-52l-109 313l-110 -313h-50l-146 419l-56 33v7h196v-7l-42 -26l87 -247l14 -64l19 81l92 263h47l98 -280l15 -64l18 81l80 229l-43 27v7h140v-7z" />
<glyph unicode="x" horiz-adv-x="508" d="M315 7l36 22l-117 161l-122 -154l47 -29v-7h-154v7l54 33l147 186l-146 196l-48 30v7h176v-7l-31 -20l102 -136l100 126l-47 30v7h156v-7l-54 -33l-127 -158l166 -223l51 -31v-7h-189v7z" />
<glyph unicode="y" horiz-adv-x="476" d="M468 452l-55 -33l-232 -612q-15 -34 -28 -52.5t-24.5 -28.5t-23 -12t-23.5 -2q-24 0 -35.5 14.5t-11.5 31.5q0 14 8.5 27t27.5 18q20 5 33.5 9t22.5 9.5t14.5 13.5t12.5 22l56 153l-159 410l-53 32v7h193v-7l-43 -26l104 -267l8 -34l8 38l102 263l-42 26v7h140v-7z" />
<glyph unicode="z" horiz-adv-x="461" d="M435 102v-102h-409l278 412h-208l-33 -57h-7v104h378l-279 -412h240l33 55h7z" />
<glyph unicode="{" horiz-adv-x="512" d="M174 286l25 -3q36 -8 53.5 -33.5t17.5 -65.5v-201q0 -39 9.5 -63.5t25.5 -39t36 -19.5t43 -5v-17q-45 0 -82.5 4t-64 16.5t-41.5 35.5t-15 61v208q0 52 -17 81t-53 29v23q37 0 53.5 29t16.5 82v207q0 38 15 61t41.5 35.5t64 16.5t82.5 4v-16q-23 0 -43 -5t-36 -19.5 t-25.5 -39t-9.5 -63.5v-202q0 -40 -18 -65t-53 -33z" />
<glyph unicode="|" horiz-adv-x="204" d="M77 732h51v-1007h-51v1007z" />
<glyph unicode="}" horiz-adv-x="512" d="M313 289q-36 8 -53.5 33t-17.5 65v202q0 39 -9.5 63.5t-25.5 39t-36 19.5t-43 5v16q45 0 82.5 -4t64 -16.5t41.5 -35.5t15 -61v-207q0 -52 17 -81.5t53 -29.5v-23q-37 0 -53.5 -29t-16.5 -81v-208q0 -38 -15 -61t-41.5 -35.5t-64 -16.5t-82.5 -4v17q23 0 43 5t36 19.5 t25.5 39t9.5 63.5v201q0 40 18 65t53 34l25 3z" />
<glyph unicode="~" horiz-adv-x="580" d="M542 383q-3 -50 -22 -89q-8 -17 -19.5 -33t-28 -28.5t-38.5 -20t-51 -7.5q-39 0 -64 14.5t-45.5 33t-41 33.5t-50.5 15q-38 0 -60 -16t-34 -34q-14 -22 -19 -49h-25q3 49 22 89q7 16 18.5 32t28.5 29t39 20.5t52 7.5q39 0 63.5 -15t45 -33.5t41 -33t50.5 -14.5 q37 0 59.5 15t35.5 34q14 22 19 50h24z" />
<glyph unicode="&#xa1;" horiz-adv-x="310" d="M122 522.013l-37 -471.971q0 -26.999 16.5 -44.498t42.5 -17.499t42.5 17.499t16.5 44.498l-38 471.971h-43zM77 678.003q0 -26.998 19.5 -46.9971q19.5 -19.998 47.5 -19.998t47 19.998q19 19.999 19 46.9971q0 27.999 -19 46.9971q-19 18.999 -47 18.999t-47.5 -18.999 q-19.5 -18.998 -19.5 -46.9971z" />
<glyph unicode="&#xa2;" horiz-adv-x="563" d="M267 41q-46 5 -86 23t-68.5 47.5t-45 72t-16.5 97.5q0 53 19 95.5t49.5 72.5t69 48t78.5 23v140h51v-139q36 -3 71.5 -16t62.5 -38q18 -17 25.5 -33.5t7.5 -31.5q0 -22 -14 -35t-32 -13q-15 0 -30 12.5t-22 42.5q-6 27 -21.5 43t-47.5 21v-387q49 3 89 27.5t69 68.5 l21 -29q-10 -20 -28.5 -40.5t-43 -36t-51.5 -25.5t-56 -12v-138h-51v140zM159 281q0 -77 29 -126.5t79 -63.5v381q-29 -6 -49 -24t-33.5 -44t-19.5 -57.5t-6 -65.5z" />
<glyph unicode="&#xa3;" horiz-adv-x="563" d="M91 402h87q-14 19 -29.5 40t-28 43.5t-21 48t-8.5 57.5q0 38 14.5 66.5t40 48t60.5 29t76 9.5q50 0 96 -17.5t76 -68.5q5 -8 6.5 -15t1.5 -13q0 -20 -16 -33t-35 -13q-14 0 -27 8.5t-18 28.5q-13 45 -32.5 60.5t-51.5 15.5q-35 0 -55.5 -26.5t-20.5 -75.5q0 -32 8 -57 t20 -47.5t25 -43.5t23 -45h109v-47h-97q1 -6 1.5 -12.5t0.5 -12.5q0 -39 -10 -76t-25 -69.5t-35 -59.5t-42 -46h191l100 131h7l-33 -210h-399v10q39 33 71 65.5t54 66t34 70.5t12 80q0 17 -4 33t-11 30h-115v47z" />
<glyph unicode="&#xa4;" horiz-adv-x="563" d="M399 58q-24 -17 -53 -27.5t-64 -10.5q-36 0 -66 10.5t-53 27.5l-48 -61l-45 45l61 48q-38 50 -38 119t38 119l-62 49l45 45l48 -64q24 18 54 29t66 11t65 -10t52 -29l50 63l45 -45l-63 -49q18 -25 28.5 -55t10.5 -64t-10 -64t-29 -55l63 -48l-45 -45zM156 209 q0 -60 33.5 -98t92.5 -38q58 0 92 37.5t34 98.5q0 60 -34 98.5t-92 38.5t-92 -38.5t-34 -98.5z" />
<glyph unicode="&#xa5;" horiz-adv-x="563" d="M129 367h115l-195 307l-69 51v7h270v-7l-70 -51l150 -237l14 -61l13 58l139 240l-70 51v7h210v-7l-70 -51l-185 -307h144v-52h-144v-56h144v-51h-144v-150l70 -51v-7h-247v7l69 51v150h-144v51h144v56h-144v52z" />
<glyph unicode="&#xa6;" horiz-adv-x="204" d="M77 282v450h51v-450h-51zM128 175v-450h-51v450h51z" />
<glyph unicode="&#xa7;" horiz-adv-x="563" d="M96 578q0 44 15.5 75t41 51.5t58 30t64.5 9.5q62 0 109.5 -19.5t74.5 -69.5q9 -22 9 -38q0 -22 -12.5 -34t-28.5 -12q-15 0 -30 12t-23 38q-13 45 -36 60.5t-63 15.5q-36 0 -60 -24.5t-24 -81.5q0 -42 20 -72t51 -54.5t65.5 -47t65.5 -49t51 -61t20 -83.5t-29 -90.5 t-68 -72.5q41 -31 70 -73t29 -109q0 -44 -16 -75t-41 -51.5t-57.5 -30.5t-64.5 -10q-62 0 -109.5 20t-74.5 69q-9 22 -9 38q0 22 12.5 34t28.5 12q15 0 30 -11.5t23 -37.5q13 -45 36 -61t63 -16q35 0 59.5 25t24.5 82q0 42 -20 71.5t-51 54t-65.5 47t-65.5 49.5t-51 61 t-20 83t29 90.5t68 71.5q-20 15 -38 33.5t-31.5 40.5t-21.5 49t-8 61zM372 201q0 29 -11.5 51t-29.5 41t-41.5 35.5t-47.5 32.5q-22 -22 -37 -48t-15 -57q0 -30 11 -52.5t29.5 -41.5t42 -35t48.5 -33q20 23 35.5 49.5t15.5 57.5z" />
<glyph unicode="&#xa8;" horiz-adv-x="337" d="M138 675q0 -24 -17 -41t-40 -17q-24 0 -40 17t-16 41t16 40.5t40 16.5t40.5 -16.5t16.5 -40.5zM313 675q0 -24 -16.5 -41t-40.5 -17t-40 17t-16 41t16 40.5t40 16.5t40.5 -16.5t16.5 -40.5z" />
<glyph unicode="&#xa9;" horiz-adv-x="839" d="M41 366q0 79 29.5 148t81.5 120t120.5 80.5t147.5 29.5q78 0 147 -29.5t120.5 -80.5t81.5 -120.5t30 -147.5q0 -79 -30 -147.5t-81.5 -120t-120.5 -81t-147 -29.5q-79 0 -147.5 29.5t-120.5 81t-81.5 120t-29.5 147.5zM110 366q0 -67 23.5 -125t65.5 -101.5t98 -68.5 t123 -25q66 0 122.5 25t98.5 68.5t65.5 101.5t23.5 125t-23.5 125t-65.5 101.5t-99 68.5t-122 25q-67 0 -123 -25t-98 -68.5t-65.5 -101.5t-23.5 -125zM433 554q-68 0 -105.5 -50.5t-37.5 -137.5q0 -45 12.5 -80.5t34 -59.5t50 -36.5t57.5 -12.5q49 0 89.5 23.5t69.5 79.5 l20 -18q-9 -31 -28.5 -55t-43 -40.5t-51.5 -25.5t-56 -9q-58 0 -105.5 17t-81.5 47.5t-53 73.5t-19 96q0 49 20.5 92t55 74t80 49t95.5 18q26 0 62.5 -6.5t68.5 -22.5v-116h-10q-5 18 -15 36.5t-24.5 32.5t-35.5 22.5t-49 8.5z" />
<glyph unicode="&#xaa;" horiz-adv-x="315" d="M273.931 302.287l36.8379 -22.5117v-4.77539h-100.964v34.1094q-15.0078 -20.4658 -39.9082 -31.3809q-24.8994 -10.915 -56.9629 -10.915q-21.1475 0 -40.249 3.75195t-33.7686 13.6445q-14.667 9.8916 -23.5352 26.2637q-8.86816 16.373 -8.86816 41.6143 q0 30.0156 18.4189 50.1406t47.4121 33.4268q28.9932 13.3027 65.4902 20.125t71.9707 10.915v25.2412q0 37.5205 -13.6436 54.916t-47.0713 17.3955q-26.6055 0 -44.6836 -9.8916t-26.2637 -40.5898q-4.09375 -17.0547 -14.3262 -24.2178 q-10.2334 -7.16309 -20.4658 -7.16309q-11.5977 0 -20.8066 7.50391q-9.20996 7.50391 -9.20996 21.1484q0 15.6904 13.6436 33.4268q11.5977 15.0088 26.6055 24.9004q15.0088 9.8916 31.3809 16.0312q16.373 6.13965 32.7451 8.52734q16.373 2.3877 31.3809 2.3877 q36.8379 0 61.0557 -8.86816q24.2178 -8.86914 38.5439 -24.2178q14.3262 -15.3496 19.7842 -35.1328q5.45703 -19.7842 5.45703 -42.9785v-182.827zM209.805 438.043q-31.3809 -2.72852 -56.6211 -7.84473q-25.2412 -5.11621 -42.9785 -13.6436t-27.2871 -23.1943 q-9.55078 -14.667 -9.55078 -37.1797q0 -27.9697 16.0312 -42.6367t38.5439 -14.667q37.5205 0 59.6914 22.5117q22.1709 22.5127 22.1709 55.9395v60.7148z" />
<glyph unicode="&#xab;" horiz-adv-x="515" d="M290 520v-86l-169 -174l169 -174v-86l-249 251v18zM469 520v-86l-169 -174l169 -174v-86l-249 251v18z" />
<glyph unicode="&#xac;" horiz-adv-x="522" d="M92 298h338v-186h-51v128l-7 7h-280v51z" />
<glyph unicode="&#xad;" horiz-adv-x="432" d="M35 349h356v-51h-356v51z" />
<glyph unicode="&#xae;" horiz-adv-x="839" d="M41 366q0 79 29.5 148t81.5 120t120.5 80.5t147.5 29.5q78 0 147 -29.5t120.5 -80.5t81.5 -120.5t30 -147.5q0 -79 -30 -147.5t-81.5 -120t-120.5 -81t-147 -29.5q-79 0 -147.5 29.5t-120.5 81t-81.5 120t-29.5 147.5zM227 589v7h237q31 0 60 -5t51.5 -19.5t36 -39.5 t13.5 -66q0 -30 -12 -52t-30.5 -37t-42 -24t-46.5 -13l49 -8l102 -189q40 43 62.5 100.5t22.5 122.5q0 67 -23.5 125t-65.5 101.5t-99 68.5t-122 25q-67 0 -123 -25t-98 -68.5t-65.5 -102t-23.5 -124.5q0 -67 23.5 -125t65.5 -101.5t98 -68.5t123 -25q60 0 112.5 21t93.5 58 l-29 12l-61 51l-118 148h-45l-7 -7v-141l44 -44v-7h-183v7l44 44v357zM366 379l7 -7h58q47 0 73 24t26 70q0 28 -8.5 46t-22.5 29t-31.5 15t-36.5 4h-58l-7 -7v-174z" />
<glyph unicode="&#xaf;" horiz-adv-x="337" d="M42 691h253v-53h-253v53z" />
<glyph unicode="&#xb0;" horiz-adv-x="337" d="M56 632q0 24 9 44t24 35.5t35.5 24t44.5 8.5t44 -8.5t35.5 -24t24.5 -36t9 -43.5q0 -24 -9 -44.5t-24.5 -35.5t-35.5 -24t-44 -9t-44.5 9t-35.5 24t-24 35.5t-9 44.5zM109 632q0 -28 14.5 -48t45.5 -20t45.5 20t14.5 48t-14.5 47.5t-45.5 19.5t-45.5 -19.5t-14.5 -47.5z " />
<glyph unicode="&#xb1;" horiz-adv-x="522" d="M41 51h438v-51h-438v51zM286 580v-198h198v-51h-198v-198h-52v198h-197v51h197v198h52z" />
<glyph unicode="&#xb2;" d="M248 471l54 63h7l-19 -116h-254v10q19 17 50.5 49t61.5 70.5t52 80.5t22 81q0 35 -15.5 53.5t-47.5 18.5q-15 0 -29.5 -7t-27 -19.5t-22 -27.5t-17.5 -31l-24 10q6 18 17.5 38t28 37t39.5 27.5t52 10.5q26 0 48 -6t38.5 -18.5t25.5 -32t9 -46.5q0 -63 -46 -122.5 t-123 -122.5h120z" />
<glyph unicode="&#xb3;" d="M210 636q16 -4 32 -11.5t28.5 -19t20 -28.5t7.5 -39q0 -30 -11 -53t-30 -39.5t-45 -24.5t-56 -8q-46 0 -79.5 16t-44.5 43q-4 8 -4 18q0 14 9.5 22t21.5 8q10 0 19 -6t12 -20q12 -50 68 -51q33 0 51.5 24.5t18.5 59.5q0 39 -26.5 63.5t-64.5 30.5v17q33 0 55 26t22 61 q0 62 -51 62q-27 0 -48.5 -19.5t-35.5 -50.5l-25 15q14 34 43.5 60.5t73.5 26.5q22 0 40.5 -5.5t33 -17.5t23 -29t8.5 -42q0 -37 -20.5 -60.5t-45.5 -28.5z" />
<glyph unicode="&#xb4;" horiz-adv-x="337" d="M97 537h-23l91 138q11 16 24.5 21t25.5 5q23 0 36.5 -14.5t13.5 -34.5q0 -11 -6.5 -22.5t-21.5 -19.5z" />
<glyph unicode="&#xb5;" horiz-adv-x="563" d="M78 404l-54 27v7l148 42v-357q0 -43 19 -59t52 -16q24 0 51.5 14.5t50.5 31.5q27 19 54 46v264l-54 27v7l149 42v-440l54 -33v-7h-149v88q-36 -29 -71 -50q-31 -19 -66.5 -34.5t-64.5 -15.5q-7 0 -13.5 0.5t-11.5 1.5v-265h-94v679z" />
<glyph unicode="&#xb6;" horiz-adv-x="478" d="M379 674l-7 7h-75l-7 -7v-949h-7l-67 61v493q-47 0 -88.5 17.5t-72 48.5t-48 72t-17.5 88t17.5 88.5t48 72t72 48.5t88.5 18h237v-1007h-8l-66 61v888z" />
<glyph unicode="&#xb7;" horiz-adv-x="243" d="M48 313q0 27 19.5 47t47.5 20q27 0 46.5 -20t19.5 -47q0 -28 -20 -47t-46 -19q-28 0 -47.5 19t-19.5 47z" />
<glyph unicode="&#xb8;" horiz-adv-x="337" d="M127 35h37l-36 -95q15 11 34 14.5t34 3.5q32 0 49.5 -15t17.5 -47q0 -42 -30 -60t-73 -18q-20 0 -42 4t-42 15l7 13q19 -7 34 -9.5t27 -2.5q28 0 43 11t15 36q0 18 -10.5 27.5t-27.5 9.5q-23 0 -39 -7t-30 -20h-9z" />
<glyph unicode="&#xb9;" d="M103 418v7l49 37v257q0 25 -9 36.5t-29 11.5q-11 0 -34 -5v10l141 54v-364l47 -37v-7h-165z" />
<glyph unicode="&#xba;" horiz-adv-x="352" d="M346 431q0 -34 -12.5 -64t-36 -52t-54.5 -35t-67 -13t-67 13t-54 35t-36 52t-13 64q0 35 13 65t36 52.5t54 35.5t67 13t67 -13t54.5 -35.5t36 -52.5t12.5 -65zM266 431q0 57 -21 92.5t-69 35.5q-49 0 -69.5 -35.5t-20.5 -92.5q0 -56 20.5 -91.5t69.5 -35.5q48 0 69 35.5 t21 91.5z" />
<glyph unicode="&#xbb;" horiz-adv-x="515" d="M474 269v-18l-249 -251v86l169 174l-169 174v86zM295 269v-18l-249 -251v86l169 174l-169 174v86z" />
<glyph unicode="&#xbc;" horiz-adv-x="675" d="M518 732l41 -23l-412 -709l-41 24zM49 298v7l48 37v257q0 25 -8.5 36.5t-29.5 11.5q-11 0 -33 -5v10l141 55v-365l47 -37v-7h-165zM588 151v-34h-60v-73l47 -37v-7h-164v7l48 37v73h-152v13l203 279h18v-258h60zM459 282l-97 -131h97v131z" />
<glyph unicode="&#xbd;" horiz-adv-x="675" d="M518 732l41 -23l-412 -709l-41 24zM49 298v7l48 37v257q0 25 -8.5 36.5t-29.5 11.5q-11 0 -33 -5v10l141 55v-365l47 -37v-7h-165zM591 53l54 63h7l-19 -116h-254v10q19 17 50.5 49t61.5 70.5t52 80.5t22 81q0 35 -15 54t-48 19q-15 0 -29.5 -7.5t-27 -19.5t-22 -27.5 t-16.5 -30.5l-25 9q6 18 17.5 38t28 37t39.5 27.5t52 10.5q26 0 48 -6t38.5 -18t25.5 -31.5t9 -47.5q0 -63 -46 -122.5t-123 -122.5h120z" />
<glyph unicode="&#xbe;" horiz-adv-x="675" d="M562 732l41 -23l-412 -709l-40 24zM632 151v-34h-60v-73l48 -37v-7h-165v7l48 37v73h-152v13l203 279h18v-258h60zM503 282l-96 -131h96v131zM208 520q16 -4 32 -11t28.5 -19t20 -29t7.5 -39q0 -30 -11 -53t-30 -39.5t-45 -24.5t-56 -8q-46 0 -79.5 16.5t-44.5 42.5 q-4 8 -4 19q0 14 9.5 21.5t21.5 7.5q10 0 19 -6t12 -20q12 -50 68 -50q33 0 51.5 24t18.5 60q0 39 -26.5 63.5t-64.5 29.5v17q33 0 55 26t22 61q0 62 -51 63q-27 0 -48.5 -20t-35.5 -51l-25 15q14 34 43.5 60.5t73.5 26.5q22 0 40.5 -5.5t33 -17t23 -29t8.5 -42.5 q0 -37 -20.5 -60.5t-45.5 -28.5z" />
<glyph unicode="&#xbf;" horiz-adv-x="571" d="M287.018 533.012v-65.9951q0 -37.998 -10 -64.4961q-9.99902 -26.499 -25.998 -46.9971q-15.999 -20.499 -34.498 -38.498t-33.998 -38.998q-15.499 -20.998 -25.998 -48.4971q-10.499 -27.498 -10.499 -67.4951q0 -58.9971 33.4971 -92.9951 q33.498 -33.9971 85.4951 -33.9971q32.998 0 54.9971 9.49902q21.998 9.49902 35.9971 27.498q14 17.999 23.999 42.998q9.99902 24.998 17.999 56.9961q4.99902 19.999 20.499 30.498q15.499 10.499 32.498 10.499q19.998 0 36.4971 -12.999t16.499 -36.9971 q0 -17.999 -11.999 -42.998q-30.998 -60.9961 -85.4951 -96.4941q-54.4961 -35.498 -141.491 -35.498q-48.9971 0 -89.9941 11q-40.998 10.999 -71.4961 32.998q-30.498 21.998 -46.4971 53.9961t-15.999 71.9961q0 24.998 4.5 47.4971t16.999 45.4971 q12.499 22.999 35.498 47.4971q22.998 24.499 58.9961 52.4971q29.998 23.998 47.4971 43.9971t26.498 41.4971q9 21.499 11.5 44.998q2.49902 23.498 2.49902 51.4961h41.998zM333.015 678.003q0 -26.998 -18.999 -46.9971q-18.999 -19.998 -46.9971 -19.998 t-47.4971 19.998q-19.499 19.999 -19.499 46.9971q0 27.999 19.499 46.9971q19.499 18.999 47.4971 18.999t46.9971 -18.999q18.999 -18.998 18.999 -46.9971z" />
<glyph unicode="&#xc0;" horiz-adv-x="751" d="M563 58l-74 179h-279l-74 -179l70 -51v-7h-196v7l70 51l288 698h18l287 -698l68 -51v-7h-247v7zM469 288l-109 261l-9 42l-6 -27l-114 -276h238zM292 883q-15 8 -21.5 19.5t-6.5 22.5q0 19 13.5 34t36.5 15q12 0 25.5 -5t24.5 -21l91 -138h-23l-140 73v0z" />
<glyph unicode="&#xc1;" horiz-adv-x="751" d="M563 58l-74 179h-279l-74 -179l70 -51v-7h-196v7l70 51l288 698h18l287 -698l68 -51v-7h-247v7zM469 288l-109 261l-9 42l-6 -27l-114 -276h238zM311 810h-23l91 138q11 16 24.5 21t25.5 5q23 0 36.5 -14.5t13.5 -34.5q0 -11 -6.5 -22.5t-21.5 -19.5z" />
<glyph unicode="&#xc2;" horiz-adv-x="751" d="M563 58l-74 179h-279l-74 -179l70 -51v-7h-196v7l70 51l288 698h18l287 -698l68 -51v-7h-247v7zM469 288l-109 261l-9 42l-6 -27l-114 -276h238zM241 799l117 165h33l117 -165h-23l-111 77l-110 -77h-23z" />
<glyph unicode="&#xc3;" horiz-adv-x="751" d="M563 58l-74 179h-279l-74 -179l70 -51v-7h-196v7l70 51l288 698h18l287 -698l68 -51v-7h-247v7zM469 288l-109 261l-9 42l-6 -27l-114 -276h238zM574 958q-6 -36 -23 -63q-14 -24 -39 -44t-66 -20q-34 0 -54 10.5t-35 22.5t-29.5 22.5t-39.5 10.5q-27 0 -45 -10.5 t-29 -21.5q-13 -14 -21 -32h-18q6 36 23 64q14 24 38.5 43.5t66.5 19.5q34 0 54 -10t35 -22.5t29.5 -22.5t39.5 -10q27 0 44.5 9.5t29.5 22.5q13 13 21 31h18z" />
<glyph unicode="&#xc4;" horiz-adv-x="751" d="M563 58l-74 179h-279l-74 -179l70 -51v-7h-196v7l70 51l288 698h18l287 -698l68 -51v-7h-247v7zM469 288l-109 261l-9 42l-6 -27l-114 -276h238zM346 877q0 -24 -17 -41t-40 -17q-24 0 -40 17t-16 41t16 40.5t40 16.5t40.5 -16.5t16.5 -40.5zM521 877q0 -24 -16.5 -41 t-40.5 -17t-40 17t-16 41t16 40.5t40 16.5t40.5 -16.5t16.5 -40.5z" />
<glyph unicode="&#xc5;" horiz-adv-x="751" d="M563 58l-74 179h-279l-74 -179l70 -51v-7h-196v7l70 51l288 698h18l287 -698l68 -51v-7h-247v7zM469 288l-109 261l-9 42l-6 -27l-114 -276h238zM278 900q0 40 27.5 67.5t67.5 27.5t67.5 -27.5t27.5 -67.5t-27.5 -67.5t-67.5 -27.5t-67.5 27.5t-27.5 67.5zM328 900 q0 -19 13 -32t32 -13t32 12.5t13 32.5q0 19 -13 32t-32 13t-32 -13t-13 -32z" />
<glyph unicode="&#xc6;" horiz-adv-x="1052" d="M632 366l-7 -8v-300l7 -7h284l100 114h7l-26 -165h-550v7l70 51v171l-7 8h-245l-115 -179l57 -51l-1 -7h-196l1 7l82 51l406 629l-52 38v7h521l18 -150h-7l-72 99h-275l-7 -7v-250l7 -7h248l34 59h7v-169h-7l-34 59h-248zM510 288l7 7v332l-219 -339h212z" />
<glyph unicode="&#xc7;" horiz-adv-x="723" d="M324 -5q-71 12 -126 43.5t-92 79.5t-56.5 111t-19.5 138q0 80 27 149t75.5 119.5t116 79.5t147.5 29q42 0 98 -10t108 -35v-165h-16q-8 30 -22.5 58.5t-37.5 51t-56 36t-78 13.5q-59 0 -104 -25t-75 -68.5t-45 -103.5t-15 -129q0 -74 18.5 -134.5t53 -103.5t81.5 -66.5 t104 -23.5q84 0 148 40t109 129l28 -20q-40 -100 -112.5 -150t-172.5 -50q-29 0 -55 3l-18 -51q15 11 34 14.5t33 3.5q32 0 50 -15t18 -47q0 -42 -30 -60t-73 -18q-20 0 -42 4t-42 15l7 13q19 -7 34 -9.5t27 -2.5q28 0 43 11t15 36q0 18 -10.5 27.5t-27.5 9.5 q-23 0 -39.5 -7t-29.5 -20h-9z" />
<glyph unicode="&#xc8;" horiz-adv-x="630" d="M210 366l-7 -8v-300l7 -7h285l99 114h7l-26 -165h-549v7l69 51v616l-69 51v7h520l18 -150h-7l-72 99h-275l-7 -7v-250l7 -7h248l35 59h6v-169h-6l-35 59h-248zM205 883q-15 8 -21.5 19.5t-6.5 22.5q0 19 13.5 34t36.5 15q12 0 25.5 -5t24.5 -21l91 -138h-23l-140 73v0z " />
<glyph unicode="&#xc9;" horiz-adv-x="630" d="M210 366l-7 -8v-300l7 -7h285l99 114h7l-26 -165h-549v7l69 51v616l-69 51v7h520l18 -150h-7l-72 99h-275l-7 -7v-250l7 -7h248l35 59h6v-169h-6l-35 59h-248zM234 810h-23l91 138q11 16 24.5 21t25.5 5q23 0 36.5 -14.5t13.5 -34.5q0 -11 -6.5 -22.5t-21.5 -19.5z" />
<glyph unicode="&#xca;" horiz-adv-x="630" d="M210 366l-7 -8v-300l7 -7h285l99 114h7l-26 -165h-549v7l69 51v616l-69 51v7h520l18 -150h-7l-72 99h-275l-7 -7v-250l7 -7h248l35 59h6v-169h-6l-35 59h-248zM162 799l117 165h33l117 -165h-23l-111 77l-110 -77h-23z" />
<glyph unicode="&#xcb;" horiz-adv-x="630" d="M210 366l-7 -8v-300l7 -7h285l99 114h7l-26 -165h-549v7l69 51v616l-69 51v7h520l18 -150h-7l-72 99h-275l-7 -7v-250l7 -7h248l35 59h6v-169h-6l-35 59h-248zM264 877q0 -24 -17 -41t-40 -17q-24 0 -40 17t-16 41t16 40.5t40 16.5t40.5 -16.5t16.5 -40.5zM439 877 q0 -24 -16.5 -41t-40.5 -17t-40 17t-16 41t16 40.5t40 16.5t40.5 -16.5t16.5 -40.5z" />
<glyph unicode="&#xcc;" horiz-adv-x="308" d="M208 58l70 -51v-7h-247v7l69 51v616l-69 51v7h247v-7l-70 -51v-616zM97 883q-15 8 -21.5 19.5t-6.5 22.5q0 19 13.5 34t36.5 15q12 0 25.5 -5t24.5 -21l91 -138h-23l-140 73v0z" />
<glyph unicode="&#xcd;" horiz-adv-x="308" d="M208 58l70 -51v-7h-247v7l69 51v616l-69 51v7h247v-7l-70 -51v-616zM74 810h-23l91 138q11 16 24.5 21t25.5 5q23 0 36.5 -14.5t13.5 -34.5q0 -11 -6.5 -22.5t-21.5 -19.5z" />
<glyph unicode="&#xce;" horiz-adv-x="308" d="M208 58l70 -51v-7h-247v7l69 51v616l-69 51v7h247v-7l-70 -51v-616zM22 799l117 165h33l117 -165h-23l-111 77l-110 -77h-23z" />
<glyph unicode="&#xcf;" horiz-adv-x="308" d="M208 58l70 -51v-7h-247v7l69 51v616l-69 51v7h247v-7l-70 -51v-616zM125 877q0 -24 -17 -41t-40 -17q-24 0 -40 17t-16 41t16 40.5t40 16.5t40.5 -16.5t16.5 -40.5zM300 877q0 -24 -16.5 -41t-40.5 -17t-40 17t-16 41t16 40.5t40 16.5t40.5 -16.5t16.5 -40.5z" />
<glyph unicode="&#xd0;" horiz-adv-x="742" d="M28 392h62l7 7v275l-69 51v7h324q83 0 148.5 -27t111.5 -76t70.5 -116.5t24.5 -146.5q0 -80 -24.5 -147t-70.5 -116t-111.5 -76t-148.5 -27h-324v7l69 51v276l-7 7h-62v51zM205 58l7 -7h125q67 0 115.5 22.5t79.5 64t46.5 99.5t15.5 129t-15.5 128.5t-46.5 99t-80 64.5 t-115 23h-125l-7 -7v-275l7 -7h62v-51h-62l-7 -7v-276z" />
<glyph unicode="&#xd1;" horiz-adv-x="747" d="M721 732v-7l-70 -51v-674l-493 588l-12 47v-577l69 -51v-7h-189v7l69 51v616l-69 51v7h151l411 -489l12 -48v479l-70 51v7h191zM575 958q-6 -36 -23 -63q-14 -24 -39 -44t-66 -20q-34 0 -54 10.5t-35 22.5t-29.5 22.5t-39.5 10.5q-27 0 -45 -10.5t-29 -21.5 q-13 -14 -21 -32h-18q6 36 23 64q14 24 38.5 43.5t66.5 19.5q34 0 54 -10t35 -22.5t29.5 -22.5t39.5 -10q27 0 44.5 9.5t29.5 22.5q13 13 21 31h18z" />
<glyph unicode="&#xd2;" horiz-adv-x="786" d="M630 367q0 72 -15 131.5t-44 103t-73.5 67.5t-104.5 24t-104 -24t-74 -67.5t-44 -103.5t-14 -131t14 -131t44 -104t74 -68.5t104 -24.5q59 0 104 24.5t74 68.5t44 104t15 131zM753 367q0 -80 -26.5 -149.5t-73.5 -120.5t-113.5 -80t-146.5 -29q-81 0 -147 29t-113 80 t-73 120.5t-26 149.5t26 149t73 119.5t113 79.5t147 29q80 0 146.5 -29t113.5 -79.5t73.5 -119.5t26.5 -149zM334 883q-15 8 -21.5 19.5t-6.5 22.5q0 19 13.5 34t36.5 15q12 0 25.5 -5t24.5 -21l91 -138h-23l-140 73v0z" />
<glyph unicode="&#xd3;" horiz-adv-x="786" d="M630 367q0 72 -15 131.5t-44 103t-73.5 67.5t-104.5 24t-104 -24t-74 -67.5t-44 -103.5t-14 -131t14 -131t44 -104t74 -68.5t104 -24.5q59 0 104 24.5t74 68.5t44 104t15 131zM753 367q0 -80 -26.5 -149.5t-73.5 -120.5t-113.5 -80t-146.5 -29q-81 0 -147 29t-113 80 t-73 120.5t-26 149.5t26 149t73 119.5t113 79.5t147 29q80 0 146.5 -29t113.5 -79.5t73.5 -119.5t26.5 -149zM312 810h-23l91 138q11 16 24.5 21t25.5 5q23 0 36.5 -14.5t13.5 -34.5q0 -11 -6.5 -22.5t-21.5 -19.5z" />
<glyph unicode="&#xd4;" horiz-adv-x="786" d="M630 367q0 72 -15 131.5t-44 103t-73.5 67.5t-104.5 24t-104 -24t-74 -67.5t-44 -103.5t-14 -131t14 -131t44 -104t74 -68.5t104 -24.5q59 0 104 24.5t74 68.5t44 104t15 131zM753 367q0 -80 -26.5 -149.5t-73.5 -120.5t-113.5 -80t-146.5 -29q-81 0 -147 29t-113 80 t-73 120.5t-26 149.5t26 149t73 119.5t113 79.5t147 29q80 0 146.5 -29t113.5 -79.5t73.5 -119.5t26.5 -149zM260 799l117 165h33l117 -165h-23l-111 77l-110 -77h-23z" />
<glyph unicode="&#xd5;" horiz-adv-x="786" d="M630 367q0 72 -15 131.5t-44 103t-73.5 67.5t-104.5 24t-104 -24t-74 -67.5t-44 -103.5t-14 -131t14 -131t44 -104t74 -68.5t104 -24.5q59 0 104 24.5t74 68.5t44 104t15 131zM753 367q0 -80 -26.5 -149.5t-73.5 -120.5t-113.5 -80t-146.5 -29q-81 0 -147 29t-113 80 t-73 120.5t-26 149.5t26 149t73 119.5t113 79.5t147 29q80 0 146.5 -29t113.5 -79.5t73.5 -119.5t26.5 -149zM592 958q-6 -36 -23 -63q-14 -24 -39 -44t-66 -20q-34 0 -54 10.5t-35 22.5t-29.5 22.5t-39.5 10.5q-27 0 -45 -10.5t-29 -21.5q-13 -14 -21 -32h-18q6 36 23 64 q14 24 38.5 43.5t66.5 19.5q34 0 54 -10t35 -22.5t29.5 -22.5t39.5 -10q27 0 44.5 9.5t29.5 22.5q13 13 21 31h18z" />
<glyph unicode="&#xd6;" horiz-adv-x="786" d="M630 367q0 72 -15 131.5t-44 103t-73.5 67.5t-104.5 24t-104 -24t-74 -67.5t-44 -103.5t-14 -131t14 -131t44 -104t74 -68.5t104 -24.5q59 0 104 24.5t74 68.5t44 104t15 131zM753 367q0 -80 -26.5 -149.5t-73.5 -120.5t-113.5 -80t-146.5 -29q-81 0 -147 29t-113 80 t-73 120.5t-26 149.5t26 149t73 119.5t113 79.5t147 29q80 0 146.5 -29t113.5 -79.5t73.5 -119.5t26.5 -149zM362 877q0 -24 -17 -41t-40 -17q-24 0 -40 17t-16 41t16 40.5t40 16.5t40.5 -16.5t16.5 -40.5zM537 877q0 -24 -16.5 -41t-40.5 -17t-40 17t-16 41t16 40.5 t40 16.5t40.5 -16.5t16.5 -40.5z" />
<glyph unicode="&#xd7;" horiz-adv-x="522" d="M437 444l-140 -139l141 -140l-37 -37l-140 141l-139 -140l-37 37l140 139l-140 139l37 37l139 -140l139 140z" />
<glyph unicode="&#xd8;" horiz-adv-x="786" d="M756 367q0 -80 -26.5 -149.5t-73.5 -120.5t-113.5 -80t-146.5 -29q-77 0 -139.5 25.5t-109.5 71.5l-91 -91l-37 37l94 93q-36 49 -56 110.5t-20 132.5q0 80 26 149t73 119.5t113 79.5t147 29q74 0 136 -25t108 -69l90 90l36 -37l-91 -91q39 -49 60 -111t21 -134zM633 367 q0 49 -7.5 93.5t-21.5 81.5l-395 -396q30 -51 76.5 -79t110.5 -28q59 0 104 24.5t74 68.5t44 104t15 131zM160 367q0 -97 25 -170l396 394q-30 48 -75.5 75t-109.5 27q-60 0 -104 -24t-74 -67.5t-44 -103t-14 -131.5z" />
<glyph unicode="&#xd9;" horiz-adv-x="768" d="M272 732v-7l-69 -51v-404q0 -44 7.5 -86.5t30 -76t64 -54t110.5 -20.5t110 14t64 43.5t31 73t8 100.5v410l-70 51v7h191v-7l-70 -51v-448q0 -48 -11 -92.5t-40 -78t-80.5 -53.5t-132.5 -20q-90 0 -151.5 17t-99 53t-53.5 90.5t-16 127.5v404l-69 51v7h246zM354 883 q-15 8 -21.5 19.5t-6.5 22.5q0 19 13.5 34t36.5 15q12 0 25.5 -5t24.5 -21l91 -138h-23l-140 73v0z" />
<glyph unicode="&#xda;" horiz-adv-x="768" d="M272 732v-7l-69 -51v-404q0 -44 7.5 -86.5t30 -76t64 -54t110.5 -20.5t110 14t64 43.5t31 73t8 100.5v410l-70 51v7h191v-7l-70 -51v-448q0 -48 -11 -92.5t-40 -78t-80.5 -53.5t-132.5 -20q-90 0 -151.5 17t-99 53t-53.5 90.5t-16 127.5v404l-69 51v7h246zM331 810h-23 l91 138q11 16 24.5 21t25.5 5q23 0 36.5 -14.5t13.5 -34.5q0 -11 -6.5 -22.5t-21.5 -19.5z" />
<glyph unicode="&#xdb;" horiz-adv-x="768" d="M272 732v-7l-69 -51v-404q0 -44 7.5 -86.5t30 -76t64 -54t110.5 -20.5t110 14t64 43.5t31 73t8 100.5v410l-70 51v7h191v-7l-70 -51v-448q0 -48 -11 -92.5t-40 -78t-80.5 -53.5t-132.5 -20q-90 0 -151.5 17t-99 53t-53.5 90.5t-16 127.5v404l-69 51v7h246zM280 799 l117 165h33l117 -165h-23l-111 77l-110 -77h-23z" />
<glyph unicode="&#xdc;" horiz-adv-x="768" d="M272 732v-7l-69 -51v-404q0 -44 7.5 -86.5t30 -76t64 -54t110.5 -20.5t110 14t64 43.5t31 73t8 100.5v410l-70 51v7h191v-7l-70 -51v-448q0 -48 -11 -92.5t-40 -78t-80.5 -53.5t-132.5 -20q-90 0 -151.5 17t-99 53t-53.5 90.5t-16 127.5v404l-69 51v7h246zM382 877 q0 -24 -17 -41t-40 -17q-24 0 -40 17t-16 41t16 40.5t40 16.5t40.5 -16.5t16.5 -40.5zM557 877q0 -24 -16.5 -41t-40.5 -17t-40 17t-16 41t16 40.5t40 16.5t40.5 -16.5t16.5 -40.5z" />
<glyph unicode="&#xdd;" horiz-adv-x="699" d="M246 0v7l69 51v267l-224 349l-70 51v7h271v-7l-70 -51l150 -232l14 -61l13 58l149 235l-70 51v7h201v-7l-70 -51l-186 -294v-322l69 -51v-7h-246zM304 810h-23l91 138q11 16 24.5 21t25.5 5q23 0 36.5 -14.5t13.5 -34.5q0 -11 -6.5 -22.5t-21.5 -19.5z" />
<glyph unicode="&#xde;" horiz-adv-x="602" d="M28 725v7h246v-7l-69 -51v-79l8 -7h99q43 0 91.5 -8.5t89.5 -32t67.5 -67t26.5 -113.5q0 -71 -26.5 -114.5t-67.5 -67.5t-89.5 -32.5t-91.5 -8.5h-99l-8 -7v-79l69 -51v-7h-246v7l69 51v616zM213 196h74q44 0 79 6.5t60.5 25t39 51.5t13.5 88q0 53 -13.5 86t-39 51.5 t-60.5 25.5t-79 7h-74l-8 -9v-324z" />
<glyph unicode="&#xdf;" horiz-adv-x="581" d="M82 404l-7 8h-59v47h59l7 7v68q0 102 52 156t146 54q91 0 137 -38.5t46 -103.5q0 -45 -19 -74t-42 -51t-42 -41.5t-19 -45.5q0 -23 16 -38.5t40 -29.5t51.5 -28t51.5 -34t40 -48.5t16 -69.5q0 -33 -9 -61t-29 -49t-50.5 -32.5t-72.5 -11.5q-41 0 -82 20.5t-63 50.5v136 h11q20 -86 52.5 -123t77.5 -37q76 0 76 93q0 29 -14 49t-35 35.5t-45 30t-45 32.5t-34.5 41t-13.5 57q0 42 14.5 69t33 49.5t33.5 45.5t15 57q0 55 -24.5 79t-71.5 24q-49 0 -76.5 -32.5t-27.5 -103.5v-521l70 -33v-7h-234v7l70 33v364z" />
<glyph unicode="&#xe0;" horiz-adv-x="487" d="M425 40l54 -33v-7h-148v50q-22 -30 -58.5 -46t-83.5 -16q-31 0 -59 5.5t-49.5 20t-34.5 38.5t-13 61q0 44 27 73.5t69.5 49t96 29.5t105.5 16v37q0 55 -20 80.5t-69 25.5q-39 0 -65.5 -14.5t-38.5 -59.5q-6 -25 -21 -35.5t-30 -10.5q-17 0 -30.5 11t-13.5 31q0 23 20 49 q17 22 39 36.5t46 23.5t48 12.5t46 3.5q54 0 89.5 -13t56.5 -35.5t29 -51.5t8 -63v-268zM331 239q-46 -4 -83 -11.5t-63 -20t-40 -34t-14 -54.5q0 -41 23.5 -62.5t56.5 -21.5q55 0 87.5 33t32.5 82v89zM164 591q-15 8 -21.5 19.5t-6.5 22.5q0 19 13.5 34t36.5 15 q12 0 25.5 -5t24.5 -21l91 -138h-23l-140 73v0z" />
<glyph unicode="&#xe1;" horiz-adv-x="487" d="M425 40l54 -33v-7h-148v50q-22 -30 -58.5 -46t-83.5 -16q-31 0 -59 5.5t-49.5 20t-34.5 38.5t-13 61q0 44 27 73.5t69.5 49t96 29.5t105.5 16v37q0 55 -20 80.5t-69 25.5q-39 0 -65.5 -14.5t-38.5 -59.5q-6 -25 -21 -35.5t-30 -10.5q-17 0 -30.5 11t-13.5 31q0 23 20 49 q17 22 39 36.5t46 23.5t48 12.5t46 3.5q54 0 89.5 -13t56.5 -35.5t29 -51.5t8 -63v-268zM331 239q-46 -4 -83 -11.5t-63 -20t-40 -34t-14 -54.5q0 -41 23.5 -62.5t56.5 -21.5q55 0 87.5 33t32.5 82v89zM163 518h-23l91 138q11 16 24.5 21t25.5 5q23 0 36.5 -14.5t13.5 -34.5 q0 -11 -6.5 -22.5t-21.5 -19.5z" />
<glyph unicode="&#xe2;" horiz-adv-x="487" d="M425 40l54 -33v-7h-148v50q-22 -30 -58.5 -46t-83.5 -16q-31 0 -59 5.5t-49.5 20t-34.5 38.5t-13 61q0 44 27 73.5t69.5 49t96 29.5t105.5 16v37q0 55 -20 80.5t-69 25.5q-39 0 -65.5 -14.5t-38.5 -59.5q-6 -25 -21 -35.5t-30 -10.5q-17 0 -30.5 11t-13.5 31q0 23 20 49 q17 22 39 36.5t46 23.5t48 12.5t46 3.5q54 0 89.5 -13t56.5 -35.5t29 -51.5t8 -63v-268zM331 239q-46 -4 -83 -11.5t-63 -20t-40 -34t-14 -54.5q0 -41 23.5 -62.5t56.5 -21.5q55 0 87.5 33t32.5 82v89zM109 527l117 165h33l117 -165h-23l-111 77l-110 -77h-23z" />
<glyph unicode="&#xe3;" horiz-adv-x="487" d="M425 40l54 -33v-7h-148v50q-22 -30 -58.5 -46t-83.5 -16q-31 0 -59 5.5t-49.5 20t-34.5 38.5t-13 61q0 44 27 73.5t69.5 49t96 29.5t105.5 16v37q0 55 -20 80.5t-69 25.5q-39 0 -65.5 -14.5t-38.5 -59.5q-6 -25 -21 -35.5t-30 -10.5q-17 0 -30.5 11t-13.5 31q0 23 20 49 q17 22 39 36.5t46 23.5t48 12.5t46 3.5q54 0 89.5 -13t56.5 -35.5t29 -51.5t8 -63v-268zM331 239q-46 -4 -83 -11.5t-63 -20t-40 -34t-14 -54.5q0 -41 23.5 -62.5t56.5 -21.5q55 0 87.5 33t32.5 82v89zM443 676q-6 -36 -23 -63q-14 -24 -39 -44t-66 -20q-34 0 -54 10.5 t-35 22.5t-29.5 22.5t-39.5 10.5q-27 0 -45 -10.5t-29 -21.5q-13 -14 -21 -32h-18q6 36 23 64q14 24 38.5 43.5t66.5 19.5q34 0 54 -10t35 -22.5t29.5 -22.5t39.5 -10q27 0 44.5 9.5t29.5 22.5q13 13 21 31h18z" />
<glyph unicode="&#xe4;" horiz-adv-x="487" d="M425 40l54 -33v-7h-148v50q-22 -30 -58.5 -46t-83.5 -16q-31 0 -59 5.5t-49.5 20t-34.5 38.5t-13 61q0 44 27 73.5t69.5 49t96 29.5t105.5 16v37q0 55 -20 80.5t-69 25.5q-39 0 -65.5 -14.5t-38.5 -59.5q-6 -25 -21 -35.5t-30 -10.5q-17 0 -30.5 11t-13.5 31q0 23 20 49 q17 22 39 36.5t46 23.5t48 12.5t46 3.5q54 0 89.5 -13t56.5 -35.5t29 -51.5t8 -63v-268zM331 239q-46 -4 -83 -11.5t-63 -20t-40 -34t-14 -54.5q0 -41 23.5 -62.5t56.5 -21.5q55 0 87.5 33t32.5 82v89zM211 604q0 -24 -17 -41t-40 -17q-24 0 -40 17t-16 41t16 40.5t40 16.5 t40.5 -16.5t16.5 -40.5zM386 604q0 -24 -16.5 -41t-40.5 -17t-40 17t-16 41t16 40.5t40 16.5t40.5 -16.5t16.5 -40.5z" />
<glyph unicode="&#xe5;" horiz-adv-x="487" d="M425 40l54 -33v-7h-148v50q-22 -30 -58.5 -46t-83.5 -16q-31 0 -59 5.5t-49.5 20t-34.5 38.5t-13 61q0 44 27 73.5t69.5 49t96 29.5t105.5 16v37q0 55 -20 80.5t-69 25.5q-39 0 -65.5 -14.5t-38.5 -59.5q-6 -25 -21 -35.5t-30 -10.5q-17 0 -30.5 11t-13.5 31q0 23 20 49 q17 22 39 36.5t46 23.5t48 12.5t46 3.5q54 0 89.5 -13t56.5 -35.5t29 -51.5t8 -63v-268zM331 239q-46 -4 -83 -11.5t-63 -20t-40 -34t-14 -54.5q0 -41 23.5 -62.5t56.5 -21.5q55 0 87.5 33t32.5 82v89zM147 637q0 40 27.5 67.5t67.5 27.5t67.5 -27.5t27.5 -67.5t-27.5 -67.5 t-67.5 -27.5t-67.5 27.5t-27.5 67.5zM197 637q0 -19 13 -32t32 -13t32 12.5t13 32.5q0 19 -13 32t-32 13t-32 -13t-13 -32z" />
<glyph unicode="&#xe6;" horiz-adv-x="801" d="M781 125q-30 -63 -79.5 -100t-118.5 -37q-70 0 -127.5 29t-89.5 79q-15 -30 -37.5 -50.5t-46 -33.5t-47.5 -18.5t-46 -5.5q-31 0 -59 5.5t-49.5 20t-34.5 38.5t-13 61q0 44 27 73.5t69.5 49t96 29.5t105.5 16v37q0 55 -20 80.5t-69 25.5q-39 0 -65.5 -14.5t-38.5 -59.5 q-6 -25 -21 -35.5t-30 -10.5q-17 0 -30.5 11t-13.5 31q0 23 20 49q35 44 80 60t99 16q66 0 103 -19t55 -49q33 33 75 50.5t88 17.5t85.5 -16.5t67.5 -45t44.5 -67.5t16.5 -84v-29h-339q0 -98 38.5 -146t106.5 -48q22 0 45 4t46 16.5t44 34.5t39 57zM331 239q-46 -4 -83 -11 t-63 -19.5t-40 -34t-14 -55.5q0 -41 23.5 -62.5t56.5 -21.5q55 0 87.5 32t32.5 90v82zM561 424q-33 0 -55.5 -13t-36.5 -34t-21.5 -47.5t-8.5 -53.5h244v10q0 25 -6.5 49t-21.5 44t-38 32.5t-56 12.5z" />
<glyph unicode="&#xe7;" horiz-adv-x="501" d="M211 -5q-40 9 -74 28t-58.5 48t-38 69t-13.5 89q0 58 22 103.5t56.5 76t77.5 46.5t86 16q42 0 84.5 -13t73.5 -42q18 -17 26 -33.5t8 -31.5q0 -22 -14.5 -35t-31.5 -13q-15 0 -30 12.5t-23 41.5q-7 31 -27.5 49t-65.5 18q-36 0 -61 -16.5t-41.5 -43.5t-24.5 -62.5 t-8 -72.5q0 -90 40.5 -142t107.5 -52q54 0 97 25t73 71l20 -30q-11 -22 -30.5 -42t-45 -36t-55.5 -25.5t-59 -9.5q-10 0 -20 0.5t-19 1.5l-19 -50q15 11 34.5 14.5t33.5 3.5q32 0 49.5 -15t17.5 -47q0 -42 -30 -60t-73 -18q-20 0 -41.5 4t-42.5 15l7 13q19 -7 34 -9.5 t28 -2.5q28 0 42.5 11t14.5 36q0 18 -10 27.5t-28 9.5q-23 0 -39 -7t-30 -20h-9z" />
<glyph unicode="&#xe8;" horiz-adv-x="500" d="M480 125q-30 -63 -79.5 -100t-118.5 -37q-54 0 -100.5 15t-80 46t-52.5 76t-19 104q0 54 19.5 99t51.5 76.5t74 49t87 17.5q46 0 85.5 -16.5t67.5 -45t44.5 -67.5t16.5 -84v-29h-339q0 -98 38.5 -146t106.5 -48q22 0 45 4t46 16.5t44 34.5t39 57zM260 424 q-33 0 -55.5 -13t-36.5 -34t-21.5 -47.5t-8.5 -53.5h244v10q0 25 -6.5 49t-21.5 44t-38 32.5t-56 12.5zM189 591q-15 8 -21.5 19.5t-6.5 22.5q0 19 13.5 34t36.5 15q12 0 25.5 -5t24.5 -21l91 -138h-23l-140 73v0z" />
<glyph unicode="&#xe9;" horiz-adv-x="500" d="M480 125q-30 -63 -79.5 -100t-118.5 -37q-54 0 -100.5 15t-80 46t-52.5 76t-19 104q0 54 19.5 99t51.5 76.5t74 49t87 17.5q46 0 85.5 -16.5t67.5 -45t44.5 -67.5t16.5 -84v-29h-339q0 -98 38.5 -146t106.5 -48q22 0 45 4t46 16.5t44 34.5t39 57zM260 424 q-33 0 -55.5 -13t-36.5 -34t-21.5 -47.5t-8.5 -53.5h244v10q0 25 -6.5 49t-21.5 44t-38 32.5t-56 12.5zM187 518h-23l91 138q11 16 24.5 21t25.5 5q23 0 36.5 -14.5t13.5 -34.5q0 -11 -6.5 -22.5t-21.5 -19.5z" />
<glyph unicode="&#xea;" horiz-adv-x="500" d="M480 125q-30 -63 -79.5 -100t-118.5 -37q-54 0 -100.5 15t-80 46t-52.5 76t-19 104q0 54 19.5 99t51.5 76.5t74 49t87 17.5q46 0 85.5 -16.5t67.5 -45t44.5 -67.5t16.5 -84v-29h-339q0 -98 38.5 -146t106.5 -48q22 0 45 4t46 16.5t44 34.5t39 57zM260 424 q-33 0 -55.5 -13t-36.5 -34t-21.5 -47.5t-8.5 -53.5h244v10q0 25 -6.5 49t-21.5 44t-38 32.5t-56 12.5zM125 527l117 165h33l117 -165h-23l-111 77l-110 -77h-23z" />
<glyph unicode="&#xeb;" horiz-adv-x="500" d="M480 125q-30 -63 -79.5 -100t-118.5 -37q-54 0 -100.5 15t-80 46t-52.5 76t-19 104q0 54 19.5 99t51.5 76.5t74 49t87 17.5q46 0 85.5 -16.5t67.5 -45t44.5 -67.5t16.5 -84v-29h-339q0 -98 38.5 -146t106.5 -48q22 0 45 4t46 16.5t44 34.5t39 57zM260 424 q-33 0 -55.5 -13t-36.5 -34t-21.5 -47.5t-8.5 -53.5h244v10q0 25 -6.5 49t-21.5 44t-38 32.5t-56 12.5zM231 604q0 -24 -17 -41t-40 -17q-24 0 -40 17t-16 41t16 40.5t40 16.5t40.5 -16.5t16.5 -40.5zM406 604q0 -24 -16.5 -41t-40.5 -17t-40 17t-16 41t16 40.5t40 16.5 t40.5 -16.5t16.5 -40.5z" />
<glyph unicode="&#xec;" horiz-adv-x="243" d="M164 40l54 -33v-7h-203v7l55 33v366l-55 25v7l149 43v-441zM28 591q-15 8 -21.5 19.5t-6.5 22.5q0 19 13.5 34t36.5 15q12 0 25.5 -5t24.5 -21l91 -138h-23l-140 73v0z" />
<glyph unicode="&#xed;" horiz-adv-x="243" d="M165 40l54 -33v-7h-203v7l55 33v366l-55 25v7l149 43v-441zM38 518h-23l91 138q11 16 24.5 21t25.5 5q23 0 36.5 -14.5t13.5 -34.5q0 -11 -6.5 -22.5t-21.5 -19.5z" />
<glyph unicode="&#xee;" horiz-adv-x="243" d="M169 40l54 -33v-7h-203v7l55 33v366l-55 25v7l149 43v-441zM-10 527l117 165h33l117 -165h-23l-111 77l-110 -77h-23z" />
<glyph unicode="&#xef;" horiz-adv-x="243" d="M179 40l54 -33v-7h-203v7l55 33v366l-55 25v7l149 43v-441zM92 604q0 -24 -17 -41t-40 -17q-24 0 -40 17t-16 41t16 40.5t40 16.5t40.5 -16.5t16.5 -40.5zM267 604q0 -24 -16.5 -41t-40.5 -17t-40 17t-16 41t16 40.5t40 16.5t40.5 -16.5t16.5 -40.5z" />
<glyph unicode="&#xf0;" horiz-adv-x="538" d="M88 559l187 61q-27 28 -59.5 55t-71.5 57h31q81 -46 144 -98l149 48l11 -34l-129 -42q45 -45 76.5 -89t51 -89.5t28 -94t8.5 -103.5q0 -50 -18.5 -94t-51 -77t-77 -52t-98.5 -19q-53 0 -97.5 19t-77.5 52t-51 77t-18 94t18 94.5t51 77t77.5 51.5t97.5 19q30 0 58 -6.5 t53 -18.5q-13 41 -32.5 76t-46.5 68l-202 -66zM407 230q-1 41 -9.5 77t-25.5 62t-42.5 41t-60.5 15q-36 0 -61.5 -15t-42.5 -41t-25 -62t-8 -77q0 -42 8 -77t25 -61.5t42.5 -41.5t61.5 -15q35 0 61 15t43 41.5t25.5 61.5t8.5 77z" />
<glyph unicode="&#xf1;" horiz-adv-x="567" d="M493 40l54 -33v-7h-203v7l54 33v286q0 49 -18.5 67t-51.5 18q-24 0 -51.5 -14.5t-51.5 -31.5q-28 -20 -54 -47v-278l54 -33v-7h-202v7l54 33v364l-54 27v7l148 42v-109q36 28 72 50q31 18 66 34t65 16q68 0 93.5 -39.5t25.5 -105.5v-286zM484 676q-6 -36 -23 -63 q-14 -24 -39 -44t-66 -20q-34 0 -54 10.5t-35 22.5t-29.5 22.5t-39.5 10.5q-27 0 -45 -10.5t-29 -21.5q-13 -14 -21 -32h-18q6 36 23 64q14 24 38.5 43.5t66.5 19.5q34 0 54 -10t35 -22.5t29.5 -22.5t39.5 -10q27 0 44.5 9.5t29.5 22.5q13 13 21 31h18z" />
<glyph unicode="&#xf2;" horiz-adv-x="538" d="M514 229q0 -50 -18.5 -94t-51 -76.5t-77 -51.5t-98.5 -19q-53 0 -97.5 19t-77.5 51.5t-51 76.5t-18 94t18 94.5t51 77t77.5 51.5t97.5 19t98 -19t77.5 -51.5t51 -77t18.5 -94.5zM407 229q0 41 -8.5 77t-25.5 62t-43 41t-61 15q-36 0 -61.5 -15t-42.5 -41t-25 -62t-8 -77 q0 -42 8 -77t25 -61t42.5 -41t61.5 -15q35 0 61 15t43 41t25.5 61t8.5 77zM200 591q-15 8 -21.5 19.5t-6.5 22.5q0 19 13.5 34t36.5 15q12 0 25.5 -5t24.5 -21l91 -138h-23l-140 73v0z" />
<glyph unicode="&#xf3;" horiz-adv-x="538" d="M514 229q0 -50 -18.5 -94t-51 -76.5t-77 -51.5t-98.5 -19q-53 0 -97.5 19t-77.5 51.5t-51 76.5t-18 94t18 94.5t51 77t77.5 51.5t97.5 19t98 -19t77.5 -51.5t51 -77t18.5 -94.5zM407 229q0 41 -8.5 77t-25.5 62t-43 41t-61 15q-36 0 -61.5 -15t-42.5 -41t-25 -62t-8 -77 q0 -42 8 -77t25 -61t42.5 -41t61.5 -15q35 0 61 15t43 41t25.5 61t8.5 77zM198 518h-23l91 138q11 16 24.5 21t25.5 5q23 0 36.5 -14.5t13.5 -34.5q0 -11 -6.5 -22.5t-21.5 -19.5z" />
<glyph unicode="&#xf4;" horiz-adv-x="538" d="M514 229q0 -50 -18.5 -94t-51 -76.5t-77 -51.5t-98.5 -19q-53 0 -97.5 19t-77.5 51.5t-51 76.5t-18 94t18 94.5t51 77t77.5 51.5t97.5 19t98 -19t77.5 -51.5t51 -77t18.5 -94.5zM407 229q0 41 -8.5 77t-25.5 62t-43 41t-61 15q-36 0 -61.5 -15t-42.5 -41t-25 -62t-8 -77 q0 -42 8 -77t25 -61t42.5 -41t61.5 -15q35 0 61 15t43 41t25.5 61t8.5 77zM135 527l117 165h33l117 -165h-23l-111 77l-110 -77h-23z" />
<glyph unicode="&#xf5;" horiz-adv-x="538" d="M514 229q0 -50 -18.5 -94t-51 -76.5t-77 -51.5t-98.5 -19q-53 0 -97.5 19t-77.5 51.5t-51 76.5t-18 94t18 94.5t51 77t77.5 51.5t97.5 19t98 -19t77.5 -51.5t51 -77t18.5 -94.5zM407 229q0 41 -8.5 77t-25.5 62t-43 41t-61 15q-36 0 -61.5 -15t-42.5 -41t-25 -62t-8 -77 q0 -42 8 -77t25 -61t42.5 -41t61.5 -15q35 0 61 15t43 41t25.5 61t8.5 77zM469 676q-6 -36 -23 -63q-14 -24 -39 -44t-66 -20q-34 0 -54 10.5t-35 22.5t-29.5 22.5t-39.5 10.5q-27 0 -45 -10.5t-29 -21.5q-13 -14 -21 -32h-18q6 36 23 64q14 24 38.5 43.5t66.5 19.5 q34 0 54 -10t35 -22.5t29.5 -22.5t39.5 -10q27 0 44.5 9.5t29.5 22.5q13 13 21 31h18z" />
<glyph unicode="&#xf6;" horiz-adv-x="538" d="M514 229q0 -50 -18.5 -94t-51 -76.5t-77 -51.5t-98.5 -19q-53 0 -97.5 19t-77.5 51.5t-51 76.5t-18 94t18 94.5t51 77t77.5 51.5t97.5 19t98 -19t77.5 -51.5t51 -77t18.5 -94.5zM407 229q0 41 -8.5 77t-25.5 62t-43 41t-61 15q-36 0 -61.5 -15t-42.5 -41t-25 -62t-8 -77 q0 -42 8 -77t25 -61t42.5 -41t61.5 -15q35 0 61 15t43 41t25.5 61t8.5 77zM238 604q0 -24 -17 -41t-40 -17q-24 0 -40 17t-16 41t16 40.5t40 16.5t40.5 -16.5t16.5 -40.5zM413 604q0 -24 -16.5 -41t-40.5 -17t-40 17t-16 41t16 40.5t40 16.5t40.5 -16.5t16.5 -40.5z" />
<glyph unicode="&#xf7;" horiz-adv-x="521" d="M197 131q0 26 18 45t45 19q26 0 45 -19t19 -45q0 -27 -19 -45t-45 -18q-27 0 -45 18t-18 45zM197 479q0 26 18 45t45 19q26 0 45 -19t19 -45q0 -27 -19 -45t-45 -18q-27 0 -45 18t-18 45zM82 330h356v-51h-356v51z" />
<glyph unicode="&#xf8;" horiz-adv-x="538" d="M514 229q0 -50 -18.5 -94t-51 -76.5t-77 -51.5t-98.5 -19q-46 0 -85 13.5t-69 38.5l-48 -48l-35 36l47 47q-27 32 -40.5 70.5t-13.5 83.5q0 50 18 94.5t51 77t77.5 51.5t97.5 19q45 0 84 -14t71 -38l48 48l34 -36l-47 -47q27 -32 41 -71t14 -84zM407 229q0 50 -13 90 l-229 -229q17 -27 42.5 -41t61.5 -14q35 0 61 15t43 41t25.5 61t8.5 77zM269 424q-36 0 -61.5 -15t-42.5 -41t-25 -62t-8 -77q0 -48 11 -90l230 229q-17 27 -42.5 41.5t-61.5 14.5z" />
<glyph unicode="&#xf9;" horiz-adv-x="631" d="M96 404l-55 27v7l149 42v-347q0 -49 18.5 -67t51.5 -18q24 0 51.5 14.5t51.5 31.5q27 19 54 46v264l-54 27v7l148 42v-440l55 -33v-7h-149v88q-34 -29 -68 -50q-30 -19 -64 -34.5t-66 -15.5q-36 0 -59.5 10t-37.5 29t-20 46t-6 60v271zM236 591q-15 8 -21.5 19.5 t-6.5 22.5q0 19 13.5 34t36.5 15q12 0 25.5 -5t24.5 -21l91 -138h-23l-140 73v0z" />
<glyph unicode="&#xfa;" horiz-adv-x="631" d="M96 404l-55 27v7l149 42v-347q0 -49 18.5 -67t51.5 -18q24 0 51.5 14.5t51.5 31.5q27 19 54 46v264l-54 27v7l148 42v-440l55 -33v-7h-149v88q-34 -29 -68 -50q-30 -19 -64 -34.5t-66 -15.5q-36 0 -59.5 10t-37.5 29t-20 46t-6 60v271zM255 518h-23l91 138q11 16 24.5 21 t25.5 5q23 0 36.5 -14.5t13.5 -34.5q0 -11 -6.5 -22.5t-21.5 -19.5z" />
<glyph unicode="&#xfb;" horiz-adv-x="631" d="M96 404l-55 27v7l149 42v-347q0 -49 18.5 -67t51.5 -18q24 0 51.5 14.5t51.5 31.5q27 19 54 46v264l-54 27v7l148 42v-440l55 -33v-7h-149v88q-34 -29 -68 -50q-30 -19 -64 -34.5t-66 -15.5q-36 0 -59.5 10t-37.5 29t-20 46t-6 60v271zM172 527l117 165h33l117 -165h-23 l-111 77l-110 -77h-23z" />
<glyph unicode="&#xfc;" horiz-adv-x="631" d="M96 404l-55 27v7l149 42v-347q0 -49 18.5 -67t51.5 -18q24 0 51.5 14.5t51.5 31.5q27 19 54 46v264l-54 27v7l148 42v-440l55 -33v-7h-149v88q-34 -29 -68 -50q-30 -19 -64 -34.5t-66 -15.5q-36 0 -59.5 10t-37.5 29t-20 46t-6 60v271zM274 604q0 -24 -17 -41t-40 -17 q-24 0 -40 17t-16 41t16 40.5t40 16.5t40.5 -16.5t16.5 -40.5zM449 604q0 -24 -16.5 -41t-40.5 -17t-40 17t-16 41t16 40.5t40 16.5t40.5 -16.5t16.5 -40.5z" />
<glyph unicode="&#xfd;" horiz-adv-x="476" d="M468 452l-55 -33l-232 -612q-15 -34 -28 -52.5t-24.5 -28.5t-23 -12t-23.5 -2q-24 0 -35.5 14.5t-11.5 31.5q0 14 8.5 27t27.5 18q20 5 33.5 9t22.5 9.5t14.5 13.5t12.5 22l56 153l-159 410l-53 32v7h193v-7l-43 -26l104 -267l8 -34l8 38l102 263l-42 26v7h140v-7z M200 537h-23l91 138q11 16 24.5 21t25.5 5q23 0 36.5 -14.5t13.5 -34.5q0 -11 -6.5 -22.5t-21.5 -19.5z" />
<glyph unicode="&#xfe;" horiz-adv-x="555" d="M70 698l-55 27v7l149 42v-370q18 29 54.5 48t75.5 19q51 0 93.5 -17.5t73.5 -49t47.5 -76t16.5 -99.5q0 -50 -15.5 -94t-45.5 -76.5t-73 -51.5t-97 -19q-39 0 -73 14.5t-57 39.5v-278l64 -32v-7h-223v7l65 32v934zM294 35q62 0 93 51.5t31 142.5q0 93 -31 144t-93 51 q-27 0 -50.5 -10t-41 -27t-28 -41.5t-10.5 -54.5v-134q0 -28 10.5 -50t28 -38.5t41 -25t50.5 -8.5z" />
<glyph unicode="&#xff;" horiz-adv-x="476" d="M468 452l-55 -33l-232 -612q-15 -34 -28 -52.5t-24.5 -28.5t-23 -12t-23.5 -2q-24 0 -35.5 14.5t-11.5 31.5q0 14 8.5 27t27.5 18q20 5 33.5 9t22.5 9.5t14.5 13.5t12.5 22l56 153l-159 410l-53 32v7h193v-7l-43 -26l104 -267l8 -34l8 38l102 263l-42 26v7h140v-7z M229 604q0 -24 -17 -41t-40 -17q-24 0 -40 17t-16 41t16 40.5t40 16.5t40.5 -16.5t16.5 -40.5zM404 604q0 -24 -16.5 -41t-40.5 -17t-40 17t-16 41t16 40.5t40 16.5t40.5 -16.5t16.5 -40.5z" />
<glyph unicode="&#x100;" horiz-adv-x="751" d="M563 58l-74 179h-279l-74 -179l70 -51v-7h-196v7l70 51l288 698h18l287 -698l68 -51v-7h-247v7zM469 288l-109 261l-9 42l-6 -27l-114 -276h238zM247 903h253v-53h-253v53z" />
<glyph unicode="&#x101;" horiz-adv-x="487" d="M425 40l54 -33v-7h-148v50q-22 -30 -58.5 -46t-83.5 -16q-31 0 -59 5.5t-49.5 20t-34.5 38.5t-13 61q0 44 27 73.5t69.5 49t96 29.5t105.5 16v37q0 55 -20 80.5t-69 25.5q-39 0 -65.5 -14.5t-38.5 -59.5q-6 -25 -21 -35.5t-30 -10.5q-17 0 -30.5 11t-13.5 31q0 23 20 49 q17 22 39 36.5t46 23.5t48 12.5t46 3.5q54 0 89.5 -13t56.5 -35.5t29 -51.5t8 -63v-268zM331 239q-46 -4 -83 -11.5t-63 -20t-40 -34t-14 -54.5q0 -41 23.5 -62.5t56.5 -21.5q55 0 87.5 33t32.5 82v89zM117 610h253v-53h-253v53z" />
<glyph unicode="&#x102;" horiz-adv-x="751" d="M563 58l-74 179h-279l-74 -179l70 -51v-7h-196v7l70 51l288 698h18l287 -698l68 -51v-7h-247v7zM469 288l-109 261l-9 42l-6 -27l-114 -276h238zM494 915q-11 -46 -41 -70.5t-76 -24.5t-76 24.5t-41 70.5l18 14q30 -59 99 -59q70 0 99 59z" />
<glyph unicode="&#x103;" horiz-adv-x="487" d="M425 40l54 -33v-7h-148v50q-22 -30 -58.5 -46t-83.5 -16q-31 0 -59 5.5t-49.5 20t-34.5 38.5t-13 61q0 44 27 73.5t69.5 49t96 29.5t105.5 16v37q0 55 -20 80.5t-69 25.5q-39 0 -65.5 -14.5t-38.5 -59.5q-6 -25 -21 -35.5t-30 -10.5q-17 0 -30.5 11t-13.5 31q0 23 20 49 q17 22 39 36.5t46 23.5t48 12.5t46 3.5q54 0 89.5 -13t56.5 -35.5t29 -51.5t8 -63v-268zM331 239q-46 -4 -83 -11.5t-63 -20t-40 -34t-14 -54.5q0 -41 23.5 -62.5t56.5 -21.5q55 0 87.5 33t32.5 82v89zM359 642q-11 -46 -41 -70.5t-76 -24.5t-76 24.5t-41 70.5l18 14 q30 -59 99 -59q70 0 99 59z" />
<glyph unicode="&#x104;" horiz-adv-x="751" d="M475 -112q0 20 10.5 38t26 31.5t34 24.5t35.5 18h-87v7l69 51l-74 179h-279l-74 -179l70 -51v-7h-196v7l70 51l288 698h18l287 -698l68 -51v-7h-117q-26 -12 -44 -28q-16 -13 -29.5 -31t-13.5 -39q0 -17 9.5 -28.5t28.5 -11.5q30 0 53 23.5t41 58.5l53 -35 q-44 -43 -81.5 -61.5t-83.5 -18.5q-40 0 -61 16t-21 43zM469 288l-109 261l-9 42l-6 -27l-114 -276h238z" />
<glyph unicode="&#x105;" horiz-adv-x="487" d="M331 50q-22 -30 -58.5 -46t-83.5 -16q-31 0 -59 5.5t-49.5 20t-34.5 38.5t-13 61q0 44 27 73.5t69.5 49t96 29.5t105.5 16v37q0 55 -20 80.5t-69 25.5q-39 0 -65.5 -14.5t-38.5 -59.5q-6 -25 -21 -35.5t-30 -10.5q-17 0 -30.5 11t-13.5 31q0 23 20 49q17 22 39 36.5 t46 23.5t48 12.5t46 3.5q54 0 89.5 -13t56.5 -35.5t29 -51.5t8 -63v-268l54 -33v-7h-105q-26 -12 -44 -28q-16 -13 -29.5 -31t-13.5 -39q0 -17 9.5 -28.5t29.5 -11.5q30 0 52.5 23.5t40.5 58.5l53 -35q-44 -43 -81.5 -61.5t-83.5 -18.5q-40 0 -61 16.5t-21 42.5 q0 20 10.5 38t26.5 31.5t34 24.5t35 18v50zM331 239q-46 -4 -83 -11.5t-63 -20t-40 -34t-14 -54.5q0 -41 23.5 -62.5t56.5 -21.5q55 0 87.5 33t32.5 82v89z" />
<glyph unicode="&#x106;" horiz-adv-x="723" d="M392 693q-59 0 -104 -25t-75 -68.5t-45 -103.5t-15 -129q0 -74 18.5 -134.5t53 -103.5t81.5 -66.5t104 -23.5q84 0 148 40t109 129l28 -20q-40 -100 -112.5 -150t-172.5 -50q-91 0 -162.5 27t-119.5 76.5t-73 120t-25 155.5q0 80 27 149t75.5 119.5t116 79.5t147.5 29 q42 0 98 -10t108 -35v-165h-16q-8 30 -22.5 58.5t-37.5 51t-56 36t-78 13.5zM353 810h-23l91 138q11 16 24.5 21t25.5 5q23 0 36.5 -14.5t13.5 -34.5q0 -11 -6.5 -22.5t-21.5 -19.5z" />
<glyph unicode="&#x107;" horiz-adv-x="501" d="M472 101q-11 -22 -30.5 -42t-45 -36t-55.5 -25.5t-59 -9.5q-53 0 -100 15t-81 46t-54 76t-20 104q0 58 22 103.5t56.5 76t77.5 46.5t86 16q42 0 84.5 -13t73.5 -42q18 -17 26 -33.5t8 -31.5q0 -22 -14.5 -35t-31.5 -13q-15 0 -30 12.5t-23 41.5q-7 31 -27.5 49t-65.5 18 q-36 0 -61 -16.5t-41.5 -43.5t-24.5 -62.5t-8 -72.5q0 -90 40.5 -142t107.5 -52q54 0 97 25t73 71zM183 518h-23l91 138q11 16 24.5 21t25.5 5q23 0 36.5 -14.5t13.5 -34.5q0 -11 -6.5 -22.5t-21.5 -19.5z" />
<glyph unicode="&#x108;" horiz-adv-x="723" d="M392 693q-59 0 -104 -25t-75 -68.5t-45 -103.5t-15 -129q0 -74 18.5 -134.5t53 -103.5t81.5 -66.5t104 -23.5q84 0 148 40t109 129l28 -20q-40 -100 -112.5 -150t-172.5 -50q-91 0 -162.5 27t-119.5 76.5t-73 120t-25 155.5q0 80 27 149t75.5 119.5t116 79.5t147.5 29 q42 0 98 -10t108 -35v-165h-16q-8 30 -22.5 58.5t-37.5 51t-56 36t-78 13.5zM263 799l117 165h33l117 -165h-23l-111 77l-110 -77h-23z" />
<glyph unicode="&#x109;" horiz-adv-x="501" d="M472 101q-11 -22 -30.5 -42t-45 -36t-55.5 -25.5t-59 -9.5q-53 0 -100 15t-81 46t-54 76t-20 104q0 58 22 103.5t56.5 76t77.5 46.5t86 16q42 0 84.5 -13t73.5 -42q18 -17 26 -33.5t8 -31.5q0 -22 -14.5 -35t-31.5 -13q-15 0 -30 12.5t-23 41.5q-7 31 -27.5 49t-65.5 18 q-36 0 -61 -16.5t-41.5 -43.5t-24.5 -62.5t-8 -72.5q0 -90 40.5 -142t107.5 -52q54 0 97 25t73 71zM136 527l117 165h33l117 -165h-23l-111 77l-110 -77h-23z" />
<glyph unicode="&#x10a;" horiz-adv-x="723" d="M392 693q-59 0 -104 -25t-75 -68.5t-45 -103.5t-15 -129q0 -74 18.5 -134.5t53 -103.5t81.5 -66.5t104 -23.5q84 0 148 40t109 129l28 -20q-40 -100 -112.5 -150t-172.5 -50q-91 0 -162.5 27t-119.5 76.5t-73 120t-25 155.5q0 80 27 149t75.5 119.5t116 79.5t147.5 29 q42 0 98 -10t108 -35v-165h-16q-8 30 -22.5 58.5t-37.5 51t-56 36t-78 13.5zM332 871q0 27 18.5 45t45.5 18t45 -18.5t18 -44.5q0 -27 -18 -45.5t-45 -18.5t-45.5 18.5t-18.5 45.5z" />
<glyph unicode="&#x10b;" horiz-adv-x="501" d="M472 101q-11 -22 -30.5 -42t-45 -36t-55.5 -25.5t-59 -9.5q-53 0 -100 15t-81 46t-54 76t-20 104q0 58 22 103.5t56.5 76t77.5 46.5t86 16q42 0 84.5 -13t73.5 -42q18 -17 26 -33.5t8 -31.5q0 -22 -14.5 -35t-31.5 -13q-15 0 -30 12.5t-23 41.5q-7 31 -27.5 49t-65.5 18 q-36 0 -61 -16.5t-41.5 -43.5t-24.5 -62.5t-8 -72.5q0 -90 40.5 -142t107.5 -52q54 0 97 25t73 71zM205 609q0 27 18.5 45t45.5 18t45 -18.5t18 -44.5q0 -27 -18 -45.5t-45 -18.5t-45.5 18.5t-18.5 45.5z" />
<glyph unicode="&#x10c;" horiz-adv-x="723" d="M392 693q-59 0 -104 -25t-75 -68.5t-45 -103.5t-15 -129q0 -74 18.5 -134.5t53 -103.5t81.5 -66.5t104 -23.5q84 0 148 40t109 129l28 -20q-40 -100 -112.5 -150t-172.5 -50q-91 0 -162.5 27t-119.5 76.5t-73 120t-25 155.5q0 80 27 149t75.5 119.5t116 79.5t147.5 29 q42 0 98 -10t108 -35v-165h-16q-8 30 -22.5 58.5t-37.5 51t-56 36t-78 13.5zM286 964l110 -77l111 77h23l-117 -165h-33l-117 165h23z" />
<glyph unicode="&#x10d;" horiz-adv-x="501" d="M472 101q-11 -22 -30.5 -42t-45 -36t-55.5 -25.5t-59 -9.5q-53 0 -100 15t-81 46t-54 76t-20 104q0 58 22 103.5t56.5 76t77.5 46.5t86 16q42 0 84.5 -13t73.5 -42q18 -17 26 -33.5t8 -31.5q0 -22 -14.5 -35t-31.5 -13q-15 0 -30 12.5t-23 41.5q-7 31 -27.5 49t-65.5 18 q-36 0 -61 -16.5t-41.5 -43.5t-24.5 -62.5t-8 -72.5q0 -90 40.5 -142t107.5 -52q54 0 97 25t73 71zM159 692l110 -77l111 77h23l-117 -165h-33l-117 165h23z" />
<glyph unicode="&#x10e;" horiz-adv-x="742" d="M28 0v7l69 51v616l-69 51v7h324q83 0 148.5 -27t111.5 -76t70.5 -116.5t24.5 -146.5q0 -80 -24.5 -147t-70.5 -116t-111.5 -76t-148.5 -27h-324zM205 58l7 -7h125q67 0 115.5 22.5t79.5 64t46.5 99.5t15.5 129t-15.5 128.5t-46.5 99t-80 64.5t-115 23h-125l-7 -7v-616z M206 964l110 -77l111 77h23l-117 -165h-33l-117 165h23z" />
<glyph unicode="&#x10f;" horiz-adv-x="719" d="M416 71q-22 -36 -63 -59.5t-90 -23.5q-54 0 -97 19t-73 51.5t-45.5 76.5t-15.5 94q0 54 17 99t47.5 76.5t73 49t93.5 17.5q39 0 75.5 -19t54.5 -48v294l-54 27v7l148 42v-734l55 -33v-7h-126v71zM139 229q0 -91 31 -142.5t93 -51.5q26 0 50 8.5t41.5 25t28 38.5t10.5 50 v134q0 30 -10.5 54.5t-28 41.5t-41.5 27t-50 10q-62 0 -93 -51t-31 -144zM576 678q0 26 17 40t41 14q39 0 57 -25t18 -69q0 -18 -4 -38.5t-15.5 -41.5t-32 -42.5t-53.5 -42.5l-10 16q36 28 49 45t13 33q0 17 -13 28t-26 19q-22 14 -31.5 29t-9.5 35z" />
<glyph unicode="&#x110;" horiz-adv-x="756" d="M28 392h76l8 7v275l-70 51v7h325q83 0 148.5 -27t111.5 -76t70 -116.5t24 -146.5q0 -80 -24 -147t-70 -116t-111.5 -76t-148.5 -27h-325v7l70 51v276l-8 7h-76v51zM219 58l7 -7h125q67 0 115.5 22.5t80 64t46.5 99.5t15 129t-15 128.5t-46.5 99t-80 64.5t-115.5 23h-125 l-7 -7v-275l7 -7h77v-51h-77l-7 -7v-276z" />
<glyph unicode="&#x111;" horiz-adv-x="581" d="M416 71q-22 -36 -63 -59.5t-90 -23.5q-54 0 -97 19t-73 51.5t-45.5 76.5t-15.5 94q0 54 17 99t47.5 76.5t73 49t93.5 17.5q39 0 75.5 -19t54.5 -48v160l-7 7h-171v47h171l7 8v72l-54 27v7l148 42v-148l8 -8h76v-47h-76l-8 -7v-524l55 -33v-7h-126v71zM139 229 q0 -91 31 -142.5t93 -51.5q26 0 50 8.5t41.5 25t28 38.5t10.5 50v134q0 30 -10.5 54.5t-28 41.5t-41.5 27t-50 10q-62 0 -93 -51t-31 -144z" />
<glyph unicode="&#x112;" horiz-adv-x="630" d="M210 366l-7 -8v-300l7 -7h285l99 114h7l-26 -165h-549v7l69 51v616l-69 51v7h520l18 -150h-7l-72 99h-275l-7 -7v-250l7 -7h248l35 59h6v-169h-6l-35 59h-248zM179 903h253v-53h-253v53z" />
<glyph unicode="&#x113;" horiz-adv-x="500" d="M480 125q-30 -63 -79.5 -100t-118.5 -37q-54 0 -100.5 15t-80 46t-52.5 76t-19 104q0 54 19.5 99t51.5 76.5t74 49t87 17.5q46 0 85.5 -16.5t67.5 -45t44.5 -67.5t16.5 -84v-29h-339q0 -98 38.5 -146t106.5 -48q22 0 45 4t46 16.5t44 34.5t39 57zM260 424 q-33 0 -55.5 -13t-36.5 -34t-21.5 -47.5t-8.5 -53.5h244v10q0 25 -6.5 49t-21.5 44t-38 32.5t-56 12.5zM136 610h253v-53h-253v53z" />
<glyph unicode="&#x114;" horiz-adv-x="630" d="M210 366l-7 -8v-300l7 -7h285l99 114h7l-26 -165h-549v7l69 51v616l-69 51v7h520l18 -150h-7l-72 99h-275l-7 -7v-250l7 -7h248l35 59h6v-169h-6l-35 59h-248zM422 915q-11 -46 -41 -70.5t-76 -24.5t-76 24.5t-41 70.5l18 14q30 -59 99 -59q70 0 99 59z" />
<glyph unicode="&#x115;" horiz-adv-x="500" d="M480 125q-30 -63 -79.5 -100t-118.5 -37q-54 0 -100.5 15t-80 46t-52.5 76t-19 104q0 54 19.5 99t51.5 76.5t74 49t87 17.5q46 0 85.5 -16.5t67.5 -45t44.5 -67.5t16.5 -84v-29h-339q0 -98 38.5 -146t106.5 -48q22 0 45 4t46 16.5t44 34.5t39 57zM260 424 q-33 0 -55.5 -13t-36.5 -34t-21.5 -47.5t-8.5 -53.5h244v10q0 25 -6.5 49t-21.5 44t-38 32.5t-56 12.5zM379 642q-11 -46 -41 -70.5t-76 -24.5t-76 24.5t-41 70.5l18 14q30 -59 99 -59q70 0 99 59z" />
<glyph unicode="&#x116;" horiz-adv-x="630" d="M210 366l-7 -8v-300l7 -7h285l99 114h7l-26 -165h-549v7l69 51v616l-69 51v7h520l18 -150h-7l-72 99h-275l-7 -7v-250l7 -7h248l35 59h6v-169h-6l-35 59h-248zM260 871q0 27 18.5 45t45.5 18t45 -18.5t18 -44.5q0 -27 -18 -45.5t-45 -18.5t-45.5 18.5t-18.5 45.5z" />
<glyph unicode="&#x117;" horiz-adv-x="500" d="M480 125q-30 -63 -79.5 -100t-118.5 -37q-54 0 -100.5 15t-80 46t-52.5 76t-19 104q0 54 19.5 99t51.5 76.5t74 49t87 17.5q46 0 85.5 -16.5t67.5 -45t44.5 -67.5t16.5 -84v-29h-339q0 -98 38.5 -146t106.5 -48q22 0 45 4t46 16.5t44 34.5t39 57zM260 424 q-33 0 -55.5 -13t-36.5 -34t-21.5 -47.5t-8.5 -53.5h244v10q0 25 -6.5 49t-21.5 44t-38 32.5t-56 12.5zM198 609q0 27 18.5 45t45.5 18t45 -18.5t18 -44.5q0 -27 -18 -45.5t-45 -18.5t-45.5 18.5t-18.5 45.5z" />
<glyph unicode="&#x118;" horiz-adv-x="630" d="M354 -112q0 20 10.5 38t26.5 31.5t34 24.5t35 18h-434v7l69 51v616l-69 51v7h520l18 -150h-7l-72 99h-275l-7 -7v-250l7 -7h248l35 59h6v-169h-6l-35 59h-248l-7 -8v-300l7 -7h285l99 114h7l-26 -165h-72q-26 -12 -44 -28q-16 -13 -29.5 -31t-13.5 -39q0 -17 9.5 -28.5 t29.5 -11.5q30 0 52.5 23.5t40.5 58.5l53 -35q-44 -43 -81.5 -61.5t-83.5 -18.5q-40 0 -61 16t-21 43z" />
<glyph unicode="&#x119;" horiz-adv-x="500" d="M205 -112q0 16 7 31t19 27.5t26 23t29 18.5h-4q-54 0 -100.5 15t-80 46t-52.5 76t-19 104q0 54 19.5 99t51.5 76.5t74 49t87 17.5q46 0 85.5 -16.5t67.5 -45t44.5 -67.5t16.5 -84v-29h-339q0 -98 38.5 -146t106.5 -48q22 0 45 4t46 16.5t44 34.5t39 57l24 -22 q-22 -46 -53 -78.5t-74 -46.5q-26 -12 -44 -28q-16 -13 -29.5 -31t-13.5 -39q0 -17 10 -28.5t29 -11.5q30 0 53 23.5t40 58.5l54 -35q-44 -43 -81.5 -61.5t-83.5 -18.5q-40 0 -61 16t-21 43zM260 424q-33 0 -55.5 -13t-36.5 -34t-21.5 -47.5t-8.5 -53.5h244v10q0 25 -6.5 49 t-21.5 44t-38 32.5t-56 12.5z" />
<glyph unicode="&#x11a;" horiz-adv-x="630" d="M210 366l-7 -8v-300l7 -7h285l99 114h7l-26 -165h-549v7l69 51v616l-69 51v7h520l18 -150h-7l-72 99h-275l-7 -7v-250l7 -7h248l35 59h6v-169h-6l-35 59h-248zM206 964l110 -77l111 77h23l-117 -165h-33l-117 165h23z" />
<glyph unicode="&#x11b;" horiz-adv-x="500" d="M480 125q-30 -63 -79.5 -100t-118.5 -37q-54 0 -100.5 15t-80 46t-52.5 76t-19 104q0 54 19.5 99t51.5 76.5t74 49t87 17.5q46 0 85.5 -16.5t67.5 -45t44.5 -67.5t16.5 -84v-29h-339q0 -98 38.5 -146t106.5 -48q22 0 45 4t46 16.5t44 34.5t39 57zM260 424 q-33 0 -55.5 -13t-36.5 -34t-21.5 -47.5t-8.5 -53.5h244v10q0 25 -6.5 49t-21.5 44t-38 32.5t-56 12.5zM152 692l110 -77l111 77h23l-117 -165h-33l-117 165h23z" />
<glyph unicode="&#x11c;" horiz-adv-x="714" d="M630 117q0 -13 3 -22t7 -15q4 -7 11 -11q-46 -45 -97.5 -63t-119.5 -18q-95 0 -170.5 26t-127.5 75t-79 119.5t-27 158.5q0 80 29 149t80.5 119.5t121.5 79.5t150 29q25 0 53 -2.5t57 -7.5t57 -14.5t52 -23.5v-162h-15q-9 28 -23.5 55.5t-38.5 51t-59.5 38t-85.5 14.5 q-57 0 -104.5 -24t-81 -67t-51.5 -103.5t-18 -131.5q0 -74 19 -134.5t56.5 -103.5t91.5 -66.5t123 -23.5q13 0 27 1.5t25.5 5.5t19 12t7.5 21v193l-7 8h-82v51h266v-7l-69 -52v-155v0zM278 799l117 165h33l117 -165h-23l-111 77l-110 -77h-23z" />
<glyph unicode="&#x11d;" horiz-adv-x="569" d="M264 -41q-41 3 -71.5 6t-53.5 9q-31 -31 -30 -82q0 -37 14.5 -62.5t39 -42t57.5 -24.5t69 -8q35 0 67 7.5t56.5 20.5t39 32.5t14.5 43.5q0 30 -19 48t-48.5 29t-65.5 15.5t-69 7.5zM274 185q53 0 83 35t30 87q0 25 -7.5 47t-22 38.5t-35.5 26t-48 9.5t-47 -9.5t-34.5 -26 t-22 -38.5t-7.5 -47q0 -52 29.5 -87t81.5 -35zM274 472q33 0 66 -7.5t60 -24.5l138 53l8 -11l-87 -100q8 -15 12.5 -34.5t4.5 -40.5q0 -43 -17.5 -74t-46 -51t-65 -30t-73.5 -10h-7q-27 0 -54 -9.5t-47 -20.5q-26 -13 -47 -31q8 -8 28 -15q17 -6 51 -12.5t92 -9.5 q37 -2 82.5 -8.5t85 -23t66.5 -46t27 -79.5q0 -51 -27.5 -84.5t-69 -53.5t-89.5 -28.5t-86 -8.5q-39 0 -83.5 10t-83 31.5t-64 55.5t-25.5 83q0 42 18.5 70t39.5 38q-12 9 -20.5 22t-13 25.5t-6 24.5t-1.5 21l129 70q-43 20 -69 55t-26 89q0 43 18 74.5t46.5 51.5t64 29.5 t71.5 9.5zM141 527l117 165h33l117 -165h-23l-111 77l-110 -77h-23z" />
<glyph unicode="&#x11e;" horiz-adv-x="714" d="M630 117q0 -13 3 -22t7 -15q4 -7 11 -11q-46 -45 -97.5 -63t-119.5 -18q-95 0 -170.5 26t-127.5 75t-79 119.5t-27 158.5q0 80 29 149t80.5 119.5t121.5 79.5t150 29q25 0 53 -2.5t57 -7.5t57 -14.5t52 -23.5v-162h-15q-9 28 -23.5 55.5t-38.5 51t-59.5 38t-85.5 14.5 q-57 0 -104.5 -24t-81 -67t-51.5 -103.5t-18 -131.5q0 -74 19 -134.5t56.5 -103.5t91.5 -66.5t123 -23.5q13 0 27 1.5t25.5 5.5t19 12t7.5 21v193l-7 8h-82v51h266v-7l-69 -52v-155v0zM528 915q-11 -46 -41 -70.5t-76 -24.5t-76 24.5t-41 70.5l18 14q30 -59 99 -59 q70 0 99 59z" />
<glyph unicode="&#x11f;" horiz-adv-x="569" d="M264 -41q-41 3 -71.5 6t-53.5 9q-31 -31 -30 -82q0 -37 14.5 -62.5t39 -42t57.5 -24.5t69 -8q35 0 67 7.5t56.5 20.5t39 32.5t14.5 43.5q0 30 -19 48t-48.5 29t-65.5 15.5t-69 7.5zM274 185q53 0 83 35t30 87q0 25 -7.5 47t-22 38.5t-35.5 26t-48 9.5t-47 -9.5t-34.5 -26 t-22 -38.5t-7.5 -47q0 -52 29.5 -87t81.5 -35zM274 472q33 0 66 -7.5t60 -24.5l138 53l8 -11l-87 -100q8 -15 12.5 -34.5t4.5 -40.5q0 -43 -17.5 -74t-46 -51t-65 -30t-73.5 -10h-7q-27 0 -54 -9.5t-47 -20.5q-26 -13 -47 -31q8 -8 28 -15q17 -6 51 -12.5t92 -9.5 q37 -2 82.5 -8.5t85 -23t66.5 -46t27 -79.5q0 -51 -27.5 -84.5t-69 -53.5t-89.5 -28.5t-86 -8.5q-39 0 -83.5 10t-83 31.5t-64 55.5t-25.5 83q0 42 18.5 70t39.5 38q-12 9 -20.5 22t-13 25.5t-6 24.5t-1.5 21l129 70q-43 20 -69 55t-26 89q0 43 18 74.5t46.5 51.5t64 29.5 t71.5 9.5zM391 642q-11 -46 -41 -70.5t-76 -24.5t-76 24.5t-41 70.5l18 14q30 -59 99 -59q70 0 99 59z" />
<glyph unicode="&#x120;" horiz-adv-x="714" d="M630 117q0 -13 3 -22t7 -15q4 -7 11 -11q-46 -45 -97.5 -63t-119.5 -18q-95 0 -170.5 26t-127.5 75t-79 119.5t-27 158.5q0 80 29 149t80.5 119.5t121.5 79.5t150 29q25 0 53 -2.5t57 -7.5t57 -14.5t52 -23.5v-162h-15q-9 28 -23.5 55.5t-38.5 51t-59.5 38t-85.5 14.5 q-57 0 -104.5 -24t-81 -67t-51.5 -103.5t-18 -131.5q0 -74 19 -134.5t56.5 -103.5t91.5 -66.5t123 -23.5q13 0 27 1.5t25.5 5.5t19 12t7.5 21v193l-7 8h-82v51h266v-7l-69 -52v-155v0zM347 871q0 27 18.5 45t45.5 18t45 -18.5t18 -44.5q0 -27 -18 -45.5t-45 -18.5 t-45.5 18.5t-18.5 45.5z" />
<glyph unicode="&#x121;" horiz-adv-x="569" d="M264 -41q-41 3 -71.5 6t-53.5 9q-31 -31 -30 -82q0 -37 14.5 -62.5t39 -42t57.5 -24.5t69 -8q35 0 67 7.5t56.5 20.5t39 32.5t14.5 43.5q0 30 -19 48t-48.5 29t-65.5 15.5t-69 7.5zM274 185q53 0 83 35t30 87q0 25 -7.5 47t-22 38.5t-35.5 26t-48 9.5t-47 -9.5t-34.5 -26 t-22 -38.5t-7.5 -47q0 -52 29.5 -87t81.5 -35zM274 472q33 0 66 -7.5t60 -24.5l138 53l8 -11l-87 -100q8 -15 12.5 -34.5t4.5 -40.5q0 -43 -17.5 -74t-46 -51t-65 -30t-73.5 -10h-7q-27 0 -54 -9.5t-47 -20.5q-26 -13 -47 -31q8 -8 28 -15q17 -6 51 -12.5t92 -9.5 q37 -2 82.5 -8.5t85 -23t66.5 -46t27 -79.5q0 -51 -27.5 -84.5t-69 -53.5t-89.5 -28.5t-86 -8.5q-39 0 -83.5 10t-83 31.5t-64 55.5t-25.5 83q0 42 18.5 70t39.5 38q-12 9 -20.5 22t-13 25.5t-6 24.5t-1.5 21l129 70q-43 20 -69 55t-26 89q0 43 18 74.5t46.5 51.5t64 29.5 t71.5 9.5zM210 609q0 27 18.5 45t45.5 18t45 -18.5t18 -44.5q0 -27 -18 -45.5t-45 -18.5t-45.5 18.5t-18.5 45.5z" />
<glyph unicode="&#x122;" horiz-adv-x="714" d="M369 -116q0 27 19.5 47t46.5 20q39 0 57.5 -26t18.5 -72q0 -50 -26 -100.5t-86 -93.5l-11 10q36 34 49 58.5t13 53.5q0 33 -33 40q-26 6 -37 22.5t-11 40.5zM630 117q0 -13 3 -22t7 -15q4 -7 11 -11q-46 -45 -97.5 -63t-119.5 -18q-95 0 -170.5 26t-127.5 75t-79 119.5 t-27 158.5q0 80 29 149t80.5 119.5t121.5 79.5t150 29q25 0 53 -2.5t57 -7.5t57 -14.5t52 -23.5v-162h-15q-9 28 -23.5 55.5t-38.5 51t-59.5 38t-85.5 14.5q-57 0 -104.5 -24t-81 -67t-51.5 -103.5t-18 -131.5q0 -74 19 -134.5t56.5 -103.5t91.5 -66.5t123 -23.5 q13 0 27 1.5t25.5 5.5t19 12t7.5 21v193l-7 8h-82v51h266v-7l-69 -52v-155z" />
<glyph unicode="&#x123;" horiz-adv-x="569" d="M264 -41q-41 3 -71.5 6t-53.5 9q-31 -31 -30 -82q0 -37 14.5 -62.5t39 -42t57.5 -24.5t69 -8q35 0 67 7.5t56.5 20.5t39 32.5t14.5 43.5q0 30 -19 48t-48.5 29t-65.5 15.5t-69 7.5zM274 185q53 0 83 35t30 87q0 25 -7.5 47t-22 38.5t-35.5 26t-48 9.5t-47 -9.5t-34.5 -26 t-22 -38.5t-7.5 -47q0 -52 29.5 -87t81.5 -35zM274 472q33 0 66 -7.5t60 -24.5l138 53l8 -11l-87 -100q8 -15 12.5 -34.5t4.5 -40.5q0 -43 -17.5 -74t-46 -51t-65 -30t-73.5 -10h-7q-27 0 -54 -9.5t-47 -20.5q-26 -13 -47 -31q8 -8 28 -15q17 -6 51 -12.5t92 -9.5 q37 -2 82.5 -8.5t85 -23t66.5 -46t27 -79.5q0 -51 -27.5 -84.5t-69 -53.5t-89.5 -28.5t-86 -8.5q-39 0 -83.5 10t-83 31.5t-64 55.5t-25.5 83q0 42 18.5 70t39.5 38q-12 9 -20.5 22t-13 25.5t-6 24.5t-1.5 21l129 70q-43 20 -69 55t-26 89q0 43 18 74.5t46.5 51.5t64 29.5 t71.5 9.5zM339 592q0 -26 -17.5 -40t-41.5 -14q-39 0 -56.5 25t-17.5 69q0 18 4 39t15 42t31.5 42.5t53.5 41.5l10 -16q-36 -28 -48.5 -45t-12.5 -33q0 -17 12.5 -28t26.5 -19q22 -14 31.5 -29t9.5 -35z" />
<glyph unicode="&#x124;" horiz-adv-x="784" d="M32 725v7h247v-7l-70 -51v-234l7 -7h352l7 7v234l-69 51v7h247v-7l-70 -51v-616l70 -51v-7h-247v7l69 51v317l-7 7h-352l-7 -7v-317l70 -51v-7h-247v7l69 51v616zM259 799l117 165h33l117 -165h-23l-111 77l-110 -77h-23z" />
<glyph unicode="&#x125;" horiz-adv-x="558" d="M492 40l54 -33v-7h-203v7l54 33v286q0 49 -23 67t-57 18q-24 0 -51.5 -14.5t-51.5 -31.5q-28 -20 -56 -47v-278l54 -33v-7h-203v7l54 33v658l-54 27v7l149 42v-403q36 28 71 50q31 18 67.5 34t67.5 16q68 0 98 -39.5t30 -105.5v-286zM82 799l117 165h33l117 -165h-23 l-111 77l-110 -77h-23z" />
<glyph unicode="&#x126;" horiz-adv-x="787" d="M34 725v7h247v-7l-70 -51v-82l7 -7h352l8 7v82l-70 51v7h247v-7l-70 -51v-82l7 -7h64v-51h-64l-7 -8v-468l70 -51v-7h-247v7l70 51v317l-8 7h-352l-7 -7v-317l70 -51v-7h-247v7l69 51v468l-7 8h-64v51h64l7 7v82zM211 526v-86l7 -7h352l8 7v86l-8 8h-352z" />
<glyph unicode="&#x127;" horiz-adv-x="585" d="M519 40l54 -33v-7h-202v7l54 33v286q0 49 -23 67t-57 18q-24 0 -52 -14.5t-51 -31.5q-28 -20 -57 -47v-278l55 -33v-7h-203v7l54 33v504l-7 7h-75v47h75l7 7v93l-54 27v7l148 42v-169l8 -7h69v-47h-69l-8 -7v-173q36 28 72 50q31 18 67 34t67 16q68 0 98 -39.5t30 -105.5 v-286z" />
<glyph unicode="&#x128;" horiz-adv-x="308" d="M208 58l70 -51v-7h-247v7l69 51v616l-69 51v7h247v-7l-70 -51v-616zM355 958q-6 -36 -23 -63q-14 -24 -39 -44t-66 -20q-34 0 -54 10.5t-35 22.5t-29.5 22.5t-39.5 10.5q-27 0 -45 -10.5t-29 -21.5q-13 -14 -21 -32h-18q6 36 23 64q14 24 38.5 43.5t66.5 19.5 q34 0 54 -10t35 -22.5t29.5 -22.5t39.5 -10q27 0 44.5 9.5t29.5 22.5q13 13 21 31h18z" />
<glyph unicode="&#x129;" horiz-adv-x="243" d="M169 40l54 -33v-7h-203v7l55 33v366l-55 25v7l149 43v-441zM323 676q-6 -36 -23 -63q-14 -24 -39 -44t-66 -20q-34 0 -54 10.5t-35 22.5t-29.5 22.5t-39.5 10.5q-27 0 -45 -10.5t-29 -21.5q-13 -14 -21 -32h-18q6 36 23 64q14 24 38.5 43.5t66.5 19.5q34 0 54 -10 t35 -22.5t29.5 -22.5t39.5 -10q27 0 44.5 9.5t29.5 22.5q13 13 21 31h18z" />
<glyph unicode="&#x12a;" horiz-adv-x="308" d="M208 58l70 -51v-7h-247v7l69 51v616l-69 51v7h247v-7l-70 -51v-616zM29 903h253v-53h-253v53z" />
<glyph unicode="&#x12b;" horiz-adv-x="243" d="M168 40l54 -33v-7h-203v7l55 33v366l-55 25v7l149 43v-441zM-3 610h253v-53h-253v53z" />
<glyph unicode="&#x12c;" horiz-adv-x="308" d="M208 58l70 -51v-7h-247v7l69 51v616l-69 51v7h247v-7l-70 -51v-616zM272 915q-11 -46 -41 -70.5t-76 -24.5t-76 24.5t-41 70.5l18 14q30 -59 99 -59q70 0 99 59z" />
<glyph unicode="&#x12d;" horiz-adv-x="243" d="M169 40l54 -33v-7h-203v7l55 33v366l-55 25v7l149 43v-441zM240 642q-11 -46 -41 -70.5t-76 -24.5t-76 24.5t-41 70.5l18 14q30 -59 99 -59q70 0 99 59z" />
<glyph unicode="&#x12e;" horiz-adv-x="308" d="M31 0v7l69 51v616l-69 51v7h247v-7l-70 -51v-616l70 -51v-7h-99q-26 -12 -44 -28q-16 -13 -29.5 -31t-13.5 -39q0 -17 10 -28.5t29 -11.5q30 0 53 23.5t40 58.5l54 -35q-44 -43 -81.5 -61.5t-83.5 -18.5q-40 0 -61 16.5t-21 42.5q0 20 10 38t26 31.5t34.5 24.5t34.5 18 h-105z" />
<glyph unicode="&#x12f;" horiz-adv-x="243" d="M0 -112q0 20 10 38t26 31.5t34.5 24.5t34.5 18h-86v7l55 33v364l-55 26v7l149 43v-440l54 -33v-7h-74q-26 -12 -44 -28q-16 -13 -29.5 -31t-13.5 -39q0 -17 10 -28.5t29 -11.5q30 0 53 23.5t41 58.5l53 -35q-44 -43 -81.5 -61.5t-83.5 -18.5q-40 0 -61 16t-21 43zM51 669 q0 27 18.5 45t45.5 18t45 -18.5t18 -44.5q0 -27 -18.5 -45.5t-44.5 -18.5q-27 0 -45.5 18.5t-18.5 45.5z" />
<glyph unicode="&#x130;" horiz-adv-x="308" d="M208 58l70 -51v-7h-247v7l69 51v616l-69 51v7h247v-7l-70 -51v-616zM91 871q0 27 18.5 45t45.5 18t45 -18.5t18 -44.5q0 -27 -18 -45.5t-45 -18.5t-45.5 18.5t-18.5 45.5z" />
<glyph unicode="&#x131;" horiz-adv-x="243" d="M164 40l54 -33v-7h-203v7l55 33v366l-55 25v7l149 43v-441z" />
<glyph unicode="&#x132;" horiz-adv-x="636" d="M208 58l70 -51v-7h-247v7l69 51v616l-69 51v7h247v-7l-70 -51v-616zM365 725v7h247v-7l-70 -51v-674q0 -50 -13 -96.5t-43 -86.5t-79.5 -70.5t-123.5 -46.5v32q83 30 117 89.5t34 152.5v700z" />
<glyph unicode="&#x133;" horiz-adv-x="455" d="M47 669q0 27 18.5 45t45.5 18t45 -18.5t18 -44.5q0 -27 -18.5 -45.5t-44.5 -18.5q-27 0 -45.5 18.5t-18.5 45.5zM164 40l54 -33v-7h-203v7l55 33v364l-55 26v7l149 43v-440zM296 404l-55 26v7l149 43v-480q0 -69 -10 -113t-31.5 -75.5t-55.5 -56t-82 -55.5l-8 18 q34 31 53 59t28 57.5t10.5 62t1.5 72.5v435zM399 669q0 -27 -18 -45.5t-44 -18.5q-27 0 -45 18.5t-18 45.5q0 26 18 44t45 18t44.5 -18t17.5 -44z" />
<glyph unicode="&#x134;" horiz-adv-x="309" d="M37 725v7h247v-7l-70 -51v-674q0 -50 -13 -96.5t-43 -86.5t-79.5 -70.5t-123.5 -46.5v32q83 30 117 89.5t34 152.5v700zM28 799l117 165h33l117 -165h-23l-111 77l-110 -77h-23z" />
<glyph unicode="&#x135;" horiz-adv-x="230" d="M73 406l-55 25v7l149 43v-481q0 -69 -10 -113t-31.5 -75.5t-55.5 -56t-82 -55.5l-7 18q34 31 52.5 59t27.5 57.5t10.5 62t1.5 72.5v437zM-26 526l117 165h34l117 -165h-24l-110 77l-110 -77h-24z" />
<glyph unicode="&#x136;" horiz-adv-x="665" d="M348 -116q0 27 19.5 47t47.5 20q39 0 57 -26t18 -72q0 -50 -26 -100.5t-85 -93.5l-11 10q36 34 48.5 58.5t12.5 53.5q0 33 -33 40q-26 6 -37 22.5t-11 40.5zM27 0v7l69 51v616l-69 51v7h246v-7l-69 -51v-259l288 279l-45 31v7h190v-7l-91 -50l-240 -233l72 25l287 -511 l-77 43l-82 59l-242 344l-60 -58v-286l69 -51v-7h-246z" />
<glyph unicode="&#x137;" horiz-adv-x="463" d="M233 -116q0 27 19.5 47t47.5 20q39 0 57.5 -26t18.5 -72q0 -50 -26 -100.5t-86 -93.5l-11 10q36 34 48.5 58.5t12.5 53.5q0 33 -32 40q-26 6 -37.5 22.5t-11.5 40.5zM476 -44l-94 44l-46 40l-137 224l-42 -34v-190l54 -33v-7h-203v7l54 33v658l-54 27v7l149 42v-481 l154 132l-43 27v7h185v-7l-83 -40l-124 -106l23 10z" />
<glyph unicode="&#x139;" horiz-adv-x="592" d="M26 725v7h246v-7l-69 -51v-616l7 -7h264l99 114h8l-26 -165h-529v7l69 51v616zM131 810h-23l91 138q11 16 24.5 21t25.5 5q23 0 36.5 -14.5t13.5 -34.5q0 -11 -6.5 -22.5t-21.5 -19.5z" />
<glyph unicode="&#x13a;" horiz-adv-x="249" d="M171 40l54 -33v-7h-202v7l54 33v658l-54 27v7l148 42v-734zM99 810h-23l91 138q11 16 24.5 21t25.5 5q23 0 36.5 -14.5t13.5 -34.5q0 -11 -6.5 -22.5t-21.5 -19.5z" />
<glyph unicode="&#x13b;" horiz-adv-x="592" d="M253 -116q0 27 19.5 47t46.5 20q39 0 57.5 -26t18.5 -72q0 -50 -26 -100.5t-85 -93.5l-12 10q36 34 49 58.5t13 53.5q0 33 -33 40q-26 6 -37 22.5t-11 40.5zM26 725v7h246v-7l-69 -51v-616l7 -7h264l99 114h8l-26 -165h-529v7l69 51v616z" />
<glyph unicode="&#x13c;" horiz-adv-x="249" d="M171 40l54 -33v-7h-202v7l54 33v658l-54 27v7l148 42v-734zM54 -115q0 27 19.5 47t47.5 20q39 0 57 -26t18 -72q0 -50 -26 -100.5t-85 -93.5l-11 10q36 34 48.5 58.5t12.5 53.5q0 17 -6.5 26t-26.5 14q-26 6 -37 22.5t-11 40.5z" />
<glyph unicode="&#x13d;" horiz-adv-x="592" d="M26 725v7h246v-7l-69 -51v-616l7 -7h264l99 114h8l-26 -165h-529v7l69 51v616zM40 964l110 -77l111 77h23l-117 -165h-33l-117 165h23z" />
<glyph unicode="&#x13e;" horiz-adv-x="384" d="M171 40l54 -33v-7h-202v7l54 33v658l-54 27v7l148 42v-734zM238 669q0 29 20 46t47 17q68 0 68 -79q0 -33 -16.5 -77.5t-63.5 -106.5h-18q24 41 30 60t6 33q0 17 -8 28t-25 20q-18 10 -29 23.5t-11 35.5z" />
<glyph unicode="&#x13f;" horiz-adv-x="592" d="M26 725v7h246v-7l-69 -51v-616l7 -7h264l99 114h8l-26 -165h-529v7l69 51v616zM426 367q0 27 19.5 46.5t47.5 19.5q27 0 46.5 -20t19.5 -46q0 -28 -20 -47.5t-46 -19.5q-28 0 -47.5 19.5t-19.5 47.5z" />
<glyph unicode="&#x140;" horiz-adv-x="382" d="M239 367q0 27 19.5 46.5t46.5 19.5t47 -20t20 -46q0 -28 -20 -47.5t-47 -19.5q-28 0 -47 19.5t-19 47.5zM171 40l54 -33v-7h-202v7l54 33v658l-54 27v7l148 42v-734z" />
<glyph unicode="&#x141;" horiz-adv-x="592" d="M5 725v7h247v-7l-70 -51v-308l90 52v-61l-90 -52v-247l7 -7h285l99 114h8l-26 -165h-550v7l70 51v186l-70 -40v60l70 40v370z" />
<glyph unicode="&#x142;" horiz-adv-x="249" d="M171 40l54 -33v-7h-202v7l54 33v199l-54 -31v55l54 31v404l-54 27v7l148 42v-426l54 32v-55l-54 -32v-253z" />
<glyph unicode="&#x143;" horiz-adv-x="748" d="M722 732v-7l-70 -51v-674l-493 588l-12 47v-577l69 -51v-7h-189v7l69 51v616l-69 51v7h151l411 -489l12 -48v479l-70 51v7h191zM302 810h-23l91 138q11 16 24.5 21t25.5 5q23 0 36.5 -14.5t13.5 -34.5q0 -11 -6.5 -22.5t-21.5 -19.5z" />
<glyph unicode="&#x144;" horiz-adv-x="567" d="M493 40l54 -33v-7h-203v7l54 33v286q0 49 -18.5 67t-51.5 18q-24 0 -51.5 -14.5t-51.5 -31.5q-28 -20 -54 -47v-278l54 -33v-7h-202v7l54 33v364l-54 27v7l148 42v-109q36 28 72 50q31 18 66 34t65 16q68 0 93.5 -39.5t25.5 -105.5v-286zM236 518h-23l91 138 q11 16 24.5 21t25.5 5q23 0 36.5 -14.5t13.5 -34.5q0 -11 -6.5 -22.5t-21.5 -19.5z" />
<glyph unicode="&#x145;" horiz-adv-x="748" d="M722 732v-7l-70 -51v-674l-493 588l-12 47v-577l69 -51v-7h-189v7l69 51v616l-69 51v7h151l411 -489l12 -48v479l-70 51v7h191zM330 -115q0 27 19.5 47t47.5 20q39 0 57 -26t18 -72q0 -50 -26 -100.5t-85 -93.5l-11 10q36 34 48.5 58.5t12.5 53.5q0 17 -6.5 26t-26.5 14 q-26 6 -37 22.5t-11 40.5z" />
<glyph unicode="&#x146;" horiz-adv-x="567" d="M493 40l54 -33v-7h-203v7l54 33v286q0 49 -18.5 67t-51.5 18q-24 0 -51.5 -14.5t-51.5 -31.5q-28 -20 -54 -47v-278l54 -33v-7h-202v7l54 33v364l-54 27v7l148 42v-109q36 28 72 50q31 18 66 34t65 16q68 0 93.5 -39.5t25.5 -105.5v-286zM220 -115q0 27 19.5 47t47.5 20 q39 0 57 -26t18 -72q0 -50 -26 -100.5t-85 -93.5l-11 10q36 34 48.5 58.5t12.5 53.5q0 17 -6.5 26t-26.5 14q-26 6 -37 22.5t-11 40.5z" />
<glyph unicode="&#x147;" horiz-adv-x="748" d="M722 732v-7l-70 -51v-674l-493 588l-12 47v-577l69 -51v-7h-189v7l69 51v616l-69 51v7h151l411 -489l12 -48v479l-70 51v7h191zM261 964l110 -77l111 77h23l-117 -165h-33l-117 165h23z" />
<glyph unicode="&#x148;" horiz-adv-x="567" d="M493 40l54 -33v-7h-203v7l54 33v286q0 49 -18.5 67t-51.5 18q-24 0 -51.5 -14.5t-51.5 -31.5q-28 -20 -54 -47v-278l54 -33v-7h-202v7l54 33v364l-54 27v7l148 42v-109q36 28 72 50q31 18 66 34t65 16q68 0 93.5 -39.5t25.5 -105.5v-286zM182 692l110 -77l111 77h23 l-117 -165h-33l-117 165h23z" />
<glyph unicode="&#x149;" horiz-adv-x="666" d="M592 40l54 -33v-7h-203v7l54 33v286q0 49 -18.5 67t-51.5 18q-24 0 -51.5 -14.5t-51.5 -31.5q-28 -20 -54 -47v-278l54 -33v-7h-202v7l54 33v364l-54 27v7l148 42v-109q36 28 72 50q31 18 66 34t65 16q68 0 93.5 -39.5t25.5 -105.5v-286zM17 669q0 29 20 46t47 17 q68 0 68 -79q0 -33 -16.5 -77.5t-63.5 -106.5h-18q24 41 30 60t6 33q0 17 -8 28t-25 20q-18 10 -29 23.5t-11 35.5z" />
<glyph unicode="&#x14a;" horiz-adv-x="747" d="M721 732v-7l-70 -51v-674q0 -54 -7.5 -100t-29.5 -83.5t-63 -67t-108 -49.5v32q83 30 117.5 92.5t34.5 156.5v77l-437 531l-12 47v-578l69 -51v-7h-189v7l69 51v616l-69 51v7h151l411 -489l12 -48v479l-70 51v7h191z" />
<glyph unicode="&#x14b;" horiz-adv-x="567" d="M493 0q0 -69 -10 -113t-31.5 -75.5t-56 -56t-82.5 -55.5l-7 18q34 31 53 59t27.5 57.5t10 62t1.5 72.5v366q-2 44 -20 60t-50 16q-24 0 -51.5 -14.5t-51.5 -31.5q-28 -20 -54 -47v-278l54 -33v-7h-202v7l54 33v364l-54 27v7l148 42v-109q36 28 72 50q31 18 66 34t65 16 q68 0 93.5 -39.5t25.5 -105.5v-326z" />
<glyph unicode="&#x14c;" horiz-adv-x="786" d="M630 367q0 72 -15 131.5t-44 103t-73.5 67.5t-104.5 24t-104 -24t-74 -67.5t-44 -103.5t-14 -131t14 -131t44 -104t74 -68.5t104 -24.5q59 0 104 24.5t74 68.5t44 104t15 131zM753 367q0 -80 -26.5 -149.5t-73.5 -120.5t-113.5 -80t-146.5 -29q-81 0 -147 29t-113 80 t-73 120.5t-26 149.5t26 149t73 119.5t113 79.5t147 29q80 0 146.5 -29t113.5 -79.5t73.5 -119.5t26.5 -149zM267 903h253v-53h-253v53z" />
<glyph unicode="&#x14d;" horiz-adv-x="538" d="M514 229q0 -50 -18.5 -94t-51 -76.5t-77 -51.5t-98.5 -19q-53 0 -97.5 19t-77.5 51.5t-51 76.5t-18 94t18 94.5t51 77t77.5 51.5t97.5 19t98 -19t77.5 -51.5t51 -77t18.5 -94.5zM407 229q0 41 -8.5 77t-25.5 62t-43 41t-61 15q-36 0 -61.5 -15t-42.5 -41t-25 -62t-8 -77 q0 -42 8 -77t25 -61t42.5 -41t61.5 -15q35 0 61 15t43 41t25.5 61t8.5 77zM143 610h253v-53h-253v53z" />
<glyph unicode="&#x14e;" horiz-adv-x="786" d="M630 367q0 72 -15 131.5t-44 103t-73.5 67.5t-104.5 24t-104 -24t-74 -67.5t-44 -103.5t-14 -131t14 -131t44 -104t74 -68.5t104 -24.5q59 0 104 24.5t74 68.5t44 104t15 131zM753 367q0 -80 -26.5 -149.5t-73.5 -120.5t-113.5 -80t-146.5 -29q-81 0 -147 29t-113 80 t-73 120.5t-26 149.5t26 149t73 119.5t113 79.5t147 29q80 0 146.5 -29t113.5 -79.5t73.5 -119.5t26.5 -149zM510 915q-11 -46 -41 -70.5t-76 -24.5t-76 24.5t-41 70.5l18 14q30 -59 99 -59q70 0 99 59z" />
<glyph unicode="&#x14f;" horiz-adv-x="538" d="M514 229q0 -50 -18.5 -94t-51 -76.5t-77 -51.5t-98.5 -19q-53 0 -97.5 19t-77.5 51.5t-51 76.5t-18 94t18 94.5t51 77t77.5 51.5t97.5 19t98 -19t77.5 -51.5t51 -77t18.5 -94.5zM407 229q0 41 -8.5 77t-25.5 62t-43 41t-61 15q-36 0 -61.5 -15t-42.5 -41t-25 -62t-8 -77 q0 -42 8 -77t25 -61t42.5 -41t61.5 -15q35 0 61 15t43 41t25.5 61t8.5 77zM386 642q-11 -46 -41 -70.5t-76 -24.5t-76 24.5t-41 70.5l18 14q30 -59 99 -59q70 0 99 59z" />
<glyph unicode="&#x150;" horiz-adv-x="786" d="M630 367q0 72 -15 131.5t-44 103t-73.5 67.5t-104.5 24t-104 -24t-74 -67.5t-44 -103.5t-14 -131t14 -131t44 -104t74 -68.5t104 -24.5q59 0 104 24.5t74 68.5t44 104t15 131zM753 367q0 -80 -26.5 -149.5t-73.5 -120.5t-113.5 -80t-146.5 -29q-81 0 -147 29t-113 80 t-73 120.5t-26 149.5t26 149t73 119.5t113 79.5t147 29q80 0 146.5 -29t113.5 -79.5t73.5 -119.5t26.5 -149zM252 810h-24l92 138q11 16 24 21t26 5q23 0 36.5 -14.5t13.5 -34.5q0 -11 -6.5 -22.5t-22.5 -19.5zM452 810h-24l91 138q11 16 24.5 21t25.5 5q23 0 37 -14.5 t14 -34.5q0 -11 -7 -22.5t-22 -19.5z" />
<glyph unicode="&#x151;" horiz-adv-x="538" d="M514 229q0 -50 -18.5 -94t-51 -76.5t-77 -51.5t-98.5 -19q-53 0 -97.5 19t-77.5 51.5t-51 76.5t-18 94t18 94.5t51 77t77.5 51.5t97.5 19t98 -19t77.5 -51.5t51 -77t18.5 -94.5zM407 229q0 41 -8.5 77t-25.5 62t-43 41t-61 15q-36 0 -61.5 -15t-42.5 -41t-25 -62t-8 -77 q0 -42 8 -77t25 -61t42.5 -41t61.5 -15q35 0 61 15t43 41t25.5 61t8.5 77zM119 518h-24l92 138q11 16 24 21t26 5q23 0 36.5 -14.5t13.5 -34.5q0 -11 -6.5 -22.5t-22.5 -19.5zM319 518h-24l91 138q11 16 24.5 21t25.5 5q23 0 37 -14.5t14 -34.5q0 -11 -7 -22.5t-22 -19.5z " />
<glyph unicode="&#x152;" horiz-adv-x="1093" d="M673 366l-7 -8v-300l7 -7h284l100 114h7l-26 -165h-555q-40 -12 -90 -12q-81 0 -147 29t-113 80t-73 120.5t-26 149.5t26 149t73 119.5t113 79.5t147 29q51 0 91 -12h525l18 -150h-7l-72 99h-275l-7 -7v-250l7 -7h248l34 59h7v-169h-7l-34 59h-248zM558 367 q0 94 -3.5 157t-19.5 100.5t-49 53t-93 15.5t-104 -24t-74 -67.5t-44 -103.5t-14 -131t14 -131t44 -104t74 -68.5t104 -24.5q59 0 92.5 16t49.5 54t19.5 101t3.5 157z" />
<glyph unicode="&#x153;" horiz-adv-x="872" d="M852 125q-30 -63 -79.5 -100t-119.5 -37q-66 0 -116.5 22t-81.5 67q-31 -41 -78 -65t-108 -24q-53 0 -97.5 19t-77.5 52t-51 77t-18 94t18 94.5t51 77t77.5 51.5t97.5 19q61 0 109 -24.5t79 -67.5q31 43 77 67t100 24q46 0 85.5 -16.5t67.5 -45t44.5 -67.5t16.5 -84v-29 h-339q0 -98 38.5 -146t105.5 -48q22 0 45.5 4t46.5 16.5t44 34.5t38 57zM407 230q0 41 -8.5 77t-25.5 62t-43 41t-61 15q-36 0 -61.5 -15t-42.5 -41t-25 -62t-8 -77q0 -42 8 -77t25 -61.5t42.5 -41.5t61.5 -15q35 0 61 15t43 41.5t25.5 61.5t8.5 77zM632 424 q-33 0 -55.5 -13t-37 -34t-21.5 -47.5t-8 -53.5h244v10q0 25 -7 49t-21.5 44t-37.5 32.5t-56 12.5z" />
<glyph unicode="&#x154;" horiz-adv-x="678" d="M97 674l-69 51v7h333q15 0 39.5 -2t51.5 -8.5t53.5 -20.5t49 -36.5t35.5 -56t13 -80.5t-16 -82t-42.5 -60.5t-62 -40.5t-73.5 -21l49 -15l219 -353l-107 44l-80 58l-167 259h-111l-7 -7v-252l69 -51v-7h-246v7l69 51v616zM205 376l7 -7h99q37 0 70.5 9.5t58.5 29t40.5 48 t15.5 65.5q0 48 -17.5 79.5t-42 49.5t-52 24.5t-46.5 6.5h-126l-7 -7v-298zM254 810h-23l91 138q11 16 24.5 21t25.5 5q23 0 36.5 -14.5t13.5 -34.5q0 -11 -6.5 -22.5t-21.5 -19.5z" />
<glyph unicode="&#x155;" horiz-adv-x="441" d="M41 0v7l55 33v364l-55 27v7l149 42v-109q27 41 64.5 70t84.5 29t78 -29t31 -71q0 -24 -13.5 -36.5t-30.5 -12.5t-32.5 13t-20.5 43q-4 27 -15 37.5t-29 10.5q-17 0 -38 -14.5t-38.5 -39.5t-29 -58t-11.5 -70v-203l54 -33v-7h-203zM248 518h-23l91 138q11 16 24.5 21 t25.5 5q23 0 36.5 -14.5t13.5 -34.5q0 -11 -6.5 -22.5t-21.5 -19.5z" />
<glyph unicode="&#x156;" horiz-adv-x="678" d="M97 674l-69 51v7h333q15 0 39.5 -2t51.5 -8.5t53.5 -20.5t49 -36.5t35.5 -56t13 -80.5t-16 -82t-42.5 -60.5t-62 -40.5t-73.5 -21l49 -15l219 -353l-107 44l-80 58l-167 259h-111l-7 -7v-252l69 -51v-7h-246v7l69 51v616zM205 376l7 -7h99q37 0 70.5 9.5t58.5 29t40.5 48 t15.5 65.5q0 48 -17.5 79.5t-42 49.5t-52 24.5t-46.5 6.5h-126l-7 -7v-298zM328 -115q0 27 19.5 47t47.5 20q39 0 57 -26t18 -72q0 -50 -26 -100.5t-85 -93.5l-11 10q36 34 48.5 58.5t12.5 53.5q0 17 -6.5 26t-26.5 14q-26 6 -37 22.5t-11 40.5z" />
<glyph unicode="&#x157;" horiz-adv-x="441" d="M41 0v7l55 33v364l-55 27v7l149 42v-109q27 41 64.5 70t84.5 29t78 -29t31 -71q0 -24 -13.5 -36.5t-30.5 -12.5t-32.5 13t-20.5 43q-4 27 -15 37.5t-29 10.5q-17 0 -38 -14.5t-38.5 -39.5t-29 -58t-11.5 -70v-203l54 -33v-7h-203zM73 -115q0 27 19.5 47t47.5 20 q39 0 57 -26t18 -72q0 -50 -26 -100.5t-85 -93.5l-11 10q36 34 48.5 58.5t12.5 53.5q0 17 -6.5 26t-26.5 14q-26 6 -37 22.5t-11 40.5z" />
<glyph unicode="&#x158;" horiz-adv-x="678" d="M97 674l-69 51v7h333q15 0 39.5 -2t51.5 -8.5t53.5 -20.5t49 -36.5t35.5 -56t13 -80.5t-16 -82t-42.5 -60.5t-62 -40.5t-73.5 -21l49 -15l219 -353l-107 44l-80 58l-167 259h-111l-7 -7v-252l69 -51v-7h-246v7l69 51v616zM205 376l7 -7h99q37 0 70.5 9.5t58.5 29t40.5 48 t15.5 65.5q0 48 -17.5 79.5t-42 49.5t-52 24.5t-46.5 6.5h-126l-7 -7v-298zM201 964l110 -77l111 77h23l-117 -165h-33l-117 165h23z" />
<glyph unicode="&#x159;" horiz-adv-x="441" d="M41 0v7l55 33v364l-55 27v7l149 42v-109q27 41 64.5 70t84.5 29t78 -29t31 -71q0 -24 -13.5 -36.5t-30.5 -12.5t-32.5 13t-20.5 43q-4 27 -15 37.5t-29 10.5q-17 0 -38 -14.5t-38.5 -39.5t-29 -58t-11.5 -70v-203l54 -33v-7h-203zM149 692l110 -77l111 77h23l-117 -165 h-33l-117 165h23z" />
<glyph unicode="&#x15a;" horiz-adv-x="581" d="M541 217q0 -49 -15 -91t-45.5 -72.5t-76.5 -48t-107 -17.5q-37 0 -75.5 7t-73 20.5t-65 33.5t-50.5 46v188h28q12 -49 31 -94t46.5 -78t65.5 -52.5t88 -19.5q38 0 65 11.5t44.5 32t25.5 48t8 57.5q0 45 -28 72t-70.5 45.5t-91.5 34.5t-91.5 42t-71 65t-28.5 105 q0 52 22.5 89t57.5 60t78 33t84 10q52 0 99.5 -10t94.5 -37v-159h-20q-6 71 -51 113t-119 42q-25 0 -49.5 -7t-45 -22t-33 -37.5t-12.5 -53.5q0 -45 28 -72t70.5 -46.5t91.5 -36.5t91.5 -41.5t71 -62t28.5 -97.5zM243 810h-23l91 138q11 16 24.5 21t25.5 5q23 0 36.5 -14.5 t13.5 -34.5q0 -11 -6.5 -22.5t-21.5 -19.5z" />
<glyph unicode="&#x15b;" horiz-adv-x="415" d="M203 -12q-29 0 -56.5 5.5t-50.5 14.5t-41.5 21.5t-28.5 24.5v123h16q24 -75 66 -108.5t95 -33.5q42 0 67 20t25 63q0 26 -19 39.5t-47.5 23t-62 18.5t-62 24.5t-47.5 41.5t-19 69q0 37 16.5 63t41.5 42.5t56 24t61 7.5q33 0 71 -8.5t68 -25.5v-114h-10q-16 57 -50.5 79 t-75.5 22q-15 0 -30.5 -4t-28 -13.5t-20 -23.5t-7.5 -36q0 -26 19.5 -40.5t48 -25t62.5 -19t62.5 -22.5t48 -37t19.5 -62q0 -41 -15.5 -70t-41.5 -47.5t-59.5 -27t-70.5 -8.5zM143 518h-23l91 138q11 16 24.5 21t25.5 5q23 0 36.5 -14.5t13.5 -34.5q0 -11 -6.5 -22.5 t-21.5 -19.5z" />
<glyph unicode="&#x15c;" horiz-adv-x="581" d="M541 217q0 -49 -15 -91t-45.5 -72.5t-76.5 -48t-107 -17.5q-37 0 -75.5 7t-73 20.5t-65 33.5t-50.5 46v188h28q12 -49 31 -94t46.5 -78t65.5 -52.5t88 -19.5q38 0 65 11.5t44.5 32t25.5 48t8 57.5q0 45 -28 72t-70.5 45.5t-91.5 34.5t-91.5 42t-71 65t-28.5 105 q0 52 22.5 89t57.5 60t78 33t84 10q52 0 99.5 -10t94.5 -37v-159h-20q-6 71 -51 113t-119 42q-25 0 -49.5 -7t-45 -22t-33 -37.5t-12.5 -53.5q0 -45 28 -72t70.5 -46.5t91.5 -36.5t91.5 -41.5t71 -62t28.5 -97.5zM163 799l117 165h33l117 -165h-23l-111 77l-110 -77h-23z " />
<glyph unicode="&#x15d;" horiz-adv-x="415" d="M203 -12q-29 0 -56.5 5.5t-50.5 14.5t-41.5 21.5t-28.5 24.5v123h16q24 -75 66 -108.5t95 -33.5q42 0 67 20t25 63q0 26 -19 39.5t-47.5 23t-62 18.5t-62 24.5t-47.5 41.5t-19 69q0 37 16.5 63t41.5 42.5t56 24t61 7.5q33 0 71 -8.5t68 -25.5v-114h-10q-16 57 -50.5 79 t-75.5 22q-15 0 -30.5 -4t-28 -13.5t-20 -23.5t-7.5 -36q0 -26 19.5 -40.5t48 -25t62.5 -19t62.5 -22.5t48 -37t19.5 -62q0 -41 -15.5 -70t-41.5 -47.5t-59.5 -27t-70.5 -8.5zM80 527l117 165h33l117 -165h-23l-111 77l-110 -77h-23z" />
<glyph unicode="&#x15e;" horiz-adv-x="581" d="M241 -8q-61 8 -117.5 34t-90.5 69v188h28q12 -49 31 -94t46.5 -78t65.5 -52.5t88 -19.5q38 0 65 11.5t44.5 32t25.5 48t8 57.5q0 45 -28 72t-70.5 45.5t-91.5 34.5t-91.5 42t-71 65t-28.5 105q0 52 22.5 89t57.5 60t78 33t84 10q52 0 99.5 -10t94.5 -37v-159h-20 q-6 71 -51 113t-119 42q-25 0 -49.5 -7t-45 -22t-33 -37.5t-12.5 -53.5q0 -45 28 -72t70.5 -46.5t91.5 -36.5t91.5 -41.5t71 -61.5t28.5 -98q0 -49 -15 -91t-45.5 -72.5t-76.5 -48t-107 -17.5h-12t-12 1l-18 -49q15 11 34 14.5t34 3.5q32 0 49.5 -15t17.5 -47q0 -42 -30 -60 t-73 -18q-20 0 -42 4t-42 15l7 13q19 -7 34 -9.5t27 -2.5q28 0 43 11t15 36q0 18 -10.5 27.5t-27.5 9.5q-23 0 -39 -7t-30 -20h-9z" />
<glyph unicode="&#x15f;" horiz-adv-x="415" d="M203 -12h-9.5t-8.5 1l-18 -49q15 11 34 14.5t33 3.5q32 0 50 -15t18 -47q0 -42 -30 -60t-73 -18q-20 0 -42 4t-42 15l7 13q19 -7 34 -9.5t27 -2.5q28 0 43 11t15 36q0 18 -10.5 27.5t-27.5 9.5q-23 0 -39.5 -7t-29.5 -20h-9l29 98q-43 7 -77.5 24t-50.5 37v123h16 q24 -74 63.5 -107t92.5 -35h5q42 0 67 20t25 63q0 26 -19 39.5t-47.5 23t-62 18.5t-62 24.5t-47.5 41.5t-19 69q0 37 16.5 63t41.5 42.5t56 24t61 7.5q33 0 71 -8.5t68 -25.5v-114h-10q-16 57 -50.5 79t-75.5 22q-15 0 -30.5 -4t-28 -13.5t-20 -23.5t-7.5 -36 q0 -26 19.5 -40.5t48 -25t62.5 -19t62.5 -22.5t48 -37t19.5 -62q0 -41 -15.5 -70t-41.5 -47.5t-59.5 -27t-70.5 -8.5z" />
<glyph unicode="&#x160;" horiz-adv-x="581" d="M541 217q0 -49 -15 -91t-45.5 -72.5t-76.5 -48t-107 -17.5q-37 0 -75.5 7t-73 20.5t-65 33.5t-50.5 46v188h28q12 -49 31 -94t46.5 -78t65.5 -52.5t88 -19.5q38 0 65 11.5t44.5 32t25.5 48t8 57.5q0 45 -28 72t-70.5 45.5t-91.5 34.5t-91.5 42t-71 65t-28.5 105 q0 52 22.5 89t57.5 60t78 33t84 10q52 0 99.5 -10t94.5 -37v-159h-20q-6 71 -51 113t-119 42q-25 0 -49.5 -7t-45 -22t-33 -37.5t-12.5 -53.5q0 -45 28 -72t70.5 -46.5t91.5 -36.5t91.5 -41.5t71 -62t28.5 -97.5zM186 964l110 -77l111 77h23l-117 -165h-33l-117 165h23z" />
<glyph unicode="&#x161;" horiz-adv-x="415" d="M203 -12q-29 0 -56.5 5.5t-50.5 14.5t-41.5 21.5t-28.5 24.5v123h16q24 -75 66 -108.5t95 -33.5q42 0 67 20t25 63q0 26 -19 39.5t-47.5 23t-62 18.5t-62 24.5t-47.5 41.5t-19 69q0 37 16.5 63t41.5 42.5t56 24t61 7.5q33 0 71 -8.5t68 -25.5v-114h-10q-16 57 -50.5 79 t-75.5 22q-15 0 -30.5 -4t-28 -13.5t-20 -23.5t-7.5 -36q0 -26 19.5 -40.5t48 -25t62.5 -19t62.5 -22.5t48 -37t19.5 -62q0 -41 -15.5 -70t-41.5 -47.5t-59.5 -27t-70.5 -8.5zM103 692l110 -77l111 77h23l-117 -165h-33l-117 165h23z" />
<glyph unicode="&#x162;" horiz-adv-x="706" d="M300 0h-70v7l70 51v616l-7 7h-191l-78 -114h-8l26 165h624l25 -165h-7l-79 114h-190l-7 -7v-616l69 -51v-7h-143l-23 -60q15 11 34.5 14.5t33.5 3.5q32 0 49.5 -15t17.5 -47q0 -42 -30 -60t-73 -18q-20 0 -41.5 4t-42.5 15l7 13q19 -7 34 -9.5t28 -2.5q28 0 42.5 11 t14.5 36q0 18 -10 27.5t-28 9.5q-23 0 -39 -7t-29 -20h-10z" />
<glyph unicode="&#x163;" horiz-adv-x="359" d="M155 1q-73 33 -73 133v270l-7 8h-60v18q43 15 70.5 48t43.5 67q18 40 29 85h18v-164l7 -7h103v-47h-103l-7 -8v-274q0 -39 16.5 -66.5t55.5 -27.5q37 0 58.5 15.5t32.5 30.5l18 -14q-5 -8 -14 -22t-24 -27t-36 -22t-50 -9q-25 0 -48 5l-19 -53q15 11 34 14.5t33 3.5 q32 0 50 -15t18 -47q0 -42 -30 -60t-73 -18q-20 0 -42 4t-42 15l7 13q19 -7 34 -9.5t27 -2.5q28 0 43 11t15 36q0 18 -10.5 27.5t-27.5 9.5q-23 0 -39.5 -7t-29.5 -20h-9z" />
<glyph unicode="&#x164;" horiz-adv-x="706" d="M666 732l25 -165h-7l-79 114h-190l-7 -7v-616l69 -51v-7h-247v7l70 51v616l-7 7h-191l-78 -114h-8l26 165h624zM243 964l110 -77l111 77h23l-117 -165h-33l-117 165h23z" />
<glyph unicode="&#x165;" horiz-adv-x="368" d="M210 719q0 29 20 46t48 17q68 0 67 -79q0 -33 -16.5 -77t-63.5 -107h-18q24 41 30.5 60t6.5 33q0 17 -8.5 28t-25.5 20q-18 10 -29 23.5t-11 35.5zM176 130q0 -39 16.5 -66.5t55.5 -27.5q37 0 58.5 15.5t32.5 30.5l18 -14q-5 -8 -14 -22t-24 -27t-36 -22t-50 -9 q-76 0 -113.5 37t-37.5 109v270l-7 8h-60v18q43 15 70.5 48t43.5 67q18 40 29 85h18v-164l7 -7h103v-47h-103l-7 -8v-274z" />
<glyph unicode="&#x166;" horiz-adv-x="706" d="M666 732l25 -165h-7l-79 114h-190l-7 -7v-151l7 -7h147v-51h-147l-7 -7v-400l69 -51v-7h-247v7l70 51v400l-7 7h-148v51h148l7 7v151l-7 7h-191l-78 -114h-8l26 165h624z" />
<glyph unicode="&#x167;" horiz-adv-x="359" d="M176 130q0 -39 16.5 -66.5t55.5 -27.5q37 0 58.5 15.5t32.5 30.5l18 -14q-5 -8 -14 -22t-24 -27t-36 -22t-50 -9q-76 0 -113.5 37t-37.5 109v90l-7 7h-58v48h58l7 7v118l-7 8h-60v18q43 15 70.5 48t43.5 67q18 40 29 85h18v-164l7 -7h103v-47h-103l-7 -8v-118l7 -7h87 v-48h-87l-7 -7v-94z" />
<glyph unicode="&#x168;" horiz-adv-x="768" d="M272 732v-7l-69 -51v-404q0 -44 7.5 -86.5t30 -76t64 -54t110.5 -20.5t110 14t64 43.5t31 73t8 100.5v410l-70 51v7h191v-7l-70 -51v-448q0 -48 -11 -92.5t-40 -78t-80.5 -53.5t-132.5 -20q-90 0 -151.5 17t-99 53t-53.5 90.5t-16 127.5v404l-69 51v7h246zM633 958 q-6 -36 -23 -63q-14 -24 -39 -44t-66 -20q-34 0 -54 10.5t-35 22.5t-29.5 22.5t-39.5 10.5q-27 0 -45 -10.5t-29 -21.5q-13 -14 -21 -32h-18q6 36 23 64q14 24 38.5 43.5t66.5 19.5q34 0 54 -10t35 -22.5t29.5 -22.5t39.5 -10q27 0 44.5 9.5t29.5 22.5q13 13 21 31h18z" />
<glyph unicode="&#x169;" horiz-adv-x="553" d="M66 404l-55 27v7l149 42v-347q0 -49 18.5 -67t51.5 -18q24 0 51.5 14.5t51.5 31.5q27 19 54 46v264l-54 27v7l148 42v-440l55 -33v-7h-149v88q-34 -29 -68 -50q-30 -19 -64 -34.5t-66 -15.5q-36 0 -59.5 10t-37.5 29t-20 46t-6 60v271zM480 676q-6 -36 -23 -63 q-14 -24 -39 -44t-66 -20q-34 0 -54 10.5t-35 22.5t-29.5 22.5t-39.5 10.5q-27 0 -45 -10.5t-29 -21.5q-13 -14 -21 -32h-18q6 36 23 64q14 24 38.5 43.5t66.5 19.5q34 0 54 -10t35 -22.5t29.5 -22.5t39.5 -10q27 0 44.5 9.5t29.5 22.5q13 13 21 31h18z" />
<glyph unicode="&#x16a;" horiz-adv-x="768" d="M272 732v-7l-69 -51v-404q0 -44 7.5 -86.5t30 -76t64 -54t110.5 -20.5t110 14t64 43.5t31 73t8 100.5v410l-70 51v7h191v-7l-70 -51v-448q0 -48 -11 -92.5t-40 -78t-80.5 -53.5t-132.5 -20q-90 0 -151.5 17t-99 53t-53.5 90.5t-16 127.5v404l-69 51v7h246zM287 903h253 v-53h-253v53z" />
<glyph unicode="&#x16b;" horiz-adv-x="553" d="M66 404l-55 27v7l149 42v-347q0 -49 18.5 -67t51.5 -18q24 0 51.5 14.5t51.5 31.5q27 19 54 46v264l-54 27v7l148 42v-440l55 -33v-7h-149v88q-34 -29 -68 -50q-30 -19 -64 -34.5t-66 -15.5q-36 0 -59.5 10t-37.5 29t-20 46t-6 60v271zM151 610h253v-53h-253v53z" />
<glyph unicode="&#x16c;" horiz-adv-x="768" d="M272 732v-7l-69 -51v-404q0 -44 7.5 -86.5t30 -76t64 -54t110.5 -20.5t110 14t64 43.5t31 73t8 100.5v410l-70 51v7h191v-7l-70 -51v-448q0 -48 -11 -92.5t-40 -78t-80.5 -53.5t-132.5 -20q-90 0 -151.5 17t-99 53t-53.5 90.5t-16 127.5v404l-69 51v7h246zM530 915 q-11 -46 -41 -70.5t-76 -24.5t-76 24.5t-41 70.5l18 14q30 -59 99 -59q70 0 99 59z" />
<glyph unicode="&#x16d;" horiz-adv-x="553" d="M66 404l-55 27v7l149 42v-347q0 -49 18.5 -67t51.5 -18q24 0 51.5 14.5t51.5 31.5q27 19 54 46v264l-54 27v7l148 42v-440l55 -33v-7h-149v88q-34 -29 -68 -50q-30 -19 -64 -34.5t-66 -15.5q-36 0 -59.5 10t-37.5 29t-20 46t-6 60v271zM396 642q-11 -46 -41 -70.5 t-76 -24.5t-76 24.5t-41 70.5l18 14q30 -59 99 -59q70 0 99 59z" />
<glyph unicode="&#x16e;" horiz-adv-x="768" d="M272 732v-7l-69 -51v-404q0 -44 7.5 -86.5t30 -76t64 -54t110.5 -20.5t110 14t64 43.5t31 73t8 100.5v410l-70 51v7h191v-7l-70 -51v-448q0 -48 -11 -92.5t-40 -78t-80.5 -53.5t-132.5 -20q-90 0 -151.5 17t-99 53t-53.5 90.5t-16 127.5v404l-69 51v7h246zM329 910 q0 40 27.5 67.5t67.5 27.5t67.5 -27.5t27.5 -67.5t-27.5 -67.5t-67.5 -27.5t-67.5 27.5t-27.5 67.5zM379 910q0 -19 13 -32t32 -13t32 12.5t13 32.5q0 19 -13 32t-32 13t-32 -13t-13 -32z" />
<glyph unicode="&#x16f;" horiz-adv-x="553" d="M66 404l-55 27v7l149 42v-347q0 -49 18.5 -67t51.5 -18q24 0 51.5 14.5t51.5 31.5q27 19 54 46v264l-54 27v7l148 42v-440l55 -33v-7h-149v88q-34 -29 -68 -50q-30 -19 -64 -34.5t-66 -15.5q-36 0 -59.5 10t-37.5 29t-20 46t-6 60v271zM179 637q0 40 27.5 67.5t67.5 27.5 t67.5 -27.5t27.5 -67.5t-27.5 -67.5t-67.5 -27.5t-67.5 27.5t-27.5 67.5zM229 637q0 -19 13 -32t32 -13t32 12.5t13 32.5q0 19 -13 32t-32 13t-32 -13t-13 -32z" />
<glyph unicode="&#x170;" horiz-adv-x="768" d="M272 732v-7l-69 -51v-404q0 -44 7.5 -86.5t30 -76t64 -54t110.5 -20.5t110 14t64 43.5t31 73t8 100.5v410l-70 51v7h191v-7l-70 -51v-448q0 -48 -11 -92.5t-40 -78t-80.5 -53.5t-132.5 -20q-90 0 -151.5 17t-99 53t-53.5 90.5t-16 127.5v404l-69 51v7h246zM300 810h-24 l92 138q11 16 24 21t26 5q23 0 36.5 -14.5t13.5 -34.5q0 -11 -6.5 -22.5t-22.5 -19.5zM500 810h-24l91 138q11 16 24.5 21t25.5 5q23 0 37 -14.5t14 -34.5q0 -11 -7 -22.5t-22 -19.5z" />
<glyph unicode="&#x171;" horiz-adv-x="553" d="M66 404l-55 27v7l149 42v-347q0 -49 18.5 -67t51.5 -18q24 0 51.5 14.5t51.5 31.5q27 19 54 46v264l-54 27v7l148 42v-440l55 -33v-7h-149v88q-34 -29 -68 -50q-30 -19 -64 -34.5t-66 -15.5q-36 0 -59.5 10t-37.5 29t-20 46t-6 60v271zM137 518h-24l92 138q11 16 24 21 t26 5q23 0 36.5 -14.5t13.5 -34.5q0 -11 -6.5 -22.5t-22.5 -19.5zM337 518h-24l91 138q11 16 24.5 21t25.5 5q23 0 37 -14.5t14 -34.5q0 -11 -7 -22.5t-22 -19.5z" />
<glyph unicode="&#x172;" horiz-adv-x="768" d="M328 -112q0 30 21.5 53t47.5 41q-85 1 -142.5 19t-93 54t-51 89.5t-15.5 125.5v404l-69 51v7h246v-7l-69 -51v-404q0 -44 7.5 -86.5t30 -76t64 -54t110.5 -20.5t110 14t64 43.5t31 73t8 100.5v410l-70 51v7h191v-7l-70 -51v-448q0 -46 -10 -88.5t-35.5 -75t-71 -54 t-116.5 -25.5q-19 -12 -38 -33.5t-19 -47.5q0 -17 10 -28.5t29 -11.5q30 0 53 23.5t40 58.5l53 -35q-44 -43 -81 -61.5t-83 -18.5q-40 0 -61 16t-21 43z" />
<glyph unicode="&#x173;" horiz-adv-x="553" d="M282 -112q0 20 10 38t26 31.5t34.5 24.5t34.5 18v88q-34 -29 -68 -50q-30 -19 -64 -34.5t-66 -15.5q-36 0 -59.5 10t-37.5 29t-20 46t-6 60v271l-55 27v7l149 42v-347q0 -49 18.5 -67t51.5 -18q24 0 51.5 14.5t51.5 31.5q27 19 54 46v264l-54 27v7l148 42v-440l55 -33v-7 h-106q-26 -12 -44 -28q-16 -13 -29.5 -31t-13.5 -39q0 -17 9.5 -28.5t29.5 -11.5q30 0 53 23.5t40 58.5l53 -35q-44 -43 -81 -61.5t-83 -18.5q-40 0 -61 16t-21 43z" />
<glyph unicode="&#x174;" horiz-adv-x="1138" d="M247 732v-7l-58 -51l177 -467l18 -81l15 68l138 345l-53 135l-69 51v7h251v-7l-70 -51l185 -491l14 -57l7 32l200 516l-69 51v7h194v-7l-69 -51l-262 -674h-56l-177 466l-184 -466h-49l-255 674l-70 51v7h242zM406 799l117 165h33l117 -165h-23l-111 77l-110 -77h-23z " />
<glyph unicode="&#x175;" horiz-adv-x="750" d="M732 452l-52 -32l-146 -420h-52l-109 313l-110 -313h-50l-146 419l-56 33v7h196v-7l-42 -26l87 -247l14 -64l19 81l92 263h47l98 -280l15 -64l18 81l80 229l-43 27v7h140v-7zM267 527l117 165h33l117 -165h-23l-111 77l-110 -77h-23z" />
<glyph unicode="&#x176;" horiz-adv-x="699" d="M246 0v7l69 51v267l-224 349l-70 51v7h271v-7l-70 -51l150 -232l14 -61l13 58l149 235l-70 51v7h201v-7l-70 -51l-186 -294v-322l69 -51v-7h-246zM253 799l117 165h33l117 -165h-23l-111 77l-110 -77h-23z" />
<glyph unicode="&#x177;" horiz-adv-x="476" d="M468 452l-55 -33l-232 -612q-15 -34 -28 -52.5t-24.5 -28.5t-23 -12t-23.5 -2q-24 0 -35.5 14.5t-11.5 31.5q0 14 8.5 27t27.5 18q20 5 33.5 9t22.5 9.5t14.5 13.5t12.5 22l56 153l-159 410l-53 32v7h193v-7l-43 -26l104 -267l8 -34l8 38l102 263l-42 26v7h140v-7z M128 527l117 165h33l117 -165h-23l-111 77l-110 -77h-23z" />
<glyph unicode="&#x178;" horiz-adv-x="699" d="M246 0v7l69 51v267l-224 349l-70 51v7h271v-7l-70 -51l150 -232l14 -61l13 58l149 235l-70 51v7h201v-7l-70 -51l-186 -294v-322l69 -51v-7h-246zM356 877q0 -24 -17 -41t-40 -17q-24 0 -40 17t-16 41t16 40.5t40 16.5t40.5 -16.5t16.5 -40.5zM531 877q0 -24 -16.5 -41 t-40.5 -17t-40 17t-16 41t16 40.5t40 16.5t40.5 -16.5t16.5 -40.5z" />
<glyph unicode="&#x179;" horiz-adv-x="647" d="M602 732l-424 -681h368l79 114h7l-26 -165h-596l423 681h-300l-61 -99h-7l18 150h519zM298 810h-23l91 138q11 16 24.5 21t25.5 5q23 0 36.5 -14.5t13.5 -34.5q0 -11 -6.5 -22.5t-21.5 -19.5z" />
<glyph unicode="&#x17a;" horiz-adv-x="461" d="M435 102v-102h-409l278 412h-208l-33 -57h-7v104h378l-279 -412h240l33 55h7zM192 518h-23l91 138q11 16 24.5 21t25.5 5q23 0 36.5 -14.5t13.5 -34.5q0 -11 -6.5 -22.5t-21.5 -19.5z" />
<glyph unicode="&#x17b;" horiz-adv-x="647" d="M602 732l-424 -681h368l79 114h7l-26 -165h-596l423 681h-300l-61 -99h-7l18 150h519zM273 871q0 27 18.5 45t45.5 18t45 -18.5t18 -44.5q0 -27 -18 -45.5t-45 -18.5t-45.5 18.5t-18.5 45.5z" />
<glyph unicode="&#x17c;" horiz-adv-x="465" d="M435 102v-102h-409l278 412h-208l-33 -57h-7v104h378l-279 -412h240l33 55h7zM185 609q0 27 18.5 45t45.5 18t45 -18.5t18 -44.5q0 -27 -18 -45.5t-45 -18.5t-45.5 18.5t-18.5 45.5z" />
<glyph unicode="&#x17d;" horiz-adv-x="647" d="M602 732l-424 -681h368l79 114h7l-26 -165h-596l423 681h-300l-61 -99h-7l18 150h519zM209 964l110 -77l111 77h23l-117 -165h-33l-117 165h23z" />
<glyph unicode="&#x17e;" horiz-adv-x="461" d="M435 102v-102h-409l278 412h-208l-33 -57h-7v104h378l-279 -412h240l33 55h7zM140 692l110 -77l111 77h23l-117 -165h-33l-117 165h23z" />
<glyph unicode="&#x17f;" horiz-adv-x="325" d="M184 40l70 -33v-7h-234v7l70 33v372h-65v47h65v134q0 71 36.5 111t111.5 40q30 0 63.5 -8t62.5 -33q14 -11 19.5 -22.5t5.5 -23.5q0 -20 -16 -34.5t-36 -14.5q-15 0 -29 11t-19 35q-6 27 -20 35t-31 8q-33 0 -43.5 -23.5t-10.5 -67.5v-566zM90 412h-7l7 -8v8zM90 466 l-7 -7h7v7z" />
<glyph unicode="&#x18e;" horiz-adv-x="630" d="M421.013 366.022l7 7.99902v299.982l-7 6.99902h-284.982l-98.9941 -113.993h-6.99902l25.998 164.99h548.967v-7l-68.9961 -50.9961v-615.963l68.9961 -50.9971v-6.99902h-519.969l-17.999 149.99h7l71.9951 -98.9932h274.983l7 6.99902v249.984l-7 7h-247.984 l-34.998 -58.9961h-6v168.989h6l34.998 -58.9961h247.984z" />
<glyph unicode="&#x18f;" horiz-adv-x="500" d="M21.0293 334.008q29.998 62.9961 79.4951 99.9941q49.4971 36.9971 118.493 36.9971q53.9961 0 100.493 -14.999t79.9951 -45.9971t52.4971 -75.9951t18.999 -103.994q0 -53.9961 -19.499 -98.9941q-19.499 -44.9971 -51.4971 -76.4951t-73.9951 -48.9971 t-86.9951 -17.499q-45.9971 0 -85.4941 16.499q-39.498 16.499 -67.4961 44.998q-27.998 28.498 -44.4971 67.4951q-16.499 38.998 -16.499 83.9951v28.998h338.979q0 97.9941 -38.498 145.991t-106.493 47.9971q-21.999 0 -44.998 -4q-22.998 -3.99902 -45.9971 -16.499 q-22.998 -12.499 -43.9971 -34.4971q-20.999 -21.999 -38.998 -56.9971zM241.016 35.0254q32.998 0 55.4971 13q22.498 12.999 36.4971 33.998q14 20.998 21.499 47.4971q7.5 26.498 8.5 53.4961h-243.985v-9.99902q0 -24.999 6.49902 -48.9971q6.5 -23.999 21.499 -43.9971 q14.999 -19.999 37.998 -32.498q22.998 -12.5 55.9961 -12.5z" />
<glyph unicode="&#x192;" horiz-adv-x="563" d="M261 412h-65l8 47h65l28 147q13 71 49 104.5t96 33.5q31 0 55.5 -11.5t42.5 -32.5q13 -16 13 -31t-11.5 -25t-24.5 -10q-10 0 -19 6t-13 20q-8 29 -18.5 40t-32.5 11q-27 0 -43 -27t-25 -78l-27 -147h110l-9 -47h-109l-64 -372q-13 -77 -49.5 -107.5t-96.5 -30.5 q-32 0 -56 11.5t-41 32.5q-14 17 -15 32q0 15 11.5 24.5t25.5 9.5q11 0 20 -6t13 -20q7 -29 18.5 -40t32.5 -11q25 0 41 25t27 80z" />
<glyph unicode="&#x1fa;" horiz-adv-x="751" d="M278 801q0 40 27.5 67.5t67.5 27.5t67.5 -27.5t27.5 -67.5q0 -32 -18 -56.5t-46 -33.5l269 -653l68 -51v-7h-247v7l69 51l-74 179h-279l-74 -179l70 -51v-7h-196v7l70 51l268 651q-31 8 -50.5 33t-19.5 59zM469 288l-109 261l-9 42l-6 -27l-114 -276h238zM299 908h-24 l86 131q23 34 60 34q20 0 33 -12t13 -33q0 -12 -6.5 -25t-22.5 -21zM328 801q0 -18 11 -30.5t29 -14.5h8q17 2 29.5 14t12.5 31t-13 32t-32 13t-32 -13t-13 -32z" />
<glyph unicode="&#x1fb;" horiz-adv-x="487" d="M425 40l54 -33v-7h-148v50q-22 -30 -58.5 -46t-83.5 -16q-31 0 -59 5.5t-49.5 20t-34.5 38.5t-13 61q0 44 27 73.5t69.5 49t96 29.5t105.5 16v37q0 55 -20 80.5t-69 25.5q-39 0 -65.5 -14.5t-38.5 -59.5q-6 -25 -21 -35.5t-30 -10.5q-17 0 -30.5 11t-13.5 31q0 23 20 49 q17 22 39 36.5t46 23.5t48 12.5t46 3.5q54 0 89.5 -13t56.5 -35.5t29 -51.5t8 -63v-268zM331 239q-46 -4 -83 -11.5t-63 -20t-40 -34t-14 -54.5q0 -41 23.5 -62.5t56.5 -21.5q55 0 87.5 33t32.5 82v89zM147 637q0 40 27.5 67.5t67.5 27.5t67.5 -27.5t27.5 -67.5t-27.5 -67.5 t-67.5 -27.5t-67.5 27.5t-27.5 67.5zM197 637q0 -19 13 -32t32 -13t32 12.5t13 32.5q0 19 -13 32t-32 13t-32 -13t-13 -32zM170 780h-23l91 138q11 16 24.5 21t25.5 5q23 0 36.5 -14.5t13.5 -34.5q0 -11 -6.5 -22.5t-21.5 -19.5z" />
<glyph unicode="&#x1fc;" horiz-adv-x="1052" d="M632 366l-7 -8v-300l7 -7h284l100 114h7l-26 -165h-550v7l70 51v171l-7 8h-245l-115 -179l57 -51l-1 -7h-196l1 7l82 51l406 629l-52 38v7h521l18 -150h-7l-72 99h-275l-7 -7v-250l7 -7h248l34 59h7v-169h-7l-34 59h-248zM510 288l7 7v332l-219 -339h212zM664 810h-23 l91 138q11 16 24.5 21t25.5 5q23 0 36.5 -14.5t13.5 -34.5q0 -11 -6.5 -22.5t-21.5 -19.5z" />
<glyph unicode="&#x1fd;" horiz-adv-x="801" d="M781 125q-30 -63 -79.5 -100t-118.5 -37q-70 0 -127.5 29t-89.5 79q-15 -30 -37.5 -50.5t-46 -33.5t-47.5 -18.5t-46 -5.5q-31 0 -59 5.5t-49.5 20t-34.5 38.5t-13 61q0 44 27 73.5t69.5 49t96 29.5t105.5 16v37q0 55 -20 80.5t-69 25.5q-39 0 -65.5 -14.5t-38.5 -59.5 q-6 -25 -21 -35.5t-30 -10.5q-17 0 -30.5 11t-13.5 31q0 23 20 49q35 44 80 60t99 16q66 0 103 -19t55 -49q33 33 75 50.5t88 17.5t85.5 -16.5t67.5 -45t44.5 -67.5t16.5 -84v-29h-339q0 -98 38.5 -146t106.5 -48q22 0 45 4t46 16.5t44 34.5t39 57zM331 239q-46 -4 -83 -11 t-63 -19.5t-40 -34t-14 -55.5q0 -41 23.5 -62.5t56.5 -21.5q55 0 87.5 32t32.5 90v82zM561 424q-33 0 -55.5 -13t-36.5 -34t-21.5 -47.5t-8.5 -53.5h244v10q0 25 -6.5 49t-21.5 44t-38 32.5t-56 12.5zM328 518h-23l91 138q11 16 24.5 21t25.5 5q23 0 36.5 -14.5t13.5 -34.5 q0 -11 -6.5 -22.5t-21.5 -19.5z" />
<glyph unicode="&#x218;" horiz-adv-x="581" d="M228 -130q0 27 19.5 47t47.5 20q39 0 57.5 -26.5t18.5 -72.5q0 -50 -26.5 -100t-85.5 -93l-11 10q36 34 48.5 58.5t12.5 53.5q0 33 -33 39q-26 6 -37 23t-11 41zM541 217q0 -49 -15 -91t-45.5 -72.5t-76.5 -48t-107 -17.5q-37 0 -75.5 7t-73 20.5t-65 33.5t-50.5 46v188 h28q12 -49 31 -94t46.5 -78t65.5 -52.5t88 -19.5q38 0 65 11.5t44.5 32t25.5 48t8 57.5q0 45 -28 72t-70.5 45.5t-91.5 34.5t-91.5 42t-71 65t-28.5 105q0 52 22.5 89t57.5 60t78 33t84 10q52 0 99.5 -10t94.5 -37v-159h-20q-6 71 -51 113t-119 42q-25 0 -49.5 -7t-45 -22 t-33 -37.5t-12.5 -53.5q0 -45 28 -72t70.5 -46.5t91.5 -36.5t91.5 -41.5t71 -62t28.5 -97.5z" />
<glyph unicode="&#x219;" horiz-adv-x="415" d="M135 -130q0 27 19.5 47t47.5 20q39 0 57.5 -26.5t18.5 -72.5q0 -50 -26.5 -100t-85.5 -93l-11 10q36 34 48.5 58.5t12.5 53.5q0 33 -33 39q-26 6 -37 23t-11 41zM203 -12q-29 0 -56.5 5.5t-50.5 14.5t-41.5 21.5t-28.5 24.5v123h16q24 -75 66 -108.5t95 -33.5q42 0 67 20 t25 63q0 26 -19 39.5t-47.5 23t-62 18.5t-62 24.5t-47.5 41.5t-19 69q0 37 16.5 63t41.5 42.5t56 24t61 7.5q33 0 71 -8.5t68 -25.5v-114h-10q-16 57 -50.5 79t-75.5 22q-15 0 -30.5 -4t-28 -13.5t-20 -23.5t-7.5 -36q0 -26 19.5 -40.5t48 -25t62.5 -19t62.5 -22.5t48 -37 t19.5 -62q0 -41 -15.5 -70t-41.5 -47.5t-59.5 -27t-70.5 -8.5z" />
<glyph unicode="&#x21a;" horiz-adv-x="706" d="M284 -130q0 27 19.5 47t46.5 20q39 0 57.5 -26.5t18.5 -72.5q0 -50 -26 -100t-86 -93l-11 10q36 34 49 58.5t13 53.5q0 33 -33 39q-26 6 -37 23t-11 41zM666 732l25 -165h-7l-79 114h-190l-7 -7v-616l69 -51v-7h-247v7l70 51v616l-7 7h-191l-78 -114h-8l26 165h624z" />
<glyph unicode="&#x21b;" horiz-adv-x="359" d="M124 -130q0 27 19.5 47t46.5 20q39 0 57.5 -26.5t18.5 -72.5q0 -50 -26 -100t-85 -93l-12 10q36 34 49 58.5t13 53.5q0 33 -33 39q-26 6 -37 23t-11 41zM176 130q0 -39 16.5 -66.5t55.5 -27.5q37 0 58.5 15.5t32.5 30.5l18 -14q-5 -8 -14 -22t-24 -27t-36 -22t-50 -9 q-76 0 -113.5 37t-37.5 109v270l-7 8h-60v18q43 15 70.5 48t43.5 67q18 40 29 85h18v-164l7 -7h103v-47h-103l-7 -8v-274z" />
<glyph unicode="&#x2bc;" horiz-adv-x="315" d="M72 669q0 29 20 46t47 17q68 0 68 -79q0 -33 -16.5 -77.5t-63.5 -106.5h-18q24 41 30 60t6 33q0 17 -8 28t-25 20q-18 10 -29 23.5t-11 35.5z" />
<glyph unicode="&#x2c6;" horiz-adv-x="337" d="M36 567l117 165h33l117 -165h-23l-111 77l-110 -77h-23z" />
<glyph unicode="&#x2c7;" horiz-adv-x="337" d="M58 732l110 -77l111 77h23l-117 -165h-33l-117 165h23z" />
<glyph unicode="&#x2d8;" horiz-adv-x="337" d="M286 713q-11 -46 -41 -70.5t-76 -24.5t-76 24.5t-41 70.5l18 14q30 -59 99 -59q70 0 99 59z" />
<glyph unicode="&#x2d9;" horiz-adv-x="337" d="M105 669q0 27 18.5 45t45.5 18t45 -18.5t18 -44.5q0 -27 -18 -45.5t-45 -18.5t-45.5 18.5t-18.5 45.5z" />
<glyph unicode="&#x2da;" horiz-adv-x="337" d="M74 637q0 40 27.5 67.5t67.5 27.5t67.5 -27.5t27.5 -67.5t-27.5 -67.5t-67.5 -27.5t-67.5 27.5t-27.5 67.5zM124 637q0 -19 13 -32t32 -13t32 12.5t13 32.5q0 19 -13 32t-32 13t-32 -13t-13 -32z" />
<glyph unicode="&#x2db;" horiz-adv-x="337" d="M45 -112q0 20 10.5 38t26 31.5t34 24.5t35.5 18h43q-26 -12 -44 -28q-16 -13 -30 -31t-14 -39q0 -17 10 -28.5t29 -11.5q30 0 53 23.5t41 58.5l53 -35q-44 -43 -81.5 -61.5t-83.5 -18.5q-40 0 -61 16t-21 43z" />
<glyph unicode="&#x2dc;" horiz-adv-x="337" d="M369 695q-6 -36 -23 -63q-14 -24 -39 -44t-66 -20q-34 0 -54 10.5t-35 22.5t-29.5 22.5t-39.5 10.5q-27 0 -45 -10.5t-29 -21.5q-13 -14 -21 -32h-18q6 36 23 64q14 24 38.5 43.5t66.5 19.5q34 0 54 -10t35 -22.5t29.5 -22.5t39.5 -10q27 0 44.5 9.5t29.5 22.5 q13 13 21 31h18z" />
<glyph unicode="&#x2dd;" horiz-adv-x="337" d="M-3 537h-24l92 138q11 16 24 21t26 5q23 0 36.5 -14.5t13.5 -34.5q0 -11 -6.5 -22.5t-22.5 -19.5zM197 537h-24l91 138q11 16 24.5 21t25.5 5q23 0 37 -14.5t14 -34.5q0 -11 -7 -22.5t-22 -19.5z" />
<glyph unicode="&#x394;" horiz-adv-x="600" d="M573 51v-51h-544v51l249 681h35zM84 51h397l-205 526z" />
<glyph unicode="&#x3c0;" horiz-adv-x="522" d="M395 98q0 -33 13 -47.5t31 -14.5q24 0 39.5 12.5t28.5 33.5l18 -14q-8 -15 -18 -29.5t-24 -26t-32 -18t-39 -6.5q-33 0 -54.5 9.5t-34 28t-17.5 45.5t-5 63v270l-7 8h-94l-7 -8v-404h-95v404l-7 8h-94v47h500v-47h-95l-7 -8v-306z" />
<glyph unicode="&#x2000;" horiz-adv-x="536" />
<glyph unicode="&#x2001;" horiz-adv-x="1073" />
<glyph unicode="&#x2002;" horiz-adv-x="536" />
<glyph unicode="&#x2003;" horiz-adv-x="1073" />
<glyph unicode="&#x2004;" horiz-adv-x="357" />
<glyph unicode="&#x2005;" horiz-adv-x="268" />
<glyph unicode="&#x2006;" horiz-adv-x="178" />
<glyph unicode="&#x2007;" horiz-adv-x="178" />
<glyph unicode="&#x2008;" horiz-adv-x="134" />
<glyph unicode="&#x2009;" horiz-adv-x="214" />
<glyph unicode="&#x200a;" horiz-adv-x="59" />
<glyph unicode="&#x2010;" horiz-adv-x="432" d="M35 349h356v-51h-356v51z" />
<glyph unicode="&#x2011;" horiz-adv-x="432" d="M35 349h356v-51h-356v51z" />
<glyph unicode="&#x2012;" horiz-adv-x="432" d="M35 349h356v-51h-356v51z" />
<glyph unicode="&#x2013;" horiz-adv-x="524" d="M0 349h524v-51h-524v51z" />
<glyph unicode="&#x2014;" horiz-adv-x="840" d="M0 349h841v-51h-841v51z" />
<glyph unicode="&#x2018;" horiz-adv-x="315" d="M244 527q0 -26 -17.5 -40t-41.5 -14q-39 0 -56.5 25t-17.5 69q0 18 4 39t15 42t31.5 42.5t53.5 41.5l10 -16q-36 -28 -48.5 -45t-12.5 -33q0 -17 12.5 -28t26.5 -19q22 -14 31.5 -29t9.5 -35z" />
<glyph unicode="&#x2019;" horiz-adv-x="315" d="M72 678q0 26 17 40t41 14q39 0 57 -25t18 -69q0 -18 -4 -38.5t-15.5 -41.5t-32 -42.5t-53.5 -42.5l-10 16q36 28 49 45t13 33q0 17 -13 28t-26 19q-22 14 -31.5 29t-9.5 35z" />
<glyph unicode="&#x201a;" horiz-adv-x="315" d="M72 63q0 26 17 40.5t41 14.5q39 0 57 -25t18 -69q0 -18 -4 -39t-15.5 -42t-32 -42.5t-53.5 -41.5l-10 16q36 28 49 45t13 33q0 17 -13 28t-26 19q-22 14 -31.5 28.5t-9.5 34.5z" />
<glyph unicode="&#x201c;" horiz-adv-x="484" d="M413 527q0 -26 -17.5 -40t-41.5 -14q-39 0 -56.5 25t-17.5 69q0 18 4 39t15 42t31.5 42.5t53.5 41.5l10 -16q-36 -28 -48.5 -45t-12.5 -33q0 -17 12.5 -28t26.5 -19q22 -14 31.5 -29t9.5 -35zM244 527q0 -26 -17.5 -40t-41.5 -14q-39 0 -56.5 25t-17.5 69q0 18 4 39 t15 42t31.5 42.5t53.5 41.5l10 -16q-36 -28 -48.5 -45t-12.5 -33q0 -17 12.5 -28t26.5 -19q22 -14 31.5 -29t9.5 -35z" />
<glyph unicode="&#x201d;" horiz-adv-x="484" d="M72 678q0 26 17 40t41 14q39 0 57 -25t18 -69q0 -18 -4 -38.5t-15.5 -41.5t-32 -42.5t-53.5 -42.5l-10 16q36 28 49 45t13 33q0 17 -13 28t-26 19q-22 14 -31.5 29t-9.5 35zM241 678q0 26 17 40t41 14q39 0 57 -25t18 -69q0 -18 -4 -38.5t-15.5 -41.5t-32 -42.5 t-53.5 -42.5l-10 16q36 28 49 45t13 33q0 17 -13 28t-26 19q-22 14 -31.5 29t-9.5 35z" />
<glyph unicode="&#x201e;" horiz-adv-x="484" d="M72 63q0 26 17 40.5t41 14.5q39 0 57 -25t18 -69q0 -18 -4 -39t-15.5 -42t-32 -42.5t-53.5 -41.5l-10 16q36 28 49 45t13 33q0 17 -13 28t-26 19q-22 14 -31.5 28.5t-9.5 34.5zM241 63q0 26 17 40.5t41 14.5q39 0 57 -25t18 -69q0 -18 -4 -39t-15.5 -42t-32 -42.5 t-53.5 -41.5l-10 16q36 28 49 45t13 33q0 17 -13 28t-26 19q-22 14 -31.5 28.5t-9.5 34.5z" />
<glyph unicode="&#x2020;" horiz-adv-x="522" d="M440 454q0 -18 -12.5 -31t-31.5 -13q-12 0 -25 3.5t-27 7t-30.5 7t-35.5 3.5q0 -41 7 -77.5t16 -64.5q10 -34 24 -63l-58 -409h-12l-57 409q12 29 23 63q8 29 16 65t8 77q-19 0 -35.5 -3.5t-31 -7t-27.5 -7t-25 -3.5q-18 0 -31 12.5t-13 31.5q0 18 13 31t31 13 q25 0 52.5 -11t63.5 -11q0 27 -6.5 55t-13.5 56.5t-13 55.5t-6 50q0 24 17.5 41t40.5 17q24 0 41 -17t17 -41t-6 -50.5t-13 -55t-13 -56.5t-6 -55q36 0 63.5 11t51.5 11q18 0 31 -13t13 -31z" />
<glyph unicode="&#x2021;" horiz-adv-x="522" d="M440 -1q0 -18 -12.5 -31t-31.5 -13q-25 0 -52.5 10.5t-62.5 10.5q0 -27 6 -54.5t13 -56.5t13 -55.5t6 -50.5t-17 -40.5t-41 -16.5t-41 17t-17 40q0 24 6 50.5t13 55.5t13.5 57t6.5 54q-36 0 -63.5 -10.5t-52.5 -10.5q-18 0 -31 13t-13 31t13 31t31 13q12 0 25 -3.5 t27.5 -7t30.5 -7t36 -3.5q0 40 -8 76.5t-16 65.5q-11 34 -23 62q12 29 23 63q8 29 16 65t8 77q-19 0 -35.5 -3.5t-31 -7t-27.5 -7t-25 -3.5q-18 0 -31 12.5t-13 31.5q0 18 13 31t31 13q25 0 52.5 -11t63.5 -11q0 27 -6.5 55t-13.5 56.5t-13 55.5t-6 50q0 24 17.5 41t40.5 17 q24 0 41 -17t17 -41t-6 -50.5t-13 -55t-13 -56.5t-6 -55q36 0 63.5 11t51.5 11q18 0 31 -13t13 -31t-12.5 -31t-31.5 -13q-12 0 -25 3.5t-27 7t-30.5 7t-35.5 3.5q0 -41 7 -77.5t16 -64.5q10 -34 24 -63q-13 -29 -24 -62q-9 -29 -16 -66t-7 -76q19 0 35.5 3.5t30.5 7t27 7 t25 3.5q18 0 31 -13t13 -31z" />
<glyph unicode="&#x2022;" horiz-adv-x="282" d="M41 307q0 42 29 71.5t71 29.5t71.5 -29.5t29.5 -71.5t-29.5 -71t-71.5 -29t-71 29t-29 71z" />
<glyph unicode="&#x2026;" horiz-adv-x="694" d="M48 54q0 27 19.5 47t47.5 20q27 0 46.5 -20t19.5 -47q0 -28 -20 -47t-46 -19q-28 0 -47.5 19t-19.5 47zM273 54q0 27 19.5 47t47.5 20q27 0 47 -20t20 -47q0 -28 -20 -47t-47 -19q-28 0 -47.5 19t-19.5 47zM499 54q0 27 19.5 47t46.5 20t47 -20t20 -47q0 -28 -20 -47 t-47 -19q-28 0 -47 19t-19 47z" />
<glyph unicode="&#x202f;" horiz-adv-x="214" />
<glyph unicode="&#x2030;" horiz-adv-x="870" d="M465 732l41 -23l-412 -709l-41 24zM268 596q0 -30 -9.5 -55.5t-26.5 -45t-41 -30t-52 -10.5t-52 10.5t-40.5 30t-26.5 45t-10 55.5t10 55.5t26.5 45t41 30t51.5 10.5q28 0 52 -10.5t41 -30t26.5 -45t9.5 -55.5zM209 596q0 49 -16.5 80.5t-53.5 31.5t-52.5 -31.5 t-15.5 -80.5t15.5 -80.5t52.5 -31.5t53.5 31.5t16.5 80.5zM550 136q0 -30 -10 -55.5t-26.5 -45t-40.5 -30t-52 -10.5t-52 10.5t-41 30t-26.5 45t-9.5 55.5t9.5 55.5t26.5 45t41 30.5t52 11t52 -11t40.5 -30.5t26.5 -45t10 -55.5zM490 136q0 49 -16 80.5t-53 31.5t-53 -31.5 t-16 -80.5t16 -80t53 -31t53 31t16 80zM859 136q0 -30 -9.5 -55.5t-26.5 -45t-41 -30t-52 -10.5t-52 10.5t-40.5 30t-26.5 45t-10 55.5t10 55.5t26.5 45t40.5 30.5t52 11t52 -11t41 -30.5t26.5 -45t9.5 -55.5zM800 136q0 49 -16.5 80.5t-53.5 31.5t-52.5 -31.5t-15.5 -80.5 t15.5 -80t52.5 -31t53.5 31t16.5 80z" />
<glyph unicode="&#x2039;" horiz-adv-x="335" d="M290 520v-86l-169 -174l169 -174v-86l-249 251v18z" />
<glyph unicode="&#x203a;" horiz-adv-x="335" d="M295 269v-18l-249 -251v86l169 174l-169 174v86z" />
<glyph unicode="&#x2044;" horiz-adv-x="432" d="M401 732l41 -23l-411 -709l-41 24z" />
<glyph unicode="&#x205f;" horiz-adv-x="268" />
<glyph unicode="&#x2070;" d="M174 819q33 0 61.5 -13t49.5 -39.5t33.5 -64t12.5 -87.5q0 -49 -12.5 -86t-33.5 -63.5t-49.5 -39.5t-61.5 -13t-61.5 13t-49.5 39.5t-33.5 63.5t-12.5 86t12.5 87t33.5 64.5t49.5 39.5t61.5 13zM174 443q42 0 62 46.5t20 125.5q0 80 -20 126t-62 46t-62 -46t-20 -126 t20 -126t62 -46z" />
<glyph unicode="&#x2074;" d="M306 568v-33h-59v-73l47 -37v-7h-165v7l48 37v73h-151v13l202 278h19v-258h59zM177 699l-96 -131h96v131z" />
<glyph unicode="&#x2075;" d="M174 691q24 0 47.5 -6t42 -20.5t30 -38.5t11.5 -60q0 -43 -13.5 -72t-36 -47.5t-49 -26t-51.5 -7.5q-48 0 -81 20t-47 46q-6 12 -7 22q0 14 10 22.5t22 8.5q10 0 19 -7t12 -21q6 -32 25 -45t47 -13q36 0 56 28t20 82q0 55 -19 77.5t-55 22.5q-29 0 -54 -19t-41 -45h-27 l30 222h221l-6 -56h-186l-15 -108q14 16 38 28.5t57 12.5z" />
<glyph unicode="&#x2076;" d="M189 657q47 0 79 -30t32 -84q0 -60 -34 -95t-91 -35q-20 0 -42.5 6.5t-41 23t-31 44t-12.5 70.5q0 35 9 65t23.5 55.5t33 46t38.5 37.5q46 38 104 62l9 -20q-33 -18 -61 -45q-25 -23 -49 -56t-34 -77q7 10 24.5 21t43.5 11zM175 443q24 0 38 22t14 70t-14 69.5t-38 21.5 q-23 0 -38 -21.5t-15 -69.5q0 -49 14.5 -70.5t38.5 -21.5z" />
<glyph unicode="&#x2077;" d="M328 814l-145 -396h-45q8 10 14 21q3 6 5 13l108 300h-138l-58 -63h-8l17 125h250z" />
<glyph unicode="&#x2078;" d="M304 535q0 -30 -11 -52.5t-29 -38t-41.5 -23.5t-48.5 -8q-27 0 -51 6t-42 19t-28 33.5t-10 49.5q0 30 19.5 57.5t51.5 45.5q-20 16 -33.5 38.5t-13.5 56.5q0 26 9.5 44.5t25 31t34.5 18.5t38 6q42 0 73.5 -24t31.5 -68q0 -27 -14 -48.5t-38 -34.5q30 -18 53.5 -42.5 t23.5 -66.5zM144 601q-17 -16 -22.5 -38t-5.5 -43q0 -33 14 -55t44 -22q31 0 44 19t13 50q0 15 -7.5 27.5t-20 22.5t-28.5 19.5t-31 19.5zM125 735q0 -26 20.5 -41.5t49.5 -30.5q12 8 20.5 26t8.5 43q0 27 -13.5 41t-36.5 14q-22 0 -35.5 -14t-13.5 -38z" />
<glyph unicode="&#x2079;" d="M159 574q-47 0 -79 30.5t-32 84.5q0 60 34 95t91 35q20 0 43 -6.5t41 -23t30.5 -44t12.5 -70.5q0 -36 -9 -66t-23.5 -55.5t-33.5 -46t-38 -36.5q-46 -38 -104 -62l-9 20q33 18 61 45q25 23 48.5 55.5t34.5 77.5q-7 -10 -24.5 -21.5t-43.5 -11.5zM173 788q-24 0 -38 -22 t-14 -69q0 -48 14.5 -69.5t37.5 -21.5t38 21.5t15 69.5q0 49 -14.5 70t-38.5 21z" />
<glyph unicode="&#x2080;" d="M174 290q33 0 61.5 -13.5t49.5 -39.5t33.5 -64t12.5 -87t-12.5 -86.5t-33.5 -63.5t-49.5 -39.5t-61.5 -13.5t-61.5 13.5t-49.5 39.5t-33.5 63.5t-12.5 86.5t12.5 87t33.5 64t49.5 39.5t61.5 13.5zM174 -85q42 0 62 45.5t20 125.5t-20 126t-62 46t-62 -46t-20 -126 t20 -125.5t62 -45.5z" />
<glyph unicode="&#x2081;" d="M103 -112v8l49 36v257q0 25 -9 37t-29 12q-11 0 -34 -6v11l141 54v-365l47 -36v-8h-165z" />
<glyph unicode="&#x2082;" d="M248 -58l54 62h7l-19 -116h-254v11q19 17 50.5 49t61.5 70t52 80t22 81q0 35 -15.5 54t-47.5 19q-15 0 -29.5 -7t-27 -19.5t-22 -28t-17.5 -30.5l-24 9q6 18 17.5 38t28 37t39.5 28t52 11q26 0 48 -6t38.5 -18.5t25.5 -32t9 -47.5q0 -63 -46 -122.5t-123 -121.5h120z" />
<glyph unicode="&#x2083;" d="M210 106q16 -4 32 -11t28.5 -18.5t20 -28.5t7.5 -40q0 -30 -11 -53t-30 -39t-45 -24.5t-56 -8.5q-46 0 -79.5 16.5t-44.5 43.5q-4 8 -4 18q0 14 9.5 22t21.5 8q10 0 19 -6.5t12 -20.5q12 -50 68 -50q33 0 51.5 24t18.5 60q0 39 -26.5 63.5t-64.5 29.5v18q33 0 55 26 t22 61q0 62 -51 62q-27 0 -48.5 -20t-35.5 -51l-25 16q14 34 43.5 60.5t73.5 26.5q22 0 40.5 -5.5t33 -17.5t23 -29.5t8.5 -41.5q0 -37 -20.5 -61t-45.5 -29z" />
<glyph unicode="&#x2084;" d="M306 39v-34h-59v-73l47 -36v-8h-165v8l48 36v73h-151v13l202 279h19v-258h59zM177 170l-96 -131h96v131z" />
<glyph unicode="&#x2085;" d="M174 162q24 0 47.5 -6t42 -20.5t30 -38.5t11.5 -60q0 -43 -13.5 -72.5t-36 -47.5t-49 -26t-51.5 -8q-48 0 -81 20t-47 47q-6 12 -7 21q0 14 10 23t22 9q10 0 19 -7t12 -22q6 -32 25 -44.5t47 -12.5q36 0 56 27.5t20 82.5t-19 77.5t-55 22.5q-29 0 -54 -19t-41 -46h-27 l30 224h221l-6 -57h-186l-15 -108q14 16 38 28.5t57 12.5z" />
<glyph unicode="&#x2086;" d="M189 128q47 0 79 -30t32 -85q0 -60 -34 -95t-91 -35q-20 0 -42.5 7t-41 23t-31 44t-12.5 71q0 35 9 65t23.5 55.5t33 46t38.5 36.5q46 38 104 63l9 -21q-33 -18 -61 -45q-25 -23 -49 -56t-34 -77q7 10 24.5 21.5t43.5 11.5zM175 -86q24 0 38 22t14 69q0 48 -14 69.5 t-38 21.5q-23 0 -38 -21.5t-15 -69.5q0 -49 14.5 -70t38.5 -21z" />
<glyph unicode="&#x2087;" d="M328 286l-145 -398h-45q8 10 14 22q3 6 5 12l108 301h-138l-58 -62h-8l17 125h250z" />
<glyph unicode="&#x2088;" d="M304 5q0 -30 -11 -52.5t-29 -37.5t-41.5 -23.5t-48.5 -8.5q-27 0 -51 6.5t-42 19t-28 33t-10 50.5t19.5 57.5t51.5 44.5q-20 16 -33.5 39t-13.5 56q0 26 9.5 45t25 31.5t34.5 18.5t38 6q42 0 73.5 -24t31.5 -68q0 -27 -14 -48.5t-38 -34.5q30 -18 53.5 -43t23.5 -67z M144 72q-17 -16 -22.5 -38.5t-5.5 -42.5q0 -33 14 -55t44 -22q31 0 44 19t13 50q0 15 -7.5 27.5t-20 22.5t-28.5 19.5t-31 19.5zM125 206q0 -26 20.5 -42t49.5 -31q12 8 20.5 26t8.5 44q0 27 -13.5 41t-36.5 14q-22 0 -35.5 -14t-13.5 -38z" />
<glyph unicode="&#x2089;" d="M159 45q-47 0 -79 30t-32 85q0 60 34 95t91 35q20 0 43 -7t41 -23t30.5 -44t12.5 -71q0 -36 -9 -66t-23.5 -55t-33.5 -45.5t-38 -36.5q-46 -38 -104 -63l-9 21q33 18 61 45q25 23 48.5 55.5t34.5 77.5q-7 -10 -24.5 -21.5t-43.5 -11.5zM173 259q-24 0 -38 -22t-14 -69 q0 -48 14.5 -69.5t37.5 -21.5t38 21.5t15 69.5q0 49 -14.5 70t-38.5 21z" />
<glyph unicode="&#x20ac;" horiz-adv-x="563" d="M8 458h76q9 68 32.5 121t58.5 90t80 56t97 19q53 0 98.5 -17t76.5 -48v-127h-14q-26 76 -67.5 108.5t-93.5 32.5q-73 0 -114 -63.5t-53 -171.5h231l-18 -54h-216q-1 -9 -1 -18.5v-18.5v-19.5t1 -17.5h194l-18 -54h-173q13 -110 56.5 -173.5t110.5 -63.5q38 0 67.5 11.5 t53 33t43 53t38.5 70.5l19 -11q-15 -43 -33.5 -80.5t-44 -66.5t-61 -45t-82.5 -16q-53 0 -98 20t-80 56.5t-58 90.5t-32 121h-93l17 54h71q-1 9 -1 17.5v19.5v18.5t1 18.5h-88z" />
<glyph unicode="&#x2116;" horiz-adv-x="1195" d="M670 732v-7l-70 -51v-674h-8l-434 589l-12 47v-578l69 -51v-7h-189v7l69 51v616l-69 51v7h151l360 -489l12 -48v479l-70 51v7h191zM724 132h402v-43h-402v43zM1149 431q0 -46 -17 -86.5t-46.5 -70t-70.5 -47t-90 -17.5q-48 0 -89 17.5t-71 47t-47 70t-17 86.5t17 86.5 t47 70t71 47t89 17.5q49 0 90 -17.5t70.5 -47t46.5 -70t17 -86.5zM1051 431q0 38 -8 71t-23 56.5t-39 37t-56 13.5q-33 0 -56.5 -13.5t-39 -37t-22.5 -56.5t-7 -71t7 -70.5t22.5 -56t39 -37.5t56.5 -14t56.5 14t38.5 37.5t23 56t8 70.5z" />
<glyph unicode="&#x2122;" horiz-adv-x="787" d="M323 732l11 -83h-7l-43 49h-68l-3 -4v-250l30 -17v-8h-120v8l29 17v250l-4 4h-65l-45 -49h-7l11 83h281zM644 419v8l30 17v242l-5 -20l-99 -247h-47l-97 238l-5 29v-242l29 -17v-8h-94v8l30 17v263l-30 18v7h107l93 -230l6 -29l4 23l94 236h102v-7l-30 -18v-263l30 -17 v-8h-118z" />
<glyph unicode="&#x2126;" horiz-adv-x="708" d="M56 0l-25 165h7l99 -114h95q-33 25 -68 62.5t-63.5 83t-47 96t-18.5 101.5q0 70 24.5 125t67.5 94t101.5 59.5t125.5 20.5q68 0 126.5 -20.5t101.5 -59.5t67.5 -94t24.5 -125q0 -51 -18.5 -101.5t-47 -96t-64 -83t-68.5 -62.5h95l100 114h7l-26 -165h-232v51 q31 14 57.5 54.5t45.5 91.5t29.5 104t10.5 93q0 56 -14 102.5t-41.5 78.5t-66 49.5t-87.5 17.5t-87.5 -17.5t-65.5 -49.5t-41.5 -78t-14.5 -103q0 -40 11 -93t30 -104t45.5 -91t57.5 -55v-51h-233z" />
<glyph unicode="&#x2153;" horiz-adv-x="675" d="M529 732l41 -23l-411 -709l-41 24zM60 302v7l49 37v257q0 25 -9 36.5t-29 11.5q-11 0 -34 -5v10l141 55v-365l47 -37v-7h-165zM551 217q16 -4 32 -11t28.5 -19t20 -29t7.5 -39q0 -30 -11 -53t-30 -39.5t-45 -24.5t-56 -8q-46 0 -79.5 16.5t-44.5 42.5q-4 8 -4 19 q0 14 9.5 21.5t21.5 7.5q10 0 19 -6t12 -20q12 -50 68 -50q33 0 51.5 24t18.5 60q0 39 -26.5 63.5t-64.5 29.5v17q33 0 55 26t22 61q0 62 -51 63q-27 0 -48.5 -20t-35.5 -51l-25 15q14 34 43.5 60.5t73.5 26.5q22 0 40.5 -5.5t33 -17t23 -29t8.5 -42.5q0 -37 -20.5 -60.5 t-45.5 -28.5z" />
<glyph unicode="&#x2154;" horiz-adv-x="675" d="M569 732l41 -23l-411 -709l-41 24zM591 217q16 -4 32 -11t28.5 -19t20 -29t7.5 -39q0 -30 -11 -53t-30.5 -39.5t-45 -24.5t-55.5 -8q-46 0 -79.5 16.5t-44.5 42.5q-4 8 -4 19q0 14 9.5 21.5t21.5 7.5q10 0 19 -6t12 -20q12 -50 68 -50q33 0 51.5 24t18.5 60 q0 39 -26.5 63.5t-64.5 29.5v17q33 0 55 26t22 61q0 62 -51 63q-27 0 -48.5 -20t-35.5 -51l-25 15q14 34 43.5 60.5t73.5 26.5q22 0 40.5 -5.5t33 -17t23 -29t8.5 -42.5q0 -37 -20.5 -60.5t-45.5 -28.5zM209 355l54 63h7l-19 -116h-254v10q19 17 50.5 49t61.5 70.5t52 80.5 t22 81q0 35 -15 54t-48 19q-15 0 -29.5 -7.5t-27 -19.5t-22 -27.5t-16.5 -30.5l-25 9q6 18 17.5 38t28 37t40 27.5t51.5 10.5q26 0 48 -6t38.5 -18t25.5 -31.5t9 -47.5q0 -63 -46 -122.5t-123 -122.5h120z" />
<glyph unicode="&#x215b;" horiz-adv-x="675" d="M647 116q0 -30 -11 -52.5t-29 -38t-41.5 -23.5t-48.5 -8q-27 0 -51 6t-41.5 19t-28 33.5t-10.5 49.5q0 30 19.5 57.5t51.5 45.5q-20 16 -33.5 38.5t-13.5 56.5q0 26 9.5 45t25 31t34.5 18t38 6q42 0 73.5 -24t31.5 -68q0 -27 -14 -48t-38 -35q30 -18 53.5 -42.5 t23.5 -66.5zM527 732l41 -23l-411 -709l-41 24zM52 302v7l48 37v257q0 25 -8.5 36.5t-29.5 11.5q-11 0 -33 -5v10l141 55v-365l47 -37v-7h-165zM487 182q-17 -16 -22.5 -38t-5.5 -43q0 -33 14 -54.5t44 -21.5q31 0 44 18.5t13 49.5q0 15 -7.5 27.5t-19.5 23t-28.5 19.5 t-31.5 19zM468 316q0 -26 20.5 -41.5t49.5 -30.5q12 8 20.5 26t8.5 43q0 27 -13.5 41.5t-36.5 14.5q-22 0 -35.5 -14.5t-13.5 -38.5z" />
<glyph unicode="&#x215c;" horiz-adv-x="675" d="M187 520q16 -4 32.5 -11t28.5 -19t19.5 -29t7.5 -39q0 -30 -10.5 -53t-30 -39.5t-45 -24.5t-56.5 -8q-46 0 -79.5 16.5t-44.5 42.5q-4 8 -4 19q0 14 10 21.5t22 7.5q10 0 19 -6t12 -20q12 -50 67 -50q33 0 52 24t19 60q0 39 -26.5 63.5t-64.5 29.5v17q33 0 54.5 26 t21.5 61q0 62 -51 63q-27 0 -48 -20t-36 -51l-24 15q14 34 43 60.5t73 26.5q22 0 41 -5.5t33.5 -17t23 -29t8.5 -42.5q0 -37 -21 -60.5t-46 -28.5zM670 116q0 -30 -11.5 -52.5t-29.5 -38t-41.5 -23.5t-47.5 -8q-27 0 -51 6t-42 19t-28 33.5t-10 49.5q0 30 19 57.5t51 45.5 q-20 16 -33.5 38.5t-13.5 56.5q0 26 10 45t25 31t34 18t39 6q42 0 73 -24t31 -68q0 -27 -14 -48t-37 -35q30 -18 53.5 -42.5t23.5 -66.5zM550 732l41 -23l-412 -709l-41 24zM510 182q-17 -16 -23 -38t-6 -43q0 -33 14.5 -54.5t44.5 -21.5q31 0 44 18.5t13 49.5 q0 15 -7.5 27.5t-20 23t-28.5 19.5t-31 19zM490 316q0 -26 20.5 -41.5t49.5 -30.5q12 8 21 26t9 43q0 27 -14 41.5t-36 14.5t-36 -14.5t-14 -38.5z" />
<glyph unicode="&#x215d;" horiz-adv-x="675" d="M155 575q24 0 47 -6t41.5 -20t30.5 -38.5t12 -59.5q0 -43 -14 -72.5t-36 -48t-48.5 -26t-52.5 -7.5q-48 0 -80.5 20t-47.5 47q-6 12 -6 21q0 14 9.5 23t22.5 9q10 0 18.5 -7.5t11.5 -21.5q6 -32 25.5 -44.5t46.5 -12.5q36 0 56.5 27.5t20.5 81.5q0 55 -19.5 78t-55.5 23 q-29 0 -54 -19t-40 -46h-28l30 222h221l-6 -56h-185l-16 -107q14 16 38.5 28t57.5 12zM666 116q0 -30 -11.5 -52.5t-29.5 -38t-41.5 -23.5t-47.5 -8q-27 0 -51 6t-42 19t-28.5 33.5t-10.5 49.5q0 30 19.5 57.5t51.5 45.5q-20 16 -33.5 38.5t-13.5 56.5q0 26 9.5 45t25 31 t34.5 18t39 6q42 0 73 -24t31 -68q0 -27 -14 -48t-37 -35q30 -18 53.5 -42.5t23.5 -66.5zM546 732l41 -23l-412 -709l-41 24zM506 182q-17 -16 -23 -38t-6 -43q0 -33 14.5 -54.5t44.5 -21.5q31 0 44 18.5t13 49.5q0 15 -7.5 27.5t-20 23t-28.5 19.5t-31 19zM486 316 q0 -26 20.5 -41.5t49.5 -30.5q12 8 21 26t9 43q0 27 -14 41.5t-36 14.5t-36 -14.5t-14 -38.5z" />
<glyph unicode="&#x215e;" horiz-adv-x="675" d="M316 694l-144 -392h-45q8 10 13 22q3 6 5 12l109 296h-138l-59 -63h-7l17 125h249zM626 116q0 -30 -11.5 -52.5t-29.5 -38t-41.5 -23.5t-47.5 -8q-27 0 -51 6t-42 19t-28 33.5t-10 49.5q0 30 19 57.5t51 45.5q-20 16 -33.5 38.5t-13.5 56.5q0 26 10 45t25 31t34 18t39 6 q42 0 73 -24t31 -68q0 -27 -14 -48t-37 -35q30 -18 53.5 -42.5t23.5 -66.5zM506 732l41 -23l-412 -709l-41 24zM466 182q-17 -16 -23 -38t-6 -43q0 -33 14.5 -54.5t44.5 -21.5q31 0 44 18.5t13 49.5q0 15 -7.5 27.5t-20 23t-28.5 19.5t-31 19zM446 316q0 -26 20.5 -41.5 t49.5 -30.5q12 8 21 26t9 43q0 27 -14 41.5t-36 14.5t-36 -14.5t-14 -38.5z" />
<glyph unicode="&#x2202;" horiz-adv-x="561" d="M524 366q0 -72 -15.5 -140t-51 -121t-92 -85t-137.5 -32q-94 0 -146.5 56t-52.5 152q0 54 20 104t55 88t84.5 60.5t108.5 22.5q45 0 78.5 -22t44.5 -58q-1 47 -5 99t-19.5 95.5t-46 71.5t-82.5 28q-24 0 -47 -13.5t-41 -36.5q-13 -18 -26.5 -26t-25.5 -8q-17 0 -29.5 13 t-12.5 31q0 11 5 23t19 23q14 12 47 27t76 15q80 0 135.5 -27t90.5 -75.5t50.5 -116t15.5 -148.5zM414 322q-14 53 -43 77.5t-67 24.5q-41 0 -72.5 -24t-53 -61t-33 -81.5t-11.5 -84.5q0 -63 23.5 -100.5t79.5 -37.5q71 0 115.5 69.5t61.5 217.5z" />
<glyph unicode="&#x220f;" horiz-adv-x="670" d="M26 732h618v-7l-54 -29v-778l54 -33v-7h-203v7l55 33v760l-8 7h-307l-7 -7v-760l54 -33v-7h-202v7l54 33v778l-54 29v7z" />
<glyph unicode="&#x2211;" horiz-adv-x="616" d="M185 635l181 -269l-234 -353h356l100 134h7l-26 -236h-543v40l245 373l-217 311v51h493l18 -161h-7l-92 110h-281z" />
<glyph unicode="&#x2212;" horiz-adv-x="522" d="M83 347h356v-51h-356v51z" />
<glyph unicode="&#x221a;" horiz-adv-x="581" d="M182 459h11l87 -330l16 -94l14 94l198 633h58l-268 -892h-8l-149 496l-110 37v14z" />
<glyph unicode="&#x221e;" horiz-adv-x="677" d="M36 245q0 57 38 93t113 36q38 0 66.5 -14t47.5 -30q23 -18 38 -43q15 25 38 43q19 16 47.5 30t65.5 14q76 0 114 -36t38 -93t-38 -93t-114 -36q-38 0 -66 13t-47 30q-23 18 -38 44q-15 -26 -38 -44q-19 -16 -47.5 -29.5t-66.5 -13.5q-76 0 -113.5 36t-37.5 93zM490 336 q-33 0 -56.5 -14.5t-40.5 -31.5q-18 -19 -33 -45q14 -27 33 -46q16 -17 40.5 -31t56.5 -14q49 0 72 24t23 67t-23 67t-72 24zM317 245q-14 26 -32 45q-16 17 -41 31.5t-57 14.5q-49 0 -71.5 -24t-22.5 -67t22.5 -67t71.5 -24q32 0 56.5 13.5t41.5 31.5q18 19 32 46z" />
<glyph unicode="&#x222b;" horiz-adv-x="562" d="M296 606q12 71 48.5 104.5t96.5 33.5q31 0 55.5 -11.5t42.5 -32.5q13 -16 13 -31t-11.5 -25t-24.5 -10q-10 0 -19 6t-13 20q-8 29 -18.5 40t-32.5 11q-27 0 -43 -27t-25 -78l-99 -566q-13 -77 -49.5 -107.5t-96.5 -30.5q-32 0 -56 11.5t-41 32.5q-13 16 -14 31 q0 15 11.5 25t25.5 10q10 0 19 -6t13 -20q7 -29 18.5 -40t32.5 -11q25 0 41 25t27 80z" />
<glyph unicode="&#x2248;" horiz-adv-x="522" d="M511 424q-3 -50 -22 -89q-8 -17 -19.5 -33t-28 -28.5t-38.5 -20t-51 -7.5q-39 0 -64 14.5t-45.5 33t-41 33.5t-50.5 15q-38 0 -60 -16t-34 -34q-14 -22 -19 -49h-25q3 49 22 89q7 16 18.5 32t28.5 29t39 20.5t52 7.5q39 0 63.5 -15t45 -33.5t41 -33t50.5 -14.5 q37 0 59.5 15t35.5 34q14 22 19 50h24zM511 230q-3 -50 -22 -89q-8 -17 -19.5 -33t-28 -28.5t-38.5 -20t-51 -7.5q-39 0 -64 14.5t-45.5 33t-41 33.5t-50.5 15q-38 0 -60 -16t-34 -34q-14 -22 -19 -49h-25q3 49 22 89q7 16 18.5 32t28.5 29t39 20.5t52 7.5q39 0 63.5 -15 t45 -33.5t41 -33t50.5 -14.5q37 0 59.5 15t35.5 34q14 22 19 50h24z" />
<glyph unicode="&#x2260;" horiz-adv-x="522" d="M42 459h259l63 108l45 -25l-49 -83h120v-51h-148l-81 -141h229v-51h-259l-62 -108l-45 25l47 83h-119v51h148l81 141h-229v51z" />
<glyph unicode="&#x2264;" horiz-adv-x="522" d="M476 0h-444v51h444v-51zM476 678v-66l-347 -194l347 -195v-65l-444 251v18z" />
<glyph unicode="&#x2265;" horiz-adv-x="522" d="M46 51h444v-51h-444v51zM490 427v-18l-444 -251v65l347 195l-347 194v66z" />
<glyph unicode="&#x25ca;" horiz-adv-x="502" d="M283 0h-63l-179 366l179 366h63l179 -366zM251 674l-148 -308l148 -308l148 308z" />
<glyph unicode="&#x25fc;" horiz-adv-x="460" d="M0 461h461v-461h-461v461z" />
<glyph unicode="&#xf639;" horiz-adv-x="626" d="M313 744q61 0 111.5 -26t86.5 -75t56 -119t20 -157q0 -88 -20 -158.5t-56 -119.5t-86.5 -75t-111.5 -26t-111.5 26t-87 75t-56 119.5t-19.5 158.5q0 87 19.5 157t56 119t87 75t111.5 26zM313 39q43 0 75 23.5t53.5 66.5t32 103.5t10.5 134.5t-10.5 134t-32 102.5 t-53.5 66t-75 23.5t-75.5 -23.5t-54 -66t-31.5 -103t-10 -133.5q0 -74 10 -134.5t31.5 -103.5t54 -66.5t75.5 -23.5z" />
<glyph unicode="&#xf63a;" horiz-adv-x="612" d="M460 99l80 116h8l-36 -215h-470v15q24 23 59.5 57t75.5 77.5t80 92t71.5 99.5t51.5 102t20 97q0 72 -32.5 111t-97.5 39q-34 0 -63 -16t-53 -40.5t-41.5 -54t-26.5 -57.5l-33 12q9 33 27.5 69.5t49 68t74 52t101.5 20.5q44 0 81 -14t64 -40t42 -61.5t15 -76.5 q0 -110 -80.5 -220.5t-222.5 -232.5h256z" />
<glyph unicode="&#xf63b;" horiz-adv-x="612" d="M382 406q32 -8 61.5 -22.5t52.5 -37t36.5 -53.5t13.5 -72q0 -57 -19 -100.5t-54 -73.5t-82.5 -44.5t-104.5 -14.5q-94 0 -152.5 31.5t-80.5 80.5q-8 16 -8 34q0 26 17 40t38 14q17 0 33.5 -11t22.5 -38q5 -22 14 -39.5t24 -31.5t37.5 -21.5t54.5 -7.5q78 0 117.5 50.5 t39.5 131.5q0 36 -15.5 63.5t-42 47.5t-62 32.5t-75.5 17.5v27q30 0 59.5 9t53 27.5t37.5 47t14 67.5q0 65 -32 98t-96 33q-54 0 -95 -32t-66 -81l-36 12q14 31 33.5 58.5t46.5 49t62 34t81 12.5q40 0 75.5 -12.5t62.5 -35.5t43 -55.5t16 -71.5q0 -62 -34.5 -104.5 t-90.5 -58.5z" />
<glyph unicode="&#xf63c;" horiz-adv-x="617" d="M542 281v-52h-111v-171l70 -51v-7h-247v7l69 51v171h-283v13l379 520h12v-481h111zM323 543l-190 -262h190v262z" />
<glyph unicode="&#xf63d;" horiz-adv-x="631" d="M324 500q40 0 81.5 -13t75 -41t54.5 -72.5t21 -109.5q0 -77 -25 -129.5t-63 -85.5t-86 -47t-94 -14q-96 0 -150 28.5t-77 77.5q-5 9 -6.5 18t-1.5 17q0 26 16 40t36 14q17 0 32.5 -12t20.5 -40q10 -49 45.5 -70.5t84.5 -21.5q43 0 73.5 18t49.5 47t27.5 66t8.5 76 q0 95 -37 147.5t-112 52.5q-29 0 -54.5 -10.5t-47.5 -28t-40.5 -39.5t-32.5 -45h-43l53 409h390l-14 -86h-335l-28 -224q24 30 71 54t107 24z" />
<glyph unicode="&#xf63e;" horiz-adv-x="562" d="M312 443q42 0 77.5 -14t62 -42t41 -67.5t14.5 -90.5q0 -112 -58 -176.5t-165 -64.5q-39 0 -79 10.5t-72.5 40t-53.5 82t-21 135.5q0 67 15.5 123t42.5 103.5t60 86t69 68.5q83 71 189 115l13 -32q-65 -32 -121 -81q-24 -20 -48.5 -46.5t-46 -58.5t-39.5 -70t-28 -82 q30 33 68 47t80 14zM284 39q120 0 120 177q0 87 -32.5 130.5t-87.5 43.5q-52 0 -87.5 -43.5t-35.5 -130.5q0 -93 32 -135t91 -42z" />
<glyph unicode="&#xf63f;" horiz-adv-x="556" d="M532 732l-268 -732h-76q14 19 24 41q5 11 11 22l208 570h-264l-99 -114h-7l21 213h450z" />
<glyph unicode="&#xf640;" horiz-adv-x="565" d="M514 209q0 -54 -19 -95.5t-50.5 -69.5t-73 -42t-87.5 -14q-47 0 -89 10t-73.5 33t-49.5 61t-18 92q0 61 39 114.5t110 80.5q-23 16 -43 34t-35.5 39.5t-24.5 47.5t-9 59q0 48 17 83t44.5 58t61.5 33.5t70 10.5q40 0 74.5 -12t59 -35t38.5 -56.5t14 -74.5 q0 -50 -28.5 -91.5t-79.5 -60.5q29 -17 56.5 -37t49 -44.5t34 -54.5t12.5 -69zM251 348q-49 -29 -70 -72.5t-21 -87.5q0 -67 30 -108t94 -41q34 0 57.5 11t38.5 30.5t21.5 45t6.5 52.5q0 30 -13.5 54t-36 44t-50.5 37.5t-57 34.5zM184 584q0 -25 11 -45.5t30 -38t43.5 -32.5 t51.5 -31q32 16 48 54t16 91q0 52 -28 81.5t-72 29.5q-45 0 -72.5 -28.5t-27.5 -80.5z" />
<glyph unicode="&#xf641;" horiz-adv-x="562" d="M253 289q-42 0 -77.5 14t-62 42t-41 68t-14.5 90q0 112 58 176.5t165 64.5q38 0 78.5 -10.5t73 -39.5t53.5 -82t21 -136q0 -67 -16.5 -123.5t-42.5 -103.5t-60 -85.5t-69 -68.5q-83 -71 -188 -114l-13 31q65 32 121 81q24 20 48.5 46.5t46 58.5t39.5 70t28 82 q-30 -33 -68 -47t-80 -14zM281 693q-120 0 -120 -177q0 -87 32.5 -130.5t87.5 -43.5q52 0 87.5 43.5t35.5 130.5q0 93 -32 135t-91 42z" />
<glyph unicode="&#xf643;" horiz-adv-x="548" d="M43 229q0 50 17.5 94.5t48 77t73 51.5t92.5 19t93 -19t73.5 -51.5t48 -76.5t17.5 -95q0 -50 -17.5 -94t-48 -76.5t-73 -51.5t-93.5 -19q-50 0 -92.5 19t-73 51.5t-48 76.5t-17.5 94zM126 229q0 -41 9 -75.5t27.5 -59.5t46.5 -39t65 -14t65.5 14t46.5 39t27.5 59.5 t9.5 75.5t-9.5 75.5t-27.5 59.5t-46.5 39.5t-65.5 14.5q-38 0 -65.5 -14.5t-46 -39.5t-27.5 -59.5t-9 -75.5z" />
<glyph unicode="&#xf644;" horiz-adv-x="287" d="M38 0v7l70 51v278q0 25 -2 41t-8.5 28t-19 21t-35.5 19v14h202v-14q-23 -10 -35.5 -19t-19.5 -21t-8.5 -28.5t-1.5 -40.5v-278l70 -51v-7h-212z" />
<glyph unicode="&#xf645;" horiz-adv-x="433" d="M308 62l66 74h7l-28 -136h-313v9q29 24 68 63.5t75 85.5t61 95t25 92q0 34 -16.5 54.5t-49.5 20.5q-39 0 -66 -26.5t-45 -64.5l-22 8q6 23 18 47t31 43t46.5 31.5t62.5 12.5q58 0 93 -34t35 -88q0 -40 -20.5 -80.5t-51.5 -78t-68 -70.5t-69 -58h161z" />
<glyph unicode="&#xf646;" horiz-adv-x="445" d="M246 169q27 -4 54 -16.5t48.5 -33t34.5 -49t13 -65.5q0 -51 -14.5 -90.5t-42 -65.5t-65 -39.5t-83.5 -13.5q-43 0 -78.5 9t-64.5 28q-14 9 -20 20t-6 21q0 16 12 28.5t27 12.5q20 0 35 -21q17 -26 37.5 -42t57.5 -16q53 0 84 40.5t31 121.5q0 62 -33.5 101.5t-98.5 50.5 v16q28 8 48.5 26t33.5 40t20 46.5t7 46.5q0 43 -24.5 69t-63.5 26q-35 0 -64.5 -27t-44.5 -66l-24 9q9 26 23.5 50.5t35 43.5t47 30t58.5 11q65 0 103 -33.5t38 -101.5q0 -34 -10.5 -61t-27.5 -48t-38.5 -35.5t-44.5 -22.5z" />
<glyph unicode="&#xf647;" horiz-adv-x="496" d="M444 50v-50h-98v-141l63 -45v-8h-197v8l61 45v141h-250v10l313 466h10v-426h98zM273 304l-165 -254h165v254z" />
<glyph unicode="&#xf648;" horiz-adv-x="490" d="M252 260q37 0 70 -12t57.5 -37.5t39 -62.5t14.5 -88t-13 -97t-40 -81t-66.5 -55.5t-92.5 -20.5q-45 0 -84 11.5t-67 30.5q-20 13 -28.5 26.5t-8.5 26.5q0 17 12 28.5t30 11.5q12 0 25 -8t22 -25q16 -30 39 -46t62 -16q58 0 88.5 52t30.5 151q0 82 -31.5 121t-85.5 39 q-20 0 -39.5 -9.5t-37.5 -24t-33 -34.5t-27 -42h-40l39 372h324l-8 -78h-265l-19 -197q9 11 23.5 22t32.5 20.5t38 15.5t39 6z" />
<glyph unicode="&#xf649;" horiz-adv-x="489" d="M271 391q37 0 68.5 -13.5t54.5 -39t36 -60t13 -76.5q0 -43 -13 -81.5t-38 -68t-61.5 -47t-83.5 -17.5q-34 0 -70 12t-65 40t-47.5 73.5t-18.5 111.5q0 58 14.5 108.5t37.5 92.5t53 76t61 60q73 62 167 102l12 -28q-58 -30 -107 -73q-22 -18 -43.5 -41.5t-41 -52.5 t-34.5 -62.5t-25 -72.5q27 33 57.5 45t73.5 12zM247 38q48 0 76.5 40.5t28.5 111.5q0 70 -28.5 110t-76.5 40q-44 0 -76.5 -40t-32.5 -110q0 -74 30 -113t79 -39z" />
<glyph unicode="&#xf64a;" horiz-adv-x="483" d="M441 471l-253 -670h-70q7 8 12.5 18.5t10.5 19.5q5 10 10 21l201 533h-228l-94 -105h-7l38 183h380z" />
<glyph unicode="&#xf64b;" horiz-adv-x="480" d="M444 185q0 -49 -15.5 -86t-43.5 -61.5t-64.5 -37t-78.5 -12.5t-79.5 9t-65.5 29.5t-44.5 54.5t-16.5 82q0 55 35 102t99 71q-20 14 -38.5 30.5t-32.5 36t-21.5 42.5t-7.5 52q0 43 14.5 74t39 51.5t55.5 30.5t63 10q36 0 66 -11.5t52 -31.5t34.5 -48t12.5 -63 q0 -46 -27 -86t-65 -59q26 -15 49.5 -33t41.5 -39.5t28 -48t10 -58.5zM207 312q-17 -9 -31.5 -25.5t-25 -36.5t-15.5 -42t-5 -41q0 -59 26.5 -96t85.5 -37q60 0 85 35.5t25 88.5q0 25 -12.5 45.5t-33 39.5t-46.5 36t-53 33zM152 519q0 -22 10.5 -40.5t28 -35t40 -31.5 t47.5 -28q31 17 42 51.5t11 81.5q0 46 -22.5 78t-66.5 32q-42 0 -66 -30.5t-24 -77.5z" />
<glyph unicode="&#xf64c;" horiz-adv-x="489" d="M218 68q-37 0 -68.5 13.5t-54.5 38.5t-36 60t-13 77q0 43 13.5 81.5t38.5 68t61.5 47t83.5 17.5q34 0 69 -12.5t64.5 -40t48 -73t18.5 -112.5q0 -59 -14 -109t-37.5 -91.5t-54 -75.5t-61.5 -60q-73 -62 -165 -102l-13 28q58 30 108 73q22 18 43 41.5t40 52t35 62.5t25 73 q-27 -33 -57.5 -45t-73.5 -12zM243 421q-48 0 -77 -40.5t-29 -112.5q0 -70 29 -109.5t77 -39.5q44 0 76 40t32 109q0 74 -29.5 113.5t-78.5 39.5z" />
<glyph unicode="&#xf6dc;" horiz-adv-x="378" d="M93 0v7l69 51v540q0 33 -7 47t-33 14t-75 -12v13l219 102v-704l69 -51v-7h-242z" />
<glyph unicode="&#xf761;" horiz-adv-x="555" d="M378 53l-35 84h-175l-34 -84l37 -46v-7h-144v7l52 46l167 421h55l173 -421l50 -46v-7h-182v7zM325 184l-66 161l-7 37l-4 -29l-66 -169h143z" />
<glyph unicode="&#xf762;" horiz-adv-x="481" d="M253 459q25 0 53.5 -4t53.5 -17t41.5 -35.5t16.5 -59.5q0 -23 -7.5 -39.5t-19 -29t-26 -19t-28.5 -9.5q18 -3 37 -12t34.5 -22.5t24.5 -33.5t9 -46q0 -36 -12.5 -60.5t-34 -41t-49.5 -23.5t-57 -7h-262v7l43 44v357l-43 44v7h226zM171 47h74q49 0 69.5 23.5t20.5 64.5 q0 49 -26 68t-77 19h-61l-7 -7v-161zM164 276l7 -7h68q37 0 59.5 14.5t22.5 56.5q0 38 -23 55t-59 17h-68l-7 -8v-128z" />
<glyph unicode="&#xf763;" horiz-adv-x="492" d="M275 424q-71 0 -109.5 -52.5t-38.5 -142.5q0 -49 13 -85t35 -60.5t50.5 -36.5t61.5 -12q52 0 93 24.5t71 80.5l20 -17q-12 -34 -31 -59t-43.5 -42t-53 -25.5t-56.5 -8.5q-62 0 -112 17.5t-84.5 49t-53 76t-18.5 98.5q0 51 20 95.5t55.5 77t82.5 51t102 18.5q27 0 64.5 -7 t70.5 -23v-120h-11q-5 19 -15 37.5t-25.5 33t-37 23.5t-50.5 9z" />
<glyph unicode="&#xf764;" horiz-adv-x="510" d="M20 0v7l45 44v357l-45 44v7h232q50 0 93 -17t75 -47.5t50 -72.5t18 -93q0 -50 -17 -92t-48.5 -72.5t-75 -47.5t-95.5 -17h-232zM159 54l7 -7h77q74 0 106 46.5t32 135.5q0 90 -38 136.5t-102 46.5h-75l-7 -8v-350z" />
<glyph unicode="&#xf765;" horiz-adv-x="441" d="M169 222l-7 -7v-161l7 -7h167l68 71h8l-16 -118h-372v7l44 44v357l-44 44v7h353l11 -108h-7l-52 62h-160l-7 -7v-130l7 -7h152l20 38h7v-122h-7l-20 37h-152z" />
<glyph unicode="&#xf766;" horiz-adv-x="397" d="M308 219h-139l-7 -7v-161l43 -44v-7h-181v7l44 44v357l-44 44v7h353l11 -109h-7l-52 62h-160l-7 -8v-131l7 -7h139l25 37h7v-121h-7z" />
<glyph unicode="&#xf767;" horiz-adv-x="502" d="M438 74q0 -10 2 -17t4 -11q3 -4 8 -7q-29 -29 -71.5 -40t-85.5 -11q-61 0 -111.5 17t-87 48t-56.5 76t-20 101q0 51 21 95.5t57 76.5t83 50.5t99 18.5q39 0 83.5 -8.5t74.5 -26.5v-115h-12q-6 18 -16.5 36.5t-27 33.5t-42.5 24t-62 9q-66 0 -108 -50t-42 -144 t42.5 -144.5t129.5 -50.5q44 0 44 30v90l-7 7h-43v47h188v-7l-44 -44v-84z" />
<glyph unicode="&#xf768;" horiz-adv-x="564" d="M26 452v7h182v-7l-44 -44v-126l7 -8h216l7 8v126l-44 44v7h182v-7l-44 -44v-357l44 -44v-7h-182v7l44 44v169l-7 7h-216l-7 -7v-169l44 -44v-7h-182v7l44 44v357z" />
<glyph unicode="&#xf769;" horiz-adv-x="229" d="M18 452v7h183v-7l-44 -44v-357l44 -44v-7h-183v7l44 44v357z" />
<glyph unicode="&#xf770;" horiz-adv-x="219" d="M18 452v7h183v-7l-44 -44v-408q0 -69 -41.5 -117.5t-133.5 -69.5v25q26 9 41.5 24t24 34.5t11.5 43.5t3 52v416z" />
<glyph unicode="&#xf771;" horiz-adv-x="455" d="M22 452v7h182v-7l-44 -44v-149l151 149l-37 44v7h172v-7l-66 -44l-141 -139l52 23l154 -320l-61 28l-60 51l-123 181l-41 -39v-142l44 -44v-7h-182v7l44 44v357z" />
<glyph unicode="&#xf772;" horiz-adv-x="417" d="M23 452v7h182v-7l-44 -44v-354l7 -7h153l69 72h6l-16 -119h-357v7l44 44v357z" />
<glyph unicode="&#xf773;" horiz-adv-x="651" d="M447 0v7l45 44v340l-9 -34l-147 -357h-76l-140 344l-10 47v-340l44 -44v-7h-136v7l44 44v357l-44 44v7h163l136 -328l10 -41l7 31l140 338h156v-7l-44 -44v-357l44 -44v-7h-183z" />
<glyph unicode="&#xf774;" horiz-adv-x="503" d="M478 459v-7l-44 -44v-408h-20l-294 335l-7 30v-314l43 -44v-7h-134v7l44 44v357l-44 44v7h116l242 -274l6 -29v252l-43 44v7h135z" />
<glyph unicode="&#xf775;" horiz-adv-x="551" d="M523 230q0 -50 -19 -94t-52.5 -77t-79 -52t-99.5 -19q-52 0 -97.5 19t-79.5 52t-52.5 77t-18.5 94t18.5 94t52.5 76.5t79.5 51.5t97.5 19q53 0 99 -19t79.5 -51.5t52.5 -76.5t19 -94zM416 230q0 41 -9.5 76.5t-27 61.5t-44.5 41t-62 15t-61.5 -15t-43.5 -41t-26.5 -61.5 t-9.5 -76.5q0 -42 9.5 -77t26.5 -61.5t44 -41.5t61 -15q35 0 62 15t44.5 41.5t27 61.5t9.5 77z" />
<glyph unicode="&#xf776;" horiz-adv-x="421" d="M232 459q27 0 58.5 -5t58.5 -19.5t45 -42t18 -71.5t-18 -72t-45 -43.5t-58.5 -20.5t-58.5 -5h-69l-7 -7v-122l44 -44v-7h-183v7l44 44v357l-44 44v7h215zM156 234l7 -7h54q19 0 37.5 5t32.5 15.5t22 28t8 43.5t-8 44t-22 28.5t-32 15.5t-38 5h-54l-7 -8v-170z" />
<glyph unicode="&#xf777;" horiz-adv-x="551" d="M273 -12q-10 0 -17.5 0.5t-14.5 1.5l-12 -25q19 4 39 4q37 0 57 -8.5t33.5 -19t25.5 -19t33 -8.5q10 0 17.5 3t12.5 8t10 13q0 -35 -20 -52t-49 -17q-36 0 -53.5 10t-30 23t-26 23t-40.5 10q-17 0 -34.5 -7.5t-31.5 -16.5l15 45q2 5 3 9t1 8q0 17 -9.5 25t-23.5 16 q-60 32 -96.5 89t-36.5 127q0 50 18.5 94t52.5 76.5t79.5 51.5t97.5 19q53 0 99 -19t79.5 -51.5t52.5 -76t19 -94.5q0 -50 -19 -94t-52.5 -77t-79.5 -52t-99 -19zM416 230q0 41 -9.5 76.5t-27 61.5t-44.5 41t-62 15t-61.5 -15t-43.5 -41t-26.5 -61.5t-9.5 -76.5 q0 -42 9.5 -77t26.5 -61.5t44 -41.5t61 -15q35 0 62 15t44.5 41.5t27 61.5t9.5 77z" />
<glyph unicode="&#xf778;" horiz-adv-x="460" d="M18 452v7h237q31 0 60 -5t51.5 -19.5t36 -39.5t13.5 -66q0 -30 -12 -52t-30.5 -37t-42 -24t-46.5 -13l49 -8l121 -223l-67 28l-61 51l-118 148h-45l-7 -8v-140l44 -44v-7h-183v7l44 44v357zM157 253l7 -7h58q47 0 73.5 18.5t26.5 64.5q0 28 -9 44.5t-23 25t-31.5 11 t-36.5 2.5h-58l-7 -8v-151z" />
<glyph unicode="&#xf779;" horiz-adv-x="394" d="M366 130q0 -67 -46 -104.5t-124 -37.5q-46 0 -94.5 16t-77.5 46v126h18q15 -65 52 -103t99 -38q41 0 59 20t18 61q0 24 -17 37.5t-44 24.5t-57 22.5t-56.5 29t-44 44t-17.5 69.5q0 34 15.5 58t39.5 39.5t53 23t58 7.5q37 0 69.5 -6.5t62.5 -24.5v-106h-13 q-17 53 -45.5 71.5t-70.5 18.5q-32 0 -54 -16.5t-22 -46.5q0 -28 18 -44t44 -28.5t57.5 -24t57.5 -28t44 -41.5t18 -65z" />
<glyph unicode="&#xf780;" horiz-adv-x="454" d="M424 459l15 -118h-7l-68 71h-81l-8 -8v-353l44 -44v-7h-184v7l44 44v353l-8 8h-80l-68 -71h-8l16 118h393z" />
<glyph unicode="&#xf781;" horiz-adv-x="529" d="M207 459v-7l-44 -44v-243q0 -28 4.5 -52.5t17.5 -43.5t37 -29.5t64 -10.5q44 0 69 10t37 28t15.5 43.5t3.5 56.5v241l-44 44v7h135v-7l-44 -44v-264q0 -33 -7.5 -61t-27 -49.5t-52.5 -33.5t-85 -12q-115 0 -166 41.5t-51 135.5v243l-44 44v7h182z" />
<glyph unicode="&#xf782;" horiz-adv-x="490" d="M482 459v-7l-49 -44l-154 -408h-71l-154 408l-49 44v7h195v-7l-47 -44l105 -288l7 -38l6 31l111 295l-45 44v7h145z" />
<glyph unicode="&#xf783;" horiz-adv-x="774" d="M190 459v-7l-39 -44l104 -279l11 -52l10 44l80 216l-27 71l-51 44v7h191v-7l-44 -44l111 -293l8 -36l4 19l109 310l-46 44v7h154v-7l-56 -44l-148 -408h-78l-102 268l-98 -268h-75l-154 408l-49 44v7h185z" />
<glyph unicode="&#xf784;" horiz-adv-x="551" d="M201 408l88 -113l97 113l-39 44v7h161v-7l-59 -44l-128 -153l160 -204l56 -44v-7h-218v7l45 44l-105 131l-111 -131l35 -44v-7h-171v7l66 44l149 172l-147 185l-65 44v7h236v-7z" />
<glyph unicode="&#xf785;" horiz-adv-x="484" d="M162 0v7l44 44v145l-134 212l-54 44v7h194v-7l-38 -44l81 -132l9 -39l9 38l82 133l-37 44v7h146v-7l-53 -44l-111 -181v-176l44 -44v-7h-182z" />
<glyph unicode="&#xf786;" horiz-adv-x="418" d="M387 459l-235 -412h180l62 82h7l-12 -129h-374l239 412h-144l-60 -75h-7l16 122h328z" />
<glyph unicode="&#xfb05;" horiz-adv-x="642" d="M459 130q0 -39 16.5 -66.5t54.5 -27.5q37 0 58.5 15.5t33.5 30.5l18 -14q-5 -8 -14.5 -22t-24 -27t-35.5 -22t-50 -9q-76 0 -113.5 37t-37.5 109v270l-8 8h-170l-7 -8v-364l54 -33v-7h-202v7l54 33v364l-7 8h-59v47h59l7 7v127q0 71 36.5 111t110.5 40q30 0 64 -8t62 -33 q14 -12 20 -23.5t6 -23.5q0 -20 -16 -34t-36 -14q-15 0 -29 11t-19 35q-6 27 -20 35t-32 8q-33 0 -43 -23.5t-10 -67.5v-140l7 -7h111q47 0 75.5 26t43.5 59q17 38 23 86h19v-164l7 -7h102v-47h-102l-7 -8v-274z" />
<glyph unicode="&#xfb06;" horiz-adv-x="771" d="M588 466l7 -7h102v-47h-102l-7 -8v-274q0 -39 16.5 -66.5t54.5 -27.5q37 0 58.5 15.5t33.5 30.5l18 -14q-5 -8 -14.5 -22t-24 -27t-35.5 -22t-50 -9q-76 0 -113.5 37t-37.5 109v270l-8 8h-59v18q42 16 66 34.5t36 36t15 34t3 29.5q0 71 -43 103.5t-122 32.5 q-67 0 -117 -40t-69 -106q13 -18 33 -37q17 -16 45.5 -36t68.5 -40l9 -4v-114h-10q-16 57 -50.5 79t-75.5 22q-15 0 -30.5 -4t-28 -13.5t-20 -23.5t-7.5 -36q0 -26 19.5 -40.5t48 -25t62.5 -19t62.5 -22.5t48 -37t19.5 -62q0 -41 -15.5 -70t-41.5 -47.5t-59.5 -27 t-70.5 -8.5q-29 0 -56.5 5.5t-50.5 14.5t-41.5 21.5t-28.5 24.5v123h16q24 -75 66 -108.5t95 -33.5q42 0 67 20t25 63q0 26 -19 39.5t-47.5 23t-62 18.5t-62 24.5t-47.5 41.5t-19 69q0 37 16.5 63t41.5 42.5t56 24t61 7.5l-99 83q12 44 39 79.5t63.5 60t79.5 37.5t86 13 q105 0 155.5 -46t50.5 -134v-98z" />
<glyph horiz-adv-x="555" d="M378 53l-35 84h-175l-34 -84l37 -46v-7h-144v7l52 46l167 421h55l173 -421l50 -46v-7h-182v7zM325 184l-66 161l-7 37l-4 -29l-66 -169h143zM202 518h-23l91 138q11 16 24.5 21t25.5 5q23 0 36.5 -14.5t13.5 -34.5q0 -11 -6.5 -22.5t-21.5 -19.5z" />
<glyph horiz-adv-x="555" d="M378 53l-35 84h-175l-34 -84l37 -46v-7h-144v7l52 46l167 421h55l173 -421l50 -46v-7h-182v7zM325 184l-66 161l-7 37l-4 -29l-66 -169h143zM203 591q-15 8 -21.5 19.5t-6.5 22.5q0 19 13.5 34t36.5 15q12 0 25.5 -5t24.5 -21l91 -138h-23l-140 73v0z" />
<glyph horiz-adv-x="555" d="M378 53l-35 84h-175l-34 -84l37 -46v-7h-144v7l52 46l167 421h55l173 -421l50 -46v-7h-182v7zM325 184l-66 161l-7 37l-4 -29l-66 -169h143zM140 527l117 165h33l117 -165h-23l-111 77l-110 -77h-23z" />
<glyph horiz-adv-x="555" d="M470 676q-6 -36 -23 -63q-14 -24 -39 -44t-66 -20q-34 0 -54 10.5t-35 22.5t-29.5 22.5t-39.5 10.5q-27 0 -45 -10.5t-29 -21.5q-13 -14 -21 -32h-18q6 36 23 64q14 24 38.5 43.5t66.5 19.5q34 0 54 -10t35 -22.5t29.5 -22.5t39.5 -10q27 0 44.5 9.5t29.5 22.5 q13 13 21 31h18zM378 53l-35 84h-175l-34 -84l37 -46v-7h-144v7l52 46l167 421h55l173 -421l50 -46v-7h-182v7zM325 184l-66 161l-7 37l-4 -29l-66 -169h143z" />
<glyph horiz-adv-x="555" d="M243 604q0 -24 -17 -41t-40 -17q-24 0 -40 17t-16 41t16 40.5t40 16.5t40.5 -16.5t16.5 -40.5zM418 604q0 -24 -16.5 -41t-40.5 -17t-40 17t-16 41t16 40.5t40 16.5t40.5 -16.5t16.5 -40.5zM378 53l-35 84h-175l-34 -84l37 -46v-7h-144v7l52 46l167 421h55l173 -421 l50 -46v-7h-182v7zM325 184l-66 161l-7 37l-4 -29l-66 -169h143z" />
<glyph horiz-adv-x="555" d="M378 53l-35 84h-175l-34 -84l37 -46v-7h-144v7l52 46l167 421h55l173 -421l50 -46v-7h-182v7zM325 184l-66 161l-7 37l-4 -29l-66 -169h143zM175 637q0 40 27.5 67.5t67.5 27.5t67.5 -27.5t27.5 -67.5t-27.5 -67.5t-67.5 -27.5t-67.5 27.5t-27.5 67.5zM225 637 q0 -19 13 -32t32 -13t32 12.5t13 32.5q0 19 -13 32t-32 13t-32 -13t-13 -32z" />
<glyph horiz-adv-x="555" d="M378 53l-35 84h-175l-34 -84l37 -46v-7h-144v7l52 46l167 421h55l173 -421l50 -46v-7h-182v7zM325 184l-66 161l-7 37l-4 -29l-66 -169h143zM392 642q-11 -46 -41 -70.5t-76 -24.5t-76 24.5t-41 70.5l18 14q30 -59 99 -59q70 0 99 59z" />
<glyph horiz-adv-x="555" d="M378 53l-35 84h-175l-34 -84l37 -46v-7h-144v7l52 46l167 421h55l173 -421l50 -46v-7h-182v7zM325 184l-66 161l-7 37l-4 -29l-66 -169h143zM146 610h253v-53h-253v53z" />
<glyph horiz-adv-x="564" d="M287 -112q0 20 10 38t26 31.5t34.5 24.5t34.5 18h-50v7l36 46l-35 84h-175l-34 -84l37 -46v-7h-144v7l52 46l167 421h55l173 -421l50 -46v-7h-89q-26 -12 -44 -28q-16 -13 -29.5 -31t-13.5 -39q0 -17 10 -28.5t29 -11.5q30 0 53 23.5t40 58.5l54 -35q-44 -43 -81.5 -61.5 t-83.5 -18.5q-40 0 -61 16t-21 43zM325 184l-66 161l-7 37l-4 -29l-66 -169h143z" />
<glyph horiz-adv-x="715" d="M443 222l-7 -7v-161l7 -7h167l69 71h7l-15 -118h-373v7l44 44v86h-142l-55 -84l26 -46l-1 -7h-143l1 7l62 46l237 369l-29 30v7h353l12 -108h-8l-52 62h-160l-7 -7v-130l7 -7h152l20 38h8v-122h-8l-20 37h-152zM342 184v195l-10 -26l-107 -169h117z" />
<glyph horiz-adv-x="492" d="M275 424q-71 0 -109.5 -52.5t-38.5 -142.5q0 -49 13 -85t35 -60.5t50.5 -36.5t61.5 -12q52 0 93 24.5t71 80.5l20 -17q-12 -34 -31 -59t-43.5 -42t-53 -25.5t-56.5 -8.5q-62 0 -112 17.5t-84.5 49t-53 76t-18.5 98.5q0 51 20 95.5t55.5 77t82.5 51t102 18.5q27 0 64.5 -7 t70.5 -23v-120h-11q-5 19 -15 37.5t-25.5 33t-37 23.5t-50.5 9zM207 518h-23l91 138q11 16 24.5 21t25.5 5q23 0 36.5 -14.5t13.5 -34.5q0 -11 -6.5 -22.5t-21.5 -19.5z" />
<glyph horiz-adv-x="492" d="M205 -3q-89 20 -137.5 81t-48.5 151q0 51 20 95.5t55.5 77t82.5 51t102 18.5q27 0 64.5 -7t70.5 -23v-120h-11q-5 19 -15 37.5t-25.5 33t-37 23.5t-50.5 9q-71 0 -109.5 -52.5t-38.5 -142.5q0 -49 13 -85t35 -60.5t50.5 -36.5t61.5 -12q52 0 93 24.5t71 80.5l20 -17 q-12 -34 -31 -59t-43.5 -42t-53 -25.5t-56.5 -8.5q-13 0 -26 1t-24 3l-20 -52q15 11 34 14.5t34 3.5q32 0 49.5 -15t17.5 -47q0 -42 -30 -60t-73 -18q-20 0 -42 4t-42 15l7 13q19 -7 34 -9.5t27 -2.5q28 0 43 11t15 36q0 18 -10.5 27.5t-27.5 9.5q-23 0 -39 -7t-30 -20h-9z " />
<glyph horiz-adv-x="492" d="M275 424q-71 0 -109.5 -52.5t-38.5 -142.5q0 -49 13 -85t35 -60.5t50.5 -36.5t61.5 -12q52 0 93 24.5t71 80.5l20 -17q-12 -34 -31 -59t-43.5 -42t-53 -25.5t-56.5 -8.5q-62 0 -112 17.5t-84.5 49t-53 76t-18.5 98.5q0 51 20 95.5t55.5 77t82.5 51t102 18.5q27 0 64.5 -7 t70.5 -23v-120h-11q-5 19 -15 37.5t-25.5 33t-37 23.5t-50.5 9zM169 692l110 -77l111 77h23l-117 -165h-33l-117 165h23z" />
<glyph horiz-adv-x="492" d="M275 424q-71 0 -109.5 -52.5t-38.5 -142.5q0 -49 13 -85t35 -60.5t50.5 -36.5t61.5 -12q52 0 93 24.5t71 80.5l20 -17q-12 -34 -31 -59t-43.5 -42t-53 -25.5t-56.5 -8.5q-62 0 -112 17.5t-84.5 49t-53 76t-18.5 98.5q0 51 20 95.5t55.5 77t82.5 51t102 18.5q27 0 64.5 -7 t70.5 -23v-120h-11q-5 19 -15 37.5t-25.5 33t-37 23.5t-50.5 9zM215 609q0 27 18.5 45t45.5 18t45 -18.5t18 -44.5q0 -27 -18 -45.5t-45 -18.5t-45.5 18.5t-18.5 45.5z" />
<glyph horiz-adv-x="510" d="M20 0v7l45 44v357l-45 44v7h232q50 0 93 -17t75 -47.5t50 -72.5t18 -93q0 -50 -17 -92t-48.5 -72.5t-75 -47.5t-95.5 -17h-232zM159 54l7 -7h77q74 0 106 46.5t32 135.5q0 90 -38 136.5t-102 46.5h-75l-7 -8v-350zM125 692l110 -77l111 77h23l-117 -165h-33l-117 165h23z " />
<glyph horiz-adv-x="510" d="M20 253h37l8 7v148l-45 44v7h232q50 0 93 -17t75 -47.5t50 -72.5t18 -93q0 -50 -18 -92t-50 -72.5t-75 -47.5t-93 -17h-232v7l45 44v148l-8 7h-37v47zM159 54l7 -7h75q65 0 102.5 46t37.5 136t-38 136.5t-102 46.5h-75l-7 -8v-144l7 -7h37v-47h-37l-7 -7v-145z" />
<glyph horiz-adv-x="441" d="M169 222l-7 -7v-161l7 -7h167l68 71h8l-16 -118h-372v7l44 44v357l-44 44v7h353l11 -108h-7l-52 62h-160l-7 -7v-130l7 -7h152l20 38h7v-122h-7l-20 37h-152zM154 518h-23l91 138q11 16 24.5 21t25.5 5q23 0 36.5 -14.5t13.5 -34.5q0 -11 -6.5 -22.5t-21.5 -19.5z" />
<glyph horiz-adv-x="441" d="M169 222l-7 -7v-161l7 -7h167l68 71h8l-16 -118h-372v7l44 44v357l-44 44v7h353l11 -108h-7l-52 62h-160l-7 -7v-130l7 -7h152l20 38h7v-122h-7l-20 37h-152zM138 591q-15 8 -21.5 19.5t-6.5 22.5q0 19 13.5 34t36.5 15q12 0 25.5 -5t24.5 -21l91 -138h-23l-140 73v0z " />
<glyph horiz-adv-x="441" d="M169 222l-7 -7v-161l7 -7h167l68 71h8l-16 -118h-372v7l44 44v357l-44 44v7h353l11 -108h-7l-52 62h-160l-7 -7v-130l7 -7h152l20 38h7v-122h-7l-20 37h-152zM87 527l117 165h33l117 -165h-23l-111 77l-110 -77h-23z" />
<glyph horiz-adv-x="441" d="M169 222l-7 -7v-161l7 -7h167l68 71h8l-16 -118h-372v7l44 44v357l-44 44v7h353l11 -108h-7l-52 62h-160l-7 -7v-130l7 -7h152l20 38h7v-122h-7l-20 37h-152zM108 692l110 -77l111 77h23l-117 -165h-33l-117 165h23z" />
<glyph horiz-adv-x="441" d="M169 222l-7 -7v-161l7 -7h167l68 71h8l-16 -118h-372v7l44 44v357l-44 44v7h353l11 -108h-7l-52 62h-160l-7 -7v-130l7 -7h152l20 38h7v-122h-7l-20 37h-152zM189 604q0 -24 -17 -41t-40 -17q-24 0 -40 17t-16 41t16 40.5t40 16.5t40.5 -16.5t16.5 -40.5zM364 604 q0 -24 -16.5 -41t-40.5 -17t-40 17t-16 41t16 40.5t40 16.5t40.5 -16.5t16.5 -40.5z" />
<glyph horiz-adv-x="441" d="M169 222l-7 -7v-161l7 -7h167l68 71h8l-16 -118h-372v7l44 44v357l-44 44v7h353l11 -108h-7l-52 62h-160l-7 -7v-130l7 -7h152l20 38h7v-122h-7l-20 37h-152zM165 609q0 27 18.5 45t45.5 18t45 -18.5t18 -44.5q0 -27 -18 -45.5t-45 -18.5t-45.5 18.5t-18.5 45.5z" />
<glyph horiz-adv-x="441" d="M169 222l-7 -7v-161l7 -7h167l68 71h8l-16 -118h-372v7l44 44v357l-44 44v7h353l11 -108h-7l-52 62h-160l-7 -7v-130l7 -7h152l20 38h7v-122h-7l-20 37h-152zM88 610h253v-53h-253v53z" />
<glyph horiz-adv-x="441" d="M24 0v7l44 44v357l-44 44v7h353l11 -108h-7l-52 62h-160l-7 -7v-130l7 -7h152l20 38h7v-122h-7l-20 37h-152l-7 -7v-161l7 -7h167l68 71h8l-16 -118h-49q-26 -12 -44 -28q-16 -13 -29.5 -31t-13.5 -39q0 -17 10 -28.5t29 -11.5q30 0 53 23.5t40 58.5l53 -35 q-44 -43 -81 -61.5t-83 -18.5q-40 0 -61 16.5t-21 42.5q0 20 10 38t26 31.5t34.5 24.5t34.5 18h-280z" />
<glyph horiz-adv-x="502" d="M438 74q0 -10 2 -17t4 -11q3 -4 8 -7q-29 -29 -71.5 -40t-85.5 -11q-61 0 -111.5 17t-87 48t-56.5 76t-20 101q0 51 21 95.5t57 76.5t83 50.5t99 18.5q39 0 83.5 -8.5t74.5 -26.5v-115h-12q-6 18 -16.5 36.5t-27 33.5t-42.5 24t-62 9q-66 0 -108 -50t-42 -144 t42.5 -144.5t129.5 -50.5q44 0 44 30v90l-7 7h-43v47h188v-7l-44 -44v-84zM396 642q-11 -46 -41 -70.5t-76 -24.5t-76 24.5t-41 70.5l18 14q30 -59 99 -59q70 0 99 59z" />
<glyph horiz-adv-x="502" d="M229 -116q0 27 19.5 47t47.5 20q39 0 57.5 -26t18.5 -72q0 -50 -26.5 -100.5t-85.5 -93.5l-11 10q36 34 48.5 58.5t12.5 53.5q0 33 -32 40q-26 6 -37.5 22.5t-11.5 40.5zM438 74q0 -10 2 -17t4 -11q3 -4 8 -7q-29 -29 -71.5 -40t-85.5 -11q-61 0 -111.5 17t-87 48 t-56.5 76t-20 101q0 51 21 95.5t57 76.5t83 50.5t99 18.5q39 0 83.5 -8.5t74.5 -26.5v-115h-12q-6 18 -16.5 36.5t-27 33.5t-42.5 24t-62 9q-66 0 -108 -50t-42 -144t42.5 -144.5t129.5 -50.5q44 0 44 30v90l-7 7h-43v47h188v-7l-44 -44v-84z" />
<glyph horiz-adv-x="564" d="M26 452v7h182v-7l-44 -44v-126l7 -8h216l7 8v126l-44 44v7h182v-7l-44 -44v-357l44 -44v-7h-182v7l44 44v169l-7 7h-216l-7 -7v-169l44 -44v-7h-182v7l44 44v357zM147 527l117 165h33l117 -165h-23l-111 77l-110 -77h-23z" />
<glyph horiz-adv-x="229" d="M19 452v7h183v-7l-44 -44v-357l44 -44v-7h-183v7l44 44v357zM41 518h-23l91 138q11 16 24.5 21t25.5 5q23 0 36.5 -14.5t13.5 -34.5q0 -11 -6.5 -22.5t-21.5 -19.5z" />
<glyph horiz-adv-x="229" d="M16 452v7h183v-7l-44 -44v-357l44 -44v-7h-183v7l44 44v357zM42 591q-15 8 -21.5 19.5t-6.5 22.5q0 19 13.5 34t36.5 15q12 0 25.5 -5t24.5 -21l91 -138h-23l-140 73v0z" />
<glyph horiz-adv-x="229" d="M21 452v7h183v-7l-44 -44v-357l44 -44v-7h-183v7l44 44v357zM-18 527l117 165h33l117 -165h-23l-111 77l-110 -77h-23z" />
<glyph horiz-adv-x="229" d="M23 452v7h183v-7l-44 -44v-357l44 -44v-7h-183v7l44 44v357zM85 604q0 -24 -17 -41t-40 -17q-24 0 -40 17t-16 41t16 40.5t40 16.5t40.5 -16.5t16.5 -40.5zM260 604q0 -24 -16.5 -41t-40.5 -17t-40 17t-16 41t16 40.5t40 16.5t40.5 -16.5t16.5 -40.5z" />
<glyph horiz-adv-x="229" d="M24 452v7h183v-7l-44 -44v-357l44 -44v-7h-183v7l44 44v357zM233 642q-11 -46 -41 -70.5t-76 -24.5t-76 24.5t-41 70.5l18 14q30 -59 99 -59q70 0 99 59z" />
<glyph horiz-adv-x="229" d="M18 452v7h183v-7l-44 -44v-357l44 -44v-7h-183v7l44 44v357zM49 607q0 27 18.5 45.5t45.5 18.5t45 -18.5t18 -45.5t-18.5 -45t-44.5 -18q-27 0 -45.5 18t-18.5 45z" />
<glyph horiz-adv-x="229" d="M22 452v7h183v-7l-44 -44v-357l44 -44v-7h-183v7l44 44v357zM-10 610h253v-53h-253v53z" />
<glyph horiz-adv-x="229" d="M-8 -112q0 20 10 38t26 31.5t34.5 24.5t34.5 18h-74v7l44 44v357l-44 44v7h182v-7l-44 -44v-357l44 -44v-7h-65q-26 -12 -44 -28q-16 -13 -29.5 -31t-13.5 -39q0 -17 10 -28.5t29 -11.5q30 0 53 23.5t40 58.5l54 -35q-44 -43 -81.5 -61.5t-83.5 -18.5q-40 0 -61 16 t-21 43z" />
<glyph horiz-adv-x="455" d="M202 -116q0 27 19.5 47t46.5 20q39 0 57.5 -26t18.5 -72q0 -50 -26 -100.5t-86 -93.5l-11 10q36 34 49 58.5t13 53.5q0 33 -33 40q-26 6 -37 22.5t-11 40.5zM22 452v7h182v-7l-44 -44v-149l151 149l-37 44v7h172v-7l-66 -44l-141 -139l52 23l154 -320l-61 28l-60 51 l-123 181l-41 -39v-142l44 -44v-7h-182v7l44 44v357z" />
<glyph horiz-adv-x="417" d="M23 452v7h182v-7l-44 -44v-354l7 -7h153l69 72h6l-16 -119h-357v7l44 44v357zM45 518h-23l91 138q11 16 24.5 21t25.5 5q23 0 36.5 -14.5t13.5 -34.5q0 -11 -6.5 -22.5t-21.5 -19.5z" />
<glyph horiz-adv-x="417" d="M141 -116q0 27 19.5 47t47.5 20q39 0 57.5 -26t18.5 -72q0 -50 -26.5 -100.5t-85.5 -93.5l-11 10q36 34 48.5 58.5t12.5 53.5q0 33 -33 40q-26 6 -37 22.5t-11 40.5zM23 452v7h182v-7l-44 -44v-354l7 -7h153l69 72h6l-16 -119h-357v7l44 44v357z" />
<glyph horiz-adv-x="503" d="M478 459v-7l-44 -44v-408h-20l-294 335l-7 30v-314l43 -44v-7h-134v7l44 44v357l-44 44v7h116l242 -274l6 -29v252l-43 44v7h135zM178 518h-23l91 138q11 16 24.5 21t25.5 5q23 0 36.5 -14.5t13.5 -34.5q0 -11 -6.5 -22.5t-21.5 -19.5z" />
<glyph horiz-adv-x="503" d="M478 459v-7l-44 -44v-408h-20l-294 335l-7 30v-314l43 -44v-7h-134v7l44 44v357l-44 44v7h116l242 -274l6 -29v252l-43 44v7h135zM139 692l110 -77l111 77h23l-117 -165h-33l-117 165h23z" />
<glyph horiz-adv-x="503" d="M209 -116q0 27 19.5 47t46.5 20q39 0 57.5 -26t18.5 -72q0 -50 -26 -100.5t-85 -93.5l-12 10q36 34 49 58.5t13 53.5q0 33 -33 40q-26 6 -37 22.5t-11 40.5zM478 459v-7l-44 -44v-408h-20l-294 335l-7 30v-314l43 -44v-7h-134v7l44 44v357l-44 44v7h116l242 -274l6 -29 v252l-43 44v7h135z" />
<glyph horiz-adv-x="503" d="M478 459v-7l-44 -44v-408h-20l-294 335l-7 30v-314l43 -44v-7h-134v7l44 44v357l-44 44v7h116l242 -274l6 -29v252l-43 44v7h135zM451 676q-6 -36 -23 -63q-14 -24 -39 -44t-66 -20q-34 0 -54 10.5t-35 22.5t-29.5 22.5t-39.5 10.5q-27 0 -45 -10.5t-29 -21.5 q-13 -14 -21 -32h-18q6 36 23 64q14 24 38.5 43.5t66.5 19.5q34 0 54 -10t35 -22.5t29.5 -22.5t39.5 -10q27 0 44.5 9.5t29.5 22.5q13 13 21 31h18z" />
<glyph horiz-adv-x="547" d="M523 230q0 -50 -19 -94t-52.5 -77t-79 -52t-99.5 -19q-52 0 -97.5 19t-79.5 52t-52.5 77t-18.5 94t18.5 94t52.5 76.5t79.5 51.5t97.5 19q53 0 99 -19t79.5 -51.5t52.5 -76.5t19 -94zM416 230q0 41 -9.5 76.5t-27 61.5t-44.5 41t-62 15t-61.5 -15t-43.5 -41t-26.5 -61.5 t-9.5 -76.5q0 -42 9.5 -77t26.5 -61.5t44 -41.5t61 -15q35 0 62 15t44.5 41.5t27 61.5t9.5 77zM216 518h-23l91 138q11 16 24.5 21t25.5 5q23 0 36.5 -14.5t13.5 -34.5q0 -11 -6.5 -22.5t-21.5 -19.5z" />
<glyph horiz-adv-x="551" d="M523 230q0 -50 -19 -94t-52.5 -77t-79 -52t-99.5 -19q-52 0 -97.5 19t-79.5 52t-52.5 77t-18.5 94t18.5 94t52.5 76.5t79.5 51.5t97.5 19q53 0 99 -19t79.5 -51.5t52.5 -76.5t19 -94zM416 230q0 41 -9.5 76.5t-27 61.5t-44.5 41t-62 15t-61.5 -15t-43.5 -41t-26.5 -61.5 t-9.5 -76.5q0 -42 9.5 -77t26.5 -61.5t44 -41.5t61 -15q35 0 62 15t44.5 41.5t27 61.5t9.5 77zM209 591q-15 8 -21.5 19.5t-6.5 22.5q0 19 13.5 34t36.5 15q12 0 25.5 -5t24.5 -21l91 -138h-23l-140 73v0z" />
<glyph horiz-adv-x="551" d="M523 230q0 -50 -19 -94t-52.5 -77t-79 -52t-99.5 -19q-52 0 -97.5 19t-79.5 52t-52.5 77t-18.5 94t18.5 94t52.5 76.5t79.5 51.5t97.5 19q53 0 99 -19t79.5 -51.5t52.5 -76.5t19 -94zM416 230q0 41 -9.5 76.5t-27 61.5t-44.5 41t-62 15t-61.5 -15t-43.5 -41t-26.5 -61.5 t-9.5 -76.5q0 -42 9.5 -77t26.5 -61.5t44 -41.5t61 -15q35 0 62 15t44.5 41.5t27 61.5t9.5 77zM140 527l117 165h33l117 -165h-23l-111 77l-110 -77h-23z" />
<glyph horiz-adv-x="551" d="M523 230q0 -50 -19 -94t-52.5 -77t-79 -52t-99.5 -19q-52 0 -97.5 19t-79.5 52t-52.5 77t-18.5 94t18.5 94t52.5 76.5t79.5 51.5t97.5 19q53 0 99 -19t79.5 -51.5t52.5 -76.5t19 -94zM416 230q0 41 -9.5 76.5t-27 61.5t-44.5 41t-62 15t-61.5 -15t-43.5 -41t-26.5 -61.5 t-9.5 -76.5q0 -42 9.5 -77t26.5 -61.5t44 -41.5t61 -15q35 0 62 15t44.5 41.5t27 61.5t9.5 77zM473 676q-6 -36 -23 -63q-14 -24 -39 -44t-66 -20q-34 0 -54 10.5t-35 22.5t-29.5 22.5t-39.5 10.5q-27 0 -45 -10.5t-29 -21.5q-13 -14 -21 -32h-18q6 36 23 64 q14 24 38.5 43.5t66.5 19.5q34 0 54 -10t35 -22.5t29.5 -22.5t39.5 -10q27 0 44.5 9.5t29.5 22.5q13 13 21 31h18z" />
<glyph horiz-adv-x="551" d="M523 230q0 -50 -19 -94t-52.5 -77t-79 -52t-99.5 -19q-52 0 -97.5 19t-79.5 52t-52.5 77t-18.5 94t18.5 94t52.5 76.5t79.5 51.5t97.5 19q53 0 99 -19t79.5 -51.5t52.5 -76.5t19 -94zM416 230q0 41 -9.5 76.5t-27 61.5t-44.5 41t-62 15t-61.5 -15t-43.5 -41t-26.5 -61.5 t-9.5 -76.5q0 -42 9.5 -77t26.5 -61.5t44 -41.5t61 -15q35 0 62 15t44.5 41.5t27 61.5t9.5 77zM242 604q0 -24 -17 -41t-40 -17q-24 0 -40 17t-16 41t16 40.5t40 16.5t40.5 -16.5t16.5 -40.5zM417 604q0 -24 -16.5 -41t-40.5 -17t-40 17t-16 41t16 40.5t40 16.5t40.5 -16.5 t16.5 -40.5z" />
<glyph horiz-adv-x="551" d="M523 230q0 -50 -19 -94t-52.5 -77t-79 -52t-99.5 -19q-52 0 -97.5 19t-79.5 52t-52.5 77t-18.5 94t18.5 94t52.5 76.5t79.5 51.5t97.5 19q53 0 99 -19t79.5 -51.5t52.5 -76.5t19 -94zM416 230q0 41 -9.5 76.5t-27 61.5t-44.5 41t-62 15t-61.5 -15t-43.5 -41t-26.5 -61.5 t-9.5 -76.5q0 -42 9.5 -77t26.5 -61.5t44 -41.5t61 -15q35 0 62 15t44.5 41.5t27 61.5t9.5 77zM101 518h-24l92 138q11 16 24 21t26 5q23 0 36.5 -14.5t13.5 -34.5q0 -11 -6.5 -22.5t-22.5 -19.5zM301 518h-24l91 138q11 16 24.5 21t25.5 5q23 0 37 -14.5t14 -34.5 q0 -11 -7 -22.5t-22 -19.5z" />
<glyph horiz-adv-x="551" d="M523 230q0 -50 -19 -94t-52.5 -77t-79 -52t-99.5 -19q-52 0 -97.5 19t-79.5 52t-52.5 77t-18.5 94t18.5 94t52.5 76.5t79.5 51.5t97.5 19q53 0 99 -19t79.5 -51.5t52.5 -76.5t19 -94zM416 230q0 41 -9.5 76.5t-27 61.5t-44.5 41t-62 15t-61.5 -15t-43.5 -41t-26.5 -61.5 t-9.5 -76.5q0 -42 9.5 -77t26.5 -61.5t44 -41.5t61 -15q35 0 62 15t44.5 41.5t27 61.5t9.5 77zM147 610h253v-53h-253v53z" />
<glyph horiz-adv-x="551" d="M523 230q0 -50 -19 -94t-52.5 -77t-79 -52t-99.5 -19q-88 0 -151 49l-45 -45l-35 36l43 43q-29 32 -44.5 72.5t-15.5 86.5q0 50 18.5 94t52.5 76.5t79.5 51.5t97.5 19q46 0 86 -14.5t73 -39.5l50 50l34 -36l-48 -48q27 -32 41 -71t14 -82zM273 424q-35 0 -61.5 -15 t-43.5 -41t-26.5 -61.5t-9.5 -76.5q0 -55 15 -98l234 234q-17 27 -44.5 42.5t-63.5 15.5zM416 230q0 48 -13 88l-232 -232q17 -24 43 -37.5t59 -13.5q35 0 62 15t44.5 41.5t27 61.5t9.5 77z" />
<glyph horiz-adv-x="758" d="M486 222l-7 -7v-161l7 -7h167l69 71h7l-15 -118h-366q-33 -12 -75 -12q-52 0 -97.5 19t-79.5 52t-52.5 77t-18.5 94t18.5 94t52.5 76.5t79.5 51.5t97.5 19q42 0 75 -12h346l12 -108h-8l-52 62h-160l-7 -7v-130l7 -7h152l20 38h8v-122h-8l-20 37h-152zM385 230 q0 52 -3.5 89t-15.5 60t-34 34t-59 11q-35 0 -61.5 -15t-43.5 -41t-26.5 -61.5t-9.5 -76.5q0 -42 9.5 -77t26.5 -61.5t44 -41.5t61 -15q35 0 56.5 9.5t33.5 30.5t16.5 54.5t5.5 80.5v20z" />
<glyph horiz-adv-x="435" d="M234 369q27 0 58.5 -5.5t58.5 -19.5t45 -42t18 -72t-18 -71.5t-45 -43t-58.5 -20.5t-58.5 -5h-69l-7 -7v-32l44 -44v-7h-183v7l44 44v357l-44 44v7h183v-7l-44 -44v-32l7 -7h69zM158 144l7 -7h54q19 0 37.5 4.5t32.5 15.5t22 28.5t8 43.5t-8 44t-22 28.5t-32 15.5t-38 5 h-54l-7 -8v-170z" />
<glyph horiz-adv-x="460" d="M18 452v7h237q31 0 60 -5t51.5 -19.5t36 -39.5t13.5 -66q0 -30 -12 -52t-30.5 -37t-42 -24t-46.5 -13l49 -8l121 -223l-67 28l-61 51l-118 148h-45l-7 -8v-140l44 -44v-7h-183v7l44 44v357zM157 253l7 -7h58q47 0 73.5 18.5t26.5 64.5q0 28 -9 44.5t-23 25t-31.5 11 t-36.5 2.5h-58l-7 -8v-151zM146 518h-23l91 138q11 16 24.5 21t25.5 5q23 0 36.5 -14.5t13.5 -34.5q0 -11 -6.5 -22.5t-21.5 -19.5z" />
<glyph horiz-adv-x="460" d="M18 452v7h237q31 0 60 -5t51.5 -19.5t36 -39.5t13.5 -66q0 -30 -12 -52t-30.5 -37t-42 -24t-46.5 -13l49 -8l121 -223l-67 28l-61 51l-118 148h-45l-7 -8v-140l44 -44v-7h-183v7l44 44v357zM157 253l7 -7h58q47 0 73.5 18.5t26.5 64.5q0 28 -9 44.5t-23 25t-31.5 11 t-36.5 2.5h-58l-7 -8v-151zM97 692l110 -77l111 77h23l-117 -165h-33l-117 165h23z" />
<glyph horiz-adv-x="460" d="M207 -116q0 27 19.5 47t46.5 20q39 0 57.5 -26t18.5 -72q0 -50 -26 -100.5t-85 -93.5l-12 10q36 34 49 58.5t13 53.5q0 33 -33 40q-26 6 -37 22.5t-11 40.5zM18 452v7h237q31 0 60 -5t51.5 -19.5t36 -39.5t13.5 -66q0 -30 -12 -52t-30.5 -37t-42 -24t-46.5 -13l49 -8 l121 -223l-67 28l-61 51l-118 148h-45l-7 -8v-140l44 -44v-7h-183v7l44 44v357zM157 253l7 -7h58q47 0 73.5 18.5t26.5 64.5q0 28 -9 44.5t-23 25t-31.5 11t-36.5 2.5h-58l-7 -8v-151z" />
<glyph horiz-adv-x="394" d="M366 130q0 -67 -46 -104.5t-124 -37.5q-46 0 -94.5 16t-77.5 46v126h18q15 -65 52 -103t99 -38q41 0 59 20t18 61q0 24 -17 37.5t-44 24.5t-57 22.5t-56.5 29t-44 44t-17.5 69.5q0 34 15.5 58t39.5 39.5t53 23t58 7.5q37 0 69.5 -6.5t62.5 -24.5v-106h-13 q-17 53 -45.5 71.5t-70.5 18.5q-32 0 -54 -16.5t-22 -46.5q0 -28 18 -44t44 -28.5t57.5 -24t57.5 -28t44 -41.5t18 -65zM128 518h-23l91 138q11 16 24.5 21t25.5 5q23 0 36.5 -14.5t13.5 -34.5q0 -11 -6.5 -22.5t-21.5 -19.5z" />
<glyph horiz-adv-x="394" d="M136 -5q-33 7 -62.5 21t-49.5 34v126h18q15 -65 52 -103t99 -38q41 0 59 20t18 61q0 24 -17 37.5t-44 24.5t-57 22.5t-56.5 29t-44 44t-17.5 69.5q0 34 15.5 58t39.5 39.5t53 23t58 7.5q37 0 69.5 -6.5t62.5 -24.5v-106h-13q-17 53 -45.5 71.5t-70.5 18.5 q-32 0 -54 -16.5t-22 -46.5q0 -28 18 -44t44 -28.5t57.5 -24t57.5 -28t44 -41.5t18 -65q0 -67 -46 -104.5t-124 -37.5q-7 0 -14 0.5t-14 1.5l-18 -50q15 11 34 14.5t33 3.5q32 0 50 -15t18 -47q0 -42 -30.5 -60t-73.5 -18q-20 0 -41.5 4t-42.5 15l7 13q19 -7 34.5 -9.5 t27.5 -2.5q28 0 42.5 11t14.5 36q0 18 -10 27.5t-28 9.5q-23 0 -39 -7t-29 -20h-9z" />
<glyph horiz-adv-x="454" d="M424 459l15 -118h-7l-68 71h-81l-8 -8v-353l44 -44v-7h-184v7l44 44v353l-8 8h-80l-68 -71h-8l16 118h393zM119 692l110 -77l111 77h23l-117 -165h-33l-117 165h23z" />
<glyph horiz-adv-x="454" d="M158 -116q0 27 19.5 47t46.5 20q39 0 57.5 -26t18.5 -72q0 -50 -26 -100.5t-86 -93.5l-11 10q36 34 49 58.5t13 53.5q0 33 -33 40q-26 6 -37 22.5t-11 40.5zM424 459l15 -118h-7l-68 71h-81l-8 -8v-353l44 -44v-7h-184v7l44 44v353l-8 8h-80l-68 -71h-8l16 118h393z" />
<glyph horiz-adv-x="529" d="M207 459v-7l-44 -44v-243q0 -28 4.5 -52.5t17.5 -43.5t37 -29.5t64 -10.5q44 0 69 10t37 28t15.5 43.5t3.5 56.5v241l-44 44v7h135v-7l-44 -44v-264q0 -33 -7.5 -61t-27 -49.5t-52.5 -33.5t-85 -12q-115 0 -166 41.5t-51 135.5v243l-44 44v7h182zM221 518h-23l91 138 q11 16 24.5 21t25.5 5q23 0 36.5 -14.5t13.5 -34.5q0 -11 -6.5 -22.5t-21.5 -19.5z" />
<glyph horiz-adv-x="529" d="M207 459v-7l-44 -44v-243q0 -28 4.5 -52.5t17.5 -43.5t37 -29.5t64 -10.5q44 0 69 10t37 28t15.5 43.5t3.5 56.5v241l-44 44v7h135v-7l-44 -44v-264q0 -33 -7.5 -61t-27 -49.5t-52.5 -33.5t-85 -12q-115 0 -166 41.5t-51 135.5v243l-44 44v7h182zM222 591 q-15 8 -21.5 19.5t-6.5 22.5q0 19 13.5 34t36.5 15q12 0 25.5 -5t24.5 -21l91 -138h-23l-140 73v0z" />
<glyph horiz-adv-x="529" d="M207 459v-7l-44 -44v-243q0 -28 4.5 -52.5t17.5 -43.5t37 -29.5t64 -10.5q44 0 69 10t37 28t15.5 43.5t3.5 56.5v241l-44 44v7h135v-7l-44 -44v-264q0 -33 -7.5 -61t-27 -49.5t-52.5 -33.5t-85 -12q-115 0 -166 41.5t-51 135.5v243l-44 44v7h182zM160 527l117 165h33 l117 -165h-23l-111 77l-110 -77h-23z" />
<glyph horiz-adv-x="529" d="M207 459v-7l-44 -44v-243q0 -28 4.5 -52.5t17.5 -43.5t37 -29.5t64 -10.5q44 0 69 10t37 28t15.5 43.5t3.5 56.5v241l-44 44v7h135v-7l-44 -44v-264q0 -33 -7.5 -61t-27 -49.5t-52.5 -33.5t-85 -12q-115 0 -166 41.5t-51 135.5v243l-44 44v7h182zM259 604q0 -24 -17 -41 t-40 -17q-24 0 -40 17t-16 41t16 40.5t40 16.5t40.5 -16.5t16.5 -40.5zM434 604q0 -24 -16.5 -41t-40.5 -17t-40 17t-16 41t16 40.5t40 16.5t40.5 -16.5t16.5 -40.5z" />
<glyph horiz-adv-x="529" d="M207 459v-7l-44 -44v-243q0 -28 4.5 -52.5t17.5 -43.5t37 -29.5t64 -10.5q44 0 69 10t37 28t15.5 43.5t3.5 56.5v241l-44 44v7h135v-7l-44 -44v-264q0 -33 -7.5 -61t-27 -49.5t-52.5 -33.5t-85 -12q-115 0 -166 41.5t-51 135.5v243l-44 44v7h182zM473 676q-6 -36 -23 -63 q-14 -24 -39 -44t-66 -20q-34 0 -54 10.5t-35 22.5t-29.5 22.5t-39.5 10.5q-27 0 -45 -10.5t-29 -21.5q-13 -14 -21 -32h-18q6 36 23 64q14 24 38.5 43.5t66.5 19.5q34 0 54 -10t35 -22.5t29.5 -22.5t39.5 -10q27 0 44.5 9.5t29.5 22.5q13 13 21 31h18z" />
<glyph horiz-adv-x="529" d="M207 459v-7l-44 -44v-243q0 -28 4.5 -52.5t17.5 -43.5t37 -29.5t64 -10.5q44 0 69 10t37 28t15.5 43.5t3.5 56.5v241l-44 44v7h135v-7l-44 -44v-264q0 -33 -7.5 -61t-27 -49.5t-52.5 -33.5t-85 -12q-115 0 -166 41.5t-51 135.5v243l-44 44v7h182zM191 637q0 40 27.5 67.5 t67.5 27.5t67.5 -27.5t27.5 -67.5t-27.5 -67.5t-67.5 -27.5t-67.5 27.5t-27.5 67.5zM241 637q0 -19 13 -32t32 -13t32 12.5t13 32.5q0 19 -13 32t-32 13t-32 -13t-13 -32z" />
<glyph horiz-adv-x="529" d="M207 459v-7l-44 -44v-243q0 -28 4.5 -52.5t17.5 -43.5t37 -29.5t64 -10.5q44 0 69 10t37 28t15.5 43.5t3.5 56.5v241l-44 44v7h135v-7l-44 -44v-264q0 -33 -7.5 -61t-27 -49.5t-52.5 -33.5t-85 -12q-115 0 -166 41.5t-51 135.5v243l-44 44v7h182zM160 610h253v-53h-253 v53z" />
<glyph horiz-adv-x="529" d="M207 459v-7l-44 -44v-243q0 -28 4.5 -52.5t17.5 -43.5t37 -29.5t64 -10.5q44 0 69 10t37 28t15.5 43.5t3.5 56.5v241l-44 44v7h135v-7l-44 -44v-264q0 -33 -7.5 -61t-27 -49.5t-52.5 -33.5t-85 -12q-115 0 -166 41.5t-51 135.5v243l-44 44v7h182zM114 518h-24l92 138 q11 16 24 21t26 5q23 0 36.5 -14.5t13.5 -34.5q0 -11 -6.5 -22.5t-22.5 -19.5zM314 518h-24l91 138q11 16 24.5 21t25.5 5q23 0 37 -14.5t14 -34.5q0 -11 -7 -22.5t-22 -19.5z" />
<glyph horiz-adv-x="529" d="M199 -112q0 30 22 56t48 44q-106 3 -153 44.5t-47 132.5v243l-44 44v7h182v-7l-44 -44v-243q0 -28 4.5 -52.5t17.5 -43.5t37 -29.5t64 -10.5q44 0 69 10t37 28t15.5 43.5t3.5 56.5v241l-44 44v7h135v-7l-44 -44v-264q0 -30 -6.5 -56.5t-22 -47t-43 -34t-69.5 -17.5 q-9 -6 -19 -15.5t-19 -21t-14 -24.5t-5 -26q0 -17 10 -28.5t29 -11.5q30 0 53 23.5t40 58.5l53 -35q-44 -43 -81 -61.5t-83 -18.5q-40 0 -61 16t-21 43z" />
<glyph horiz-adv-x="774" d="M190 459v-7l-39 -44l104 -279l11 -52l10 44l80 216l-27 71l-51 44v7h191v-7l-44 -44l111 -293l8 -36l4 19l109 310l-46 44v7h154v-7l-56 -44l-148 -408h-78l-102 268l-98 -268h-75l-154 408l-49 44v7h185zM244 527l117 165h33l117 -165h-23l-111 77l-110 -77h-23z" />
<glyph horiz-adv-x="484" d="M162 0v7l44 44v145l-134 212l-54 44v7h194v-7l-38 -44l81 -132l9 -39l9 38l82 133l-37 44v7h146v-7l-53 -44l-111 -181v-176l44 -44v-7h-182zM192 518h-23l91 138q11 16 24.5 21t25.5 5q23 0 36.5 -14.5t13.5 -34.5q0 -11 -6.5 -22.5t-21.5 -19.5z" />
<glyph horiz-adv-x="484" d="M162 0v7l44 44v145l-134 212l-54 44v7h194v-7l-38 -44l81 -132l9 -39l9 38l82 133l-37 44v7h146v-7l-53 -44l-111 -181v-176l44 -44v-7h-182zM233 604q0 -24 -17 -41t-40 -17q-24 0 -40 17t-16 41t16 40.5t40 16.5t40.5 -16.5t16.5 -40.5zM408 604q0 -24 -16.5 -41 t-40.5 -17t-40 17t-16 41t16 40.5t40 16.5t40.5 -16.5t16.5 -40.5z" />
<glyph horiz-adv-x="418" d="M387 459l-235 -412h180l62 82h7l-12 -129h-374l239 412h-144l-60 -75h-7l16 122h328zM151 518h-23l91 138q11 16 24.5 21t25.5 5q23 0 36.5 -14.5t13.5 -34.5q0 -11 -6.5 -22.5t-21.5 -19.5z" />
<glyph horiz-adv-x="418" d="M153 609q0 27 18.5 45t45.5 18t45 -18.5t18 -44.5q0 -27 -18 -45.5t-45 -18.5t-45.5 18.5t-18.5 45.5zM387 459l-235 -412h180l62 82h7l-12 -129h-374l239 412h-144l-60 -75h-7l16 122h328z" />
<glyph horiz-adv-x="885" d="M86 521q0 51 11.5 90.5t37.5 66.5t69 40.5t106 13.5h83l92 42h8v-370q18 29 54.5 48t75.5 19q51 0 93.5 -17.5t73 -49t47.5 -76t17 -99.5q0 -50 -16 -94t-45.5 -76.5t-72.5 -51.5t-97 -19q-49 0 -90 23.5t-63 59.5l-64 -71h-8v680l-5 5h-83q-30 0 -53.5 -7t-40.5 -25.5 t-26.5 -50.5t-9.5 -81v-55l7 -7h103v-47h-103l-7 -8v-364l54 -33v-7h-202v7l54 33v364l-7 8h-59v47h59l7 7v55zM623 35q62 0 92.5 51.5t30.5 142.5q0 93 -30.5 144t-92.5 51q-26 0 -49.5 -9t-41.5 -25.5t-28.5 -40t-10.5 -52.5v-140q0 -28 10.5 -50t28 -38.5t41 -25 t50.5 -8.5z" />
<glyph horiz-adv-x="876" d="M180 466l7 -7h103v-47h-103l-7 -8v-364l54 -33v-7h-202v7l54 33v364l-7 8h-59v47h59l7 7v80q0 54 15 92t41.5 61.5t62.5 34t78 10.5q96 0 144.5 -45t48.5 -153v-175q36 28 72 50q31 18 67 34t67 16q68 0 98 -39.5t30 -105.5v-286l54 -33v-7h-202v7l54 33v286q0 49 -23 67 t-57 18q-24 0 -52 -14.5t-52 -31.5q-28 -20 -56 -47v-278l54 -33v-7h-202v7l54 33v519q0 34 -4 59.5t-15 43t-30.5 26.5t-49.5 9q-57 0 -80 -35.5t-23 -102.5v-93z" />
<glyph horiz-adv-x="732" d="M386 404l-7 8h-192l-7 -8v-364l54 -33v-7h-202v7l54 33v364l-7 8h-59v47h59l7 7v127q0 71 36.5 111t110.5 40q30 0 64 -8t62 -33q14 -12 20 -23.5t6 -23.5q0 -20 -16 -34t-36 -14q-15 0 -29 11t-19 35q-6 27 -20 35t-32 8q-33 0 -43 -23.5t-10 -67.5v-140l7 -7h293v-88 q27 41 65 70t85 29q22 0 41 -7.5t34 -21.5t24 -32.5t9 -38.5q0 -24 -13 -36.5t-31 -12.5q-17 0 -32.5 13t-20.5 43q-4 27 -15 37.5t-29 10.5q-17 0 -37.5 -14.5t-38 -39.5t-29.5 -58t-12 -70v-203l55 -33v-7h-203v7l54 33v364z" />
<glyph horiz-adv-x="711" d="M180 466l7 -7h240v-7l-43 -26l103 -267l9 -34l8 38l101 263l-42 26v7h140v-7l-55 -33l-231 -612q-15 -34 -28 -52.5t-25 -28.5t-23 -12t-24 -2q-24 0 -35.5 14.5t-11.5 31.5q0 14 9 27t27 18q20 5 33.5 9t23 9.5t15 13.5t11.5 22l56 153l-155 402h-103l-7 -8v-364l54 -33 v-7h-202v7l54 33v364l-7 8h-59v47h59l7 7v127q0 71 36.5 111t110.5 40q30 0 64 -8t62 -33q14 -12 20 -23.5t6 -23.5q0 -20 -16 -34t-36 -14q-15 0 -29 11t-19 35q-6 27 -20 35t-32 8q-33 0 -43 -23.5t-10 -67.5v-140z" />
<glyph horiz-adv-x="1039" d="M414 404l-7 8h-220l-7 -8v-364l54 -33v-7h-202v7l54 33v364l-7 8h-59v47h59l7 7v69q0 36 6.5 65t23 50t42.5 32t66 11q30 0 62.5 -7t59.5 -34q22 -22 22 -44t-16 -36.5t-36 -14.5q-14 0 -27 11t-18 35q-6 27 -17.5 35t-29.5 8q-28 0 -36 -23.5t-8 -67.5v-89l7 -7h220l7 7 v127q0 71 36 111t111 40q30 0 63.5 -8t62.5 -33q14 -11 20 -22.5t6 -23.5q0 -20 -16 -34.5t-37 -14.5q-15 0 -29 11t-19 35q-6 27 -19.5 35t-31.5 8q-33 0 -43 -23.5t-10 -67.5v-140l7 -7h240v-7l-43 -26l103 -267l8 -34l8 38l102 263l-42 26v7h140v-7l-55 -33l-232 -612 q-15 -34 -28 -52.5t-24.5 -28.5t-23 -12t-23.5 -2q-24 0 -35.5 14.5t-11.5 31.5q0 14 8.5 27t27.5 18q20 5 33.5 9t22.5 9.5t15 13.5t12 22l56 153l-156 402h-102l-7 -8v-364l54 -33v-7h-203v7l55 33v364z" />
<glyph horiz-adv-x="878" d="M472 101q-11 -22 -30.5 -42t-45 -36t-55.5 -25.5t-59 -9.5q-53 0 -100 15t-81 46t-54 76t-20 104q0 56 21 100.5t53.5 75t74 47.5t83.5 19l-99 83q12 44 39.5 79.5t66.5 60t86 37.5t97 13q56 0 101.5 -10.5t77.5 -33t49.5 -56.5t17.5 -80v-98l7 -7h103v-47h-103l-7 -8 v-274q0 -39 16.5 -66.5t55.5 -27.5q37 0 58.5 15.5t32.5 30.5l19 -14q-5 -8 -14.5 -22t-24.5 -27t-36 -22t-49 -9q-76 0 -114 37t-38 109v270l-7 8h-59v18q42 16 66 35t35.5 37t14.5 34t3 28q0 38 -15.5 63.5t-43.5 42t-65 23.5t-81 7q-36 0 -69 -10t-60.5 -29t-47.5 -46 t-30 -61q20 -19 45 -38q20 -17 47.5 -36.5t57.5 -39.5q9 -5 18 -11t17 -13q18 -17 26 -33.5t8 -31.5q0 -22 -14.5 -35t-31.5 -13q-15 0 -30 12.5t-23 41.5q-7 31 -27.5 49t-65.5 18q-36 0 -61 -16.5t-41.5 -43.5t-24.5 -62.5t-8 -72.5q0 -90 40.5 -142t107.5 -52q54 0 97 25 t73 71z" />
<glyph horiz-adv-x="638" d="M274 744q96 0 139 -44.5t43 -135.5v-98l7 -7h102v-47h-102l-7 -8v-274q0 -39 16 -66.5t55 -27.5q37 0 58.5 15.5t32.5 30.5l19 -14q-5 -8 -14.5 -22t-24 -27t-35.5 -22t-50 -9q-76 0 -114 37t-38 109v270l-7 8h-59v18q42 16 66 35t36 37t15 34t3 28q0 81 -36 112.5 t-105 31.5q-44 0 -66 -29t-29 -68q-5 -30 -22.5 -43.5t-37.5 -13.5q-22 0 -40 15t-18 41q0 38 21.5 63.5t54 41.5t69 22.5t68.5 6.5zM171 40l54 -33v-7h-202v7l54 33v366l-54 25v7l148 43v-441z" />
<glyph horiz-adv-x="1113" d="M1047 40l54 -33v-7h-203v7l54 33v286q0 49 -23 67t-57 18q-24 0 -51.5 -14.5t-51.5 -31.5q-28 -20 -56 -47v-278l54 -33v-7h-203v7l54 33v634l-7 7h-196l-7 -7v-616l69 -51v-7h-247v7l70 51v616l-7 7h-191l-78 -114h-8l26 165h569l95 42h7v-403q36 28 71 50 q31 18 67.5 34t67.5 16q68 0 98 -39.5t30 -105.5v-286z" />
<glyph horiz-adv-x="975" d="M203 -12q-29 0 -56.5 5.5t-50.5 14.5t-41.5 21.5t-28.5 24.5v123h16q24 -75 66 -108.5t95 -33.5q42 0 67 20t25 63q0 26 -19 39.5t-47.5 23t-62 18.5t-62 24.5t-47.5 41.5t-19 69q0 37 16 62.5t41 42t55.5 24.5t60.5 8l-99 83q12 44 36.5 79.5t58 60t73 37.5t81.5 13 q91 0 146 -39.5t55 -123.5v-193q22 36 63 59.5t90 23.5q54 0 97 -19t72.5 -51.5t45.5 -76.5t16 -95q0 -54 -17 -98.5t-47.5 -76t-73 -49t-93.5 -17.5q-39 0 -75.5 19t-54.5 47v-290l54 -32v-7h-203v7l54 32v655l-54 33v7q10 0 24.5 4.5t28 15.5t22.5 29.5t9 45.5 q0 42 -11 71t-32 47t-50.5 26.5t-65.5 8.5q-61 0 -106.5 -40.5t-60.5 -112.5q16 -18 37 -37q17 -16 43 -34.5t58 -36.5l20 -9v-114h-10q-16 57 -50.5 79t-75.5 22q-15 0 -30.5 -4t-28 -13.5t-20 -23.5t-7.5 -36q0 -26 19.5 -40.5t48 -25t62.5 -19t62.5 -22.5t48 -37 t19.5 -62q0 -41 -15.5 -70t-41.5 -47.5t-59.5 -27t-70.5 -8.5zM839 229q0 91 -31 143t-93 52q-27 0 -50.5 -8.5t-41 -25t-28 -38.5t-10.5 -50v-136q0 -30 10.5 -54t28 -41t41 -26.5t50.5 -9.5q62 0 93 50.5t31 143.5z" />
<glyph horiz-adv-x="817" d="M50 611q0 32 16.5 57t42.5 42t58 25.5t62 8.5q38 0 70 -8t55 -28t36 -53t13 -83v-184q22 36 63 59.5t90 23.5q54 0 97 -19t73 -51.5t45.5 -76.5t15.5 -95q0 -54 -16.5 -98.5t-47.5 -76t-73.5 -49t-93.5 -17.5q-39 0 -75.5 19t-54.5 47v-290l64 -32v-7h-223v7l65 32v655 l-65 33v7q26 0 44 9.5t29 26.5t16.5 38.5t5.5 45.5q0 62 -25.5 95.5t-77.5 33.5q-22 0 -37.5 -9t-26.5 -22.5t-17.5 -30.5t-9.5 -35q-5 -30 -22.5 -43.5t-37.5 -13.5q-22 0 -40 15t-18 42zM680 229q0 91 -31 143t-93 52q-27 0 -50.5 -8.5t-41 -25t-28 -38.5t-10.5 -50v-136 q0 -30 10.5 -54t28 -41t41 -26.5t50.5 -9.5q62 0 93 50.5t31 143.5zM164 40l54 -33v-7h-203v7l55 33v366l-55 25v7l149 43v-441z" />
<glyph horiz-adv-x="708" d="M657 23q0 -8 -6 -15.5t-16 -7.5q-3 0 -7 1l-274 79l-273 -79q-4 -1 -7 -1q-10 0 -16.5 7t-6.5 16v609q0 17 17 22l276 80q6 2 10 2t11 -2l276 -80q16 -5 16 -22v-609zM332 685l-236 -69q3 -48 22.5 -90t51 -74t73 -52.5t89.5 -24.5v310zM377 375q47 4 89 24.5t73 52.5 t50.5 74t22.5 90l-235 69v-310zM95 52l237 69v209q-76 6 -138 44.5t-99 99.5v-422zM613 474q-38 -61 -99 -99.5t-137 -44.5v-209l236 -69v422z" />
</font>
</defs>
</svg>
